<svg width="1200" height="640" viewBox="0 0 1200 640" fill="none" xmlns="http://www.w3.org/2000/svg">
<g clip-path="url(#clip0_21_1907)">
<mask id="mask0_21_1907" style="mask-type:luminance" maskUnits="userSpaceOnUse" x="0" y="0" width="1200" height="640">
<path d="M1200 0H0V640H1200V0Z" fill="white"/>
</mask>
<g mask="url(#mask0_21_1907)">
<path d="M1200 0H0V640H1200V0Z" fill="#FCFCFC"/>
<g filter="url(#filter0_d_21_1907)">
<path d="M1200 0H0V43.75H1200V0Z" fill="white"/>
<path d="M45.9375 17.2031C45.9375 16.9323 45.9948 16.7344 46.1094 16.6094C46.2344 16.4844 46.4167 16.4219 46.6563 16.4219H48.8906C52.5469 16.4219 54.375 18.25 54.375 21.9062C54.375 23.2708 54.0886 24.375 53.5156 25.2187C52.9531 26.0521 52.2604 26.6406 51.4375 26.9844C50.625 27.3281 49.8021 27.5 48.9687 27.5H46.6563C46.4167 27.5 46.2344 27.4375 46.1094 27.3125C45.9948 27.1875 45.9375 26.9896 45.9375 26.7188V17.2031ZM47.625 26.6719H47.9688V26.6563H48.7031C49.8594 26.6563 50.7969 26.2656 51.5156 25.4844C52.2448 24.7031 52.6094 23.5104 52.6094 21.9062C52.6094 20.2812 52.25 19.0989 51.5312 18.3594C50.8229 17.6198 49.8802 17.25 48.7031 17.25H47.625V26.6719ZM62.0056 25.5312C62.1098 25.4167 62.24 25.3594 62.3962 25.3594C62.49 25.3594 62.5731 25.3906 62.6463 25.4531C62.7194 25.5156 62.7556 25.5937 62.7556 25.6875C62.7556 25.875 62.6881 26.0521 62.5525 26.2188C61.865 27.0729 60.9067 27.5 59.6775 27.5C58.4588 27.5 57.5369 27.1719 56.9119 26.5156C56.2973 25.8489 55.99 24.9323 55.99 23.7656C55.99 22.4323 56.3025 21.4167 56.9275 20.7188C57.5525 20.0104 58.4587 19.6563 59.6462 19.6563C60.5942 19.6563 61.3546 19.9271 61.9275 20.4688C62.5006 21.0104 62.7869 21.7864 62.7869 22.7969C62.7869 23.3073 62.49 23.5625 61.8962 23.5625H57.6931C57.6827 23.6458 57.6775 23.7604 57.6775 23.9062C57.6775 24.8021 57.8546 25.5104 58.2088 26.0313C58.5629 26.5521 59.1098 26.8125 59.8494 26.8125C60.3494 26.8125 60.7452 26.7083 61.0369 26.5C61.3286 26.2917 61.5525 26.0938 61.7088 25.9063C61.865 25.7083 61.9639 25.5833 62.0056 25.5312ZM59.5525 20.2813C59.0525 20.2813 58.6411 20.4948 58.3181 20.9219C57.9952 21.3489 57.8025 22.0104 57.74 22.9063H60.6619C60.8494 22.9063 60.9848 22.875 61.0681 22.8125C61.1514 22.7396 61.1931 22.6198 61.1931 22.4531C61.1931 21.7552 61.0264 21.2187 60.6931 20.8437C60.3702 20.4687 59.99 20.2813 59.5525 20.2813ZM70.1294 19.6563C70.275 19.6563 70.395 19.6875 70.4887 19.75C70.5825 19.8021 70.6294 19.8906 70.6294 20.0156C70.6294 20.1823 70.6031 20.3229 70.5513 20.4375L67.9419 27.1094C67.8375 27.3698 67.5356 27.5 67.0356 27.5C66.8375 27.5 66.6606 27.4687 66.5044 27.4062C66.3587 27.3437 66.2594 27.2448 66.2075 27.1094L63.645 20.4375C63.5931 20.3229 63.5669 20.2031 63.5669 20.0781C63.5669 19.7969 63.7594 19.6563 64.145 19.6563C64.4156 19.6563 64.6656 19.7448 64.895 19.9219C65.1244 20.0886 65.3012 20.3489 65.4263 20.7031L67.3169 25.9688H67.395L68.4575 23.1406C68.6344 22.6614 68.7856 22.2188 68.9106 21.8125C69.0356 21.3958 69.15 21 69.2544 20.625C69.3375 20.3125 69.4419 20.0729 69.5669 19.9063C69.6919 19.7396 69.8794 19.6563 70.1294 19.6563ZM77.4794 17.25C77.6569 16.9583 77.8181 16.75 77.9637 16.625C78.12 16.4896 78.2919 16.4219 78.4794 16.4219C78.6044 16.4219 78.7138 16.4583 78.8075 16.5313C78.9013 16.5938 78.9481 16.6823 78.9481 16.7969C78.9481 16.9531 78.8913 17.1094 78.7762 17.2656L76.1513 21.5313L79.2294 26.5625C79.3131 26.6979 79.3544 26.8438 79.3544 27C79.3544 27.1354 79.2975 27.2552 79.1825 27.3594C79.0681 27.4531 78.9225 27.5 78.745 27.5C78.4325 27.5 78.1825 27.4375 77.995 27.3125C77.8181 27.1875 77.6463 26.9792 77.4794 26.6875L75.1356 22.7031H75.0731L72.62 26.6563C72.4119 27 72.2244 27.2292 72.0575 27.3438C71.9012 27.4479 71.735 27.5 71.5575 27.5C71.4012 27.5 71.2819 27.4687 71.1981 27.4062C71.1256 27.3333 71.0887 27.25 71.0887 27.1563C71.0887 27.0104 71.1462 26.8438 71.2606 26.6563L74.3856 21.7812L71.7137 17.3281C71.6412 17.2136 71.6044 17.0886 71.6044 16.9531C71.6044 16.8073 71.6619 16.6823 71.7763 16.5781C71.9013 16.4739 72.0475 16.4219 72.2137 16.4219C72.7244 16.4219 73.1306 16.6979 73.4325 17.25L75.3856 20.7188H75.4794L77.4794 17.25Z" fill="black"/>
<path d="M1059.57 18.5095V25.73H1058.59V22.0562H1057.93V25.4126H1056.99V18.6999H1057.93V21.2469H1058.59V18.5095H1059.57ZM1056.48 19.3982C1056.48 21.4136 1055.87 23.0639 1053.84 24.2462L1053.25 23.548C1054.72 22.6831 1055.36 21.6238 1055.5 20.2075H1053.62V19.3982H1056.48ZM1061.58 18.8348V19.6917H1063.06V18.8348H1064.08V21.9849H1060.58V18.8348H1061.58ZM1061.58 21.1914H1063.06V20.4535H1061.58V21.1914ZM1066.09 18.5095V19.9139H1067.07V20.7312H1066.09V22.1832H1065.08V18.5095H1066.09ZM1066.09 22.453V24.4128H1062.31V24.881H1066.29V25.6824H1061.31V23.6908H1065.08V23.2385H1061.3V22.453H1066.09ZM1069.44 18.7237C1070.53 18.7237 1071.37 19.4061 1071.37 20.3741C1071.37 21.3263 1070.53 22.0166 1069.44 22.0166C1068.32 22.0166 1067.49 21.3263 1067.49 20.3741C1067.49 19.4061 1068.32 18.7237 1069.44 18.7237ZM1069.44 19.5489C1068.88 19.5489 1068.47 19.8504 1068.48 20.3741C1068.47 20.8899 1068.88 21.1993 1069.44 21.1993C1069.99 21.1993 1070.39 20.8899 1070.39 20.3741C1070.39 19.8504 1069.99 19.5489 1069.44 19.5489ZM1073.43 18.5095V22.1277H1072.41V18.5095H1073.43ZM1073.43 22.4292V24.3891H1069.59V24.8572H1073.63V25.6506H1068.6V23.6511H1072.43V23.2068H1068.58V22.4292H1073.43ZM1077.21 20.4773C1077.21 21.6437 1077.8 22.8894 1079.01 23.3972L1078.47 24.1907C1077.61 23.8296 1077.03 23.1116 1076.71 22.2308C1076.38 23.1869 1075.78 23.9804 1074.93 24.3732L1074.35 23.5717C1075.55 23.0402 1076.17 21.6992 1076.17 20.4773V20.0329H1074.64V19.2077H1078.71V20.0329H1077.21V20.4773ZM1080.45 18.5095V25.73H1079.43V18.5095H1080.45Z" fill="#9038FF"/>
<path d="M1144.49 19.4141V21.2549H1145.57V18.7396H1146.16V25.2856H1145.57V21.7706H1144.49V23.7463H1141.8V19.4141H1144.49ZM1142.39 19.9139V23.2464H1143.91V19.9139H1142.39ZM1147.58 18.5889V25.6427H1146.98V18.5889H1147.58ZM1155.02 24.2145V24.7382H1148.56V24.2145H1151.46V22.4927H1149.32V19.1839H1154.21V22.4927H1152.07V24.2145H1155.02ZM1149.93 19.6838V21.9928H1153.61V19.6838H1149.93Z" fill="black"/>
<g filter="url(#filter1_d_21_1907)">
<path d="M1091.25 12.8125H1043.75C1038.74 12.8125 1034.69 16.8699 1034.69 21.875C1034.69 26.8801 1038.74 30.9375 1043.75 30.9375H1091.25C1096.26 30.9375 1100.31 26.8801 1100.31 21.875C1100.31 16.8699 1096.26 12.8125 1091.25 12.8125Z" stroke="#FF0000" stroke-dasharray="12 2"/>
</g>
</g>
<path d="M557.5 177.656H288.125C286.14 177.656 284.531 179.265 284.531 181.25V458.125C284.531 460.11 286.14 461.719 288.125 461.719H557.5C559.485 461.719 561.094 460.11 561.094 458.125V181.25C561.094 179.265 559.485 177.656 557.5 177.656Z" fill="white"/>
<path d="M557.5 177.656H288.125C286.14 177.656 284.531 179.265 284.531 181.25V458.125C284.531 460.11 286.14 461.719 288.125 461.719H557.5C559.485 461.719 561.094 460.11 561.094 458.125V181.25C561.094 179.265 559.485 177.656 557.5 177.656Z" stroke="#888888" stroke-width="0.5"/>
<g filter="url(#filter2_d_21_1907)">
<path d="M505 395.625H340.625C330.27 395.625 321.875 404.02 321.875 414.375C321.875 424.73 330.27 433.125 340.625 433.125H505C515.355 433.125 523.75 424.73 523.75 414.375C523.75 404.02 515.355 395.625 505 395.625Z" fill="#9038FF"/>
<path d="M395.664 409.611C397.125 409.622 398.191 410.501 398.191 411.775C398.191 413.049 397.125 413.928 395.664 413.928C394.181 413.928 393.126 413.049 393.126 411.775C393.126 410.501 394.181 409.622 395.664 409.611ZM395.664 410.336C394.686 410.336 393.961 410.929 393.972 411.775C393.961 412.632 394.686 413.225 395.664 413.225C396.631 413.225 397.356 412.632 397.356 411.775C397.356 410.929 396.631 410.336 395.664 410.336ZM400.96 409.248V414.269H400.103V409.248H400.96ZM400.96 414.741V417.092H395.478V418.191H401.311V418.883H394.631V416.444H400.103V415.433H394.61V414.741H400.96ZM406.112 412.247C406.112 413.906 407.321 415.587 408.76 416.213L408.276 416.894C407.134 416.372 406.145 415.247 405.695 413.895C405.233 415.329 404.25 416.576 403.135 417.136L402.618 416.455C404.014 415.785 405.233 413.939 405.245 412.247V410.973H402.937V410.259H408.441V410.973H406.112V412.247ZM410.671 409.248V419.015H409.804V409.248H410.671ZM418.472 411.061C418.472 412.357 419.428 413.544 420.878 414.049L420.438 414.719C419.323 414.324 418.472 413.522 418.055 412.511C417.637 413.621 416.741 414.483 415.593 414.906L415.132 414.236C416.593 413.719 417.615 412.456 417.626 411.061V410.643H415.396V409.94H420.669V410.643H418.472V411.061ZM422.8 409.248V411.83H424.273V412.566H422.8V415.137H421.943V409.248H422.8ZM422.8 415.653V419.015H421.943V416.356H416.406V415.653H422.8ZM428.25 410.786C428.239 412.181 429.228 413.412 430.666 413.895L430.183 414.566C429.106 414.159 428.261 413.368 427.843 412.335C427.42 413.505 426.525 414.417 425.35 414.862L424.877 414.159C426.382 413.632 427.382 412.335 427.393 410.819V409.808H428.25V410.786ZM432.985 409.248V415.038H432.117V412.061H429.941V411.346H432.117V409.248H432.985ZM429.744 415.324C431.776 415.324 433.018 415.994 433.018 417.169C433.018 418.334 431.776 418.993 429.744 418.993C427.711 418.993 426.47 418.334 426.47 417.169C426.47 415.994 427.711 415.324 429.744 415.324ZM429.744 416.004C428.25 416.004 427.316 416.444 427.327 417.169C427.316 417.872 428.25 418.301 429.744 418.301C431.238 418.301 432.161 417.872 432.161 417.169C432.161 416.444 431.238 416.004 429.744 416.004ZM442.17 409.248V413.28H443.806V413.994H442.17V419.015H441.313V409.248H442.17ZM440.368 410.819V411.533H434.556V410.819H437.071V409.369H437.929V410.819H440.368ZM437.511 412.346C438.895 412.346 439.895 413.269 439.906 414.588C439.895 415.906 438.895 416.829 437.511 416.829C436.116 416.829 435.105 415.906 435.116 414.588C435.105 413.269 436.116 412.346 437.511 412.346ZM437.511 413.071C436.6 413.071 435.929 413.709 435.94 414.588C435.929 415.478 436.6 416.104 437.511 416.092C438.412 416.104 439.071 415.478 439.082 414.588C439.071 413.709 438.412 413.071 437.511 413.071ZM452.409 409.248V419.015H451.541V409.248H452.409ZM449.519 410.314C449.508 413.126 448.201 415.609 444.927 417.18L444.455 416.477C447.096 415.224 448.443 413.351 448.64 411.017H444.905V410.314H449.519Z" fill="white"/>
</g>
<path d="M335.774 359.767V372.541H334.048V366.154H332.854V371.924H331.17V359.978H332.854V364.708H334.048V359.767H335.774ZM327.07 361.185V367.853C328.095 367.832 329.218 367.741 330.454 367.502L330.636 369.046C328.923 369.341 327.463 369.425 326.144 369.425H325.274V361.185H327.07ZM347.257 359.767V364.666H349.068V366.14H347.257V372.513H345.46V359.767H347.257ZM343.846 361.073C343.832 364.891 342.344 368.204 338.048 370.309L337.038 368.934C340.063 367.418 341.684 365.382 342.021 362.533H337.768V361.073H343.846ZM359.428 360.82V366.954H353.294V360.82H359.428ZM355.063 362.252V365.551H357.66V362.252H355.063ZM363.05 359.767V363.445H364.777V364.919H363.05V369.088H361.253V359.767H363.05ZM363.513 370.885V372.317H354.768V368.176H356.55V370.885H363.513ZM377.018 366.07V367.502H365.338V366.07H377.018ZM375.741 363.599V365.031H366.756V360.23H375.614V361.662H368.539V363.599H375.741ZM375.811 370.871V372.303H366.742V368.499H368.511V370.871H375.811ZM392.769 369.566V371.054H381.075V369.566H392.769ZM391.786 360.89V362.322H389.989V366.196H391.73V367.6H382.044V366.196H383.756V362.322H381.988V360.89H391.786ZM385.553 366.196H388.22V362.322H385.553V366.196ZM405.193 369.649V371.124H393.499V369.649H398.426V367.726H394.846V363.431H402.076V362.027H394.832V360.595H403.845V364.834H396.643V366.266H404.14V367.726H400.209V369.649H405.193ZM414.36 360.019V367.488H412.661V364.371H411.243V362.926H412.661V360.019H414.36ZM409.951 362.518C409.951 363.866 410.625 365.199 412.268 365.831L411.369 367.207C410.281 366.786 409.545 366.028 409.109 365.101C408.639 366.14 407.853 366.989 406.68 367.46L405.74 366.042C407.495 365.382 408.211 363.922 408.211 362.504V362.125H406.175V360.693H411.861V362.125H409.951V362.518ZM416.9 359.767V367.558H415.201V359.767H416.9ZM416.9 368.021V372.541H415.118V369.439H408.07V368.021H416.9ZM428.763 366.365V367.783H419.722V360.708H428.664V362.153H421.547V363.501H428.37V364.905H421.547V366.365H428.763ZM430.04 369.594V371.054H418.346V369.594H430.04ZM442.45 365.494V366.828H430.756V365.494H442.45ZM441.046 367.46V370.478H433.886V371.208H441.425V372.429H432.103V369.341H439.277V368.695H432.09V367.46H441.046ZM441.031 359.991V362.996H433.998V363.684H441.256V364.891H432.216V361.859H439.235V361.213H432.188V359.991H441.031ZM457.274 359.767V367.348H455.491V364.329H453.498V362.883H455.491V359.767H457.274ZM452.908 367.628C455.631 367.643 457.302 368.541 457.316 370.099C457.302 371.643 455.631 372.556 452.908 372.556C450.185 372.556 448.514 371.643 448.514 370.099C448.514 368.541 450.185 367.643 452.908 367.628ZM452.908 369.004C451.21 369.004 450.297 369.355 450.297 370.099C450.297 370.829 451.21 371.194 452.908 371.194C454.606 371.194 455.533 370.829 455.533 370.099C455.533 369.355 454.606 369.004 452.908 369.004ZM453.876 360.539V361.971H451.336C451.378 363.459 452.276 364.961 454.27 365.621L453.385 367.024C451.975 366.568 451.006 365.642 450.451 364.484C449.883 365.789 448.865 366.842 447.349 367.361L446.422 365.944C448.521 365.242 449.461 363.571 449.511 361.971H446.941V360.539H453.876ZM469.641 359.767V372.569H467.858V359.767H469.641ZM465.683 360.834V365.761H461.471V368.106C463.415 368.099 465.072 367.986 466.946 367.684L467.1 369.13C464.995 369.495 463.1 369.579 460.769 369.579H459.618V364.343H463.858V362.279H459.604V360.834H465.683ZM477.516 361.718V363.136H471.34V361.718H473.558V360.118H475.326V361.718H477.516ZM474.456 363.711C476.085 363.711 477.25 364.975 477.264 366.744C477.25 368.527 476.085 369.79 474.456 369.79C472.828 369.79 471.635 368.527 471.635 366.744C471.635 364.975 472.828 363.711 474.456 363.711ZM474.456 365.199C473.712 365.199 473.207 365.775 473.207 366.744C473.207 367.713 473.712 368.274 474.456 368.274C475.172 368.274 475.678 367.713 475.691 366.744C475.678 365.775 475.172 365.199 474.456 365.199ZM482.402 359.767V372.541H480.703V366.393H479.665V371.994H477.994V360.019H479.665V364.961H480.703V359.767H482.402ZM495.471 369.594V371.054H483.778V369.594H488.705V367.235H485.013V360.581H486.81V362.561H492.383V360.581H494.166V367.235H490.488V369.594H495.471ZM486.81 365.803H492.383V363.993H486.81V365.803ZM500.3 362.982C500.3 365.045 500.876 367.179 502.617 368.302L501.648 369.692C500.546 369.025 499.844 367.93 499.444 366.618C498.981 368.063 498.216 369.271 497.058 369.973L495.963 368.653C497.858 367.474 498.56 365.228 498.56 363.066V360.862H500.3V362.982ZM507.278 359.767V372.541H505.565V359.767H507.278ZM504.596 359.949V371.952H502.926V365.536H501.269V364.076H502.926V359.949H504.596ZM520.319 369.579V371.054H508.625V369.579H511.236V366.449C510.246 365.859 509.65 364.954 509.65 363.824C509.65 361.76 511.671 360.384 514.451 360.384C517.216 360.384 519.252 361.76 519.266 363.824C519.259 364.926 518.676 365.824 517.721 366.421V369.579H520.319ZM514.451 361.803C512.626 361.803 511.419 362.533 511.419 363.824C511.419 365.073 512.626 365.846 514.451 365.846C516.262 365.846 517.483 365.073 517.497 363.824C517.483 362.533 516.262 361.803 514.451 361.803ZM513.005 369.579H515.911V367.095C515.455 367.186 514.963 367.235 514.451 367.235C513.938 367.235 513.454 367.193 513.005 367.095V369.579Z" fill="black"/>
<path d="M404.57 258.75C404.57 257.973 404.879 257.228 405.428 256.678C405.978 256.129 406.723 255.82 407.5 255.82H438.75C439.527 255.82 440.272 256.129 440.822 256.678C441.371 257.228 441.679 257.973 441.679 258.75C441.679 259.527 441.371 260.272 440.822 260.822C440.272 261.371 439.527 261.679 438.75 261.679H407.5C406.723 261.679 405.978 261.371 405.428 260.822C404.879 260.272 404.57 259.527 404.57 258.75ZM407.5 277.304H438.75C439.527 277.304 440.272 276.996 440.822 276.447C441.371 275.897 441.679 275.152 441.679 274.375C441.679 273.598 441.371 272.853 440.822 272.303C440.272 271.754 439.527 271.445 438.75 271.445H407.5C406.723 271.445 405.978 271.754 405.428 272.303C404.879 272.853 404.57 273.598 404.57 274.375C404.57 275.152 404.879 275.897 405.428 276.447C405.978 276.996 406.723 277.304 407.5 277.304ZM423.125 287.07H407.5C406.723 287.07 405.978 287.379 405.428 287.928C404.879 288.478 404.57 289.223 404.57 290C404.57 290.777 404.879 291.522 405.428 292.072C405.978 292.621 406.723 292.929 407.5 292.929H423.125C423.902 292.929 424.647 292.621 425.197 292.072C425.746 291.522 426.054 290.777 426.054 290C426.054 289.223 425.746 288.478 425.197 287.928C424.647 287.379 423.902 287.07 423.125 287.07ZM469.023 235.312V288.384C469.025 289.282 468.849 290.171 468.505 291.001C468.162 291.831 467.657 292.584 467.021 293.218L441.967 318.271C441.334 318.908 440.58 319.412 439.75 319.756C438.921 320.099 438.032 320.275 437.134 320.273H384.062C382.249 320.273 380.51 319.553 379.229 318.271C377.947 316.989 377.226 315.251 377.226 313.438V235.312C377.226 233.499 377.947 231.761 379.229 230.479C380.51 229.197 382.249 228.476 384.062 228.476H462.187C464 228.476 465.739 229.197 467.021 230.479C468.303 231.761 469.023 233.499 469.023 235.312ZM384.062 314.414H435.82V290C435.82 289.223 436.129 288.478 436.678 287.928C437.228 287.379 437.973 287.07 438.75 287.07H463.164V235.312C463.164 235.054 463.061 234.805 462.878 234.622C462.695 234.439 462.446 234.336 462.187 234.336H384.062C383.804 234.336 383.555 234.439 383.372 234.622C383.189 234.805 383.085 235.054 383.085 235.312V313.438C383.085 313.696 383.189 313.945 383.372 314.128C383.555 314.311 383.804 314.414 384.062 314.414ZM459.024 292.929H441.679V310.274L459.024 292.929Z" fill="black"/>
<path d="M911.25 177.656H641.875C639.89 177.656 638.281 179.265 638.281 181.25V458.125C638.281 460.11 639.89 461.719 641.875 461.719H911.25C913.235 461.719 914.844 460.11 914.844 458.125V181.25C914.844 179.265 913.235 177.656 911.25 177.656Z" fill="white"/>
<path d="M911.25 177.656H641.875C639.89 177.656 638.281 179.265 638.281 181.25V458.125C638.281 460.11 639.89 461.719 641.875 461.719H911.25C913.235 461.719 914.844 460.11 914.844 458.125V181.25C914.844 179.265 913.235 177.656 911.25 177.656Z" stroke="#888888" stroke-width="0.5"/>
<g filter="url(#filter3_d_21_1907)">
<path d="M858.75 395.625H694.375C684.02 395.625 675.625 404.02 675.625 414.375C675.625 424.73 684.02 433.125 694.375 433.125H858.75C869.105 433.125 877.5 424.73 877.5 414.375C877.5 404.02 869.105 395.625 858.75 395.625Z" fill="#9038FF"/>
<path d="M749.413 409.611C750.875 409.622 751.944 410.501 751.944 411.775C751.944 413.049 750.875 413.928 749.413 413.928C747.931 413.928 746.875 413.049 746.875 411.775C746.875 410.501 747.931 409.622 749.413 409.611ZM749.413 410.336C748.438 410.336 747.712 410.929 747.725 411.775C747.712 412.632 748.438 413.225 749.413 413.225C750.381 413.225 751.106 412.632 751.106 411.775C751.106 410.929 750.381 410.336 749.413 410.336ZM754.713 409.248V414.269H753.85V409.248H754.713ZM754.713 414.741V417.093H749.225V418.191H755.062V418.883H748.381V416.444H753.85V415.433H748.363V414.741H754.713ZM759.863 412.248C759.863 413.906 761.069 415.587 762.513 416.213L762.025 416.894C760.881 416.373 759.894 415.247 759.444 413.895C758.981 415.329 758 416.576 756.888 417.136L756.369 416.455C757.762 415.785 758.981 413.939 758.994 412.248V410.973H756.687V410.259H762.194V410.973H759.863V412.248ZM764.419 409.248V419.015H763.556V409.248H764.419ZM776.537 409.259V412.214H778V412.939H776.537V415.807H775.669V409.259H776.537ZM768.869 414.807C769.65 414.807 770.563 414.807 771.519 414.774V414.06C770.381 413.961 769.65 413.428 769.65 412.621C769.65 411.731 770.562 411.182 771.937 411.182C773.319 411.182 774.219 411.731 774.231 412.621C774.219 413.423 773.506 413.956 772.375 414.06V414.741C773.288 414.698 774.212 414.626 775.069 414.499L775.144 415.126C773.025 415.499 770.681 415.51 768.969 415.51L768.869 414.807ZM776.537 416.29V419.015H775.669V416.983H770.069V416.29H776.537ZM774.769 410.149V410.808H769.112V410.149H771.519V409.171H772.375V410.149H774.769ZM771.937 411.797C771.037 411.786 770.475 412.104 770.475 412.621C770.475 413.126 771.037 413.478 771.937 413.467C772.837 413.478 773.406 413.126 773.406 412.621C773.406 412.104 772.837 411.786 771.937 411.797ZM786.7 409.259V416.4H785.844V409.259H786.7ZM787.006 418.081V418.806H780.394V415.675H781.25V418.081H787.006ZM781.431 409.94C782.888 409.94 783.988 410.929 783.988 412.335C783.988 413.763 782.888 414.741 781.431 414.741C779.969 414.741 778.869 413.763 778.869 412.335C778.869 410.929 779.969 409.94 781.431 409.94ZM781.431 410.698C780.438 410.698 779.706 411.379 779.713 412.335C779.706 413.313 780.438 413.983 781.431 413.983C782.394 413.983 783.144 413.313 783.144 412.335C783.144 411.379 782.394 410.698 781.431 410.698ZM795.919 409.248V413.28H797.556V413.994H795.919V419.015H795.062V409.248H795.919ZM794.119 410.819V411.533H788.306V410.819H790.819V409.369H791.681V410.819H794.119ZM791.263 412.346C792.644 412.346 793.644 413.269 793.656 414.588C793.644 415.906 792.644 416.829 791.263 416.829C789.869 416.829 788.856 415.906 788.869 414.588C788.856 413.269 789.869 412.346 791.263 412.346ZM791.263 413.071C790.35 413.071 789.681 413.709 789.688 414.588C789.681 415.478 790.35 416.104 791.263 416.092C792.163 416.104 792.819 415.478 792.831 414.588C792.819 413.709 792.163 413.071 791.263 413.071ZM806.156 409.248V419.015H805.287V409.248H806.156ZM803.269 410.314C803.256 413.126 801.95 415.609 798.675 417.18L798.206 416.477C800.844 415.224 802.194 413.351 802.387 411.017H798.656V410.314H803.269Z" fill="white"/>
</g>
<path d="M683.9 359.767V372.541H682.175V366.154H680.981V371.924H679.294V359.977H680.981V364.708H682.175V359.767H683.9ZM675.194 361.185V367.853C676.219 367.832 677.344 367.741 678.581 367.502L678.762 369.046C677.05 369.341 675.587 369.425 674.269 369.425H673.4V361.185H675.194ZM695.381 359.767V364.666H697.194V366.14H695.381V372.513H693.587V359.767H695.381ZM691.969 361.073C691.956 364.891 690.469 368.204 686.175 370.309L685.162 368.934C688.187 367.418 689.806 365.382 690.144 362.533H685.894V361.073H691.969ZM708.3 360.511V361.942H705.756C705.769 363.437 706.656 364.968 708.731 365.635L707.819 367.024C706.4 366.568 705.425 365.656 704.869 364.512C704.306 365.761 703.287 366.751 701.8 367.235L700.844 365.859C702.956 365.179 703.919 363.543 703.944 361.942H701.331V360.511H708.3ZM711.175 359.767V362.869H712.9V364.357H711.175V367.474H709.375V359.767H711.175ZM711.175 368.021V372.541H709.375V369.439H702.569V368.021H711.175ZM718.294 361.507C718.281 363.22 719.162 364.793 721.212 365.424L720.269 366.828C718.894 366.351 717.962 365.466 717.437 364.315C716.862 365.649 715.831 366.702 714.294 367.221L713.35 365.789C715.544 365.088 716.469 363.374 716.481 361.592V360.427H718.294V361.507ZM724.231 359.767V367.249H722.45V363.571H720.05V362.111H722.45V359.767H724.231ZM719.862 367.586C722.587 367.586 724.256 368.499 724.275 370.071C724.256 371.643 722.587 372.541 719.862 372.541C717.144 372.541 715.469 371.643 715.469 370.071C715.469 368.499 717.144 367.586 719.862 367.586ZM719.862 368.976C718.169 368.976 717.256 369.341 717.256 370.071C717.256 370.772 718.169 371.152 719.862 371.152C721.562 371.152 722.487 370.772 722.487 370.071C722.487 369.341 721.562 368.976 719.862 368.976ZM736.025 359.781V363.698H737.75V365.158H736.025V369.313H734.225V359.781H736.025ZM733.469 361.114V362.533H725.887V361.114H728.794V359.753H730.575V361.114H733.469ZM729.675 362.982C731.531 362.982 732.819 363.978 732.819 365.452C732.819 366.926 731.531 367.895 729.675 367.895C727.812 367.895 726.506 366.926 726.506 365.452C726.506 363.978 727.812 362.982 729.675 362.982ZM729.675 364.343C728.819 364.357 728.244 364.751 728.256 365.452C728.244 366.154 728.819 366.533 729.675 366.533C730.531 366.533 731.125 366.154 731.125 365.452C731.125 364.751 730.531 364.357 729.675 364.343ZM736.487 370.885V372.317H727.737V368.582H729.525V370.885H736.487ZM752.644 359.767V372.541H750.919V366.042H749.75V371.98H748.081V360.104H749.75V364.61H750.919V359.767H752.644ZM747.181 361.339C747.169 364.905 746.1 367.825 742.506 369.916L741.469 368.681C744.075 367.151 745.187 365.277 745.444 362.771H742.112V361.339H747.181ZM756.206 360.342V361.859H758.819V360.342H760.619V365.916H754.425V360.342H756.206ZM756.206 364.512H758.819V363.206H756.206V364.512ZM764.181 359.767V362.252H765.912V363.698H764.181V366.266H762.387V359.767H764.181ZM764.181 366.744V370.211H757.487V371.039H764.55V372.458H755.731V368.934H762.4V368.134H755.706V366.744H764.181ZM770.106 360.146C772.044 360.146 773.519 361.353 773.519 363.066C773.519 364.751 772.044 365.972 770.106 365.972C768.125 365.972 766.669 364.751 766.669 363.066C766.669 361.353 768.125 360.146 770.106 360.146ZM770.106 361.606C769.125 361.606 768.394 362.139 768.406 363.066C768.394 363.978 769.125 364.526 770.106 364.526C771.075 364.526 771.794 363.978 771.794 363.066C771.794 362.139 771.075 361.606 770.106 361.606ZM777.169 359.767V366.168H775.369V359.767H777.169ZM777.169 366.702V370.169H770.375V370.998H777.519V372.401H768.619V368.864H775.387V368.078H768.594V366.702H777.169ZM783.85 363.248C783.85 365.312 784.9 367.516 787.05 368.414L786.081 369.818C784.575 369.179 783.531 367.909 782.969 366.351C782.381 368.043 781.325 369.446 779.819 370.141L778.794 368.723C780.919 367.782 782.012 365.41 782.012 363.248V362.462H779.3V361.003H786.519V362.462H783.85V363.248ZM789.594 359.767V372.541H787.781V359.767H789.594ZM803 365.494V366.828H791.306V365.494H803ZM801.594 367.46V370.478H794.437V371.208H801.975V372.429H792.65V369.341H799.825V368.695H792.637V367.46H801.594ZM801.581 359.991V362.996H794.55V363.684H801.806V364.891H792.762V361.859H799.781V361.213H792.737V359.991H801.581ZM817.275 359.781V363.431H818.906V364.905H817.275V368.456H815.475V359.781H817.275ZM806.912 366.814C807.85 366.814 808.912 366.814 810.019 366.786V366.07C808.625 365.873 807.756 365.199 807.769 364.217C807.756 363.038 809.006 362.308 810.9 362.308C812.781 362.308 814.019 363.038 814.031 364.217C814.019 365.199 813.169 365.866 811.8 366.056V366.716C812.85 366.674 813.9 366.589 814.887 366.463L815.012 367.698C812.319 368.176 809.356 368.204 807.1 368.204L806.912 366.814ZM817.275 368.976V372.541H815.475V370.351H808.544V368.976H817.275ZM814.562 360.708V362.013H807.25V360.708H810.019V359.669H811.8V360.708H814.562ZM810.9 363.501C809.987 363.501 809.469 363.726 809.481 364.217C809.469 364.68 809.987 364.947 810.9 364.947C811.8 364.947 812.306 364.68 812.319 364.217C812.306 363.726 811.8 363.501 810.9 363.501ZM830.175 359.781V368.962H828.381V359.781H830.175ZM830.512 370.885V372.317H821.612V368.035H823.425V370.885H830.512ZM823.169 360.595C825.137 360.595 826.669 361.943 826.669 363.81C826.669 365.719 825.137 367.052 823.169 367.052C821.206 367.052 819.675 365.719 819.675 363.81C819.675 361.943 821.206 360.595 823.169 360.595ZM823.169 362.153C822.175 362.139 821.419 362.771 821.431 363.81C821.419 364.877 822.175 365.494 823.169 365.494C824.137 365.494 824.9 364.877 824.9 363.81C824.9 362.771 824.137 362.139 823.169 362.153ZM838.062 361.718V363.136H831.887V361.718H834.106V360.117H835.875V361.718H838.062ZM835.006 363.711C836.631 363.711 837.8 364.975 837.812 366.744C837.8 368.527 836.631 369.79 835.006 369.79C833.375 369.79 832.181 368.527 832.181 366.744C832.181 364.975 833.375 363.711 835.006 363.711ZM835.006 365.199C834.262 365.199 833.756 365.775 833.756 366.744C833.756 367.712 834.262 368.274 835.006 368.274C835.719 368.274 836.225 367.712 836.237 366.744C836.225 365.775 835.719 365.199 835.006 365.199ZM842.95 359.767V372.541H841.25V366.393H840.212V371.994H838.544V360.019H840.212V364.961H841.25V359.767H842.95ZM856.019 369.594V371.054H844.325V369.594H849.256V367.235H845.562V360.581H847.356V362.561H852.931V360.581H854.712V367.235H851.037V369.594H856.019ZM847.356 365.803H852.931V363.993H847.356V365.803ZM860.85 362.982C860.85 365.045 861.425 367.179 863.162 368.302L862.194 369.692C861.094 369.025 860.394 367.93 859.994 366.618C859.531 368.063 858.762 369.271 857.606 369.972L856.512 368.653C858.406 367.474 859.106 365.228 859.106 363.066V360.862H860.85V362.982ZM867.825 359.767V372.541H866.112V359.767H867.825ZM865.144 359.949V371.952H863.475V365.536H861.819V364.076H863.475V359.949H865.144ZM880.869 369.579V371.054H869.175V369.579H871.787V366.449C870.794 365.859 870.2 364.954 870.2 363.824C870.2 361.76 872.219 360.384 875 360.384C877.762 360.384 879.8 361.76 879.812 363.824C879.806 364.926 879.225 365.824 878.269 366.421V369.579H880.869ZM875 361.802C873.175 361.802 871.969 362.532 871.969 363.824C871.969 365.073 873.175 365.846 875 365.846C876.812 365.846 878.031 365.073 878.044 363.824C878.031 362.532 876.812 361.802 875 361.802ZM873.556 369.579H876.456V367.095C876 367.186 875.512 367.235 875 367.235C874.487 367.235 874 367.193 873.556 367.095V369.579Z" fill="black"/>
<path d="M761.25 318.229L728.906 285.886L743.644 271.146L761.25 288.802L812.706 237.292L827.45 252.031L761.25 318.229Z" fill="black"/>
<g filter="url(#filter4_d_21_1907)">
<path d="M859.375 385.312H694.375C678.324 385.312 665.312 398.324 665.312 414.375C665.312 430.426 678.324 443.438 694.375 443.438H859.375C875.426 443.438 888.438 430.426 888.438 414.375C888.438 398.324 875.426 385.312 859.375 385.312Z" stroke="#FF0000" stroke-dasharray="12 2"/>
</g>
<g filter="url(#filter5_d_21_1907)">
<path d="M505.625 385.312H340.625C324.574 385.312 311.562 398.324 311.562 414.375C311.562 430.426 324.574 443.438 340.625 443.438H505.625C521.676 443.438 534.688 430.426 534.688 414.375C534.688 398.324 521.676 385.312 505.625 385.312Z" stroke="#FF0000" stroke-dasharray="12 2"/>
</g>
<path d="M498.125 457.656H406.875C390.393 457.656 377.031 471.018 377.031 487.5C377.031 503.982 390.393 517.344 406.875 517.344H498.125C514.607 517.344 527.969 503.982 527.969 487.5C527.969 471.018 514.607 457.656 498.125 457.656Z" fill="white"/>
<path d="M498.125 457.656H406.875C390.393 457.656 377.031 471.018 377.031 487.5C377.031 503.982 390.393 517.344 406.875 517.344H498.125C514.607 517.344 527.969 503.982 527.969 487.5C527.969 471.018 514.607 457.656 498.125 457.656Z" stroke="black" stroke-width="0.5"/>
<path d="M431.639 470.366V479.611H430.83V474.475H428.62V477.277H424.366V471.093H425.185V473.5H427.821V471.093H428.62V473.801H430.83V470.366H431.639ZM425.185 476.602H427.821V474.154H425.185V476.602ZM441.579 475.482V476.146H433.164V475.482H441.579ZM440.697 478.709V479.393H434.264V476.82H435.074V478.709H440.697ZM440.583 473.967V474.61H434.285V470.719H440.531V471.373H435.104V472.338H440.282V472.971H435.104V473.967H440.583ZM446.56 470.533C448.614 470.533 449.817 471.093 449.817 472.12C449.817 473.168 448.614 473.728 446.56 473.738C444.505 473.728 443.291 473.168 443.291 472.12C443.291 471.093 444.505 470.533 446.56 470.533ZM446.56 471.144C445.024 471.144 444.132 471.518 444.142 472.12C444.132 472.763 445.024 473.116 446.56 473.116C448.085 473.116 448.987 472.763 448.987 472.12C448.987 471.518 448.085 471.144 446.56 471.144ZM450.762 474.361V475.025H442.357V474.361H450.762ZM449.683 475.824V477.889H444.204V478.843H449.963V479.487H443.395V477.287H448.884V476.446H443.374V475.824H449.683ZM461.657 473.479V474.154H455.296V470.844H456.106V473.479H461.657ZM462.653 475.544V476.229H458.793V479.591H457.984V476.229H454.207V475.544H462.653ZM471.836 477.744V478.428H463.389V477.744H471.836ZM470.767 471.072V473.863H465.257V475.378H470.985V476.031H464.448V473.199H469.968V471.746H464.427V471.072H470.767ZM477.241 471.176V471.995H479.4V470.377H480.219V477.111H479.4V474.651H477.241V475.482H473.008V471.176H477.241ZM473.817 471.85V474.828H476.442V471.85H473.817ZM480.427 478.709V479.393H474.253V476.509H475.073V478.709H480.427ZM477.241 473.977H479.4V472.68H477.241V473.977ZM406.908 483.209C408.288 483.219 409.294 484.049 409.294 485.253C409.294 486.456 408.288 487.286 406.908 487.286C405.507 487.286 404.511 486.456 404.511 485.253C404.511 484.049 405.507 483.219 406.908 483.209ZM406.908 483.893C405.984 483.893 405.299 484.454 405.31 485.253C405.299 486.062 405.984 486.623 406.908 486.623C407.821 486.623 408.506 486.062 408.506 485.253C408.506 484.454 407.821 483.893 406.908 483.893ZM411.909 482.866V487.608H411.1V482.866H411.909ZM411.909 488.054V490.274H406.732V491.313H412.241V491.966H405.932V489.663H411.1V488.708H405.912V488.054H411.909ZM416.776 485.699C416.776 487.266 417.917 488.853 419.276 489.444L418.819 490.088C417.741 489.595 416.807 488.531 416.381 487.255C415.946 488.609 415.017 489.787 413.964 490.316L413.476 489.673C414.794 489.04 415.946 487.297 415.956 485.699V484.495H413.777V483.821H418.975V484.495H416.776V485.699ZM421.081 482.866V492.091H420.262V482.866H421.081ZM428.449 484.578C428.449 485.803 429.351 486.923 430.721 487.401L430.306 488.034C429.252 487.66 428.449 486.903 428.054 485.948C427.66 486.996 426.814 487.811 425.73 488.21L425.294 487.577C426.674 487.089 427.639 485.896 427.649 484.578V484.184H425.543V483.52H430.524V484.184H428.449V484.578ZM432.537 482.866V485.304H433.927V486H432.537V488.428H431.727V482.866H432.537ZM432.537 488.916V492.091H431.727V489.579H426.497V488.916H432.537ZM437.683 484.319C437.672 485.637 438.607 486.799 439.966 487.255L439.509 487.888C438.492 487.504 437.694 486.758 437.299 485.782C436.9 486.887 436.054 487.748 434.944 488.168L434.497 487.504C435.919 487.006 436.863 485.782 436.874 484.35V483.396H437.683V484.319ZM442.155 482.866V488.334H441.336V485.523H439.281V484.848H441.336V482.866H442.155ZM439.094 488.604C441.014 488.604 442.186 489.237 442.186 490.348C442.186 491.447 441.014 492.07 439.094 492.07C437.174 492.07 436.002 491.447 436.002 490.348C436.002 489.237 437.174 488.604 439.094 488.604ZM439.094 489.248C437.683 489.248 436.801 489.663 436.811 490.348C436.801 491.011 437.683 491.416 439.094 491.416C440.506 491.416 441.377 491.011 441.377 490.348C441.377 489.663 440.506 489.248 439.094 489.248ZM450.829 482.866V486.674H452.376V487.349H450.829V492.091H450.02V482.866H450.829ZM449.127 484.35V485.024H443.639V484.35H446.015V482.981H446.824V484.35H449.127ZM446.43 485.793C447.737 485.793 448.682 486.664 448.692 487.909C448.682 489.154 447.737 490.026 446.43 490.026C445.112 490.026 444.157 489.154 444.168 487.909C444.157 486.664 445.112 485.793 446.43 485.793ZM446.43 486.477C445.569 486.477 444.936 487.079 444.946 487.909C444.936 488.749 445.569 489.341 446.43 489.331C447.281 489.341 447.904 488.749 447.914 487.909C447.904 487.079 447.281 486.477 446.43 486.477ZM460.5 482.866V492.091H459.68V482.866H460.5ZM457.771 483.873C457.761 486.529 456.526 488.874 453.434 490.358L452.987 489.694C455.483 488.511 456.754 486.742 456.941 484.537H453.413V483.873H457.771ZM472.661 482.866V492.091H471.872V482.866H472.661ZM470.855 483.094V491.603H470.077V487.11H468.79V486.373H470.077V483.094H470.855ZM469.06 484.049V484.724H468.282V488.988C468.629 488.968 468.961 488.936 469.267 488.894L469.319 489.496C467.867 489.766 465.926 489.808 464.723 489.808L464.619 489.113L465.594 489.102V484.724H464.816V484.049H469.06ZM466.341 489.092C466.726 489.081 467.13 489.066 467.524 489.04V484.724H466.341V489.092ZM481.511 482.866V492.111H480.691V482.866H481.511ZM476.603 483.582C477.973 483.593 478.959 484.838 478.959 486.799C478.959 488.76 477.973 490.005 476.603 490.005C475.223 490.005 474.248 488.76 474.248 486.799C474.248 484.838 475.223 483.593 476.603 483.582ZM476.603 484.309C475.68 484.319 475.037 485.294 475.037 486.799C475.037 488.303 475.68 489.279 476.603 489.279C477.527 489.279 478.17 488.303 478.17 486.799C478.17 485.294 477.527 484.319 476.603 484.309ZM486.388 485.699C486.388 487.266 487.529 488.853 488.889 489.444L488.432 490.088C487.353 489.595 486.419 488.531 485.994 487.255C485.558 488.609 484.629 489.787 483.576 490.316L483.088 489.673C484.406 489.04 485.558 487.297 485.568 485.699V484.495H483.389V483.821H488.587V484.495H486.388V485.699ZM490.694 482.866V492.091H489.874V482.866H490.694ZM500.717 490.264V490.949H492.271V490.264H496.069V488.521H493.329V485.678H498.849V484.226H493.309V483.551H499.649V486.342H494.139V487.847H499.866V488.521H496.867V490.264H500.717ZM442.155 501.135V504.466H436.179V501.135H442.155ZM436.977 501.789V503.802H441.356V501.789H436.977ZM435.877 495.926V499.382C437.32 499.387 438.539 499.294 439.882 499.019L439.987 499.714C438.555 500.004 437.299 500.088 435.764 500.088H435.058V495.926H435.877ZM442.155 495.366V500.689H441.336V497.784H438.679V497.12H441.336V495.366H442.155ZM446.171 496.082C447.426 496.093 448.329 497.166 448.464 498.894H450.529V495.366H451.338V504.611H450.529V499.569H448.474C448.376 501.374 447.457 502.505 446.171 502.505C444.811 502.505 443.857 501.26 443.857 499.299C443.857 497.338 444.811 496.093 446.171 496.082ZM446.171 496.809C445.257 496.819 444.635 497.794 444.635 499.299C444.635 500.803 445.257 501.779 446.171 501.779C447.073 501.779 447.706 500.803 447.706 499.299C447.706 497.794 447.073 496.819 446.171 496.809ZM460.012 495.366V499.123H461.506V499.807H460.012V504.591H459.203V495.366H460.012ZM457.626 496.363C457.626 498.977 456.401 501.353 453.392 502.837L452.936 502.194C455.322 501.006 456.619 499.231 456.806 497.047H453.361V496.363H457.626ZM470.502 502.723V503.408H462.056V502.723H464.152V500.233C463.364 499.823 462.886 499.159 462.886 498.323C462.886 496.891 464.287 495.958 466.259 495.948C468.23 495.958 469.631 496.891 469.631 498.323C469.631 499.143 469.169 499.802 468.406 500.212V502.723H470.502ZM466.259 496.622C464.744 496.611 463.675 497.296 463.675 498.323C463.675 499.351 464.744 500.046 466.259 500.046C467.763 500.046 468.842 499.351 468.842 498.323C468.842 497.296 467.763 496.611 466.259 496.622ZM464.951 502.723H467.587V500.523C467.187 500.632 466.741 500.689 466.259 500.689C465.786 500.689 465.346 500.638 464.951 500.534V502.723Z" fill="black"/>
<path d="M360.759 443.671L379.509 475.546" stroke="black" stroke-width="0.5"/>
<path d="M831.875 457.656H740.625C724.143 457.656 710.781 471.018 710.781 487.5C710.781 503.982 724.143 517.344 740.625 517.344H831.875C848.357 517.344 861.719 503.982 861.719 487.5C861.719 471.018 848.357 457.656 831.875 457.656Z" fill="white"/>
<path d="M831.875 457.656H740.625C724.143 457.656 710.781 471.018 710.781 487.5C710.781 503.982 724.143 517.344 740.625 517.344H831.875C848.357 517.344 861.719 503.982 861.719 487.5C861.719 471.018 848.357 457.656 831.875 457.656Z" stroke="black" stroke-width="0.5"/>
<path d="M765.387 470.366V479.611H764.581V474.475H762.369V477.277H758.112V471.093H758.937V473.5H761.569V471.093H762.369V473.801H764.581V470.366H765.387ZM758.937 476.602H761.569V474.154H758.937V476.602ZM775.331 475.482V476.146H766.912V475.482H775.331ZM774.45 478.709V479.393H768.012V476.82H768.825V478.709H774.45ZM774.331 473.967V474.61H768.037V470.719H774.281V471.373H768.856V472.338H774.031V472.971H768.856V473.967H774.331ZM780.312 470.533C782.362 470.533 783.569 471.093 783.569 472.12C783.569 473.168 782.362 473.728 780.312 473.738C778.256 473.728 777.044 473.168 777.044 472.12C777.044 471.093 778.256 470.533 780.312 470.533ZM780.312 471.144C778.775 471.144 777.881 471.518 777.894 472.12C777.881 472.763 778.775 473.116 780.312 473.116C781.837 473.116 782.737 472.763 782.737 472.12C782.737 471.518 781.837 471.144 780.312 471.144ZM784.512 474.361V475.025H776.106V474.361H784.512ZM783.431 475.824V477.889H777.956V478.843H783.712V479.487H777.144V477.287H782.631V476.446H777.125V475.824H783.431ZM795.406 473.479V474.154H789.044V470.844H789.856V473.479H795.406ZM796.4 475.544V476.229H792.544V479.591H791.731V476.229H787.956V475.544H796.4ZM805.587 477.744V478.428H797.137V477.744H805.587ZM804.519 471.072V473.863H799.006V475.378H804.737V476.031H798.2V473.199H803.719V471.746H798.175V471.072H804.519ZM810.994 471.176V471.995H813.15V470.377H813.969V477.111H813.15V474.651H810.994V475.482H806.756V471.176H810.994ZM807.569 471.85V474.828H810.194V471.85H807.569ZM814.175 478.709V479.393H808.006V476.509H808.825V478.709H814.175ZM810.994 473.977H813.15V472.68H810.994V473.977ZM739.325 483.209C740.706 483.219 741.712 484.049 741.712 485.253C741.712 486.456 740.706 487.286 739.325 487.286C737.925 487.286 736.925 486.456 736.925 485.253C736.925 484.049 737.925 483.219 739.325 483.209ZM739.325 483.893C738.4 483.893 737.719 484.454 737.725 485.253C737.719 486.062 738.4 486.623 739.325 486.623C740.237 486.623 740.925 486.062 740.925 485.253C740.925 484.454 740.237 483.893 739.325 483.893ZM744.325 482.866V487.608H743.519V482.866H744.325ZM744.325 488.054V490.274H739.15V491.313H744.656V491.966H738.35V489.663H743.519V488.708H738.331V488.054H744.325ZM749.194 485.699C749.194 487.266 750.331 488.853 751.694 489.444L751.237 490.088C750.156 489.595 749.225 488.531 748.8 487.255C748.362 488.609 747.431 489.787 746.381 490.316L745.894 489.673C747.212 489.04 748.362 487.297 748.375 485.699V484.495H746.194V483.821H751.394V484.495H749.194V485.699ZM753.5 482.866V492.091H752.681V482.866H753.5ZM764.944 482.877V485.668H766.325V486.353H764.944V489.061H764.125V482.877H764.944ZM757.7 488.116C758.437 488.116 759.3 488.116 760.2 488.086V487.411C759.125 487.318 758.437 486.814 758.437 486.052C758.437 485.211 759.3 484.693 760.594 484.693C761.9 484.693 762.756 485.211 762.762 486.052C762.756 486.809 762.081 487.313 761.012 487.411V488.054C761.869 488.013 762.744 487.945 763.55 487.826L763.625 488.418C761.625 488.77 759.412 488.781 757.794 488.781L757.7 488.116ZM764.944 489.518V492.091H764.125V490.171H758.831V489.518H764.944ZM763.275 483.717V484.339H757.931V483.717H760.2V482.794H761.012V483.717H763.275ZM760.594 485.274C759.744 485.263 759.212 485.564 759.212 486.052C759.212 486.529 759.744 486.861 760.594 486.851C761.444 486.861 761.987 486.529 761.987 486.052C761.987 485.564 761.444 485.263 760.594 485.274ZM774.544 482.877V489.621H773.731V482.877H774.544ZM774.831 491.209V491.893H768.587V488.936H769.394V491.209H774.831ZM769.562 483.52C770.937 483.52 771.975 484.454 771.975 485.782C771.975 487.131 770.937 488.054 769.562 488.054C768.181 488.054 767.144 487.131 767.144 485.782C767.144 484.454 768.181 483.52 769.562 483.52ZM769.562 484.236C768.625 484.236 767.931 484.879 767.944 485.782C767.931 486.706 768.625 487.338 769.562 487.338C770.475 487.338 771.181 486.706 771.181 485.782C771.181 484.879 770.475 484.236 769.562 484.236ZM783.244 482.866V486.674H784.794V487.349H783.244V492.091H782.437V482.866H783.244ZM781.544 484.35V485.024H776.056V484.35H778.431V482.981H779.244V484.35H781.544ZM778.844 485.793C780.156 485.793 781.1 486.664 781.106 487.909C781.1 489.154 780.156 490.026 778.844 490.026C777.531 490.026 776.575 489.154 776.587 487.909C776.575 486.664 777.531 485.793 778.844 485.793ZM778.844 486.477C777.987 486.477 777.35 487.079 777.362 487.909C777.35 488.749 777.987 489.341 778.844 489.331C779.7 489.341 780.319 488.749 780.331 487.909C780.319 487.079 779.7 486.477 778.844 486.477ZM792.919 482.866V492.091H792.094V482.866H792.919ZM790.187 483.873C790.175 486.529 788.944 488.874 785.85 490.358L785.406 489.694C787.9 488.511 789.169 486.742 789.356 484.537H785.831V483.873H790.187ZM805.075 482.866V492.091H804.287V482.866H805.075ZM803.269 483.094V491.603H802.494V487.11H801.206V486.373H802.494V483.094H803.269ZM801.475 484.049V484.724H800.7V488.988C801.044 488.968 801.381 488.936 801.681 488.894L801.737 489.496C800.281 489.766 798.344 489.808 797.137 489.808L797.037 489.113L798.012 489.102V484.724H797.231V484.049H801.475ZM798.756 489.092C799.144 489.081 799.544 489.066 799.944 489.04V484.724H798.756V489.092ZM813.925 482.866V492.111H813.106V482.866H813.925ZM809.019 483.582C810.387 483.593 811.375 484.838 811.375 486.799C811.375 488.76 810.387 490.005 809.019 490.005C807.637 490.005 806.662 488.76 806.662 486.799C806.662 484.838 807.637 483.593 809.019 483.582ZM809.019 484.309C808.094 484.319 807.456 485.294 807.456 486.799C807.456 488.303 808.094 489.279 809.019 489.279C809.944 489.279 810.587 488.303 810.587 486.799C810.587 485.294 809.944 484.319 809.019 484.309ZM818.806 485.699C818.806 487.266 819.944 488.853 821.306 489.444L820.85 490.088C819.769 489.595 818.837 488.531 818.412 487.255C817.975 488.609 817.044 489.787 815.994 490.316L815.506 489.673C816.825 489.04 817.975 487.297 817.987 485.699V484.495H815.806V483.821H821.006V484.495H818.806V485.699ZM823.112 482.866V492.091H822.294V482.866H823.112ZM833.131 490.264V490.949H824.687V490.264H828.487V488.521H825.744V485.678H831.269V484.226H825.725V483.551H832.062V486.342H826.556V487.847H832.281V488.521H829.281V490.264H833.131ZM775.906 501.135V504.466H769.931V501.135H775.906ZM770.725 501.789V503.802H775.106V501.789H770.725ZM769.625 495.926V499.382C771.069 499.387 772.287 499.294 773.631 499.019L773.737 499.714C772.306 500.004 771.05 500.088 769.512 500.088H768.806V495.926H769.625ZM775.906 495.366V500.689H775.087V497.784H772.431V497.12H775.087V495.366H775.906ZM779.919 496.082C781.175 496.093 782.081 497.166 782.212 498.894H784.281V495.366H785.087V504.611H784.281V499.569H782.225C782.125 501.374 781.206 502.505 779.919 502.505C778.562 502.505 777.606 501.26 777.606 499.299C777.606 497.338 778.562 496.093 779.919 496.082ZM779.919 496.809C779.006 496.819 778.387 497.794 778.387 499.299C778.387 500.803 779.006 501.779 779.919 501.779C780.825 501.779 781.456 500.803 781.456 499.299C781.456 497.794 780.825 496.819 779.919 496.809ZM793.762 495.366V499.123H795.256V499.807H793.762V504.591H792.95V495.366H793.762ZM791.375 496.363C791.375 498.977 790.15 501.353 787.144 502.837L786.687 502.194C789.075 501.006 790.369 499.231 790.556 497.047H787.112V496.363H791.375ZM804.25 502.723V503.408H795.806V502.723H797.9V500.233C797.112 499.823 796.637 499.159 796.637 498.323C796.637 496.891 798.037 495.958 800.006 495.948C801.981 495.958 803.381 496.891 803.381 498.323C803.381 499.143 802.919 499.802 802.156 500.212V502.723H804.25ZM800.006 496.622C798.494 496.611 797.425 497.296 797.425 498.323C797.425 499.351 798.494 500.046 800.006 500.046C801.512 500.046 802.594 499.351 802.594 498.323C802.594 497.296 801.512 496.611 800.006 496.622ZM798.7 502.723H801.337V500.523C800.937 500.632 800.494 500.689 800.006 500.689C799.537 500.689 799.094 500.638 798.7 500.534V502.723Z" fill="black"/>
<path d="M694.513 443.671L713.263 475.546" stroke="black" stroke-width="0.5"/>
</g>
</g>
<rect x="0.15" y="0.15" width="1199.7" height="639.7" stroke="black" stroke-width="0.3"/>
<defs>
<filter id="filter0_d_21_1907" x="-8" y="-4" width="1216" height="59.75" filterUnits="userSpaceOnUse" color-interpolation-filters="sRGB">
<feFlood flood-opacity="0" result="BackgroundImageFix"/>
<feColorMatrix in="SourceAlpha" type="matrix" values="0 0 0 0 0 0 0 0 0 0 0 0 0 0 0 0 0 0 127 0" result="hardAlpha"/>
<feOffset dy="4"/>
<feGaussianBlur stdDeviation="4"/>
<feComposite in2="hardAlpha" operator="out"/>
<feColorMatrix type="matrix" values="0 0 0 0 0.891667 0 0 0 0 0.891667 0 0 0 0 0.891667 0 0 0 1 0"/>
<feBlend mode="normal" in2="BackgroundImageFix" result="effect1_dropShadow_21_1907"/>
<feBlend mode="normal" in="SourceGraphic" in2="effect1_dropShadow_21_1907" result="shape"/>
</filter>
<filter id="filter1_d_21_1907" x="1030.19" y="12.3125" width="74.625" height="27.125" filterUnits="userSpaceOnUse" color-interpolation-filters="sRGB">
<feFlood flood-opacity="0" result="BackgroundImageFix"/>
<feColorMatrix in="SourceAlpha" type="matrix" values="0 0 0 0 0 0 0 0 0 0 0 0 0 0 0 0 0 0 127 0" result="hardAlpha"/>
<feOffset dy="4"/>
<feGaussianBlur stdDeviation="2"/>
<feComposite in2="hardAlpha" operator="out"/>
<feColorMatrix type="matrix" values="0 0 0 0 0 0 0 0 0 0 0 0 0 0 0 0 0 0 0.25 0"/>
<feBlend mode="normal" in2="BackgroundImageFix" result="effect1_dropShadow_21_1907"/>
<feBlend mode="normal" in="SourceGraphic" in2="effect1_dropShadow_21_1907" result="shape"/>
</filter>
<filter id="filter2_d_21_1907" x="317.875" y="395.625" width="209.875" height="45.5" filterUnits="userSpaceOnUse" color-interpolation-filters="sRGB">
<feFlood flood-opacity="0" result="BackgroundImageFix"/>
<feColorMatrix in="SourceAlpha" type="matrix" values="0 0 0 0 0 0 0 0 0 0 0 0 0 0 0 0 0 0 127 0" result="hardAlpha"/>
<feOffset dy="4"/>
<feGaussianBlur stdDeviation="2"/>
<feComposite in2="hardAlpha" operator="out"/>
<feColorMatrix type="matrix" values="0 0 0 0 0 0 0 0 0 0 0 0 0 0 0 0 0 0 0.25 0"/>
<feBlend mode="normal" in2="BackgroundImageFix" result="effect1_dropShadow_21_1907"/>
<feBlend mode="normal" in="SourceGraphic" in2="effect1_dropShadow_21_1907" result="shape"/>
</filter>
<filter id="filter3_d_21_1907" x="671.625" y="395.625" width="209.875" height="45.5" filterUnits="userSpaceOnUse" color-interpolation-filters="sRGB">
<feFlood flood-opacity="0" result="BackgroundImageFix"/>
<feColorMatrix in="SourceAlpha" type="matrix" values="0 0 0 0 0 0 0 0 0 0 0 0 0 0 0 0 0 0 127 0" result="hardAlpha"/>
<feOffset dy="4"/>
<feGaussianBlur stdDeviation="2"/>
<feComposite in2="hardAlpha" operator="out"/>
<feColorMatrix type="matrix" values="0 0 0 0 0 0 0 0 0 0 0 0 0 0 0 0 0 0 0.25 0"/>
<feBlend mode="normal" in2="BackgroundImageFix" result="effect1_dropShadow_21_1907"/>
<feBlend mode="normal" in="SourceGraphic" in2="effect1_dropShadow_21_1907" result="shape"/>
</filter>
<filter id="filter4_d_21_1907" x="660.812" y="384.812" width="232.125" height="67.125" filterUnits="userSpaceOnUse" color-interpolation-filters="sRGB">
<feFlood flood-opacity="0" result="BackgroundImageFix"/>
<feColorMatrix in="SourceAlpha" type="matrix" values="0 0 0 0 0 0 0 0 0 0 0 0 0 0 0 0 0 0 127 0" result="hardAlpha"/>
<feOffset dy="4"/>
<feGaussianBlur stdDeviation="2"/>
<feComposite in2="hardAlpha" operator="out"/>
<feColorMatrix type="matrix" values="0 0 0 0 0 0 0 0 0 0 0 0 0 0 0 0 0 0 0.25 0"/>
<feBlend mode="normal" in2="BackgroundImageFix" result="effect1_dropShadow_21_1907"/>
<feBlend mode="normal" in="SourceGraphic" in2="effect1_dropShadow_21_1907" result="shape"/>
</filter>
<filter id="filter5_d_21_1907" x="307.062" y="384.812" width="232.125" height="67.125" filterUnits="userSpaceOnUse" color-interpolation-filters="sRGB">
<feFlood flood-opacity="0" result="BackgroundImageFix"/>
<feColorMatrix in="SourceAlpha" type="matrix" values="0 0 0 0 0 0 0 0 0 0 0 0 0 0 0 0 0 0 127 0" result="hardAlpha"/>
<feOffset dy="4"/>
<feGaussianBlur stdDeviation="2"/>
<feComposite in2="hardAlpha" operator="out"/>
<feColorMatrix type="matrix" values="0 0 0 0 0 0 0 0 0 0 0 0 0 0 0 0 0 0 0.25 0"/>
<feBlend mode="normal" in2="BackgroundImageFix" result="effect1_dropShadow_21_1907"/>
<feBlend mode="normal" in="SourceGraphic" in2="effect1_dropShadow_21_1907" result="shape"/>
</filter>
<clipPath id="clip0_21_1907">
<rect width="1200" height="640" fill="white"/>
</clipPath>
</defs>
</svg>
