<svg width="1920" height="1506" viewBox="0 0 1920 1506" fill="none" xmlns="http://www.w3.org/2000/svg">
<g clip-path="url(#clip0_182_103)">
<rect width="1920" height="1506" fill="#FCFCFC"/>
<g filter="url(#filter0_d_182_103)">
<rect width="1920" height="70" fill="white"/>
<path d="M73.5 27.525C73.5 27.0917 73.5917 26.775 73.775 26.575C73.975 26.375 74.2667 26.275 74.65 26.275H78.225C84.075 26.275 87 29.2 87 35.05C87 37.2333 86.5417 39 85.625 40.35C84.725 41.6833 83.6167 42.625 82.3 43.175C81 43.725 79.6833 44 78.35 44H74.65C74.2667 44 73.975 43.9 73.775 43.7C73.5917 43.5 73.5 43.1833 73.5 42.75V27.525ZM76.2 42.675H76.75V42.65H77.925C79.775 42.65 81.275 42.025 82.425 40.775C83.5917 39.525 84.175 37.6167 84.175 35.05C84.175 32.45 83.6 30.5583 82.45 29.375C81.3167 28.1917 79.8083 27.6 77.925 27.6H76.2V42.675ZM99.209 40.85C99.3757 40.6667 99.584 40.575 99.834 40.575C99.984 40.575 100.117 40.625 100.234 40.725C100.351 40.825 100.409 40.95 100.409 41.1C100.409 41.4 100.301 41.6833 100.084 41.95C98.984 43.3167 97.4507 44 95.484 44C93.534 44 92.059 43.475 91.059 42.425C90.0757 41.3583 89.584 39.8917 89.584 38.025C89.584 35.8917 90.084 34.2667 91.084 33.15C92.084 32.0167 93.534 31.45 95.434 31.45C96.9507 31.45 98.1673 31.8833 99.084 32.75C100.001 33.6167 100.459 34.8583 100.459 36.475C100.459 37.2917 99.984 37.7 99.034 37.7H92.309C92.2923 37.8333 92.284 38.0167 92.284 38.25C92.284 39.6833 92.5673 40.8167 93.134 41.65C93.7007 42.4833 94.5757 42.9 95.759 42.9C96.559 42.9 97.1923 42.7333 97.659 42.4C98.1257 42.0667 98.484 41.75 98.734 41.45C98.984 41.1333 99.1423 40.9333 99.209 40.85ZM95.284 32.45C94.484 32.45 93.8257 32.7917 93.309 33.475C92.7923 34.1583 92.484 35.2167 92.384 36.65H97.059C97.359 36.65 97.5757 36.6 97.709 36.5C97.8423 36.3833 97.909 36.1917 97.909 35.925C97.909 34.8083 97.6423 33.95 97.109 33.35C96.5923 32.75 95.984 32.45 95.284 32.45ZM112.207 31.45C112.44 31.45 112.632 31.5 112.782 31.6C112.932 31.6833 113.007 31.825 113.007 32.025C113.007 32.2917 112.965 32.5167 112.882 32.7L108.707 43.375C108.54 43.7917 108.057 44 107.257 44C106.94 44 106.657 43.95 106.407 43.85C106.174 43.75 106.015 43.5917 105.932 43.375L101.832 32.7C101.749 32.5167 101.707 32.325 101.707 32.125C101.707 31.675 102.015 31.45 102.632 31.45C103.065 31.45 103.465 31.5917 103.832 31.875C104.199 32.1417 104.482 32.5583 104.682 33.125L107.707 41.55H107.832L109.532 37.025C109.815 36.2583 110.057 35.55 110.257 34.9C110.457 34.2333 110.64 33.6 110.807 33C110.94 32.5 111.107 32.1167 111.307 31.85C111.507 31.5833 111.807 31.45 112.207 31.45ZM123.967 27.6C124.251 27.1333 124.509 26.8 124.742 26.6C124.992 26.3833 125.267 26.275 125.567 26.275C125.767 26.275 125.942 26.3333 126.092 26.45C126.242 26.55 126.317 26.6917 126.317 26.875C126.317 27.125 126.226 27.375 126.042 27.625L121.842 34.45L126.767 42.5C126.901 42.7167 126.967 42.95 126.967 43.2C126.967 43.4167 126.876 43.6083 126.692 43.775C126.509 43.925 126.276 44 125.992 44C125.492 44 125.092 43.9 124.792 43.7C124.509 43.5 124.234 43.1667 123.967 42.7L120.217 36.325H120.117L116.192 42.65C115.859 43.2 115.559 43.5667 115.292 43.75C115.042 43.9167 114.776 44 114.492 44C114.242 44 114.051 43.95 113.917 43.85C113.801 43.7333 113.742 43.6 113.742 43.45C113.742 43.2167 113.834 42.95 114.017 42.65L119.017 34.85L114.742 27.725C114.626 27.5417 114.567 27.3417 114.567 27.125C114.567 26.8917 114.659 26.6917 114.842 26.525C115.042 26.3583 115.276 26.275 115.542 26.275C116.359 26.275 117.009 26.7167 117.492 27.6L120.617 33.15H120.767L123.967 27.6Z" fill="black"/>
<path d="M1695.31 29.6152V41.168H1693.75V35.29H1692.69V40.6602H1691.18V29.9199H1692.69V33.9951H1693.75V29.6152H1695.31ZM1690.37 31.0371C1690.36 34.2617 1689.39 36.9023 1686.14 38.7939L1685.2 37.6768C1687.56 36.293 1688.57 34.5981 1688.8 32.332H1685.79V31.0371H1690.37ZM1698.53 30.1357V31.5068H1700.89V30.1357H1702.52V35.1758H1696.92V30.1357H1698.53ZM1698.53 33.9062H1700.89V32.7256H1698.53V33.9062ZM1705.74 29.6152V31.8623H1707.31V33.1699H1705.74V35.4932H1704.12V29.6152H1705.74ZM1705.74 35.9248V39.0605H1699.69V39.8096H1706.07V41.0918H1698.1V37.9053H1704.13V37.1816H1698.08V35.9248H1705.74ZM1711.1 29.958C1712.85 29.958 1714.19 31.0498 1714.19 32.5986C1714.19 34.1221 1712.85 35.2266 1711.1 35.2266C1709.31 35.2266 1707.99 34.1221 1707.99 32.5986C1707.99 31.0498 1709.31 29.958 1711.1 29.958ZM1711.1 31.2783C1710.21 31.2783 1709.55 31.7607 1709.57 32.5986C1709.55 33.4238 1710.21 33.9189 1711.1 33.9189C1711.98 33.9189 1712.62 33.4238 1712.62 32.5986C1712.62 31.7607 1711.98 31.2783 1711.1 31.2783ZM1717.49 29.6152V35.4043H1715.86V29.6152H1717.49ZM1717.49 35.8867V39.0225H1711.34V39.7715H1717.8V41.041H1709.76V37.8418H1715.88V37.1309H1709.73V35.8867H1717.49ZM1723.53 32.7637C1723.53 34.6299 1724.48 36.623 1726.42 37.4355L1725.55 38.7051C1724.18 38.1274 1723.24 36.9785 1722.73 35.5693C1722.2 37.0991 1721.25 38.3687 1719.89 38.9971L1718.96 37.7148C1720.88 36.8643 1721.87 34.7188 1721.87 32.7637V32.0527H1719.42V30.7324H1725.94V32.0527H1723.53V32.7637ZM1728.72 29.6152V41.168H1727.08V29.6152H1728.72Z" fill="#9038FF"/>
<path d="M1831.19 31.0625V34.0078H1832.91V29.9834H1833.86V40.457H1832.91V34.833H1831.19V37.9941H1826.88V31.0625H1831.19ZM1827.82 31.8623V37.1943H1830.25V31.8623H1827.82ZM1836.13 29.7422V41.0283H1835.17V29.7422H1836.13ZM1848.03 38.7432V39.5811H1837.69V38.7432H1842.34V35.9883H1838.91V30.6943H1846.74V35.9883H1843.32V38.7432H1848.03ZM1839.89 31.4941V35.1885H1845.78V31.4941H1839.89Z" fill="black"/>
</g>
<path d="M108.586 110.551C111.281 110.551 113.332 112.23 113.332 114.613C113.332 116.957 111.281 118.656 108.586 118.656C105.832 118.656 103.801 116.957 103.801 114.613C103.801 112.23 105.832 110.551 108.586 110.551ZM108.586 112.582C107.219 112.582 106.203 113.324 106.223 114.613C106.203 115.883 107.219 116.645 108.586 116.645C109.934 116.645 110.93 115.883 110.93 114.613C110.93 113.324 109.934 112.582 108.586 112.582ZM118.41 110.023V118.93H115.91V110.023H118.41ZM118.41 119.672V124.496H108.957V125.648H118.898V127.602H106.516V122.68H115.93V121.586H106.477V119.672H118.41ZM127.707 114.867C127.707 117.738 129.172 120.805 132.16 122.055L130.812 124.008C128.713 123.119 127.268 121.352 126.477 119.184C125.666 121.537 124.191 123.49 122.102 124.457L120.676 122.484C123.625 121.176 125.148 117.875 125.148 114.867V113.773H121.379V111.742H131.418V113.773H127.707V114.867ZM135.695 110.023V127.797H133.176V110.023H135.695ZM152.805 111.059V113.051H149.27C149.289 115.131 150.52 117.26 153.41 118.188L152.141 120.121C150.168 119.486 148.811 118.217 148.039 116.625C147.248 118.363 145.832 119.74 143.762 120.414L142.434 118.5C145.373 117.553 146.711 115.277 146.75 113.051H143.117V111.059H152.805ZM156.809 110.023V114.34H159.211V116.41H156.809V120.746H154.309V110.023H156.809ZM156.809 121.508V127.797H154.309V123.48H144.836V121.508H156.809ZM166.711 112.445C166.691 114.828 167.922 117.016 170.773 117.895L169.465 119.848C167.551 119.184 166.252 117.953 165.52 116.352C164.719 118.207 163.283 119.672 161.145 120.395L159.836 118.402C162.883 117.426 164.172 115.043 164.191 112.562V110.941H166.711V112.445ZM174.973 110.023V120.434H172.492V115.316H169.152V113.285H172.492V110.023H174.973ZM168.898 120.902C172.688 120.902 175.012 122.172 175.031 124.359C175.012 126.547 172.688 127.797 168.898 127.797C165.109 127.797 162.785 126.547 162.785 124.359C162.785 122.172 165.109 120.902 168.898 120.902ZM168.898 122.836C166.535 122.836 165.266 123.344 165.266 124.359C165.266 125.336 166.535 125.863 168.898 125.863C171.262 125.863 172.551 125.336 172.551 124.359C172.551 123.344 171.262 122.836 168.898 122.836ZM191.301 110.023V116.977H193.918V119.027H191.301V127.797H188.84V110.023H191.301ZM187.629 112.68V114.672H177.18V112.68H181.203V110.297H183.703V112.68H187.629ZM182.453 115.668C185.051 115.668 186.984 117.426 186.984 119.906C186.984 122.387 185.051 124.145 182.453 124.145C179.836 124.145 177.902 122.387 177.902 119.906C177.902 117.426 179.836 115.668 182.453 115.668ZM182.453 117.68C181.203 117.699 180.285 118.539 180.285 119.906C180.285 121.293 181.203 122.113 182.453 122.094C183.703 122.113 184.602 121.293 184.602 119.906C184.602 118.539 183.703 117.699 182.453 117.68ZM209.504 110.023V127.797H206.984V110.023H209.504ZM204.172 111.879C204.172 117.27 202.277 121.742 195.93 124.75L194.621 122.758C199.211 120.59 201.232 117.777 201.633 113.832H195.578V111.879H204.172Z" fill="#9038FF"/>
<g clip-path="url(#clip1_182_103)">
<rect x="103" y="168" width="1714" height="1137" rx="6" fill="white"/>
<mask id="path-7-inside-1_182_103" fill="white">
<path d="M103 307H1817V500H103V307Z"/>
</mask>
<path d="M103 307H1817V500H103V307Z" fill="white"/>
<path d="M1817 499.5H103V500.5H1817V499.5Z" fill="black" mask="url(#path-7-inside-1_182_103)"/>
<path d="M157.111 338.34V339.452H143.598V338.34H157.111ZM155.816 328.08V329.159H153.476V334.322H155.783V335.385H144.826V334.322H147.134V329.159H144.793V328.08H155.816ZM148.429 334.322H152.197V329.159H148.429V334.322ZM171.804 338.423V339.519H158.29V338.423H164.366V335.634H159.983V331.085H168.815V328.761H159.95V327.682H170.094V332.147H161.278V334.555H170.442V335.634H165.645V338.423H171.804ZM182.645 326.918V335.484H181.383V331.483H179.125V330.404H181.383V326.918H182.645ZM177.349 329.757C177.349 331.367 178.428 333.11 180.304 333.891L179.623 334.887C178.237 334.306 177.266 333.202 176.768 331.932C176.245 333.368 175.215 334.604 173.746 335.252L173.049 334.223C174.975 333.409 176.087 331.517 176.087 329.757V328.877H173.331V327.798H179.955V328.877H177.349V329.757ZM185.517 326.586V335.617H184.271V326.586H185.517ZM185.517 336.265V341.345H184.238V337.327H175.572V336.265H185.517ZM199.628 334.571V335.634H189.418V327.864H199.462V328.96H190.746V331.151H199.146V332.197H190.746V334.571H199.628ZM201.188 338.34V339.419H187.675V338.34H201.188ZM219.234 326.586V341.345H217.956V333.625H215.914V340.614H214.669V326.984H215.914V332.546H217.956V326.586H219.234ZM212.992 328.512C212.976 332.264 211.664 335.816 207.414 338.174L206.65 337.261C210.079 335.352 211.498 332.646 211.714 329.591H207.215V328.512H212.992ZM234.84 338.356V339.452H221.326V338.356H224.68V334.372C223.418 333.716 222.654 332.654 222.654 331.317C222.654 329.026 224.896 327.532 228.05 327.516C231.204 327.532 233.445 329.026 233.445 331.317C233.445 332.629 232.707 333.683 231.486 334.339V338.356H234.84ZM228.05 328.595C225.626 328.578 223.916 329.674 223.916 331.317C223.916 332.961 225.626 334.073 228.05 334.073C230.457 334.073 232.184 332.961 232.184 331.317C232.184 329.674 230.457 328.578 228.05 328.595ZM225.958 338.356H230.175V334.837C229.536 335.011 228.822 335.103 228.05 335.103C227.294 335.103 226.589 335.02 225.958 334.854V338.356Z" fill="black"/>
<path d="M157.111 374.34V375.452H143.598V374.34H157.111ZM155.816 364.08V365.159H153.476V370.322H155.783V371.385H144.826V370.322H147.134V365.159H144.793V364.08H155.816ZM148.429 370.322H152.197V365.159H148.429V370.322ZM171.804 374.423V375.519H158.29V374.423H164.366V371.634H159.983V367.085H168.815V364.761H159.95V363.682H170.094V368.147H161.278V370.555H170.442V371.634H165.645V374.423H171.804ZM182.645 362.918V371.484H181.383V367.483H179.125V366.404H181.383V362.918H182.645ZM177.349 365.757C177.349 367.367 178.428 369.11 180.304 369.891L179.623 370.887C178.237 370.306 177.266 369.202 176.768 367.932C176.245 369.368 175.215 370.604 173.746 371.252L173.049 370.223C174.975 369.409 176.087 367.517 176.087 365.757V364.877H173.331V363.798H179.955V364.877H177.349V365.757ZM185.517 362.586V371.617H184.271V362.586H185.517ZM185.517 372.265V377.345H184.238V373.327H175.572V372.265H185.517ZM199.628 370.571V371.634H189.418V363.864H199.462V364.96H190.746V367.151H199.146V368.197H190.746V370.571H199.628ZM201.188 374.34V375.419H187.675V374.34H201.188ZM215.018 362.586V377.345H213.756V362.586H215.018ZM212.046 362.901V376.598H210.801V369.426H208.908C208.767 372.298 207.547 374.091 205.721 374.091C203.795 374.091 202.55 372.099 202.55 368.961C202.55 365.823 203.795 363.831 205.721 363.831C207.514 363.831 208.726 365.566 208.892 368.347H210.801V362.901H212.046ZM205.721 365.06C204.525 365.06 203.762 366.554 203.778 368.961C203.762 371.352 204.525 372.862 205.721 372.846C206.916 372.862 207.68 371.352 207.68 368.961C207.68 366.554 206.916 365.06 205.721 365.06ZM233.943 362.586V377.345H232.698V369.608H230.523V376.581H229.328V362.918H230.523V368.529H232.698V362.586H233.943ZM227.402 364.396V365.475H223.169V372.58C225.203 372.572 226.614 372.497 228.249 372.165L228.365 373.261C226.589 373.626 225.078 373.692 222.82 373.692H221.874V364.396H227.402ZM243.39 365.143V366.205H235.985V365.143H239.057V363.034H240.352V365.143H243.39ZM239.688 367.201C241.547 367.201 242.875 368.596 242.892 370.555C242.875 372.53 241.547 373.941 239.688 373.941C237.845 373.941 236.517 372.53 236.517 370.555C236.517 368.596 237.845 367.201 239.688 367.201ZM239.688 368.297C238.525 368.313 237.679 369.26 237.679 370.555C237.679 371.866 238.525 372.812 239.688 372.796C240.866 372.812 241.729 371.866 241.729 370.555C241.729 369.26 240.866 368.313 239.688 368.297ZM248.586 362.586V377.345H247.341V369.891H245.382V376.614H244.153V362.951H245.382V368.812H247.341V362.586H248.586ZM267.213 362.586V370.223H265.901V366.388H262.614V365.309H265.901V362.586H267.213ZM267.213 370.97V374.489H258.962V376.1H267.761V377.146H257.684V373.493H265.918V372.016H257.65V370.97H267.213ZM260.008 364.462C259.991 366.404 261.519 368.164 263.677 368.878L262.979 369.891C261.344 369.31 260.041 368.147 259.394 366.653C258.763 368.338 257.426 369.625 255.675 370.256L254.961 369.21C257.186 368.479 258.713 366.62 258.729 364.462V363.067H260.008V364.462ZM281.905 362.586V371.335H280.594V369.011H277.141V370.272H270.367V363.715H277.141V364.993H280.594V362.586H281.905ZM271.662 364.777V369.21H275.862V364.777H271.662ZM277.008 371.767C280.079 371.767 281.955 372.779 281.955 374.556C281.955 376.315 280.079 377.312 277.008 377.312C273.937 377.312 272.061 376.315 272.061 374.556C272.061 372.779 273.937 371.767 277.008 371.767ZM277.008 372.779C274.75 372.796 273.339 373.443 273.355 374.556C273.339 375.618 274.75 376.282 277.008 376.282C279.266 376.282 280.66 375.618 280.66 374.556C280.66 373.443 279.266 372.796 277.008 372.779ZM277.141 367.915H280.594V366.072H277.141V367.915ZM291.733 365.143V366.205H284.329V365.143H287.4V363.034H288.695V365.143H291.733ZM288.031 367.201C289.891 367.201 291.219 368.596 291.235 370.555C291.219 372.53 289.891 373.941 288.031 373.941C286.188 373.941 284.86 372.53 284.86 370.555C284.86 368.596 286.188 367.201 288.031 367.201ZM288.031 368.297C286.869 368.313 286.022 369.26 286.022 370.555C286.022 371.866 286.869 372.812 288.031 372.796C289.21 372.812 290.073 371.866 290.073 370.555C290.073 369.26 289.21 368.313 288.031 368.297ZM296.93 362.586V377.345H295.685V369.891H293.726V376.614H292.497V362.951H293.726V368.812H295.685V362.586H296.93ZM306.509 364.678C306.492 366.653 309.132 368.33 311.705 368.712L311.224 369.741C308.916 369.351 306.675 368.123 305.778 366.338C304.882 368.123 302.632 369.351 300.366 369.741L299.852 368.712C302.408 368.33 305.048 366.653 305.048 364.678V364.578H300.316V363.516H311.224V364.578H306.509V364.678ZM312.502 371.003V372.082H306.393V377.345H305.114V372.082H299.055V371.003H312.502ZM318.13 366.786C318.13 369.127 319.275 371.667 321.234 372.829L320.487 373.842C319.068 372.979 318.047 371.401 317.532 369.608C316.984 371.567 315.889 373.252 314.411 374.157L313.581 373.178C315.623 371.982 316.868 369.359 316.868 366.836V363.98H318.13V366.786ZM326.397 362.586V377.345H325.136V362.586H326.397ZM323.343 362.901V376.598H322.114V368.994H319.607V367.882H322.114V362.901H323.343ZM341.953 374.356V375.452H328.439V374.356H331.793V370.372C330.531 369.716 329.768 368.654 329.768 367.317C329.768 365.026 332.009 363.532 335.163 363.516C338.317 363.532 340.559 365.026 340.559 367.317C340.559 368.629 339.82 369.683 338.6 370.339V374.356H341.953ZM335.163 364.595C332.739 364.578 331.029 365.674 331.029 367.317C331.029 368.961 332.739 370.073 335.163 370.073C337.57 370.073 339.297 368.961 339.297 367.317C339.297 365.674 337.57 364.578 335.163 364.595ZM333.071 374.356H337.288V370.837C336.649 371.011 335.935 371.103 335.163 371.103C334.408 371.103 333.702 371.02 333.071 370.854V374.356Z" fill="#ACACAC"/>
<mask id="path-11-inside-2_182_103" fill="white">
<path d="M103 500H1817V693H103V500Z"/>
</mask>
<path d="M103 500H1817V693H103V500Z" fill="white"/>
<path d="M1817 692.5H103V693.5H1817V692.5Z" fill="black" mask="url(#path-11-inside-2_182_103)"/>
<path d="M148.91 533.757C148.91 535.749 150.487 537.542 152.695 538.239L152.031 539.285C150.313 538.704 148.943 537.492 148.279 535.932C147.632 537.617 146.246 538.945 144.494 539.584L143.813 538.538C146.021 537.758 147.599 535.849 147.599 533.757V532.894H144.146V531.831H152.313V532.894H148.91V533.757ZM155.783 530.603V541.427H154.488V530.603H155.783ZM156.248 543.934V545.029H146.254V540.397H147.549V543.934H156.248ZM170.824 530.586V539.933H169.579V535.699H167.604V539.401H166.375V530.885H167.604V534.62H169.579V530.586H170.824ZM165.777 532.362V533.408H158.207V532.362H161.361V530.702H162.656V532.362H165.777ZM162.009 534.205C163.885 534.205 165.163 535.185 165.18 536.729C165.163 538.239 163.885 539.235 162.009 539.235C160.149 539.235 158.838 538.239 158.854 536.729C158.838 535.185 160.149 534.205 162.009 534.205ZM162.009 535.168C160.83 535.168 160.017 535.799 160.017 536.729C160.017 537.642 160.83 538.256 162.009 538.256C163.188 538.256 164.001 537.642 164.001 536.729C164.001 535.799 163.188 535.168 162.009 535.168ZM165.943 540.182C169.048 540.182 170.907 541.111 170.907 542.771C170.907 544.382 169.048 545.312 165.943 545.312C162.839 545.312 160.979 544.382 160.996 542.771C160.979 541.111 162.839 540.182 165.943 540.182ZM165.943 541.211C163.652 541.194 162.274 541.759 162.291 542.771C162.274 543.734 163.652 544.299 165.943 544.299C168.234 544.299 169.596 543.734 169.612 542.771C169.596 541.759 168.234 541.194 165.943 541.211ZM182.18 532.977C182.18 534.985 183.707 536.828 185.849 537.559L185.135 538.588C183.5 537.99 182.213 536.77 181.565 535.234C180.935 536.969 179.623 538.339 177.896 539.003L177.199 537.957C179.407 537.127 180.885 535.151 180.901 532.877V531.35H182.18V532.977ZM188.787 530.586V534.438H191.012V535.533H188.787V539.567H187.492V530.586H188.787ZM184.056 539.949C187.094 539.949 188.92 540.929 188.92 542.622C188.92 544.349 187.094 545.312 184.056 545.312C181.018 545.312 179.158 544.349 179.158 542.622C179.158 540.929 181.018 539.949 184.056 539.949ZM184.056 540.995C181.831 540.995 180.453 541.609 180.47 542.622C180.453 543.668 181.831 544.266 184.056 544.282C186.297 544.266 187.658 543.668 187.658 542.622C187.658 541.609 186.297 540.995 184.056 540.995ZM203.463 530.603V535.052H205.671V536.147H203.463V540.613H202.151V530.603H203.463ZM198.698 540.796C201.77 540.779 203.546 541.593 203.562 543.07C203.546 544.548 201.77 545.328 198.698 545.345C195.61 545.328 193.851 544.548 193.851 543.07C193.851 541.593 195.61 540.779 198.698 540.796ZM198.698 541.775C196.424 541.759 195.146 542.24 195.162 543.07C195.146 543.867 196.424 544.349 198.698 544.349C200.956 544.349 202.234 543.867 202.234 543.07C202.234 542.24 200.956 541.759 198.698 541.775ZM191.875 538.887C193.062 538.887 194.44 538.878 195.876 538.837V537.658C194.149 537.517 193.054 536.745 193.054 535.583C193.054 534.271 194.415 533.491 196.507 533.491C198.615 533.491 199.96 534.271 199.977 535.583C199.96 536.737 198.897 537.509 197.171 537.658V538.771C198.557 538.712 199.952 538.604 201.238 538.422L201.354 539.335C198.184 539.883 194.647 539.933 192.024 539.933L191.875 538.887ZM200.79 531.864V532.877H192.24V531.864H195.876V530.47H197.171V531.864H200.79ZM196.507 534.404C195.146 534.404 194.299 534.869 194.299 535.583C194.299 536.33 195.146 536.778 196.507 536.778C197.868 536.778 198.731 536.33 198.731 535.583C198.731 534.869 197.868 534.404 196.507 534.404Z" fill="black"/>
<path d="M157.111 578.34V579.452H143.598V578.34H157.111ZM155.816 568.08V569.159H153.476V574.322H155.783V575.385H144.826V574.322H147.134V569.159H144.793V568.08H155.816ZM148.429 574.322H152.197V569.159H148.429V574.322ZM171.804 578.423V579.519H158.29V578.423H164.366V575.634H159.983V571.085H168.815V568.761H159.95V567.682H170.094V572.147H161.278V574.555H170.442V575.634H165.645V578.423H171.804ZM182.645 566.918V575.484H181.383V571.483H179.125V570.404H181.383V566.918H182.645ZM177.349 569.757C177.349 571.367 178.428 573.11 180.304 573.891L179.623 574.887C178.237 574.306 177.266 573.202 176.768 571.932C176.245 573.368 175.215 574.604 173.746 575.252L173.049 574.223C174.975 573.409 176.087 571.517 176.087 569.757V568.877H173.331V567.798H179.955V568.877H177.349V569.757ZM185.517 566.586V575.617H184.271V566.586H185.517ZM185.517 576.265V581.345H184.238V577.327H175.572V576.265H185.517ZM199.628 574.571V575.634H189.418V567.864H199.462V568.96H190.746V571.151H199.146V572.197H190.746V574.571H199.628ZM201.188 578.34V579.419H187.675V578.34H201.188ZM211.946 569.757C211.946 571.749 213.523 573.542 215.731 574.239L215.067 575.285C213.349 574.704 211.979 573.492 211.315 571.932C210.668 573.617 209.282 574.945 207.53 575.584L206.85 574.538C209.058 573.758 210.635 571.849 210.635 569.757V568.894H207.182V567.831H215.35V568.894H211.946V569.757ZM218.819 566.603V577.427H217.524V566.603H218.819ZM219.284 579.934V581.029H209.29V576.397H210.585V579.934H219.284ZM233.86 566.586V575.933H232.615V571.699H230.64V575.401H229.411V566.885H230.64V570.62H232.615V566.586H233.86ZM228.813 568.362V569.408H221.243V568.362H224.397V566.702H225.692V568.362H228.813ZM225.045 570.205C226.921 570.205 228.199 571.185 228.216 572.729C228.199 574.239 226.921 575.235 225.045 575.235C223.186 575.235 221.874 574.239 221.891 572.729C221.874 571.185 223.186 570.205 225.045 570.205ZM225.045 571.168C223.866 571.168 223.053 571.799 223.053 572.729C223.053 573.642 223.866 574.256 225.045 574.256C226.224 574.256 227.037 573.642 227.037 572.729C227.037 571.799 226.224 571.168 225.045 571.168ZM228.979 576.182C232.084 576.182 233.943 577.111 233.943 578.771C233.943 580.382 232.084 581.312 228.979 581.312C225.875 581.312 224.016 580.382 224.032 578.771C224.016 577.111 225.875 576.182 228.979 576.182ZM228.979 577.211C226.688 577.194 225.311 577.759 225.327 578.771C225.311 579.734 226.688 580.299 228.979 580.299C231.271 580.299 232.632 579.734 232.648 578.771C232.632 577.759 231.271 577.194 228.979 577.211ZM245.216 568.977C245.216 570.985 246.743 572.828 248.885 573.559L248.171 574.588C246.536 573.99 245.249 572.77 244.602 571.234C243.971 572.969 242.659 574.339 240.933 575.003L240.235 573.957C242.443 573.127 243.921 571.151 243.938 568.877V567.35H245.216V568.977ZM251.823 566.586V570.438H254.048V571.533H251.823V575.567H250.528V566.586H251.823ZM247.092 575.949C250.13 575.949 251.956 576.929 251.956 578.622C251.956 580.349 250.13 581.312 247.092 581.312C244.054 581.312 242.194 580.349 242.194 578.622C242.194 576.929 244.054 575.949 247.092 575.949ZM247.092 576.995C244.867 576.995 243.489 577.609 243.506 578.622C243.489 579.668 244.867 580.266 247.092 580.282C249.333 580.266 250.694 579.668 250.694 578.622C250.694 577.609 249.333 576.995 247.092 576.995ZM266.499 566.603V571.052H268.707V572.147H266.499V576.613H265.188V566.603H266.499ZM261.734 576.796C264.806 576.779 266.582 577.593 266.599 579.07C266.582 580.548 264.806 581.328 261.734 581.345C258.646 581.328 256.887 580.548 256.887 579.07C256.887 577.593 258.646 576.779 261.734 576.796ZM261.734 577.775C259.46 577.759 258.182 578.24 258.198 579.07C258.182 579.867 259.46 580.349 261.734 580.349C263.992 580.349 265.271 579.867 265.271 579.07C265.271 578.24 263.992 577.759 261.734 577.775ZM254.911 574.887C256.098 574.887 257.476 574.878 258.912 574.837V573.658C257.186 573.517 256.09 572.745 256.09 571.583C256.09 570.271 257.451 569.491 259.543 569.491C261.651 569.491 262.996 570.271 263.013 571.583C262.996 572.737 261.934 573.509 260.207 573.658V574.771C261.593 574.712 262.988 574.604 264.274 574.422L264.391 575.335C261.22 575.883 257.684 575.933 255.061 575.933L254.911 574.887ZM263.826 567.864V568.877H255.276V567.864H258.912V566.47H260.207V567.864H263.826ZM259.543 570.404C258.182 570.404 257.335 570.869 257.335 571.583C257.335 572.33 258.182 572.778 259.543 572.778C260.904 572.778 261.768 572.33 261.768 571.583C261.768 570.869 260.904 570.404 259.543 570.404ZM282.32 566.586V581.345H281.059V566.586H282.32ZM279.349 566.901V580.598H278.104V573.426H276.211C276.07 576.298 274.85 578.091 273.023 578.091C271.098 578.091 269.853 576.099 269.853 572.961C269.853 569.823 271.098 567.831 273.023 567.831C274.816 567.831 276.028 569.566 276.194 572.347H278.104V566.901H279.349ZM273.023 569.06C271.828 569.06 271.064 570.554 271.081 572.961C271.064 575.352 271.828 576.862 273.023 576.846C274.219 576.862 274.982 575.352 274.982 572.961C274.982 570.554 274.219 569.06 273.023 569.06ZM301.246 566.586V581.345H300.001V573.608H297.826V580.581H296.631V566.918H297.826V572.529H300.001V566.586H301.246ZM294.705 568.396V569.475H290.472V576.58C292.505 576.572 293.917 576.497 295.552 576.165L295.668 577.261C293.892 577.626 292.381 577.692 290.123 577.692H289.177V568.396H294.705ZM310.692 569.143V570.205H303.288V569.143H306.359V567.034H307.654V569.143H310.692ZM306.99 571.201C308.85 571.201 310.178 572.596 310.194 574.555C310.178 576.53 308.85 577.941 306.99 577.941C305.147 577.941 303.819 576.53 303.819 574.555C303.819 572.596 305.147 571.201 306.99 571.201ZM306.99 572.297C305.828 572.313 304.981 573.26 304.981 574.555C304.981 575.866 305.828 576.812 306.99 576.796C308.169 576.812 309.032 575.866 309.032 574.555C309.032 573.26 308.169 572.313 306.99 572.297ZM315.889 566.586V581.345H314.644V573.891H312.685V580.614H311.456V566.951H312.685V572.812H314.644V566.586H315.889ZM327.277 569.325C327.277 571.284 328.722 573.077 330.913 573.841L330.249 574.854C328.564 574.256 327.277 573.044 326.646 571.517C326.016 573.193 324.663 574.497 322.928 575.136L322.23 574.123C324.438 573.343 325.982 571.434 325.999 569.325V568.694H322.629V567.632H330.598V568.694H327.277V569.325ZM333.818 566.586V570.487H336.043V571.6H333.818V575.484H332.523V566.586H333.818ZM333.818 576.265V581.345H332.523V577.327H324.156V576.265H333.818ZM342.053 568.91C342.036 571.019 343.53 572.878 345.705 573.608L344.975 574.621C343.348 574.007 342.069 572.812 341.438 571.251C340.799 573.019 339.446 574.397 337.67 575.069L336.956 574.007C339.23 573.21 340.741 571.251 340.758 568.96V567.433H342.053V568.91ZM349.208 566.586V575.335H347.896V570.836H344.609V569.757H347.896V566.586H349.208ZM344.311 575.767C347.382 575.767 349.258 576.779 349.258 578.556C349.258 580.315 347.382 581.312 344.311 581.312C341.239 581.312 339.363 580.315 339.363 578.556C339.363 576.779 341.239 575.767 344.311 575.767ZM344.311 576.796C342.053 576.796 340.642 577.46 340.658 578.556C340.642 579.618 342.053 580.266 344.311 580.266C346.568 580.266 347.963 579.618 347.963 578.556C347.963 577.46 346.568 576.796 344.311 576.796ZM359.036 569.143V570.205H351.632V569.143H354.703V567.034H355.998V569.143H359.036ZM355.334 571.201C357.193 571.201 358.521 572.596 358.538 574.555C358.521 576.53 357.193 577.941 355.334 577.941C353.491 577.941 352.163 576.53 352.163 574.555C352.163 572.596 353.491 571.201 355.334 571.201ZM355.334 572.297C354.172 572.313 353.325 573.26 353.325 574.555C353.325 575.866 354.172 576.812 355.334 576.796C356.513 576.812 357.376 575.866 357.376 574.555C357.376 573.26 356.513 572.313 355.334 572.297ZM364.232 566.586V581.345H362.987V573.891H361.028V580.614H359.8V566.951H361.028V572.812H362.987V566.586H364.232ZM373.812 568.678C373.795 570.653 376.435 572.33 379.008 572.712L378.526 573.741C376.219 573.351 373.978 572.123 373.081 570.338C372.185 572.123 369.935 573.351 367.669 573.741L367.154 572.712C369.711 572.33 372.351 570.653 372.351 568.678V568.578H367.619V567.516H378.526V568.578H373.812V568.678ZM379.805 575.003V576.082H373.695V581.345H372.417V576.082H366.357V575.003H379.805ZM385.433 570.786C385.433 573.127 386.578 575.667 388.537 576.829L387.79 577.842C386.371 576.979 385.35 575.401 384.835 573.608C384.287 575.567 383.191 577.252 381.714 578.157L380.884 577.178C382.926 575.982 384.171 573.359 384.171 570.836V567.98H385.433V570.786ZM393.7 566.586V581.345H392.438V566.586H393.7ZM390.646 566.901V580.598H389.417V572.994H386.91V571.882H389.417V566.901H390.646ZM409.256 578.356V579.452H395.742V578.356H399.096V574.372C397.834 573.716 397.07 572.654 397.07 571.317C397.07 569.026 399.312 567.532 402.466 567.516C405.62 567.532 407.861 569.026 407.861 571.317C407.861 572.629 407.123 573.683 405.902 574.339V578.356H409.256ZM402.466 568.595C400.042 568.578 398.332 569.674 398.332 571.317C398.332 572.961 400.042 574.073 402.466 574.073C404.873 574.073 406.6 572.961 406.6 571.317C406.6 569.674 404.873 568.578 402.466 568.595ZM400.374 578.356H404.591V574.837C403.952 575.011 403.238 575.103 402.466 575.103C401.71 575.103 401.005 575.02 400.374 574.854V578.356Z" fill="#ACACAC"/>
<mask id="path-15-inside-3_182_103" fill="white">
<path d="M103 693H1817V886H103V693Z"/>
</mask>
<path d="M103 693H1817V886H103V693Z" fill="white"/>
<path d="M1817 885.5H103V886.5H1817V885.5Z" fill="black" mask="url(#path-15-inside-3_182_103)"/>
<path d="M155.767 723.586V738.378H154.455V723.586H155.767ZM147.914 724.731C150.105 724.748 151.683 726.74 151.683 729.878C151.683 733.016 150.105 735.008 147.914 735.008C145.706 735.008 144.146 733.016 144.146 729.878C144.146 726.74 145.706 724.748 147.914 724.731ZM147.914 725.894C146.437 725.91 145.407 727.471 145.407 729.878C145.407 732.285 146.437 733.846 147.914 733.846C149.392 733.846 150.421 732.285 150.421 729.878C150.421 727.471 149.392 725.91 147.914 725.894ZM171.787 732.036V733.115H168.334V738.461H167.039V733.115H163.038V738.461H161.743V733.115H158.273V732.036H171.787ZM165.694 724.964C165.694 727.056 168.434 728.882 171.057 729.264L170.542 730.343C168.259 729.936 165.993 728.649 165.047 726.823C164.092 728.674 161.826 729.936 159.519 730.343L158.987 729.264C161.644 728.882 164.35 727.089 164.35 724.964V724.117H165.694V724.964ZM184.952 724.549V730.559H178.029V724.549H184.952ZM179.308 725.611V729.529H183.674V725.611H179.308ZM189.418 723.586V732.069H188.14V723.586H189.418ZM185.417 734.095C185.417 735.539 187.774 736.967 190.314 737.282L189.866 738.295C187.642 737.996 185.616 736.95 184.753 735.572C183.856 736.975 181.781 737.996 179.557 738.295L179.092 737.282C181.632 737 184.072 735.572 184.072 734.095H179.706V733.082H184.089V731.638H185.384V733.082H189.8V734.095H185.417ZM203.579 726.143V727.205H196.175V726.143H199.246V724.034H200.541V726.143H203.579ZM199.877 728.201C201.736 728.201 203.064 729.596 203.081 731.555C203.064 733.53 201.736 734.941 199.877 734.941C198.034 734.941 196.706 733.53 196.706 731.555C196.706 729.596 198.034 728.201 199.877 728.201ZM199.877 729.297C198.715 729.313 197.868 730.26 197.868 731.555C197.868 732.866 198.715 733.812 199.877 733.796C201.056 733.812 201.919 732.866 201.919 731.555C201.919 730.26 201.056 729.313 199.877 729.297ZM208.775 723.586V738.345H207.53V730.891H205.571V737.614H204.343V723.951H205.571V729.812H207.53V723.586H208.775ZM223.136 723.586V731.14H221.824V729.596H217.89V728.566H221.824V726.79H218.105C217.176 729.123 214.885 730.691 211.614 731.472L211.149 730.393C214.769 729.554 216.877 727.786 217.126 725.412H211.896V724.333H218.554C218.554 724.823 218.504 725.296 218.421 725.744H221.824V723.586H223.136ZM223.136 731.804V735.406H214.901V737.133H223.634V738.212H213.606V734.41H221.824V732.866H213.573V731.804H223.136Z" fill="black"/>
<path d="M155.767 759.586V774.378H154.455V759.586H155.767ZM147.914 760.731C150.105 760.748 151.683 762.74 151.683 765.878C151.683 769.016 150.105 771.008 147.914 771.008C145.706 771.008 144.146 769.016 144.146 765.878C144.146 762.74 145.706 760.748 147.914 760.731ZM147.914 761.894C146.437 761.91 145.407 763.471 145.407 765.878C145.407 768.285 146.437 769.846 147.914 769.846C149.392 769.846 150.421 768.285 150.421 765.878C150.421 763.471 149.392 761.91 147.914 761.894ZM171.787 768.036V769.115H168.334V774.461H167.039V769.115H163.038V774.461H161.743V769.115H158.273V768.036H171.787ZM165.694 760.964C165.694 763.056 168.434 764.882 171.057 765.264L170.542 766.343C168.259 765.936 165.993 764.649 165.047 762.823C164.092 764.674 161.826 765.936 159.519 766.343L158.987 765.264C161.644 764.882 164.35 763.089 164.35 760.964V760.117H165.694V760.964ZM184.952 760.549V766.559H178.029V760.549H184.952ZM179.308 761.611V765.529H183.674V761.611H179.308ZM189.418 759.586V768.069H188.14V759.586H189.418ZM185.417 770.095C185.417 771.539 187.774 772.967 190.314 773.282L189.866 774.295C187.642 773.996 185.616 772.95 184.753 771.572C183.856 772.975 181.781 773.996 179.557 774.295L179.092 773.282C181.632 773 184.072 771.572 184.072 770.095H179.706V769.082H184.089V767.638H185.384V769.082H189.8V770.095H185.417ZM203.579 762.143V763.205H196.175V762.143H199.246V760.034H200.541V762.143H203.579ZM199.877 764.201C201.736 764.201 203.064 765.596 203.081 767.555C203.064 769.53 201.736 770.941 199.877 770.941C198.034 770.941 196.706 769.53 196.706 767.555C196.706 765.596 198.034 764.201 199.877 764.201ZM199.877 765.297C198.715 765.313 197.868 766.26 197.868 767.555C197.868 768.866 198.715 769.812 199.877 769.796C201.056 769.812 201.919 768.866 201.919 767.555C201.919 766.26 201.056 765.313 199.877 765.297ZM208.775 759.586V774.345H207.53V766.891H205.571V773.614H204.343V759.951H205.571V765.812H207.53V759.586H208.775ZM223.136 759.586V767.14H221.824V765.596H217.89V764.566H221.824V762.79H218.105C217.176 765.123 214.885 766.691 211.614 767.472L211.149 766.393C214.769 765.554 216.877 763.786 217.126 761.412H211.896V760.333H218.554C218.554 760.823 218.504 761.296 218.421 761.744H221.824V759.586H223.136ZM223.136 767.804V771.406H214.901V773.133H223.634V774.212H213.606V770.41H221.824V768.866H213.573V767.804H223.136ZM238.243 759.586V774.345H236.981V759.586H238.243ZM235.271 759.901V773.598H234.026V766.426H232.134C231.993 769.298 230.772 771.091 228.946 771.091C227.021 771.091 225.775 769.099 225.775 765.961C225.775 762.823 227.021 760.831 228.946 760.831C230.739 760.831 231.951 762.566 232.117 765.347H234.026V759.901H235.271ZM228.946 762.06C227.751 762.06 226.987 763.554 227.004 765.961C226.987 768.352 227.751 769.862 228.946 769.846C230.142 769.862 230.905 768.352 230.905 765.961C230.905 763.554 230.142 762.06 228.946 762.06ZM257.169 759.586V774.345H255.924V766.608H253.749V773.581H252.554V759.918H253.749V765.529H255.924V759.586H257.169ZM250.628 761.396V762.475H246.395V769.58C248.428 769.572 249.839 769.497 251.475 769.165L251.591 770.261C249.814 770.626 248.304 770.692 246.046 770.692H245.1V761.396H250.628ZM266.615 762.143V763.205H259.211V762.143H262.282V760.034H263.577V762.143H266.615ZM262.913 764.201C264.772 764.201 266.101 765.596 266.117 767.555C266.101 769.53 264.772 770.941 262.913 770.941C261.07 770.941 259.742 769.53 259.742 767.555C259.742 765.596 261.07 764.201 262.913 764.201ZM262.913 765.297C261.751 765.313 260.904 766.26 260.904 767.555C260.904 768.866 261.751 769.812 262.913 769.796C264.092 769.812 264.955 768.866 264.955 767.555C264.955 766.26 264.092 765.313 262.913 765.297ZM271.812 759.586V774.345H270.566V766.891H268.607V773.614H267.379V759.951H268.607V765.812H270.566V759.586H271.812ZM283.2 762.325C283.2 764.284 284.645 766.077 286.836 766.841L286.172 767.854C284.487 767.256 283.2 766.044 282.569 764.517C281.938 766.193 280.585 767.497 278.851 768.136L278.153 767.123C280.361 766.343 281.905 764.434 281.922 762.325V761.694H278.552V760.632H286.521V761.694H283.2V762.325ZM289.741 759.586V763.487H291.966V764.6H289.741V768.484H288.446V759.586H289.741ZM289.741 769.265V774.345H288.446V770.327H280.079V769.265H289.741ZM297.976 761.91C297.959 764.019 299.453 765.878 301.628 766.608L300.897 767.621C299.271 767.007 297.992 765.812 297.361 764.251C296.722 766.019 295.369 767.397 293.593 768.069L292.879 767.007C295.153 766.21 296.664 764.251 296.681 761.96V760.433H297.976V761.91ZM305.131 759.586V768.335H303.819V763.836H300.532V762.757H303.819V759.586H305.131ZM300.233 768.767C303.305 768.767 305.181 769.779 305.181 771.556C305.181 773.315 303.305 774.312 300.233 774.312C297.162 774.312 295.286 773.315 295.286 771.556C295.286 769.779 297.162 768.767 300.233 768.767ZM300.233 769.796C297.976 769.796 296.564 770.46 296.581 771.556C296.564 772.618 297.976 773.266 300.233 773.266C302.491 773.266 303.886 772.618 303.886 771.556C303.886 770.46 302.491 769.796 300.233 769.796ZM314.959 762.143V763.205H307.555V762.143H310.626V760.034H311.921V762.143H314.959ZM311.257 764.201C313.116 764.201 314.444 765.596 314.461 767.555C314.444 769.53 313.116 770.941 311.257 770.941C309.414 770.941 308.086 769.53 308.086 767.555C308.086 765.596 309.414 764.201 311.257 764.201ZM311.257 765.297C310.095 765.313 309.248 766.26 309.248 767.555C309.248 768.866 310.095 769.812 311.257 769.796C312.436 769.812 313.299 768.866 313.299 767.555C313.299 766.26 312.436 765.313 311.257 765.297ZM320.155 759.586V774.345H318.91V766.891H316.951V773.614H315.723V759.951H316.951V765.812H318.91V759.586H320.155ZM329.734 761.678C329.718 763.653 332.357 765.33 334.931 765.712L334.449 766.741C332.142 766.351 329.9 765.123 329.004 763.338C328.107 765.123 325.858 766.351 323.592 766.741L323.077 765.712C325.634 765.33 328.273 763.653 328.273 761.678V761.578H323.542V760.516H334.449V761.578H329.734V761.678ZM335.728 768.003V769.082H329.618V774.345H328.34V769.082H322.28V768.003H335.728ZM341.355 763.786C341.355 766.127 342.501 768.667 344.46 769.829L343.713 770.842C342.293 769.979 341.272 768.401 340.758 766.608C340.21 768.567 339.114 770.252 337.637 771.157L336.807 770.178C338.849 768.982 340.094 766.359 340.094 763.836V760.98H341.355V763.786ZM349.623 759.586V774.345H348.361V759.586H349.623ZM346.568 759.901V773.598H345.34V765.994H342.833V764.882H345.34V759.901H346.568ZM365.179 771.356V772.452H351.665V771.356H355.019V767.372C353.757 766.716 352.993 765.654 352.993 764.317C352.993 762.026 355.234 760.532 358.389 760.516C361.543 760.532 363.784 762.026 363.784 764.317C363.784 765.629 363.045 766.683 361.825 767.339V771.356H365.179ZM358.389 761.595C355.965 761.578 354.255 762.674 354.255 764.317C354.255 765.961 355.965 767.073 358.389 767.073C360.796 767.073 362.522 765.961 362.522 764.317C362.522 762.674 360.796 761.578 358.389 761.595ZM356.297 771.356H360.514V767.837C359.875 768.011 359.161 768.103 358.389 768.103C357.633 768.103 356.928 768.02 356.297 767.854V771.356Z" fill="#ACACAC"/>
<mask id="path-19-inside-4_182_103" fill="white">
<path d="M103 886H1817V1163H103V886Z"/>
</mask>
<path d="M103 886H1817V1163H103V886Z" fill="white"/>
<path d="M1817 1162.5H103V1163.5H1817V1162.5Z" fill="black" mask="url(#path-19-inside-4_182_103)"/>
<path d="M155.833 916.586V924.14H154.521V922.596H150.587V921.566H154.521V919.79H150.803C149.873 922.123 147.582 923.691 144.312 924.472L143.847 923.393C147.466 922.554 149.574 920.786 149.823 918.412H144.594V917.333H151.251C151.251 917.823 151.201 918.296 151.118 918.744H154.521V916.586H155.833ZM155.833 924.804V928.406H147.599V930.133H156.331V931.212H146.304V927.41H154.521V925.866H146.271V924.804H155.833ZM166.475 918.229V918.993C166.458 920.155 166.458 922.114 166.043 924.854L164.731 924.737C165.13 922.264 165.163 920.471 165.163 919.292H158.971V918.229H166.475ZM162.606 922.446V926.929C164.242 926.871 165.918 926.763 167.454 926.58L167.521 927.56C164.416 928.041 160.946 928.107 158.307 928.091L158.141 927.012C159.112 927.003 160.191 926.995 161.328 926.962V922.446H162.606ZM169.679 916.586V922.762H172.069V923.891H169.679V931.345H168.384V916.586H169.679ZM186.43 922.828V923.891H180.337V925.352H184.703V928.655H175.938V930.149H185.151V931.179H174.643V927.676H183.425V926.364H174.609V925.352H179.042V923.891H172.982V922.828H186.43ZM184.687 917.084V921.583H174.726V917.084H184.687ZM176.021 918.13V920.537H183.392V918.13H176.021Z" fill="black"/>
<path d="M155.833 952.586V960.14H154.521V958.596H150.587V957.566H154.521V955.79H150.803C149.873 958.123 147.582 959.691 144.312 960.472L143.847 959.393C147.466 958.554 149.574 956.786 149.823 954.412H144.594V953.333H151.251C151.251 953.823 151.201 954.296 151.118 954.744H154.521V952.586H155.833ZM155.833 960.804V964.406H147.599V966.133H156.331V967.212H146.304V963.41H154.521V961.866H146.271V960.804H155.833ZM166.475 954.229V954.993C166.458 956.155 166.458 958.114 166.043 960.854L164.731 960.737C165.13 958.264 165.163 956.471 165.163 955.292H158.971V954.229H166.475ZM162.606 958.446V962.929C164.242 962.871 165.918 962.763 167.454 962.58L167.521 963.56C164.416 964.041 160.946 964.107 158.307 964.091L158.141 963.012C159.112 963.003 160.191 962.995 161.328 962.962V958.446H162.606ZM169.679 952.586V958.762H172.069V959.891H169.679V967.345H168.384V952.586H169.679ZM186.43 958.828V959.891H180.337V961.352H184.703V964.655H175.938V966.149H185.151V967.179H174.643V963.676H183.425V962.364H174.609V961.352H179.042V959.891H172.982V958.828H186.43ZM184.687 953.084V957.583H174.726V953.084H184.687ZM176.021 954.13V956.537H183.392V954.13H176.021ZM200.325 952.586V967.345H199.063V952.586H200.325ZM197.354 952.901V966.598H196.108V959.426H194.216C194.075 962.298 192.854 964.091 191.028 964.091C189.103 964.091 187.857 962.099 187.857 958.961C187.857 955.823 189.103 953.831 191.028 953.831C192.821 953.831 194.033 955.566 194.199 958.347H196.108V952.901H197.354ZM191.028 955.06C189.833 955.06 189.069 956.554 189.086 958.961C189.069 961.352 189.833 962.862 191.028 962.846C192.224 962.862 192.987 961.352 192.987 958.961C192.987 956.554 192.224 955.06 191.028 955.06ZM219.251 952.586V967.345H218.006V959.608H215.831V966.581H214.636V952.918H215.831V958.529H218.006V952.586H219.251ZM212.71 954.396V955.475H208.477V962.58C210.51 962.572 211.921 962.497 213.557 962.165L213.673 963.261C211.896 963.626 210.386 963.692 208.128 963.692H207.182V954.396H212.71ZM228.697 955.143V956.205H221.293V955.143H224.364V953.034H225.659V955.143H228.697ZM224.995 957.201C226.854 957.201 228.183 958.596 228.199 960.555C228.183 962.53 226.854 963.941 224.995 963.941C223.152 963.941 221.824 962.53 221.824 960.555C221.824 958.596 223.152 957.201 224.995 957.201ZM224.995 958.297C223.833 958.313 222.986 959.26 222.986 960.555C222.986 961.866 223.833 962.812 224.995 962.796C226.174 962.812 227.037 961.866 227.037 960.555C227.037 959.26 226.174 958.313 224.995 958.297ZM233.894 952.586V967.345H232.648V959.891H230.689V966.614H229.461V952.951H230.689V958.812H232.648V952.586H233.894ZM245.282 955.325C245.282 957.284 246.727 959.077 248.918 959.841L248.254 960.854C246.569 960.256 245.282 959.044 244.651 957.517C244.021 959.193 242.667 960.497 240.933 961.136L240.235 960.123C242.443 959.343 243.987 957.434 244.004 955.325V954.694H240.634V953.632H248.603V954.694H245.282V955.325ZM251.823 952.586V956.487H254.048V957.6H251.823V961.484H250.528V952.586H251.823ZM251.823 962.265V967.345H250.528V963.327H242.161V962.265H251.823ZM260.058 954.91C260.041 957.019 261.535 958.878 263.71 959.608L262.979 960.621C261.353 960.007 260.074 958.812 259.443 957.251C258.804 959.019 257.451 960.397 255.675 961.069L254.961 960.007C257.235 959.21 258.746 957.251 258.763 954.96V953.433H260.058V954.91ZM267.213 952.586V961.335H265.901V956.836H262.614V955.757H265.901V952.586H267.213ZM262.315 961.767C265.387 961.767 267.263 962.779 267.263 964.556C267.263 966.315 265.387 967.312 262.315 967.312C259.244 967.312 257.368 966.315 257.368 964.556C257.368 962.779 259.244 961.767 262.315 961.767ZM262.315 962.796C260.058 962.796 258.646 963.46 258.663 964.556C258.646 965.618 260.058 966.266 262.315 966.266C264.573 966.266 265.968 965.618 265.968 964.556C265.968 963.46 264.573 962.796 262.315 962.796ZM277.041 955.143V956.205H269.637V955.143H272.708V953.034H274.003V955.143H277.041ZM273.339 957.201C275.198 957.201 276.526 958.596 276.543 960.555C276.526 962.53 275.198 963.941 273.339 963.941C271.496 963.941 270.168 962.53 270.168 960.555C270.168 958.596 271.496 957.201 273.339 957.201ZM273.339 958.297C272.177 958.313 271.33 959.26 271.33 960.555C271.33 961.866 272.177 962.812 273.339 962.796C274.518 962.812 275.381 961.866 275.381 960.555C275.381 959.26 274.518 958.313 273.339 958.297ZM282.237 952.586V967.345H280.992V959.891H279.033V966.614H277.805V952.951H279.033V958.812H280.992V952.586H282.237ZM291.816 954.678C291.8 956.653 294.439 958.33 297.013 958.712L296.531 959.741C294.224 959.351 291.982 958.123 291.086 956.338C290.189 958.123 287.94 959.351 285.674 959.741L285.159 958.712C287.716 958.33 290.355 956.653 290.355 954.678V954.578H285.624V953.516H296.531V954.578H291.816V954.678ZM297.81 961.003V962.082H291.7V967.345H290.422V962.082H284.362V961.003H297.81ZM303.438 956.786C303.438 959.127 304.583 961.667 306.542 962.829L305.795 963.842C304.375 962.979 303.354 961.401 302.84 959.608C302.292 961.567 301.196 963.252 299.719 964.157L298.889 963.178C300.931 961.982 302.176 959.359 302.176 956.836V953.98H303.438V956.786ZM311.705 952.586V967.345H310.443V952.586H311.705ZM308.65 952.901V966.598H307.422V958.994H304.915V957.882H307.422V952.901H308.65ZM327.261 964.356V965.452H313.747V964.356H317.101V960.372C315.839 959.716 315.075 958.654 315.075 957.317C315.075 955.026 317.316 953.532 320.471 953.516C323.625 953.532 325.866 955.026 325.866 957.317C325.866 958.629 325.127 959.683 323.907 960.339V964.356H327.261ZM320.471 954.595C318.047 954.578 316.337 955.674 316.337 957.317C316.337 958.961 318.047 960.073 320.471 960.073C322.878 960.073 324.604 958.961 324.604 957.317C324.604 955.674 322.878 954.578 320.471 954.595ZM318.379 964.356H322.596V960.837C321.957 961.011 321.243 961.103 320.471 961.103C319.715 961.103 319.01 961.02 318.379 960.854V964.356Z" fill="#ACACAC"/>
<rect width="1714" height="206" transform="translate(103 1163)" fill="white"/>
<path d="M156.198 1193.59V1208.34H154.92V1200.62H152.878V1207.61H151.633V1193.98H152.878V1199.55H154.92V1193.59H156.198ZM149.956 1195.51C149.939 1199.26 148.628 1202.82 144.378 1205.17L143.614 1204.26C147.042 1202.35 148.462 1199.65 148.678 1196.59H144.179V1195.51H149.956ZM160.199 1194.22V1196.34H164.499V1194.22H165.794V1200.64H158.921V1194.22H160.199ZM160.199 1199.58H164.499V1197.35H160.199V1199.58ZM169.828 1193.59V1196.79H172.053V1197.89H169.828V1201.22H168.533V1193.59H169.828ZM169.828 1201.92V1205.49H161.727V1207.12H170.376V1208.18H160.448V1204.49H168.533V1202.97H160.415V1201.92H169.828ZM183.441 1195.31V1199.16H185.683V1193.9H186.928V1207.6H185.683V1200.24H183.441V1204.38H177.797V1195.31H183.441ZM179.025 1196.36V1203.33H182.213V1196.36H179.025ZM189.899 1193.59V1208.34H188.638V1193.59H189.899ZM205.455 1205.36V1206.45H191.941V1205.36H198.018V1201.75H193.535V1194.83H203.778V1201.75H199.296V1205.36H205.455ZM194.813 1195.88V1200.71H202.517V1195.88H194.813Z" fill="black"/>
<path d="M157.111 1241.34V1242.45H143.598V1241.34H157.111ZM155.816 1231.08V1232.16H153.476V1237.32H155.783V1238.38H144.826V1237.32H147.134V1232.16H144.793V1231.08H155.816ZM148.429 1237.32H152.197V1232.16H148.429V1237.32ZM171.804 1241.42V1242.52H158.29V1241.42H164.366V1238.63H159.983V1234.08H168.815V1231.76H159.95V1230.68H170.094V1235.15H161.278V1237.55H170.442V1238.63H165.645V1241.42H171.804ZM182.645 1229.92V1238.48H181.383V1234.48H179.125V1233.4H181.383V1229.92H182.645ZM177.349 1232.76C177.349 1234.37 178.428 1236.11 180.304 1236.89L179.623 1237.89C178.237 1237.31 177.266 1236.2 176.768 1234.93C176.245 1236.37 175.215 1237.6 173.746 1238.25L173.049 1237.22C174.975 1236.41 176.087 1234.52 176.087 1232.76V1231.88H173.331V1230.8H179.955V1231.88H177.349V1232.76ZM185.517 1229.59V1238.62H184.271V1229.59H185.517ZM185.517 1239.26V1244.34H184.238V1240.33H175.572V1239.26H185.517ZM199.628 1237.57V1238.63H189.418V1230.86H199.462V1231.96H190.746V1234.15H199.146V1235.2H190.746V1237.57H199.628ZM201.188 1241.34V1242.42H187.675V1241.34H201.188ZM215.018 1229.59V1244.34H213.756V1229.59H215.018ZM212.046 1229.9V1243.6H210.801V1236.43H208.908C208.767 1239.3 207.547 1241.09 205.721 1241.09C203.795 1241.09 202.55 1239.1 202.55 1235.96C202.55 1232.82 203.795 1230.83 205.721 1230.83C207.514 1230.83 208.726 1232.57 208.892 1235.35H210.801V1229.9H212.046ZM205.721 1232.06C204.525 1232.06 203.762 1233.55 203.778 1235.96C203.762 1238.35 204.525 1239.86 205.721 1239.85C206.916 1239.86 207.68 1238.35 207.68 1235.96C207.68 1233.55 206.916 1232.06 205.721 1232.06ZM233.943 1229.59V1244.34H232.698V1236.61H230.523V1243.58H229.328V1229.92H230.523V1235.53H232.698V1229.59H233.943ZM227.402 1231.4V1232.47H223.169V1239.58C225.203 1239.57 226.614 1239.5 228.249 1239.17L228.365 1240.26C226.589 1240.63 225.078 1240.69 222.82 1240.69H221.874V1231.4H227.402ZM243.39 1232.14V1233.21H235.985V1232.14H239.057V1230.03H240.352V1232.14H243.39ZM239.688 1234.2C241.547 1234.2 242.875 1235.6 242.892 1237.55C242.875 1239.53 241.547 1240.94 239.688 1240.94C237.845 1240.94 236.517 1239.53 236.517 1237.55C236.517 1235.6 237.845 1234.2 239.688 1234.2ZM239.688 1235.3C238.525 1235.31 237.679 1236.26 237.679 1237.55C237.679 1238.87 238.525 1239.81 239.688 1239.8C240.866 1239.81 241.729 1238.87 241.729 1237.55C241.729 1236.26 240.866 1235.31 239.688 1235.3ZM248.586 1229.59V1244.34H247.341V1236.89H245.382V1243.61H244.153V1229.95H245.382V1235.81H247.341V1229.59H248.586ZM261.17 1231.31V1235.16H263.411V1229.9H264.656V1243.6H263.411V1236.24H261.17V1240.38H255.525V1231.31H261.17ZM256.754 1232.36V1239.33H259.941V1232.36H256.754ZM267.628 1229.59V1244.34H266.366V1229.59H267.628ZM283.184 1241.36V1242.45H269.67V1241.36H275.746V1237.75H271.264V1230.83H281.507V1237.75H277.024V1241.36H283.184ZM272.542 1231.88V1236.71H280.245V1231.88H272.542ZM295.9 1229.54V1233.12H298.142V1234.2H295.9V1237.7H294.605V1229.54H295.9ZM295.9 1238.47V1241.74H287.799V1243.18H296.448V1244.18H286.521V1240.78H294.605V1239.45H286.487V1238.47H295.9ZM293.194 1230.93V1231.98H284.396V1230.93H288.147V1229.44H289.442V1230.93H293.194ZM288.795 1232.64C290.937 1232.64 292.331 1233.57 292.348 1235.06C292.331 1236.56 290.937 1237.49 288.795 1237.49C286.637 1237.49 285.226 1236.56 285.242 1235.06C285.226 1233.57 286.637 1232.64 288.795 1232.64ZM288.795 1233.6C287.4 1233.6 286.471 1234.18 286.487 1235.06C286.471 1235.96 287.4 1236.51 288.795 1236.51C290.189 1236.51 291.103 1235.96 291.119 1235.06C291.103 1234.18 290.189 1233.6 288.795 1233.6ZM315.557 1229.6V1239.6H314.245V1234.85H311.008V1233.75H314.245V1229.6H315.557ZM310.941 1230.76C310.925 1234.55 308.401 1237.27 304.151 1238.63L303.57 1237.59C307.098 1236.5 309.273 1234.45 309.547 1231.83H304.301V1230.76H310.941ZM311.406 1238.98C311.406 1241.14 313.764 1242.75 316.37 1243.22L315.822 1244.26C313.647 1243.84 311.647 1242.7 310.775 1240.97C309.871 1242.71 307.845 1243.86 305.646 1244.29L305.114 1243.27C307.721 1242.82 310.111 1241.16 310.128 1238.98V1238.3H311.406V1238.98ZM330.183 1229.59V1244.38H328.871V1229.59H330.183ZM322.33 1230.73C324.521 1230.75 326.099 1232.74 326.099 1235.88C326.099 1239.02 324.521 1241.01 322.33 1241.01C320.122 1241.01 318.562 1239.02 318.562 1235.88C318.562 1232.74 320.122 1230.75 322.33 1230.73ZM322.33 1231.89C320.853 1231.91 319.823 1233.47 319.823 1235.88C319.823 1238.29 320.853 1239.85 322.33 1239.85C323.808 1239.85 324.837 1238.29 324.837 1235.88C324.837 1233.47 323.808 1231.91 322.33 1231.89ZM341.97 1239.5C341.97 1240.8 342.667 1242.19 344.078 1242.98C345.473 1242.11 346.22 1240.64 346.22 1239.5V1238.68H347.498V1239.5C347.498 1241.01 348.61 1242.54 350.503 1243.18L349.855 1244.15C348.378 1243.62 347.34 1242.59 346.834 1241.36C346.377 1242.55 345.473 1243.68 344.111 1244.26C342.675 1243.71 341.762 1242.63 341.322 1241.39C340.799 1242.58 339.778 1243.61 338.367 1244.15L337.703 1243.18C339.562 1242.49 340.691 1240.91 340.708 1239.5V1238.68H341.97V1239.5ZM349.158 1229.6V1238.04H347.863V1229.6H349.158ZM341.189 1230.47C343.431 1230.47 345.058 1231.86 345.058 1233.92C345.058 1235.94 343.431 1237.34 341.189 1237.34C338.948 1237.34 337.321 1235.94 337.321 1233.92C337.321 1231.86 338.948 1230.47 341.189 1230.47ZM341.189 1231.58C339.679 1231.56 338.583 1232.54 338.6 1233.92C338.583 1235.28 339.679 1236.24 341.189 1236.26C342.684 1236.24 343.779 1235.28 343.779 1233.92C343.779 1232.54 342.684 1231.56 341.189 1231.58ZM363.087 1229.59V1235.43H365.561V1236.53H363.087V1244.38H361.792V1229.59H363.087ZM359.202 1231.03V1232.11H353.607V1239.58C356.28 1239.58 358.173 1239.46 360.364 1239.05L360.53 1240.18C358.223 1240.59 356.28 1240.68 353.475 1240.68H352.312V1231.03H359.202ZM373.828 1230.88V1232.19H377.281V1229.6H378.593V1240.38H377.281V1236.44H373.828V1237.77H367.055V1230.88H373.828ZM368.35 1231.96V1236.72H372.55V1231.96H368.35ZM378.925 1242.93V1244.03H369.047V1239.41H370.358V1242.93H378.925ZM373.828 1235.36H377.281V1233.29H373.828V1235.36ZM390.313 1232.33C390.313 1234.28 391.758 1236.08 393.949 1236.84L393.285 1237.85C391.6 1237.26 390.313 1236.04 389.683 1234.52C389.052 1236.19 387.699 1237.5 385.964 1238.14L385.267 1237.12C387.475 1236.34 389.019 1234.43 389.035 1232.33V1231.69H385.665V1230.63H393.634V1231.69H390.313V1232.33ZM396.854 1229.59V1233.49H399.079V1234.6H396.854V1238.48H395.56V1229.59H396.854ZM396.854 1239.26V1244.34H395.56V1240.33H387.192V1239.26H396.854ZM405.089 1231.91C405.072 1234.02 406.566 1235.88 408.741 1236.61L408.011 1237.62C406.384 1237.01 405.105 1235.81 404.475 1234.25C403.835 1236.02 402.482 1237.4 400.706 1238.07L399.992 1237.01C402.267 1236.21 403.777 1234.25 403.794 1231.96V1230.43H405.089V1231.91ZM412.244 1229.59V1238.33H410.933V1233.84H407.646V1232.76H410.933V1229.59H412.244ZM407.347 1238.77C410.418 1238.77 412.294 1239.78 412.294 1241.56C412.294 1243.32 410.418 1244.31 407.347 1244.31C404.275 1244.31 402.399 1243.32 402.399 1241.56C402.399 1239.78 404.275 1238.77 407.347 1238.77ZM407.347 1239.8C405.089 1239.8 403.678 1240.46 403.694 1241.56C403.678 1242.62 405.089 1243.27 407.347 1243.27C409.604 1243.27 410.999 1242.62 410.999 1241.56C410.999 1240.46 409.604 1239.8 407.347 1239.8ZM422.072 1232.14V1233.21H414.668V1232.14H417.739V1230.03H419.034V1232.14H422.072ZM418.37 1234.2C420.229 1234.2 421.558 1235.6 421.574 1237.55C421.558 1239.53 420.229 1240.94 418.37 1240.94C416.527 1240.94 415.199 1239.53 415.199 1237.55C415.199 1235.6 416.527 1234.2 418.37 1234.2ZM418.37 1235.3C417.208 1235.31 416.361 1236.26 416.361 1237.55C416.361 1238.87 417.208 1239.81 418.37 1239.8C419.549 1239.81 420.412 1238.87 420.412 1237.55C420.412 1236.26 419.549 1235.31 418.37 1235.3ZM427.269 1229.59V1244.34H426.023V1236.89H424.064V1243.61H422.836V1229.95H424.064V1235.81H426.023V1229.59H427.269ZM436.848 1231.68C436.831 1233.65 439.471 1235.33 442.044 1235.71L441.562 1236.74C439.255 1236.35 437.014 1235.12 436.117 1233.34C435.221 1235.12 432.971 1236.35 430.705 1236.74L430.19 1235.71C432.747 1235.33 435.387 1233.65 435.387 1231.68V1231.58H430.655V1230.52H441.562V1231.58H436.848V1231.68ZM442.841 1238V1239.08H436.731V1244.34H435.453V1239.08H429.394V1238H442.841ZM448.469 1233.79C448.469 1236.13 449.614 1238.67 451.573 1239.83L450.826 1240.84C449.407 1239.98 448.386 1238.4 447.871 1236.61C447.323 1238.57 446.228 1240.25 444.75 1241.16L443.92 1240.18C445.962 1238.98 447.207 1236.36 447.207 1233.84V1230.98H448.469V1233.79ZM456.736 1229.59V1244.34H455.475V1229.59H456.736ZM453.682 1229.9V1243.6H452.453V1235.99H449.946V1234.88H452.453V1229.9H453.682ZM472.292 1241.36V1242.45H458.778V1241.36H462.132V1237.37C460.87 1236.72 460.106 1235.65 460.106 1234.32C460.106 1232.03 462.348 1230.53 465.502 1230.52C468.656 1230.53 470.897 1232.03 470.897 1234.32C470.897 1235.63 470.159 1236.68 468.938 1237.34V1241.36H472.292ZM465.502 1231.59C463.078 1231.58 461.368 1232.67 461.368 1234.32C461.368 1235.96 463.078 1237.07 465.502 1237.07C467.909 1237.07 469.636 1235.96 469.636 1234.32C469.636 1232.67 467.909 1231.58 465.502 1231.59ZM463.41 1241.36H467.627V1237.84C466.988 1238.01 466.274 1238.1 465.502 1238.1C464.747 1238.1 464.041 1238.02 463.41 1237.85V1241.36Z" fill="#ACACAC"/>
<mask id="path-25-inside-5_182_103" fill="white">
<path d="M103 238C103 234.686 105.686 232 109 232H1811C1814.31 232 1817 234.686 1817 238V296H103V238Z"/>
</mask>
<path d="M103 238C103 234.686 105.686 232 109 232H1811C1814.31 232 1817 234.686 1817 238V296H103V238Z" fill="white"/>
<path d="M103 232H1817H103ZM1817 296.5H103V295.5H1817V296.5ZM103 296V232V296ZM1817 232V296V232Z" fill="black" mask="url(#path-25-inside-5_182_103)"/>
<path d="M155.136 256.586V259.674H157.36V260.77H155.136V264.04H153.841V256.586H155.136ZM145.623 257.25V262.197C147.723 262.206 149.89 262.056 152.28 261.566L152.446 262.662C149.923 263.177 147.715 263.326 145.49 263.326H144.312V257.25H145.623ZM155.136 264.754V268.356H147.051V270.083H155.684V271.146H145.756V267.327H153.841V265.8H145.723V264.754H155.136ZM170.061 256.586V262.463H172.152V263.575H170.061V271.345H168.749V256.586H170.061ZM161.644 261.035C161.644 262.646 161.868 265.044 163.104 266.646C164.3 265.086 164.549 262.72 164.565 261.035V259.192H163.42V258.097H167.521V259.192H165.794V261.035C165.794 263.21 166.292 265.966 168.135 267.294L167.271 268.257C166.176 267.41 165.528 266.007 165.18 264.472C164.848 266.032 164.225 267.501 163.088 268.373C161.959 267.501 161.345 266.016 161.013 264.472C160.656 265.999 160.017 267.402 158.938 268.257L158.074 267.294C159.884 265.949 160.398 263.11 160.415 261.035V259.192H158.556V258.097H162.772V259.192H161.644V261.035Z" fill="black"/>
<path d="M230.136 256.586V259.674H232.36V260.77H230.136V264.04H228.841V256.586H230.136ZM220.623 257.25V262.197C222.723 262.206 224.89 262.056 227.28 261.566L227.446 262.662C224.923 263.177 222.715 263.326 220.49 263.326H219.312V257.25H220.623ZM230.136 264.754V268.356H222.051V270.083H230.684V271.146H220.756V267.327H228.841V265.8H220.723V264.754H230.136ZM245.061 256.586V262.463H247.152V263.575H245.061V271.345H243.749V256.586H245.061ZM236.644 261.035C236.644 262.646 236.868 265.044 238.104 266.646C239.3 265.086 239.549 262.72 239.565 261.035V259.192H238.42V258.097H242.521V259.192H240.794V261.035C240.794 263.21 241.292 265.966 243.135 267.294L242.271 268.257C241.176 267.41 240.528 266.007 240.18 264.472C239.848 266.032 239.225 267.501 238.088 268.373C236.959 267.501 236.345 266.016 236.013 264.472C235.656 265.999 235.017 267.402 233.938 268.257L233.074 267.294C234.884 265.949 235.398 263.11 235.415 261.035V259.192H233.556V258.097H237.772V259.192H236.644V261.035ZM261.479 263.442V264.472H247.966V263.442H261.479ZM259.786 265.65V268.788H250.921V270.199H260.268V271.146H249.609V267.892H258.491V266.63H249.593V265.65H259.786ZM259.736 257.034V260.089H251.021V261.384H260.002V262.33H249.726V259.192H258.425V257.98H249.676V257.034H259.736ZM279.127 256.586V264.505H277.832V256.586H279.127ZM270.859 265.252V267.045H277.832V265.252H279.127V271.146H269.564V265.252H270.859ZM270.859 270.083H277.832V268.091H270.859V270.083ZM271.158 257.316C273.399 257.3 275.026 258.678 275.026 260.703C275.026 262.712 273.399 264.09 271.158 264.09C268.917 264.09 267.29 262.712 267.29 260.703C267.29 258.678 268.917 257.3 271.158 257.316ZM271.158 258.412C269.647 258.396 268.552 259.358 268.568 260.703C268.552 262.048 269.647 263.011 271.158 263.011C272.652 263.011 273.748 262.048 273.748 260.703C273.748 259.358 272.652 258.396 271.158 258.412ZM288.64 257.499V261.633H283.56V263.924C286.332 263.924 287.76 263.882 289.503 263.559L289.636 264.638C287.793 264.937 286.299 264.986 283.311 264.986H282.265V260.637H287.345V258.545H282.231V257.499H288.64ZM293.869 256.603V265.667H292.558V262.928H289.619V261.849H292.558V259.856H289.619V258.794H292.558V256.603H293.869ZM293.869 266.464V271.378H292.558V267.526H283.925V266.464H293.869ZM307.748 256.586V262.679H310.222V263.758H307.748V271.345H306.453V256.586H307.748ZM305.025 258.96V260.039H296.243V258.96H300.045V256.769H301.34V258.96H305.025ZM300.709 261.268C302.801 261.268 304.312 262.662 304.328 264.654C304.312 266.646 302.801 268.041 300.709 268.041C298.601 268.041 297.073 266.646 297.09 264.654C297.073 262.662 298.601 261.268 300.709 261.268ZM300.709 262.363C299.331 262.363 298.318 263.326 298.335 264.654C298.318 265.999 299.331 266.945 300.709 266.929C302.07 266.945 303.066 265.999 303.083 264.654C303.066 263.326 302.07 262.363 300.709 262.363ZM315.401 260.786C315.401 263.127 316.547 265.667 318.506 266.829L317.759 267.842C316.339 266.979 315.318 265.401 314.804 263.608C314.256 265.567 313.16 267.252 311.683 268.157L310.853 267.178C312.895 265.982 314.14 263.359 314.14 260.836V257.98H315.401V260.786ZM323.669 256.586V271.345H322.407V256.586H323.669ZM320.614 256.901V270.598H319.386V262.994H316.879V261.882H319.386V256.901H320.614ZM339.225 268.356V269.452H325.711V268.356H329.064V264.372C327.803 263.716 327.039 262.654 327.039 261.317C327.039 259.026 329.28 257.532 332.435 257.516C335.589 257.532 337.83 259.026 337.83 261.317C337.83 262.629 337.091 263.683 335.871 264.339V268.356H339.225ZM332.435 258.595C330.011 258.578 328.301 259.674 328.301 261.317C328.301 262.961 330.011 264.073 332.435 264.073C334.842 264.073 336.568 262.961 336.568 261.317C336.568 259.674 334.842 258.578 332.435 258.595ZM330.343 268.356H334.56V264.837C333.92 265.011 333.207 265.103 332.435 265.103C331.679 265.103 330.974 265.02 330.343 264.854V268.356Z" fill="#ACACAC"/>
<mask id="path-29-inside-6_182_103" fill="white">
<path d="M103 174C103 170.686 105.686 168 109 168H1811C1814.31 168 1817 170.686 1817 174V232H103V174Z"/>
</mask>
<path d="M103 174C103 170.686 105.686 168 109 168H1811C1814.31 168 1817 170.686 1817 174V232H103V174Z" fill="white"/>
<path d="M103 168H1817H103ZM1817 232.5H103V231.5H1817V232.5ZM103 232V168V232ZM1817 168V232V168Z" fill="black" mask="url(#path-29-inside-6_182_103)"/>
<path d="M156.215 192.586V207.345H154.97V192.586H156.215ZM153.227 192.951V206.581H151.998V198.978H149.508V197.915H151.998V192.951H153.227ZM147.931 196.803C147.931 199.359 149.076 201.899 151.118 203.078L150.321 204.041C148.869 203.169 147.839 201.576 147.333 199.691C146.793 201.725 145.723 203.46 144.245 204.39L143.415 203.41C145.474 202.182 146.669 199.492 146.669 196.803V195.408H143.83V194.329H150.637V195.408H147.931V196.803ZM170.027 193.217V198.197H165.661V200.09H171.737V201.152H158.29V200.09H164.366V198.197H160.033V193.217H170.027ZM161.312 194.263V197.151H168.732V194.263H161.312ZM170.077 202.696V207.345H168.766V203.742H159.784V202.696H170.077Z" fill="black"/>
<path d="M231.215 192.586V207.345H229.97V192.586H231.215ZM228.227 192.951V206.581H226.998V198.978H224.508V197.915H226.998V192.951H228.227ZM222.931 196.803C222.931 199.359 224.076 201.899 226.118 203.078L225.321 204.041C223.869 203.169 222.839 201.576 222.333 199.691C221.793 201.725 220.723 203.46 219.245 204.39L218.415 203.41C220.474 202.182 221.669 199.492 221.669 196.803V195.408H218.83V194.329H225.637V195.408H222.931V196.803ZM245.027 193.217V198.197H240.661V200.09H246.737V201.152H233.29V200.09H239.366V198.197H235.033V193.217H245.027ZM236.312 194.263V197.151H243.732V194.263H236.312ZM245.077 202.696V207.345H243.766V203.742H234.784V202.696H245.077ZM254.706 192.852C257.993 192.852 259.919 193.748 259.919 195.392C259.919 197.068 257.993 197.965 254.706 197.981C251.419 197.965 249.477 197.068 249.477 195.392C249.477 193.748 251.419 192.852 254.706 192.852ZM254.706 193.831C252.249 193.831 250.821 194.429 250.838 195.392C250.821 196.421 252.249 196.985 254.706 196.985C257.146 196.985 258.591 196.421 258.591 195.392C258.591 194.429 257.146 193.831 254.706 193.831ZM261.43 198.978V200.04H247.982V198.978H261.43ZM259.703 201.318V204.622H250.938V206.149H260.151V207.179H249.643V203.659H258.425V202.314H249.609V201.318H259.703ZM279.127 192.586V200.505H277.832V192.586H279.127ZM270.859 201.252V203.045H277.832V201.252H279.127V207.146H269.564V201.252H270.859ZM270.859 206.083H277.832V204.091H270.859V206.083ZM271.158 193.316C273.399 193.3 275.026 194.678 275.026 196.703C275.026 198.712 273.399 200.09 271.158 200.09C268.917 200.09 267.29 198.712 267.29 196.703C267.29 194.678 268.917 193.3 271.158 193.316ZM271.158 194.412C269.647 194.396 268.552 195.358 268.568 196.703C268.552 198.048 269.647 199.011 271.158 199.011C272.652 199.011 273.748 198.048 273.748 196.703C273.748 195.358 272.652 194.396 271.158 194.412ZM288.64 193.499V197.633H283.56V199.924C286.332 199.924 287.76 199.882 289.503 199.559L289.636 200.638C287.793 200.937 286.299 200.986 283.311 200.986H282.265V196.637H287.345V194.545H282.231V193.499H288.64ZM293.869 192.603V201.667H292.558V198.928H289.619V197.849H292.558V195.856H289.619V194.794H292.558V192.603H293.869ZM293.869 202.464V207.378H292.558V203.526H283.925V202.464H293.869ZM307.748 192.586V198.679H310.222V199.758H307.748V207.345H306.453V192.586H307.748ZM305.025 194.96V196.039H296.243V194.96H300.045V192.769H301.34V194.96H305.025ZM300.709 197.268C302.801 197.268 304.312 198.662 304.328 200.654C304.312 202.646 302.801 204.041 300.709 204.041C298.601 204.041 297.073 202.646 297.09 200.654C297.073 198.662 298.601 197.268 300.709 197.268ZM300.709 198.363C299.331 198.363 298.318 199.326 298.335 200.654C298.318 201.999 299.331 202.945 300.709 202.929C302.07 202.945 303.066 201.999 303.083 200.654C303.066 199.326 302.07 198.363 300.709 198.363ZM315.401 196.786C315.401 199.127 316.547 201.667 318.506 202.829L317.759 203.842C316.339 202.979 315.318 201.401 314.804 199.608C314.256 201.567 313.16 203.252 311.683 204.157L310.853 203.178C312.895 201.982 314.14 199.359 314.14 196.836V193.98H315.401V196.786ZM323.669 192.586V207.345H322.407V192.586H323.669ZM320.614 192.901V206.598H319.386V198.994H316.879V197.882H319.386V192.901H320.614ZM339.225 204.356V205.452H325.711V204.356H329.064V200.372C327.803 199.716 327.039 198.654 327.039 197.317C327.039 195.026 329.28 193.532 332.435 193.516C335.589 193.532 337.83 195.026 337.83 197.317C337.83 198.629 337.091 199.683 335.871 200.339V204.356H339.225ZM332.435 194.595C330.011 194.578 328.301 195.674 328.301 197.317C328.301 198.961 330.011 200.073 332.435 200.073C334.842 200.073 336.568 198.961 336.568 197.317C336.568 195.674 334.842 194.578 332.435 194.595ZM330.343 204.356H334.56V200.837C333.92 201.011 333.207 201.103 332.435 201.103C331.679 201.103 330.974 201.02 330.343 200.854V204.356Z" fill="#ACACAC"/>
</g>
<rect x="103.25" y="168.25" width="1713.5" height="1136.5" rx="5.75" stroke="black" stroke-width="0.5"/>
<g filter="url(#filter1_d_182_103)">
<rect x="798" y="1369" width="323" height="60" rx="30" fill="#9038FF"/>
<path d="M933.924 1393.7C933.924 1395.77 935.453 1397.67 937.773 1398.48L937.07 1399.55C935.286 1398.92 933.924 1397.63 933.256 1396.02C932.588 1397.79 931.155 1399.17 929.318 1399.85L928.58 1398.78C930.918 1397.95 932.553 1395.93 932.57 1393.7V1393.03H929.002V1391.9H937.439V1393.03H933.924V1393.7ZM940.85 1390.8V1394.93H943.205V1396.11H940.85V1400.22H939.479V1390.8H940.85ZM940.85 1401.04V1406.42H939.479V1402.17H930.619V1401.04H940.85ZM949.568 1393.26C949.551 1395.49 951.133 1397.46 953.436 1398.23L952.662 1399.3C950.939 1398.65 949.586 1397.39 948.918 1395.74C948.241 1397.61 946.809 1399.07 944.928 1399.78L944.172 1398.65C946.58 1397.81 948.18 1395.74 948.197 1393.31V1391.69H949.568V1393.26ZM957.145 1390.8V1400.06H955.756V1395.3H952.275V1394.15H955.756V1390.8H957.145ZM951.959 1400.52C955.211 1400.52 957.197 1401.59 957.197 1403.47C957.197 1405.33 955.211 1406.39 951.959 1406.39C948.707 1406.39 946.721 1405.33 946.721 1403.47C946.721 1401.59 948.707 1400.52 951.959 1400.52ZM951.959 1401.61C949.568 1401.61 948.074 1402.31 948.092 1403.47C948.074 1404.6 949.568 1405.28 951.959 1405.28C954.35 1405.28 955.826 1404.6 955.826 1403.47C955.826 1402.31 954.35 1401.61 951.959 1401.61ZM964.51 1391.54C966.795 1391.54 968.395 1392.77 968.395 1394.63C968.395 1396.24 967.129 1397.41 965.248 1397.63V1399.16C966.707 1399.1 968.192 1398.97 969.555 1398.76L969.66 1399.8C966.355 1400.39 962.611 1400.43 959.904 1400.43L959.729 1399.29C960.941 1399.3 962.365 1399.29 963.859 1399.23V1397.65C961.926 1397.44 960.625 1396.26 960.643 1394.63C960.625 1392.77 962.225 1391.54 964.51 1391.54ZM964.51 1392.61C962.998 1392.61 961.926 1393.42 961.943 1394.63C961.926 1395.81 962.998 1396.62 964.51 1396.63C966.039 1396.62 967.076 1395.81 967.094 1394.63C967.076 1393.42 966.039 1392.61 964.51 1392.61ZM971.945 1390.81V1396.11H974.283V1397.28H971.945V1402.77H970.557V1390.81H971.945ZM972.508 1404.91V1406.07H962.014V1401.73H963.402V1404.91H972.508ZM989.611 1403.33V1404.49H975.303V1403.33H979.328V1400.36H977.096V1395.54H986.447V1393.1H977.061V1391.96H987.801V1396.69H978.467V1399.22H988.17V1400.36H985.727V1403.33H989.611ZM980.682 1403.33H984.373V1400.36H980.682V1403.33Z" fill="white"/>
</g>
<g filter="url(#filter2_d_182_103)">
<rect x="781.5" y="1352.5" width="357" height="93" rx="46.5" stroke="#FF0000" stroke-dasharray="12 2" shape-rendering="crispEdges"/>
</g>
<rect x="1189.25" y="1374.25" width="241.5" height="95.5" rx="47.75" fill="white"/>
<rect x="1189.25" y="1374.25" width="241.5" height="95.5" rx="47.75" stroke="black" stroke-width="0.5"/>
<path d="M1276.12 1404.59V1419.38H1274.83V1411.16H1271.29V1415.64H1264.48V1405.75H1265.8V1409.6H1270.01V1405.75H1271.29V1410.08H1274.83V1404.59H1276.12ZM1265.8 1414.56H1270.01V1410.65H1265.8V1414.56ZM1292.03 1412.77V1413.83H1278.56V1412.77H1292.03ZM1290.62 1417.93V1419.03H1280.32V1414.91H1281.62V1417.93H1290.62ZM1290.43 1410.35V1411.38H1280.36V1405.15H1290.35V1406.2H1281.67V1407.74H1289.95V1408.75H1281.67V1410.35H1290.43ZM1300 1404.85C1303.28 1404.85 1305.21 1405.75 1305.21 1407.39C1305.21 1409.07 1303.28 1409.96 1300 1409.98C1296.71 1409.96 1294.77 1409.07 1294.77 1407.39C1294.77 1405.75 1296.71 1404.85 1300 1404.85ZM1300 1405.83C1297.54 1405.83 1296.11 1406.43 1296.13 1407.39C1296.11 1408.42 1297.54 1408.99 1300 1408.99C1302.44 1408.99 1303.88 1408.42 1303.88 1407.39C1303.88 1406.43 1302.44 1405.83 1300 1405.83ZM1306.72 1410.98V1412.04H1293.27V1410.98H1306.72ZM1304.99 1413.32V1416.62H1296.23V1418.15H1305.44V1419.18H1294.93V1415.66H1303.71V1414.31H1294.9V1413.32H1304.99ZM1324.15 1409.57V1410.65H1313.97V1405.35H1315.27V1409.57H1324.15ZM1325.74 1412.87V1413.97H1319.57V1419.34H1318.27V1413.97H1312.23V1412.87H1325.74ZM1340.44 1416.39V1417.49H1326.92V1416.39H1340.44ZM1338.73 1405.71V1410.18H1329.91V1412.6H1339.08V1413.65H1328.62V1409.12H1337.45V1406.79H1328.58V1405.71H1338.73ZM1349.09 1405.88V1407.19H1352.54V1404.6H1353.85V1415.38H1352.54V1411.44H1349.09V1412.77H1342.31V1405.88H1349.09ZM1343.61 1406.96V1411.72H1347.81V1406.96H1343.61ZM1354.18 1417.93V1419.03H1344.31V1414.41H1345.62V1417.93H1354.18ZM1349.09 1410.36H1352.54V1408.29H1349.09V1410.36ZM1227.07 1425.13C1229.28 1425.15 1230.89 1426.48 1230.89 1428.4C1230.89 1430.33 1229.28 1431.66 1227.07 1431.66C1224.83 1431.66 1223.24 1430.33 1223.24 1428.4C1223.24 1426.48 1224.83 1425.15 1227.07 1425.13ZM1227.07 1426.23C1225.6 1426.23 1224.5 1427.13 1224.52 1428.4C1224.5 1429.7 1225.6 1430.6 1227.07 1430.6C1228.53 1430.6 1229.63 1429.7 1229.63 1428.4C1229.63 1427.13 1228.53 1426.23 1227.07 1426.23ZM1235.08 1424.59V1432.17H1233.78V1424.59H1235.08ZM1235.08 1432.89V1436.44H1226.79V1438.1H1235.61V1439.15H1225.51V1435.46H1233.78V1433.93H1225.48V1432.89H1235.08ZM1242.86 1429.12C1242.86 1431.62 1244.69 1434.17 1246.86 1435.11L1246.13 1436.14C1244.41 1435.35 1242.91 1433.65 1242.23 1431.61C1241.53 1433.77 1240.05 1435.66 1238.36 1436.51L1237.58 1435.48C1239.69 1434.46 1241.53 1431.67 1241.55 1429.12V1427.19H1238.06V1426.11H1246.38V1427.19H1242.86V1429.12ZM1249.75 1424.59V1439.34H1248.44V1424.59H1249.75ZM1263.7 1424.59V1430.6H1266.09V1431.69H1263.7V1439.34H1262.4V1424.59H1263.7ZM1259.88 1426.18C1259.88 1430.36 1257.92 1434.17 1253.1 1436.54L1252.37 1435.51C1256.19 1433.61 1258.27 1430.77 1258.57 1427.28H1253.05V1426.18H1259.88ZM1276.23 1427.33C1276.23 1429.28 1277.67 1431.08 1279.87 1431.84L1279.2 1432.85C1277.52 1432.26 1276.23 1431.04 1275.6 1429.52C1274.97 1431.19 1273.62 1432.5 1271.88 1433.14L1271.18 1432.12C1273.39 1431.34 1274.94 1429.43 1274.95 1427.33V1426.69H1271.58V1425.63H1279.55V1426.69H1276.23V1427.33ZM1282.77 1424.59V1428.49H1285V1429.6H1282.77V1433.48H1281.48V1424.59H1282.77ZM1282.77 1434.26V1439.34H1281.48V1435.33H1273.11V1434.26H1282.77ZM1291.01 1426.91C1290.99 1429.02 1292.48 1430.88 1294.66 1431.61L1293.93 1432.62C1292.3 1432.01 1291.02 1430.81 1290.39 1429.25C1289.75 1431.02 1288.4 1432.4 1286.62 1433.07L1285.91 1432.01C1288.18 1431.21 1289.69 1429.25 1289.71 1426.96V1425.43H1291.01V1426.91ZM1298.16 1424.59V1433.33H1296.85V1428.84H1293.56V1427.76H1296.85V1424.59H1298.16ZM1293.26 1433.77C1296.33 1433.77 1298.21 1434.78 1298.21 1436.56C1298.21 1438.32 1296.33 1439.31 1293.26 1439.31C1290.19 1439.31 1288.32 1438.32 1288.32 1436.56C1288.32 1434.78 1290.19 1433.77 1293.26 1433.77ZM1293.26 1434.8C1291.01 1434.8 1289.59 1435.46 1289.61 1436.56C1289.59 1437.62 1291.01 1438.27 1293.26 1438.27C1295.52 1438.27 1296.92 1437.62 1296.92 1436.56C1296.92 1435.46 1295.52 1434.8 1293.26 1434.8ZM1305.12 1425.28C1307.28 1425.28 1308.79 1426.45 1308.79 1428.21C1308.79 1429.72 1307.59 1430.83 1305.81 1431.04V1432.49C1307.19 1432.43 1308.6 1432.31 1309.88 1432.11L1309.98 1433.09C1306.86 1433.65 1303.32 1433.68 1300.77 1433.68L1300.6 1432.6C1301.75 1432.61 1303.09 1432.6 1304.5 1432.55V1431.06C1302.68 1430.86 1301.45 1429.75 1301.46 1428.21C1301.45 1426.45 1302.96 1425.28 1305.12 1425.28ZM1305.12 1426.3C1303.69 1426.3 1302.68 1427.06 1302.69 1428.21C1302.68 1429.32 1303.69 1430.08 1305.12 1430.1C1306.56 1430.08 1307.54 1429.32 1307.56 1428.21C1307.54 1427.06 1306.56 1426.3 1305.12 1426.3ZM1312.14 1424.6V1429.6H1314.35V1430.71H1312.14V1435.89H1310.83V1424.6H1312.14ZM1312.67 1437.92V1439.01H1302.76V1434.91H1304.07V1437.92H1312.67ZM1328.82 1436.42V1437.52H1315.31V1436.42H1319.11V1433.62H1317V1429.07H1325.84V1426.76H1316.97V1425.68H1327.11V1430.15H1318.3V1432.54H1327.46V1433.62H1325.16V1436.42H1328.82ZM1320.39 1436.42H1323.88V1433.62H1320.39V1436.42ZM1346.5 1424.59V1439.38H1345.19V1431.61H1341.96V1430.53H1345.19V1424.59H1346.5ZM1339.37 1429.4C1339.37 1431.84 1341.03 1434.23 1343.22 1435.21L1342.47 1436.22C1340.79 1435.45 1339.4 1433.84 1338.75 1431.89C1338.1 1433.95 1336.73 1435.68 1335.05 1436.49L1334.3 1435.48C1336.46 1434.46 1338.09 1431.94 1338.09 1429.4V1428.22H1334.7V1427.16H1338.09V1424.87H1339.38V1427.16H1342.72V1428.22H1339.37V1429.4ZM1361.15 1424.59V1439.38H1359.85V1424.59H1361.15ZM1356.67 1425.96V1431.21H1351.15V1434.7C1353.6 1434.7 1355.79 1434.59 1358.42 1434.17L1358.56 1435.26C1355.83 1435.69 1353.59 1435.79 1351.05 1435.79H1349.83V1430.15H1355.35V1427.04H1349.79V1425.96H1356.67ZM1367.74 1435.04C1368.68 1435.04 1369.87 1435.04 1371.11 1435V1432.04H1368.54V1426.1H1374.81V1427.18H1369.81V1430.96H1374.94V1432.04H1372.37V1434.95C1373.46 1434.9 1374.54 1434.82 1375.47 1434.71L1375.54 1435.66C1373.1 1436.07 1369.95 1436.14 1367.94 1436.14L1367.74 1435.04ZM1380.47 1424.59V1439.34H1379.21V1431.81H1377.37V1438.56H1376.16V1424.92H1377.37V1430.75H1379.21V1424.59H1380.47ZM1396.13 1436.36V1437.45H1382.61V1436.36H1385.97V1432.37C1384.71 1431.72 1383.94 1430.65 1383.94 1429.32C1383.94 1427.03 1386.18 1425.53 1389.34 1425.52C1392.49 1425.53 1394.73 1427.03 1394.73 1429.32C1394.73 1430.63 1393.99 1431.68 1392.77 1432.34V1436.36H1396.13ZM1389.34 1426.59C1386.91 1426.58 1385.2 1427.67 1385.2 1429.32C1385.2 1430.96 1386.91 1432.07 1389.34 1432.07C1391.74 1432.07 1393.47 1430.96 1393.47 1429.32C1393.47 1427.67 1391.74 1426.58 1389.34 1426.59ZM1387.25 1436.36H1391.46V1432.84C1390.82 1433.01 1390.11 1433.1 1389.34 1433.1C1388.58 1433.1 1387.88 1433.02 1387.25 1432.85V1436.36Z" fill="black"/>
<line x1="1138.06" y1="1389.76" x2="1193.03" y2="1403.12" stroke="black" stroke-width="0.5"/>
</g>
<defs>
<filter id="filter0_d_182_103" x="-8" y="-8" width="1936" height="86" filterUnits="userSpaceOnUse" color-interpolation-filters="sRGB">
<feFlood flood-opacity="0" result="BackgroundImageFix"/>
<feColorMatrix in="SourceAlpha" type="matrix" values="0 0 0 0 0 0 0 0 0 0 0 0 0 0 0 0 0 0 127 0" result="hardAlpha"/>
<feOffset/>
<feGaussianBlur stdDeviation="4"/>
<feComposite in2="hardAlpha" operator="out"/>
<feColorMatrix type="matrix" values="0 0 0 0 0.891667 0 0 0 0 0.891667 0 0 0 0 0.891667 0 0 0 1 0"/>
<feBlend mode="normal" in2="BackgroundImageFix" result="effect1_dropShadow_182_103"/>
<feBlend mode="normal" in="SourceGraphic" in2="effect1_dropShadow_182_103" result="shape"/>
</filter>
<filter id="filter1_d_182_103" x="794" y="1369" width="331" height="68" filterUnits="userSpaceOnUse" color-interpolation-filters="sRGB">
<feFlood flood-opacity="0" result="BackgroundImageFix"/>
<feColorMatrix in="SourceAlpha" type="matrix" values="0 0 0 0 0 0 0 0 0 0 0 0 0 0 0 0 0 0 127 0" result="hardAlpha"/>
<feOffset dy="4"/>
<feGaussianBlur stdDeviation="2"/>
<feComposite in2="hardAlpha" operator="out"/>
<feColorMatrix type="matrix" values="0 0 0 0 0 0 0 0 0 0 0 0 0 0 0 0 0 0 0.25 0"/>
<feBlend mode="normal" in2="BackgroundImageFix" result="effect1_dropShadow_182_103"/>
<feBlend mode="normal" in="SourceGraphic" in2="effect1_dropShadow_182_103" result="shape"/>
</filter>
<filter id="filter2_d_182_103" x="777" y="1352" width="366" height="102" filterUnits="userSpaceOnUse" color-interpolation-filters="sRGB">
<feFlood flood-opacity="0" result="BackgroundImageFix"/>
<feColorMatrix in="SourceAlpha" type="matrix" values="0 0 0 0 0 0 0 0 0 0 0 0 0 0 0 0 0 0 127 0" result="hardAlpha"/>
<feOffset dy="4"/>
<feGaussianBlur stdDeviation="2"/>
<feComposite in2="hardAlpha" operator="out"/>
<feColorMatrix type="matrix" values="0 0 0 0 0 0 0 0 0 0 0 0 0 0 0 0 0 0 0.25 0"/>
<feBlend mode="normal" in2="BackgroundImageFix" result="effect1_dropShadow_182_103"/>
<feBlend mode="normal" in="SourceGraphic" in2="effect1_dropShadow_182_103" result="shape"/>
</filter>
<clipPath id="clip0_182_103">
<rect width="1920" height="1506" fill="white"/>
</clipPath>
<clipPath id="clip1_182_103">
<rect x="103" y="168" width="1714" height="1137" rx="6" fill="white"/>
</clipPath>
</defs>
</svg>
