<svg width="1200" height="942" viewBox="0 0 1200 942" fill="none" xmlns="http://www.w3.org/2000/svg">
<g clip-path="url(#clip0_40_14)">
<mask id="mask0_40_14" style="mask-type:luminance" maskUnits="userSpaceOnUse" x="0" y="0" width="1200" height="942">
<path d="M1200 0H0V941.25H1200V0Z" fill="white"/>
</mask>
<g mask="url(#mask0_40_14)">
<path d="M1200 0H0V941.25H1200V0Z" fill="#FCFCFC"/>
<g filter="url(#filter0_d_40_14)">
<path d="M1200 0H0V43.75H1200V0Z" fill="white"/>
<path d="M45.9375 17.2031C45.9375 16.9323 45.9948 16.7344 46.1094 16.6094C46.2344 16.4844 46.4167 16.4219 46.6563 16.4219H48.8906C52.5469 16.4219 54.375 18.25 54.375 21.9062C54.375 23.2708 54.0886 24.375 53.5156 25.2187C52.9531 26.0521 52.2604 26.6406 51.4375 26.9844C50.625 27.3281 49.8021 27.5 48.9687 27.5H46.6563C46.4167 27.5 46.2344 27.4375 46.1094 27.3125C45.9948 27.1875 45.9375 26.9896 45.9375 26.7188V17.2031ZM47.625 26.6719H47.9688V26.6563H48.7031C49.8594 26.6563 50.7969 26.2656 51.5156 25.4844C52.2448 24.7031 52.6094 23.5104 52.6094 21.9062C52.6094 20.2812 52.25 19.0989 51.5312 18.3594C50.8229 17.6198 49.8802 17.25 48.7031 17.25H47.625V26.6719ZM62.0056 25.5312C62.1098 25.4167 62.24 25.3594 62.3962 25.3594C62.49 25.3594 62.5731 25.3906 62.6463 25.4531C62.7194 25.5156 62.7556 25.5937 62.7556 25.6875C62.7556 25.875 62.6881 26.0521 62.5525 26.2188C61.865 27.0729 60.9067 27.5 59.6775 27.5C58.4588 27.5 57.5369 27.1719 56.9119 26.5156C56.2973 25.8489 55.99 24.9323 55.99 23.7656C55.99 22.4323 56.3025 21.4167 56.9275 20.7188C57.5525 20.0104 58.4587 19.6563 59.6462 19.6563C60.5942 19.6563 61.3546 19.9271 61.9275 20.4688C62.5006 21.0104 62.7869 21.7864 62.7869 22.7969C62.7869 23.3073 62.49 23.5625 61.8962 23.5625H57.6931C57.6827 23.6458 57.6775 23.7604 57.6775 23.9062C57.6775 24.8021 57.8546 25.5104 58.2088 26.0313C58.5629 26.5521 59.1098 26.8125 59.8494 26.8125C60.3494 26.8125 60.7452 26.7083 61.0369 26.5C61.3286 26.2917 61.5525 26.0938 61.7088 25.9063C61.865 25.7083 61.9639 25.5833 62.0056 25.5312ZM59.5525 20.2813C59.0525 20.2813 58.6411 20.4948 58.3181 20.9219C57.9952 21.3489 57.8025 22.0104 57.74 22.9063H60.6619C60.8494 22.9063 60.9848 22.875 61.0681 22.8125C61.1514 22.7396 61.1931 22.6198 61.1931 22.4531C61.1931 21.7552 61.0264 21.2187 60.6931 20.8437C60.3702 20.4687 59.99 20.2813 59.5525 20.2813ZM70.1294 19.6563C70.275 19.6563 70.395 19.6875 70.4887 19.75C70.5825 19.8021 70.6294 19.8906 70.6294 20.0156C70.6294 20.1823 70.6031 20.3229 70.5513 20.4375L67.9419 27.1094C67.8375 27.3698 67.5356 27.5 67.0356 27.5C66.8375 27.5 66.6606 27.4687 66.5044 27.4062C66.3587 27.3437 66.2594 27.2448 66.2075 27.1094L63.645 20.4375C63.5931 20.3229 63.5669 20.2031 63.5669 20.0781C63.5669 19.7969 63.7594 19.6563 64.145 19.6563C64.4156 19.6563 64.6656 19.7448 64.895 19.9219C65.1244 20.0886 65.3012 20.3489 65.4263 20.7031L67.3169 25.9688H67.395L68.4575 23.1406C68.6344 22.6614 68.7856 22.2188 68.9106 21.8125C69.0356 21.3958 69.15 21 69.2544 20.625C69.3375 20.3125 69.4419 20.0729 69.5669 19.9063C69.6919 19.7396 69.8794 19.6563 70.1294 19.6563ZM77.4794 17.25C77.6569 16.9583 77.8181 16.75 77.9637 16.625C78.12 16.4896 78.2919 16.4219 78.4794 16.4219C78.6044 16.4219 78.7138 16.4583 78.8075 16.5313C78.9013 16.5938 78.9481 16.6823 78.9481 16.7969C78.9481 16.9531 78.8913 17.1094 78.7762 17.2656L76.1513 21.5313L79.2294 26.5625C79.3131 26.6979 79.3544 26.8438 79.3544 27C79.3544 27.1354 79.2975 27.2552 79.1825 27.3594C79.0681 27.4531 78.9225 27.5 78.745 27.5C78.4325 27.5 78.1825 27.4375 77.995 27.3125C77.8181 27.1875 77.6463 26.9792 77.4794 26.6875L75.1356 22.7031H75.0731L72.62 26.6563C72.4119 27 72.2244 27.2292 72.0575 27.3438C71.9012 27.4479 71.735 27.5 71.5575 27.5C71.4012 27.5 71.2819 27.4687 71.1981 27.4062C71.1256 27.3333 71.0887 27.25 71.0887 27.1563C71.0887 27.0104 71.1462 26.8438 71.2606 26.6563L74.3856 21.7812L71.7137 17.3281C71.6412 17.2136 71.6044 17.0886 71.6044 16.9531C71.6044 16.8073 71.6619 16.6823 71.7763 16.5781C71.9013 16.4739 72.0475 16.4219 72.2137 16.4219C72.7244 16.4219 73.1306 16.6979 73.4325 17.25L75.3856 20.7188H75.4794L77.4794 17.25Z" fill="black"/>
<path d="M1059.57 18.5095V25.73H1058.59V22.0563H1057.93V25.4126H1056.99V18.7H1057.93V21.247H1058.59V18.5095H1059.57ZM1056.48 19.3982C1056.48 21.4136 1055.87 23.064 1053.84 24.2462L1053.25 23.548C1054.72 22.6831 1055.36 21.6238 1055.5 20.2075H1053.62V19.3982H1056.48ZM1061.58 18.8348V19.6918H1063.06V18.8348H1064.08V21.9849H1060.58V18.8348H1061.58ZM1061.58 21.1914H1063.06V20.4535H1061.58V21.1914ZM1066.09 18.5095V19.914H1067.07V20.7312H1066.09V22.1833H1065.08V18.5095H1066.09ZM1066.09 22.453V24.4128H1062.31V24.881H1066.29V25.6824H1061.31V23.6908H1065.08V23.2385H1061.3V22.453H1066.09ZM1069.44 18.7238C1070.53 18.7238 1071.37 19.4061 1071.37 20.3741C1071.37 21.3263 1070.53 22.0166 1069.44 22.0166C1068.32 22.0166 1067.49 21.3263 1067.49 20.3741C1067.49 19.4061 1068.32 18.7238 1069.44 18.7238ZM1069.44 19.549C1068.88 19.549 1068.47 19.8505 1068.48 20.3741C1068.47 20.8899 1068.88 21.1993 1069.44 21.1993C1069.99 21.1993 1070.39 20.8899 1070.39 20.3741C1070.39 19.8505 1069.99 19.549 1069.44 19.549ZM1073.43 18.5095V22.1277H1072.41V18.5095H1073.43ZM1073.43 22.4292V24.3891H1069.59V24.8572H1073.63V25.6506H1068.6V23.6511H1072.43V23.2068H1068.58V22.4292H1073.43ZM1077.21 20.4773C1077.21 21.6437 1077.8 22.8894 1079.01 23.3972L1078.47 24.1907C1077.61 23.8296 1077.03 23.1116 1076.71 22.2308C1076.38 23.187 1075.78 23.9805 1074.93 24.3732L1074.35 23.5718C1075.55 23.0402 1076.17 21.6993 1076.17 20.4773V20.033H1074.64V19.2078H1078.71V20.033H1077.21V20.4773ZM1080.45 18.5095V25.73H1079.43V18.5095H1080.45Z" fill="#9038FF"/>
<path d="M1144.49 19.4141V21.2549H1145.57V18.7396H1146.16V25.2856H1145.57V21.7706H1144.49V23.7463H1141.8V19.4141H1144.49ZM1142.39 19.9139V23.2464H1143.91V19.9139H1142.39ZM1147.58 18.5889V25.6427H1146.98V18.5889H1147.58ZM1155.02 24.2145V24.7382H1148.56V24.2145H1151.46V22.4927H1149.32V19.1839H1154.21V22.4927H1152.07V24.2145H1155.02ZM1149.93 19.6838V21.9928H1153.61V19.6838H1149.93Z" fill="black"/>
</g>
<path d="M67.8661 69.0944C69.5505 69.0944 70.8324 70.1438 70.8324 71.6332C70.8324 73.0982 69.5505 74.16 67.8661 74.16C66.1449 74.16 64.8755 73.0982 64.8755 71.6332C64.8755 70.1438 66.1449 69.0944 67.8661 69.0944ZM67.8661 70.3638C67.0117 70.3638 66.3767 70.8275 66.3892 71.6332C66.3767 72.4269 67.0117 72.9032 67.8661 72.9032C68.7086 72.9032 69.3311 72.4269 69.3311 71.6332C69.3311 70.8275 68.7086 70.3638 67.8661 70.3638ZM74.0061 68.7644V74.3313H72.4436V68.7644H74.0061ZM74.0061 74.795V77.81H68.098V78.53H74.3111V79.7513H66.5724V76.675H72.4561V75.9913H66.548V74.795H74.0061ZM79.8167 71.7919C79.8167 73.5863 80.7324 75.5032 82.5999 76.2844L81.7574 77.505C80.4455 76.9494 79.5424 75.845 79.048 74.49C78.5411 75.9607 77.6192 77.1813 76.3136 77.7857L75.4224 76.5525C77.2655 75.735 78.2174 73.6719 78.2174 71.7919V71.1082H75.8617V69.8388H82.1361V71.1082H79.8167V71.7919ZM84.8092 68.7644V79.8732H83.2349V68.7644H84.8092ZM95.503 69.4119V70.6569H93.2936C93.3055 71.9569 94.0749 73.2875 95.8811 73.8675L95.088 75.0757C93.8549 74.6788 93.0067 73.8857 92.5242 72.8907C92.0299 73.9769 91.1449 74.8375 89.8511 75.2588L89.0211 74.0625C90.858 73.4707 91.6942 72.0482 91.7186 70.6569H89.448V69.4119H95.503ZM98.0055 68.7644V71.4625H99.5067V72.7563H98.0055V75.4663H96.443V68.7644H98.0055ZM98.0055 75.9425V79.8732H96.443V77.175H90.5224V75.9425H98.0055ZM104.194 70.2782C104.182 71.7675 104.951 73.135 106.733 73.6844L105.915 74.905C104.719 74.49 103.907 73.7207 103.45 72.72C102.949 73.8794 102.052 74.795 100.715 75.2469L99.8974 74.0013C101.802 73.3913 102.607 71.9019 102.619 70.3513V69.3382H104.194V70.2782ZM109.358 68.7644V75.2713H107.807V72.0725H105.72V70.8032H107.807V68.7644H109.358ZM105.561 75.5638C107.93 75.5638 109.382 76.3575 109.394 77.7244C109.382 79.0919 107.93 79.8732 105.561 79.8732C103.193 79.8732 101.74 79.0919 101.74 77.7244C101.74 76.3575 103.193 75.5638 105.561 75.5638ZM105.561 76.7725C104.084 76.7725 103.291 77.09 103.291 77.7244C103.291 78.335 104.084 78.6644 105.561 78.6644C107.039 78.6644 107.844 78.335 107.844 77.7244C107.844 77.09 107.039 76.7725 105.561 76.7725ZM119.563 68.7644V73.1107H121.199V74.3919H119.563V79.8732H118.025V68.7644H119.563ZM117.268 70.425V71.67H110.737V70.425H113.252V68.9357H114.814V70.425H117.268ZM114.033 72.2925C115.657 72.2925 116.865 73.3913 116.865 74.9413C116.865 76.4919 115.657 77.5907 114.033 77.5907C112.397 77.5907 111.189 76.4919 111.189 74.9413C111.189 73.3913 112.397 72.2925 114.033 72.2925ZM114.033 73.55C113.252 73.5619 112.678 74.0869 112.678 74.9413C112.678 75.8082 113.252 76.3207 114.033 76.3088C114.814 76.3207 115.376 75.8082 115.376 74.9413C115.376 74.0869 114.814 73.5619 114.033 73.55ZM130.94 68.7644V79.8732H129.365V68.7644H130.94ZM127.607 69.9244C127.607 73.2938 126.423 76.0888 122.456 77.9688L121.638 76.7238C124.507 75.3688 125.77 73.6107 126.02 71.145H122.236V69.9244H127.607Z" fill="#9038FF"/>
<mask id="mask1_40_14" style="mask-type:luminance" maskUnits="userSpaceOnUse" x="64" y="105" width="1072" height="711">
<path d="M1131.88 105H68.125C66.0539 105 64.375 106.679 64.375 108.75V811.875C64.375 813.946 66.0539 815.625 68.125 815.625H1131.88C1133.95 815.625 1135.62 813.946 1135.62 811.875V108.75C1135.62 106.679 1133.95 105 1131.88 105Z" fill="white"/>
</mask>
<g mask="url(#mask1_40_14)">
<path d="M1131.88 105H68.125C66.0539 105 64.375 106.679 64.375 108.75V811.875C64.375 813.946 66.0539 815.625 68.125 815.625H1131.88C1133.95 815.625 1135.62 813.946 1135.62 811.875V108.75C1135.62 106.679 1133.95 105 1131.88 105Z" fill="white"/>
<path d="M64.375 191.875H1135.62V312.5H64.375V191.875Z" fill="white"/>
<mask id="mask2_40_14" style="mask-type:luminance" maskUnits="userSpaceOnUse" x="64" y="191" width="1072" height="122">
<path d="M64.375 191.875H1135.62V312.5H64.375V191.875Z" fill="white"/>
</mask>
<g mask="url(#mask2_40_14)">
<path d="M1135.62 312.188H64.375V312.812H1135.62V312.188Z" fill="black"/>
</g>
<path d="M98.1942 211.463V212.158H89.7485V211.463H98.1942ZM97.3848 205.05V205.724H95.9223V208.951H97.3642V209.616H90.516V208.951H91.9585V205.724H90.4954V205.05H97.3848ZM92.7679 208.951H95.1229V205.724H92.7679V208.951ZM107.377 211.514V212.199H98.931V211.514H102.729V209.771H99.9892V206.928H105.509V205.476H99.9685V204.801H106.309V207.592H100.799V209.097H106.526V209.771H103.528V211.514H107.377ZM114.153 204.324V209.678H113.364V207.177H111.953V206.503H113.364V204.324H114.153ZM110.843 206.098C110.843 207.104 111.517 208.194 112.69 208.682L112.264 209.304C111.398 208.941 110.791 208.251 110.48 207.458C110.153 208.355 109.509 209.128 108.591 209.533L108.155 208.889C109.359 208.381 110.054 207.198 110.054 206.098V205.548H108.332V204.874H112.472V205.548H110.843V206.098ZM115.948 204.116V209.761H115.169V204.116H115.948ZM115.948 210.166V213.341H115.149V210.829H109.732V210.166H115.948ZM124.767 209.107V209.771H118.386V204.915H124.664V205.6H119.216V206.969H124.466V207.623H119.216V209.107H124.767ZM125.742 211.463V212.137H117.297V211.463H125.742ZM137.021 204.116V213.341H136.222V208.516H134.946V212.884H134.168V204.365H134.946V207.841H136.222V204.116H137.021ZM133.12 205.32C133.11 207.665 132.29 209.885 129.634 211.359L129.156 210.788C131.299 209.595 132.186 207.904 132.321 205.994H129.509V205.32H133.12ZM146.775 211.473V212.158H138.329V211.473H140.425V208.983C139.636 208.573 139.159 207.909 139.159 207.073C139.159 205.641 140.56 204.708 142.531 204.698C144.502 204.708 145.903 205.641 145.903 207.073C145.903 207.893 145.442 208.552 144.679 208.962V211.473H146.775ZM142.531 205.372C141.016 205.361 139.947 206.046 139.947 207.073C139.947 208.101 141.016 208.796 142.531 208.796C144.035 208.796 145.115 208.101 145.115 207.073C145.115 206.046 144.035 205.361 142.531 205.372ZM141.224 211.473H143.859V209.273C143.46 209.382 143.014 209.439 142.531 209.439C142.059 209.439 141.618 209.388 141.224 209.284V211.473Z" fill="black"/>
<path d="M98.1942 233.963V234.658H89.7485V233.963H98.1942ZM97.3848 227.55V228.224H95.9223V231.451H97.3642V232.116H90.516V231.451H91.9585V228.224H90.4954V227.55H97.3848ZM92.7679 231.451H95.1229V228.224H92.7679V231.451ZM107.377 234.014V234.699H98.931V234.014H102.729V232.271H99.9892V229.428H105.509V227.976H99.9685V227.301H106.309V230.092H100.799V231.597H106.526V232.271H103.528V234.014H107.377ZM114.153 226.824V232.178H113.364V229.677H111.953V229.003H113.364V226.824H114.153ZM110.843 228.598C110.843 229.604 111.517 230.694 112.69 231.182L112.264 231.804C111.398 231.441 110.791 230.751 110.48 229.958C110.153 230.855 109.509 231.628 108.591 232.033L108.155 231.389C109.359 230.881 110.054 229.698 110.054 228.598V228.048H108.332V227.374H112.472V228.048H110.843V228.598ZM115.948 226.616V232.261H115.169V226.616H115.948ZM115.948 232.666V235.841H115.149V233.329H109.732V232.666H115.948ZM124.767 231.607V232.271H118.386V227.415H124.664V228.1H119.216V229.469H124.466V230.123H119.216V231.607H124.767ZM125.742 233.963V234.637H117.297V233.963H125.742ZM134.386 226.616V235.841H133.597V226.616H134.386ZM132.529 226.813V235.374H131.75V230.891H130.567C130.479 232.686 129.717 233.807 128.575 233.807C127.372 233.807 126.594 232.562 126.594 230.601C126.594 228.639 127.372 227.394 128.575 227.394C129.696 227.394 130.454 228.479 130.557 230.217H131.75V226.813H132.529ZM128.575 228.163C127.828 228.163 127.351 229.096 127.361 230.601C127.351 232.095 127.828 233.039 128.575 233.029C129.322 233.039 129.8 232.095 129.8 230.601C129.8 229.096 129.322 228.163 128.575 228.163ZM146.214 226.616V235.841H145.436V231.005H144.077V235.363H143.33V226.824H144.077V230.331H145.436V226.616H146.214ZM142.126 227.748V228.422H139.48V232.863C140.752 232.858 141.634 232.811 142.655 232.603L142.728 233.288C141.618 233.516 140.674 233.558 139.262 233.558H138.671V227.748H142.126ZM152.119 228.214V228.878H147.49V228.214H149.41V226.896H150.22V228.214H152.119ZM149.805 229.501C150.967 229.501 151.797 230.373 151.807 231.597C151.797 232.831 150.967 233.713 149.805 233.713C148.653 233.713 147.823 232.831 147.823 231.597C147.823 230.373 148.653 229.501 149.805 229.501ZM149.805 230.186C149.078 230.196 148.549 230.788 148.549 231.597C148.549 232.416 149.078 233.008 149.805 232.998C150.541 233.008 151.08 232.416 151.08 231.597C151.08 230.788 150.541 230.196 149.805 230.186ZM155.366 226.616V235.841H154.588V231.182H153.364V235.384H152.595V226.844H153.364V230.508H154.588V226.616H155.366ZM167.008 226.616V231.389H166.188V228.993H164.134V228.318H166.188V226.616H167.008ZM167.008 231.856V234.056H161.851V235.063H167.35V235.716H161.052V233.433H166.199V232.51H161.031V231.856H167.008ZM162.505 227.789C162.494 229.003 163.449 230.103 164.798 230.549L164.362 231.182C163.34 230.819 162.525 230.092 162.121 229.158C161.727 230.211 160.891 231.016 159.797 231.41L159.35 230.756C160.741 230.299 161.695 229.138 161.705 227.789V226.917H162.505V227.789ZM176.19 226.616V232.084H175.371V230.632H173.213V231.42H168.979V227.322H173.213V228.121H175.371V226.616H176.19ZM169.789 227.986V230.756H172.414V227.986H169.789ZM173.13 232.354C175.049 232.354 176.222 232.987 176.222 234.098C176.222 235.197 175.049 235.82 173.13 235.82C171.21 235.82 170.038 235.197 170.038 234.098C170.038 232.987 171.21 232.354 173.13 232.354ZM173.13 232.987C171.719 232.998 170.837 233.402 170.847 234.098C170.837 234.761 171.719 235.176 173.13 235.176C174.541 235.176 175.412 234.761 175.412 234.098C175.412 233.402 174.541 232.998 173.13 232.987ZM173.213 229.947H175.371V228.795H173.213V229.947ZM182.333 228.214V228.878H177.705V228.214H179.625V226.896H180.434V228.214H182.333ZM180.019 229.501C181.182 229.501 182.012 230.373 182.022 231.597C182.012 232.831 181.182 233.713 180.019 233.713C178.867 233.713 178.037 232.831 178.037 231.597C178.037 230.373 178.867 229.501 180.019 229.501ZM180.019 230.186C179.293 230.196 178.764 230.788 178.764 231.597C178.764 232.416 179.293 233.008 180.019 232.998C180.756 233.008 181.295 232.416 181.295 231.597C181.295 230.788 180.756 230.196 180.019 230.186ZM185.581 226.616V235.841H184.803V231.182H183.579V235.384H182.81V226.844H183.579V230.508H184.803V226.616H185.581ZM191.568 227.924C191.557 229.158 193.207 230.206 194.815 230.445L194.515 231.088C193.072 230.844 191.672 230.077 191.111 228.961C190.551 230.077 189.145 230.844 187.729 231.088L187.407 230.445C189.005 230.206 190.655 229.158 190.655 227.924V227.861H187.697V227.198H194.515V227.861H191.568V227.924ZM195.314 231.877V232.551H191.495V235.841H190.696V232.551H186.909V231.877H195.314ZM198.831 229.241C198.831 230.704 199.547 232.292 200.771 233.018L200.304 233.651C199.417 233.112 198.779 232.126 198.457 231.005C198.115 232.229 197.43 233.283 196.507 233.848L195.988 233.236C197.264 232.489 198.042 230.849 198.042 229.273V227.488H198.831V229.241ZM203.998 226.616V235.841H203.21V226.616H203.998ZM202.089 226.813V235.374H201.321V230.621H199.754V229.926H201.321V226.813H202.089ZM213.72 233.973V234.658H205.274V233.973H207.37V231.483C206.582 231.073 206.105 230.409 206.105 229.573C206.105 228.141 207.505 227.208 209.477 227.198C211.448 227.208 212.849 228.141 212.849 229.573C212.849 230.393 212.387 231.052 211.625 231.462V233.973H213.72ZM209.477 227.872C207.962 227.861 206.893 228.546 206.893 229.573C206.893 230.601 207.962 231.296 209.477 231.296C210.981 231.296 212.06 230.601 212.06 229.573C212.06 228.546 210.981 227.861 209.477 227.872ZM208.169 233.973H210.805V231.773C210.405 231.882 209.959 231.939 209.477 231.939C209.005 231.939 208.564 231.888 208.169 231.784V233.973Z" fill="#ACACAC"/>
<path d="M64.375 312.5H1135.62V433.125H64.375V312.5Z" fill="white"/>
<mask id="mask3_40_14" style="mask-type:luminance" maskUnits="userSpaceOnUse" x="64" y="312" width="1072" height="122">
<path d="M64.375 312.5H1135.62V433.125H64.375V312.5Z" fill="white"/>
</mask>
<g mask="url(#mask3_40_14)">
<path d="M1135.62 432.812H64.375V433.438H1135.62V432.812Z" fill="black"/>
</g>
<path d="M93.0689 333.598C93.0689 334.843 94.0546 335.964 95.4346 336.399L95.0196 337.053C93.9458 336.69 93.0896 335.932 92.6746 334.957C92.2702 336.011 91.4039 336.841 90.3089 337.24L89.8833 336.586C91.2633 336.099 92.2495 334.906 92.2495 333.598V333.059H90.0914V332.394H95.1958V333.059H93.0689V333.598ZM97.3646 331.627V338.392H96.5552V331.627H97.3646ZM97.6552 339.959V340.643H91.4089V337.748H92.2183V339.959H97.6552ZM106.765 331.616V337.458H105.987V334.812H104.753V337.126H103.985V331.803H104.753V334.137H105.987V331.616H106.765ZM103.611 332.726V333.38H98.8795V332.726H100.851V331.689H101.66V332.726H103.611ZM101.256 333.878C102.428 333.878 103.227 334.491 103.238 335.456C103.227 336.399 102.428 337.022 101.256 337.022C100.093 337.022 99.2739 336.399 99.2839 335.456C99.2739 334.491 100.093 333.878 101.256 333.878ZM101.256 334.48C100.519 334.48 100.011 334.874 100.011 335.456C100.011 336.026 100.519 336.41 101.256 336.41C101.993 336.41 102.501 336.026 102.501 335.456C102.501 334.874 101.993 334.48 101.256 334.48ZM103.715 337.614C105.655 337.614 106.817 338.194 106.817 339.232C106.817 340.239 105.655 340.82 103.715 340.82C101.775 340.82 100.612 340.239 100.623 339.232C100.612 338.194 101.775 337.614 103.715 337.614ZM103.715 338.257C102.283 338.246 101.421 338.599 101.432 339.232C101.421 339.834 102.283 340.187 103.715 340.187C105.146 340.187 105.998 339.834 106.008 339.232C105.998 338.599 105.146 338.246 103.715 338.257ZM113.863 333.111C113.863 334.366 114.817 335.517 116.156 335.974L115.71 336.617C114.688 336.244 113.883 335.481 113.478 334.521C113.085 335.606 112.265 336.462 111.185 336.877L110.75 336.223C112.13 335.704 113.053 334.469 113.063 333.048V332.094H113.863V333.111ZM117.992 331.616V334.024H119.383V334.708H117.992V337.229H117.183V331.616H117.992ZM115.035 337.468C116.934 337.468 118.075 338.081 118.075 339.139C118.075 340.218 116.934 340.82 115.035 340.82C113.136 340.82 111.974 340.218 111.974 339.139C111.974 338.081 113.136 337.468 115.035 337.468ZM115.035 338.122C113.645 338.122 112.783 338.506 112.794 339.139C112.783 339.792 113.645 340.166 115.035 340.176C116.436 340.166 117.286 339.792 117.286 339.139C117.286 338.506 116.436 338.122 115.035 338.122ZM127.165 331.627V334.407H128.545V335.092H127.165V337.883H126.345V331.627H127.165ZM124.186 337.997C126.106 337.987 127.216 338.496 127.226 339.419C127.216 340.342 126.106 340.83 124.186 340.841C122.256 340.83 121.157 340.342 121.157 339.419C121.157 338.496 122.256 337.987 124.186 337.997ZM124.186 338.609C122.765 338.599 121.966 338.9 121.976 339.419C121.966 339.917 122.765 340.218 124.186 340.218C125.598 340.218 126.396 339.917 126.396 339.419C126.396 338.9 125.598 338.599 124.186 338.609ZM119.922 336.804C120.664 336.804 121.525 336.799 122.423 336.773V336.036C121.343 335.948 120.659 335.466 120.659 334.739C120.659 333.919 121.51 333.432 122.817 333.432C124.135 333.432 124.975 333.919 124.986 334.739C124.975 335.461 124.311 335.943 123.232 336.036V336.732C124.098 336.695 124.97 336.627 125.774 336.514L125.846 337.084C123.865 337.427 121.655 337.458 120.015 337.458L119.922 336.804ZM125.494 332.415V333.048H120.15V332.415H122.423V331.544H123.232V332.415H125.494ZM122.817 334.002C121.966 334.002 121.437 334.293 121.437 334.739C121.437 335.206 121.966 335.486 122.817 335.486C123.668 335.486 124.207 335.206 124.207 334.739C124.207 334.293 123.668 334.002 122.817 334.002Z" fill="black"/>
<path d="M98.1942 361.462V362.157H89.7485V361.462H98.1942ZM97.3848 355.05V355.724H95.9223V358.951H97.3642V359.616H90.516V358.951H91.9585V355.724H90.4954V355.05H97.3848ZM92.7679 358.951H95.1229V355.724H92.7679V358.951ZM107.377 361.514V362.199H98.931V361.514H102.729V359.771H99.9892V356.928H105.509V355.476H99.9685V354.801H106.309V357.592H100.799V359.097H106.526V359.771H103.528V361.514H107.377ZM114.153 354.324V359.677H113.364V357.177H111.953V356.502H113.364V354.324H114.153ZM110.843 356.098C110.843 357.104 111.517 358.194 112.69 358.682L112.264 359.304C111.398 358.941 110.791 358.251 110.48 357.457C110.153 358.355 109.509 359.127 108.591 359.532L108.155 358.889C109.359 358.381 110.054 357.198 110.054 356.098V355.548H108.332V354.874H112.472V355.548H110.843V356.098ZM115.948 354.116V359.761H115.169V354.116H115.948ZM115.948 360.166V363.341H115.149V360.829H109.732V360.166H115.948ZM124.767 359.107V359.771H118.386V354.915H124.664V355.6H119.216V356.969H124.466V357.623H119.216V359.107H124.767ZM125.742 361.462V362.137H117.297V361.462H125.742ZM132.466 356.098C132.466 357.343 133.452 358.464 134.832 358.899L134.417 359.553C133.343 359.19 132.487 358.432 132.072 357.457C131.667 358.511 130.801 359.341 129.706 359.74L129.281 359.086C130.661 358.599 131.647 357.406 131.647 356.098V355.559H129.489V354.894H134.594V355.559H132.466V356.098ZM136.762 354.127V360.892H135.952V354.127H136.762ZM137.052 362.459V363.143H130.806V360.248H131.615V362.459H137.052ZM146.162 354.116V359.958H145.384V357.312H144.15V359.626H143.382V354.303H144.15V356.637H145.384V354.116H146.162ZM143.008 355.226V355.88H138.277V355.226H140.248V354.189H141.057V355.226H143.008ZM140.653 356.378C141.825 356.378 142.624 356.991 142.635 357.956C142.624 358.899 141.825 359.522 140.653 359.522C139.491 359.522 138.671 358.899 138.682 357.956C138.671 356.991 139.491 356.378 140.653 356.378ZM140.653 356.98C139.916 356.98 139.408 357.374 139.408 357.956C139.408 358.526 139.916 358.91 140.653 358.91C141.39 358.91 141.898 358.526 141.898 357.956C141.898 357.374 141.39 356.98 140.653 356.98ZM143.112 360.114C145.052 360.114 146.214 360.694 146.214 361.732C146.214 362.739 145.052 363.32 143.112 363.32C141.172 363.32 140.01 362.739 140.02 361.732C140.01 360.694 141.172 360.114 143.112 360.114ZM143.112 360.757C141.68 360.746 140.819 361.099 140.829 361.732C140.819 362.334 141.68 362.687 143.112 362.687C144.544 362.687 145.395 362.334 145.405 361.732C145.395 361.099 144.544 360.746 143.112 360.757ZM153.26 355.611C153.26 356.866 154.214 358.017 155.553 358.474L155.107 359.117C154.085 358.744 153.28 357.981 152.876 357.021C152.482 358.106 151.662 358.962 150.583 359.377L150.147 358.723C151.527 358.204 152.45 356.969 152.461 355.548V354.594H153.26V355.611ZM157.389 354.116V356.524H158.78V357.208H157.389V359.729H156.58V354.116H157.389ZM154.432 359.968C156.331 359.968 157.472 360.581 157.472 361.639C157.472 362.718 156.331 363.32 154.432 363.32C152.534 363.32 151.371 362.718 151.371 361.639C151.371 360.581 152.534 359.968 154.432 359.968ZM154.432 360.622C153.042 360.622 152.18 361.006 152.191 361.639C152.18 362.292 153.042 362.666 154.432 362.676C155.833 362.666 156.684 362.292 156.684 361.639C156.684 361.006 155.833 360.622 154.432 360.622ZM166.562 354.127V356.907H167.942V357.592H166.562V360.383H165.742V354.127H166.562ZM163.584 360.497C165.504 360.487 166.614 360.996 166.624 361.919C166.614 362.842 165.504 363.33 163.584 363.341C161.654 363.33 160.554 362.842 160.554 361.919C160.554 360.996 161.654 360.487 163.584 360.497ZM163.584 361.109C162.162 361.099 161.364 361.4 161.374 361.919C161.364 362.417 162.162 362.718 163.584 362.718C164.995 362.718 165.794 362.417 165.794 361.919C165.794 361.4 164.995 361.099 163.584 361.109ZM159.319 359.304C160.061 359.304 160.922 359.299 161.82 359.273V358.536C160.741 358.448 160.056 357.966 160.056 357.239C160.056 356.419 160.907 355.932 162.214 355.932C163.532 355.932 164.372 356.419 164.383 357.239C164.372 357.961 163.709 358.443 162.629 358.536V359.232C163.495 359.195 164.367 359.127 165.171 359.014L165.244 359.584C163.262 359.927 161.052 359.958 159.413 359.958L159.319 359.304ZM164.891 354.915V355.548H159.547V354.915H161.82V354.044H162.629V354.915H164.891ZM162.214 356.502C161.364 356.502 160.834 356.793 160.834 357.239C160.834 357.706 161.364 357.986 162.214 357.986C163.065 357.986 163.605 357.706 163.605 357.239C163.605 356.793 163.065 356.502 162.214 356.502ZM176.45 354.116V363.341H175.662V354.116H176.45ZM174.593 354.313V362.874H173.815V358.391H172.632C172.544 360.186 171.781 361.307 170.639 361.307C169.436 361.307 168.658 360.062 168.658 358.101C168.658 356.139 169.436 354.894 170.639 354.894C171.76 354.894 172.517 355.979 172.621 357.717H173.815V354.313H174.593ZM170.639 355.662C169.892 355.662 169.415 356.596 169.425 358.101C169.415 359.595 169.892 360.539 170.639 360.529C171.387 360.539 171.864 359.595 171.864 358.101C171.864 356.596 171.387 355.662 170.639 355.662ZM188.279 354.116V363.341H187.5V358.505H186.141V362.863H185.394V354.324H186.141V357.831H187.5V354.116H188.279ZM184.19 355.247V355.922H181.545V360.362C182.815 360.357 183.698 360.311 184.72 360.103L184.792 360.788C183.682 361.016 182.738 361.057 181.327 361.057H180.735V355.247H184.19ZM194.182 355.714V356.378H189.555V355.714H191.474V354.396H192.284V355.714H194.182ZM191.869 357.001C193.031 357.001 193.861 357.872 193.871 359.097C193.861 360.331 193.031 361.213 191.869 361.213C190.717 361.213 189.887 360.331 189.887 359.097C189.887 357.872 190.717 357.001 191.869 357.001ZM191.869 357.686C191.142 357.696 190.613 358.287 190.613 359.097C190.613 359.916 191.142 360.507 191.869 360.497C192.605 360.507 193.145 359.916 193.145 359.097C193.145 358.287 192.605 357.696 191.869 357.686ZM197.43 354.116V363.341H196.652V358.682H195.428V362.884H194.66V354.344H195.428V358.007H196.652V354.116H197.43ZM204.548 355.828C204.548 357.052 205.451 358.173 206.82 358.651L206.405 359.284C205.352 358.91 204.548 358.152 204.154 357.198C203.76 358.246 202.914 359.061 201.83 359.46L201.394 358.827C202.774 358.339 203.739 357.146 203.749 355.828V355.434H201.643V354.77H206.624V355.434H204.548V355.828ZM208.636 354.116V356.554H210.027V357.25H208.636V359.677H207.827V354.116H208.636ZM208.636 360.166V363.341H207.827V360.829H202.597V360.166H208.636ZM213.783 355.569C213.772 356.887 214.706 358.049 216.065 358.505L215.609 359.138C214.592 358.754 213.793 358.007 213.399 357.032C212.999 358.137 212.154 358.998 211.044 359.418L210.597 358.754C212.019 358.256 212.963 357.032 212.974 355.6V354.646H213.783V355.569ZM218.255 354.116V359.584H217.435V356.772H215.38V356.098H217.435V354.116H218.255ZM215.194 359.854C217.114 359.854 218.286 360.487 218.286 361.597C218.286 362.697 217.114 363.32 215.194 363.32C213.274 363.32 212.102 362.697 212.102 361.597C212.102 360.487 213.274 359.854 215.194 359.854ZM215.194 360.497C213.783 360.497 212.901 360.912 212.911 361.597C212.901 362.261 213.783 362.666 215.194 362.666C216.605 362.666 217.477 362.261 217.477 361.597C217.477 360.912 216.605 360.497 215.194 360.497ZM224.397 355.714V356.378H219.77V355.714H221.689V354.396H222.499V355.714H224.397ZM222.084 357.001C223.245 357.001 224.075 357.872 224.086 359.097C224.075 360.331 223.245 361.213 222.084 361.213C220.932 361.213 220.102 360.331 220.102 359.097C220.102 357.872 220.932 357.001 222.084 357.001ZM222.084 357.686C221.357 357.696 220.828 358.287 220.828 359.097C220.828 359.916 221.357 360.507 222.084 360.497C222.82 360.507 223.36 359.916 223.36 359.097C223.36 358.287 222.82 357.696 222.084 357.686ZM227.645 354.116V363.341H226.867V358.682H225.642V362.884H224.875V354.344H225.642V358.007H226.867V354.116H227.645ZM233.632 355.424C233.622 356.658 235.272 357.706 236.88 357.945L236.579 358.588C235.137 358.344 233.736 357.577 233.175 356.461C232.615 357.577 231.209 358.344 229.793 358.588L229.471 357.945C231.069 357.706 232.719 356.658 232.719 355.424V355.361H229.762V354.697H236.579V355.361H233.632V355.424ZM237.378 359.377V360.051H233.559V363.341H232.76V360.051H228.973V359.377H237.378ZM240.895 356.741C240.895 358.204 241.611 359.792 242.835 360.518L242.369 361.151C241.482 360.612 240.844 359.626 240.522 358.505C240.179 359.729 239.494 360.782 238.571 361.348L238.052 360.736C239.329 359.989 240.107 358.349 240.107 356.772V354.987H240.895V356.741ZM246.062 354.116V363.341H245.274V354.116H246.062ZM244.154 354.313V362.874H243.385V358.121H241.819V357.426H243.385V354.313H244.154ZM255.785 361.472V362.157H247.339V361.472H249.435V358.982C248.646 358.572 248.169 357.909 248.169 357.073C248.169 355.641 249.57 354.707 251.541 354.697C253.512 354.707 254.913 355.641 254.913 357.073C254.913 357.893 254.452 358.552 253.689 358.962V361.472H255.785ZM251.541 355.372C250.026 355.361 248.957 356.046 248.957 357.073C248.957 358.101 250.026 358.796 251.541 358.796C253.045 358.796 254.125 358.101 254.125 357.073C254.125 356.046 253.045 355.361 251.541 355.372ZM250.234 361.472H252.869V359.273C252.47 359.382 252.024 359.439 251.541 359.439C251.069 359.439 250.628 359.387 250.234 359.284V361.472Z" fill="#ACACAC"/>
<path d="M64.375 433.125H1135.62V553.75H64.375V433.125Z" fill="white"/>
<mask id="mask4_40_14" style="mask-type:luminance" maskUnits="userSpaceOnUse" x="64" y="433" width="1072" height="121">
<path d="M64.375 433.125H1135.62V553.75H64.375V433.125Z" fill="white"/>
</mask>
<g mask="url(#mask4_40_14)">
<path d="M1135.62 553.438H64.375V554.062H1135.62V553.438Z" fill="black"/>
</g>
<path d="M97.3544 452.241V461.486H96.5344V452.241H97.3544ZM92.4463 452.957C93.8157 452.967 94.8019 454.212 94.8019 456.174C94.8019 458.135 93.8157 459.38 92.4463 459.38C91.0663 459.38 90.0913 458.135 90.0913 456.174C90.0913 454.212 91.0663 452.967 92.4463 452.957ZM92.4463 453.684C91.5232 453.694 90.8794 454.669 90.8794 456.174C90.8794 457.678 91.5232 458.654 92.4463 458.654C93.3701 458.654 94.0132 457.678 94.0132 456.174C94.0132 454.669 93.3701 453.694 92.4463 453.684ZM107.367 457.522V458.197H105.209V461.538H104.399V458.197H101.899V461.538H101.089V458.197H98.9207V457.522H107.367ZM103.559 453.102C103.559 454.41 105.271 455.551 106.911 455.79L106.589 456.464C105.162 456.21 103.746 455.406 103.154 454.264C102.558 455.421 101.141 456.21 99.6994 456.464L99.3669 455.79C101.028 455.551 102.719 454.431 102.719 453.102V452.573H103.559V453.102ZM115.595 452.843V456.599H111.268V452.843H115.595ZM112.068 453.507V455.956H114.796V453.507H112.068ZM118.386 452.241V457.543H117.588V452.241H118.386ZM115.886 458.809C115.886 459.712 117.359 460.604 118.946 460.801L118.666 461.434C117.276 461.247 116.01 460.594 115.471 459.732C114.91 460.609 113.613 461.247 112.223 461.434L111.933 460.801C113.52 460.625 115.045 459.732 115.045 458.809H112.316V458.176H115.056V457.274H115.865V458.176H118.625V458.809H115.886ZM127.237 453.839V454.503H122.609V453.839H124.529V452.521H125.338V453.839H127.237ZM124.923 455.126C126.085 455.126 126.915 455.997 126.926 457.222C126.915 458.456 126.085 459.338 124.923 459.338C123.771 459.338 122.941 458.456 122.941 457.222C122.941 455.997 123.771 455.126 124.923 455.126ZM124.923 455.811C124.197 455.821 123.668 456.412 123.668 457.222C123.668 458.041 124.197 458.632 124.923 458.622C125.66 458.632 126.199 458.041 126.199 457.222C126.199 456.412 125.66 455.821 124.923 455.811ZM130.484 452.241V461.466H129.706V456.807H128.482V461.009H127.714V452.469H128.482V456.132H129.706V452.241H130.484ZM139.46 452.241V456.962H138.64V455.997H136.181V455.354H138.64V454.244H136.316C135.735 455.702 134.303 456.682 132.259 457.17L131.968 456.496C134.231 455.971 135.548 454.866 135.704 453.382H132.435V452.708H136.596C136.596 453.014 136.565 453.31 136.513 453.59H138.64V452.241H139.46ZM139.46 457.377V459.629H134.313V460.708H139.771V461.382H133.504V459.006H138.64V458.041H133.483V457.377H139.46Z" fill="black"/>
<path d="M97.3544 474.741V483.986H96.5344V474.741H97.3544ZM92.4463 475.457C93.8157 475.467 94.8019 476.712 94.8019 478.674C94.8019 480.635 93.8157 481.88 92.4463 481.88C91.0663 481.88 90.0913 480.635 90.0913 478.674C90.0913 476.712 91.0663 475.467 92.4463 475.457ZM92.4463 476.184C91.5232 476.194 90.8794 477.169 90.8794 478.674C90.8794 480.178 91.5232 481.154 92.4463 481.154C93.3701 481.154 94.0132 480.178 94.0132 478.674C94.0132 477.169 93.3701 476.194 92.4463 476.184ZM107.367 480.022V480.697H105.209V484.038H104.399V480.697H101.899V484.038H101.089V480.697H98.9207V480.022H107.367ZM103.559 475.602C103.559 476.91 105.271 478.051 106.911 478.29L106.589 478.964C105.162 478.71 103.746 477.906 103.154 476.764C102.558 477.921 101.141 478.71 99.6994 478.964L99.3669 478.29C101.028 478.051 102.719 476.931 102.719 475.602V475.073H103.559V475.602ZM115.595 475.343V479.099H111.268V475.343H115.595ZM112.068 476.007V478.456H114.796V476.007H112.068ZM118.386 474.741V480.043H117.588V474.741H118.386ZM115.886 481.309C115.886 482.212 117.359 483.104 118.946 483.301L118.666 483.934C117.276 483.747 116.01 483.094 115.471 482.232C114.91 483.109 113.613 483.747 112.223 483.934L111.933 483.301C113.52 483.125 115.045 482.232 115.045 481.309H112.316V480.676H115.056V479.774H115.865V480.676H118.625V481.309H115.886ZM127.237 476.339V477.003H122.609V476.339H124.529V475.021H125.338V476.339H127.237ZM124.923 477.626C126.085 477.626 126.915 478.497 126.926 479.722C126.915 480.956 126.085 481.838 124.923 481.838C123.771 481.838 122.941 480.956 122.941 479.722C122.941 478.497 123.771 477.626 124.923 477.626ZM124.923 478.311C124.197 478.321 123.668 478.912 123.668 479.722C123.668 480.541 124.197 481.132 124.923 481.122C125.66 481.132 126.199 480.541 126.199 479.722C126.199 478.912 125.66 478.321 124.923 478.311ZM130.484 474.741V483.966H129.706V479.307H128.482V483.509H127.714V474.969H128.482V478.632H129.706V474.741H130.484ZM139.46 474.741V479.462H138.64V478.497H136.181V477.854H138.64V476.744H136.316C135.735 478.202 134.303 479.182 132.259 479.67L131.968 478.996C134.231 478.471 135.548 477.366 135.704 475.882H132.435V475.208H136.596C136.596 475.514 136.565 475.81 136.513 476.09H138.64V474.741H139.46ZM139.46 479.877V482.129H134.313V483.208H139.771V483.882H133.504V481.506H138.64V480.541H133.483V479.877H139.46ZM148.902 474.741V483.966H148.113V474.741H148.902ZM147.044 474.938V483.499H146.266V479.016H145.084C144.996 480.811 144.233 481.932 143.091 481.932C141.888 481.932 141.109 480.687 141.109 478.726C141.109 476.764 141.888 475.519 143.091 475.519C144.212 475.519 144.969 476.604 145.073 478.342H146.266V474.938H147.044ZM143.091 476.287C142.344 476.287 141.867 477.221 141.878 478.726C141.867 480.22 142.344 481.164 143.091 481.154C143.839 481.164 144.316 480.22 144.316 478.726C144.316 477.221 143.839 476.287 143.091 476.287ZM160.731 474.741V483.966H159.953V479.13H158.593V483.488H157.846V474.949H158.593V478.456H159.953V474.741H160.731ZM156.643 475.872V476.547H153.997V480.987C155.268 480.982 156.149 480.936 157.172 480.728L157.244 481.413C156.134 481.641 155.19 481.682 153.779 481.682H153.188V475.872H156.643ZM166.634 476.339V477.003H162.007V476.339H163.926V475.021H164.736V476.339H166.634ZM164.321 477.626C165.483 477.626 166.313 478.497 166.323 479.722C166.313 480.956 165.483 481.838 164.321 481.838C163.169 481.838 162.339 480.956 162.339 479.722C162.339 478.497 163.169 477.626 164.321 477.626ZM164.321 478.311C163.594 478.321 163.065 478.912 163.065 479.722C163.065 480.541 163.594 481.132 164.321 481.122C165.058 481.132 165.597 480.541 165.597 479.722C165.597 478.912 165.058 478.321 164.321 478.311ZM169.883 474.741V483.966H169.104V479.307H167.879V483.509H167.112V474.969H167.879V478.632H169.104V474.741H169.883ZM177 476.453C177 477.677 177.903 478.798 179.273 479.276L178.858 479.909C177.804 479.535 177 478.777 176.606 477.823C176.211 478.871 175.366 479.686 174.282 480.085L173.846 479.452C175.226 478.964 176.191 477.771 176.201 476.453V476.059H174.095V475.395H179.076V476.059H177V476.453ZM181.088 474.741V477.179H182.479V477.875H181.088V480.302H180.279V474.741H181.088ZM181.088 480.791V483.966H180.279V481.454H175.049V480.791H181.088ZM186.235 476.194C186.224 477.512 187.158 478.674 188.518 479.13L188.061 479.763C187.044 479.379 186.245 478.632 185.851 477.657C185.451 478.762 184.606 479.623 183.496 480.043L183.049 479.379C184.471 478.881 185.415 477.657 185.426 476.225V475.271H186.235V476.194ZM190.707 474.741V480.209H189.887V477.397H187.833V476.723H189.887V474.741H190.707ZM187.646 480.479C189.566 480.479 190.738 481.112 190.738 482.222C190.738 483.322 189.566 483.945 187.646 483.945C185.726 483.945 184.554 483.322 184.554 482.222C184.554 481.112 185.726 480.479 187.646 480.479ZM187.646 481.122C186.235 481.122 185.353 481.537 185.363 482.222C185.353 482.886 186.235 483.291 187.646 483.291C189.057 483.291 189.929 482.886 189.929 482.222C189.929 481.537 189.057 481.122 187.646 481.122ZM196.849 476.339V477.003H192.222V476.339H194.141V475.021H194.951V476.339H196.849ZM194.536 477.626C195.698 477.626 196.528 478.497 196.538 479.722C196.528 480.956 195.698 481.838 194.536 481.838C193.384 481.838 192.554 480.956 192.554 479.722C192.554 478.497 193.384 477.626 194.536 477.626ZM194.536 478.311C193.809 478.321 193.28 478.912 193.28 479.722C193.28 480.541 193.809 481.132 194.536 481.122C195.273 481.132 195.812 480.541 195.812 479.722C195.812 478.912 195.273 478.321 194.536 478.311ZM200.097 474.741V483.966H199.319V479.307H198.094V483.509H197.327V474.969H198.094V478.632H199.319V474.741H200.097ZM206.084 476.049C206.074 477.283 207.723 478.331 209.332 478.57L209.031 479.213C207.589 478.969 206.188 478.202 205.628 477.086C205.067 478.202 203.661 478.969 202.245 479.213L201.923 478.57C203.521 478.331 205.171 477.283 205.171 476.049V475.986H202.214V475.322H209.031V475.986H206.084V476.049ZM209.83 480.002V480.676H206.011V483.966H205.213V480.676H201.425V480.002H209.83ZM213.347 477.366C213.347 478.829 214.063 480.417 215.288 481.143L214.821 481.776C213.933 481.237 213.295 480.251 212.974 479.13C212.631 480.354 211.946 481.407 211.023 481.973L210.504 481.361C211.781 480.614 212.559 478.974 212.559 477.397V475.612H213.347V477.366ZM218.514 474.741V483.966H217.726V474.741H218.514ZM216.605 474.938V483.499H215.838V478.746H214.271V478.051H215.838V474.938H216.605ZM228.237 482.097V482.782H219.791V482.097H221.887V479.607C221.098 479.197 220.621 478.534 220.621 477.698C220.621 476.266 222.021 475.332 223.993 475.322C225.964 475.332 227.365 476.266 227.365 477.698C227.365 478.518 226.903 479.177 226.141 479.587V482.097H228.237ZM223.993 475.997C222.478 475.986 221.409 476.671 221.409 477.698C221.409 478.726 222.478 479.421 223.993 479.421C225.498 479.421 226.576 478.726 226.576 477.698C226.576 476.671 225.498 475.986 223.993 475.997ZM222.686 482.097H225.321V479.898C224.922 480.007 224.476 480.064 223.993 480.064C223.521 480.064 223.08 480.012 222.686 479.909V482.097Z" fill="#ACACAC"/>
<path d="M64.375 553.75H1135.62V726.875H64.375V553.75Z" fill="white"/>
<mask id="mask5_40_14" style="mask-type:luminance" maskUnits="userSpaceOnUse" x="64" y="553" width="1072" height="174">
<path d="M64.375 553.75H1135.62V726.875H64.375V553.75Z" fill="white"/>
</mask>
<g mask="url(#mask5_40_14)">
<path d="M1135.62 726.562H64.375V727.188H1135.62V726.562Z" fill="black"/>
</g>
<path d="M97.3955 572.866V577.587H96.5755V576.622H94.1168V575.979H96.5755V574.869H94.2518C93.6705 576.327 92.2387 577.307 90.1949 577.795L89.9043 577.121C92.1662 576.596 93.4837 575.491 93.6393 574.007H90.3712V573.333H94.5318C94.5318 573.639 94.5005 573.935 94.4487 574.215H96.5755V572.866H97.3955ZM97.3955 578.002V580.254H92.2493V581.333H97.7068V582.007H91.4399V579.631H96.5755V578.666H91.4193V578.002H97.3955ZM104.047 573.893V574.371C104.036 575.097 104.036 576.321 103.777 578.034L102.957 577.961C103.206 576.415 103.227 575.294 103.227 574.557H99.3568V573.893H104.047ZM101.629 576.529V579.331C102.651 579.294 103.699 579.227 104.659 579.112L104.701 579.725C102.76 580.026 100.591 580.067 98.9418 580.057L98.8381 579.382C99.4449 579.377 100.119 579.372 100.83 579.351V576.529H101.629ZM106.049 572.866V576.726H107.543V577.432H106.049V582.091H105.24V572.866H106.049ZM116.519 576.767V577.432H112.711V578.345H115.439V580.409H109.961V581.343H115.719V581.987H109.152V579.797H114.641V578.977H109.131V578.345H111.901V577.432H108.114V576.767H116.519ZM115.429 573.177V575.989H109.204V573.177H115.429ZM110.013 573.831V575.336H114.62V573.831H110.013Z" fill="black"/>
<path d="M97.3955 595.366V600.087H96.5755V599.122H94.1168V598.479H96.5755V597.369H94.2518C93.6705 598.827 92.2387 599.807 90.1949 600.295L89.9043 599.621C92.1662 599.096 93.4837 597.991 93.6393 596.507H90.3712V595.833H94.5318C94.5318 596.139 94.5005 596.435 94.4487 596.715H96.5755V595.366H97.3955ZM97.3955 600.502V602.754H92.2493V603.833H97.7068V604.507H91.4399V602.131H96.5755V601.166H91.4193V600.502H97.3955ZM104.047 596.393V596.871C104.036 597.597 104.036 598.821 103.777 600.534L102.957 600.461C103.206 598.915 103.227 597.794 103.227 597.057H99.3568V596.393H104.047ZM101.629 599.029V601.831C102.651 601.794 103.699 601.727 104.659 601.612L104.701 602.225C102.76 602.526 100.591 602.567 98.9418 602.557L98.8381 601.882C99.4449 601.877 100.119 601.872 100.83 601.851V599.029H101.629ZM106.049 595.366V599.226H107.543V599.932H106.049V604.591H105.24V595.366H106.049ZM116.519 599.267V599.932H112.711V600.845H115.439V602.909H109.961V603.843H115.719V604.487H109.152V602.297H114.641V601.477H109.131V600.845H111.901V599.932H108.114V599.267H116.519ZM115.429 595.677V598.489H109.204V595.677H115.429ZM110.013 596.331V597.836H114.62V596.331H110.013ZM125.203 595.366V604.591H124.414V595.366H125.203ZM123.346 595.563V604.124H122.567V599.641H121.385C121.297 601.436 120.534 602.557 119.392 602.557C118.189 602.557 117.411 601.312 117.411 599.351C117.411 597.389 118.189 596.144 119.392 596.144C120.513 596.144 121.271 597.229 121.374 598.967H122.567V595.563H123.346ZM119.392 596.912C118.646 596.912 118.168 597.846 118.179 599.351C118.168 600.845 118.646 601.789 119.392 601.779C120.14 601.789 120.617 600.845 120.617 599.351C120.617 597.846 120.14 596.912 119.392 596.912ZM137.032 595.366V604.591H136.254V599.755H134.894V604.113H134.147V595.574H134.894V599.081H136.254V595.366H137.032ZM132.944 596.497V597.172H130.298V601.612C131.569 601.607 132.451 601.561 133.473 601.353L133.546 602.038C132.435 602.266 131.491 602.307 130.08 602.307H129.489V596.497H132.944ZM142.936 596.964V597.628H138.308V596.964H140.227V595.646H141.037V596.964H142.936ZM140.622 598.251C141.784 598.251 142.614 599.122 142.624 600.347C142.614 601.581 141.784 602.463 140.622 602.463C139.47 602.463 138.64 601.581 138.64 600.347C138.64 599.122 139.47 598.251 140.622 598.251ZM140.622 598.936C139.896 598.946 139.366 599.537 139.366 600.347C139.366 601.166 139.896 601.757 140.622 601.747C141.359 601.757 141.898 601.166 141.898 600.347C141.898 599.537 141.359 598.946 140.622 598.936ZM146.184 595.366V604.591H145.405V599.932H144.181V604.134H143.413V595.594H144.181V599.257H145.405V595.366H146.184ZM153.301 597.078C153.301 598.302 154.204 599.423 155.574 599.901L155.159 600.534C154.106 600.16 153.301 599.402 152.907 598.448C152.513 599.496 151.667 600.311 150.583 600.71L150.147 600.077C151.527 599.589 152.492 598.396 152.502 597.078V596.684H150.396V596.02H155.377V596.684H153.301V597.078ZM157.389 595.366V597.804H158.78V598.5H157.389V600.927H156.58V595.366H157.389ZM157.389 601.416V604.591H156.58V602.079H151.351V601.416H157.389ZM162.536 596.819C162.526 598.137 163.459 599.299 164.819 599.755L164.362 600.388C163.346 600.004 162.546 599.257 162.152 598.282C161.752 599.387 160.907 600.248 159.797 600.668L159.351 600.004C160.772 599.506 161.716 598.282 161.727 596.85V595.896H162.536V596.819ZM167.008 595.366V600.834H166.188V598.022H164.134V597.348H166.188V595.366H167.008ZM163.947 601.104C165.867 601.104 167.039 601.737 167.039 602.847C167.039 603.947 165.867 604.57 163.947 604.57C162.027 604.57 160.855 603.947 160.855 602.847C160.855 601.737 162.027 601.104 163.947 601.104ZM163.947 601.747C162.536 601.747 161.654 602.162 161.664 602.847C161.654 603.511 162.536 603.916 163.947 603.916C165.358 603.916 166.23 603.511 166.23 602.847C166.23 602.162 165.358 601.747 163.947 601.747ZM173.151 596.964V597.628H168.523V596.964H170.442V595.646H171.252V596.964H173.151ZM170.837 598.251C171.999 598.251 172.829 599.122 172.839 600.347C172.829 601.581 171.999 602.463 170.837 602.463C169.685 602.463 168.855 601.581 168.855 600.347C168.855 599.122 169.685 598.251 170.837 598.251ZM170.837 598.936C170.111 598.946 169.581 599.537 169.581 600.347C169.581 601.166 170.111 601.757 170.837 601.747C171.574 601.757 172.113 601.166 172.113 600.347C172.113 599.537 171.574 598.946 170.837 598.936ZM176.398 595.366V604.591H175.62V599.932H174.396V604.134H173.628V595.594H174.396V599.257H175.62V595.366H176.398ZM182.385 596.674C182.375 597.908 184.024 598.956 185.633 599.195L185.332 599.838C183.89 599.594 182.489 598.827 181.929 597.711C181.368 598.827 179.962 599.594 178.546 599.838L178.224 599.195C179.822 598.956 181.472 597.908 181.472 596.674V596.611H178.515V595.947H185.332V596.611H182.385V596.674ZM186.131 600.627V601.301H182.312V604.591H181.514V601.301H177.726V600.627H186.131ZM189.649 597.991C189.649 599.454 190.364 601.042 191.589 601.768L191.122 602.401C190.234 601.862 189.596 600.876 189.275 599.755C188.932 600.979 188.247 602.032 187.324 602.598L186.806 601.986C188.082 601.239 188.86 599.599 188.86 598.022V596.237H189.649V597.991ZM194.816 595.366V604.591H194.027V595.366H194.816ZM192.906 595.563V604.124H192.139V599.371H190.572V598.676H192.139V595.563H192.906ZM204.538 602.722V603.407H196.092V602.722H198.188V600.232C197.399 599.822 196.922 599.159 196.922 598.323C196.922 596.891 198.322 595.957 200.294 595.947C202.266 595.957 203.666 596.891 203.666 598.323C203.666 599.143 203.204 599.802 202.442 600.212V602.722H204.538ZM200.294 596.622C198.779 596.611 197.711 597.296 197.711 598.323C197.711 599.351 198.779 600.046 200.294 600.046C201.799 600.046 202.877 599.351 202.877 598.323C202.877 597.296 201.799 596.611 200.294 596.622ZM198.987 602.722H201.622V600.523C201.223 600.632 200.777 600.689 200.294 600.689C199.822 600.689 199.381 600.637 198.987 600.534V602.722Z" fill="#ACACAC"/>
<path d="M1135.62 726.875H64.375V855.625H1135.62V726.875Z" fill="white"/>
<path d="M97.6238 745.994V755.213H96.825V750.388H95.5488V754.756H94.7707V746.238H95.5488V749.719H96.825V745.994H97.6238ZM93.7225 747.194C93.7119 749.538 92.8925 751.763 90.2363 753.231L89.7588 752.663C91.9013 751.469 92.7888 749.781 92.9238 747.869H90.1119V747.194H93.7225ZM100.124 746.388V747.713H102.812V746.388H103.621V750.4H99.3257V746.388H100.124ZM100.124 749.738H102.812V748.344H100.124V749.738ZM106.143 745.994V747.994H107.533V748.681H106.143V750.763H105.333V745.994H106.143ZM106.143 751.2V753.431H101.079V754.45H106.485V755.113H100.28V752.806H105.333V751.856H100.259V751.2H106.143ZM114.651 747.069V749.475H116.052V746.188H116.83V754.75H116.052V750.15H114.651V752.738H111.123V747.069H114.651ZM111.891 747.725V752.081H113.883V747.725H111.891ZM118.687 745.994V755.213H117.899V745.994H118.687ZM128.409 753.35V754.031H119.963V753.35H123.761V751.094H120.959V746.769H127.361V751.094H124.56V753.35H128.409ZM121.758 747.425V750.444H126.573V747.425H121.758Z" fill="black"/>
<path d="M98.1942 775.837V776.531H89.7485V775.837H98.1942ZM97.3848 769.425V770.1H95.9223V773.325H97.3642V773.987H90.516V773.325H91.9585V770.1H90.4954V769.425H97.3848ZM92.7679 773.325H95.1229V770.1H92.7679V773.325ZM107.377 775.887V776.575H98.931V775.887H102.729V774.144H99.9892V771.3H105.509V769.85H99.9685V769.175H106.309V771.969H100.799V773.469H106.526V774.144H103.528V775.887H107.377ZM114.153 768.7V774.05H113.364V771.55H111.953V770.875H113.364V768.7H114.153ZM110.843 770.475C110.843 771.481 111.517 772.569 112.69 773.056L112.264 773.681C111.398 773.319 110.791 772.625 110.48 771.831C110.153 772.731 109.509 773.5 108.591 773.906L108.155 773.262C109.359 772.756 110.054 771.575 110.054 770.475V769.925H108.332V769.25H112.472V769.925H110.843V770.475ZM115.948 768.494V774.137H115.169V768.494H115.948ZM115.948 774.537V777.712H115.149V775.206H109.732V774.537H115.948ZM124.767 773.481V774.144H118.386V769.287H124.664V769.975H119.216V771.344H124.466V772H119.216V773.481H124.767ZM125.742 775.837V776.512H117.297V775.837H125.742ZM134.386 768.494V777.712H133.597V768.494H134.386ZM132.529 768.687V777.25H131.75V772.769H130.567C130.479 774.562 129.717 775.681 128.575 775.681C127.372 775.681 126.594 774.437 126.594 772.475C126.594 770.512 127.372 769.269 128.575 769.269C129.696 769.269 130.454 770.356 130.557 772.094H131.75V768.687H132.529ZM128.575 770.037C127.828 770.037 127.351 770.969 127.361 772.475C127.351 773.969 127.828 774.912 128.575 774.906C129.322 774.912 129.8 773.969 129.8 772.475C129.8 770.969 129.322 770.037 128.575 770.037ZM146.214 768.494V777.712H145.436V772.881H144.077V777.237H143.33V768.7H144.077V772.206H145.436V768.494H146.214ZM142.126 769.625V770.294H139.48V774.737C140.752 774.731 141.634 774.687 142.655 774.481L142.728 775.162C141.618 775.394 140.674 775.431 139.262 775.431H138.671V769.625H142.126ZM152.119 770.087V770.756H147.49V770.087H149.41V768.769H150.22V770.087H152.119ZM149.805 771.375C150.967 771.375 151.797 772.25 151.807 773.469C151.797 774.706 150.967 775.587 149.805 775.587C148.653 775.587 147.823 774.706 147.823 773.469C147.823 772.25 148.653 771.375 149.805 771.375ZM149.805 772.062C149.078 772.069 148.549 772.662 148.549 773.469C148.549 774.294 149.078 774.881 149.805 774.875C150.541 774.881 151.08 774.294 151.08 773.469C151.08 772.662 150.541 772.069 149.805 772.062ZM155.366 768.494V777.712H154.588V773.056H153.364V777.256H152.595V768.719H153.364V772.381H154.588V768.494H155.366ZM163.231 769.569V771.975H164.632V768.687H165.41V777.25H164.632V772.65H163.231V775.237H159.703V769.569H163.231ZM160.471 770.225V774.581H162.463V770.225H160.471ZM167.267 768.494V777.712H166.479V768.494H167.267ZM176.99 775.85V776.531H168.544V775.85H172.341V773.594H169.54V769.269H175.942V773.594H173.14V775.85H176.99ZM170.339 769.925V772.944H175.153V769.925H170.339ZM184.937 768.462V770.7H186.339V771.375H184.937V773.562H184.128V768.462H184.937ZM184.937 774.044V776.087H179.874V776.987H185.28V777.612H179.075V775.487H184.128V774.656H179.054V774.044H184.937ZM183.246 769.331V769.987H177.747V769.331H180.092V768.4H180.901V769.331H183.246ZM180.497 770.4C181.835 770.4 182.707 770.981 182.717 771.912C182.707 772.85 181.835 773.431 180.497 773.431C179.148 773.431 178.266 772.85 178.276 771.912C178.266 770.981 179.148 770.4 180.497 770.4ZM180.497 771C179.625 771 179.044 771.362 179.054 771.912C179.044 772.475 179.625 772.819 180.497 772.819C181.368 772.819 181.939 772.475 181.949 771.912C181.939 771.362 181.368 771 180.497 771ZM197.223 768.5V774.75H196.403V771.781H194.38V771.094H196.403V768.5H197.223ZM194.338 769.225C194.328 771.594 192.75 773.294 190.094 774.144L189.731 773.494C191.936 772.812 193.295 771.531 193.467 769.894H190.188V769.225H194.338ZM194.629 774.362C194.629 775.712 196.102 776.719 197.731 777.012L197.389 777.662C196.029 777.4 194.779 776.687 194.234 775.606C193.669 776.694 192.403 777.412 191.029 777.681L190.696 777.044C192.325 776.762 193.819 775.725 193.83 774.362V773.937H194.629V774.362ZM206.364 768.494V777.737H205.544V768.494H206.364ZM201.456 769.206C202.825 769.219 203.812 770.462 203.812 772.425C203.812 774.387 202.825 775.631 201.456 775.631C200.076 775.631 199.101 774.387 199.101 772.425C199.101 770.462 200.076 769.219 201.456 769.206ZM201.456 769.931C200.533 769.944 199.889 770.919 199.889 772.425C199.889 773.931 200.533 774.906 201.456 774.906C202.38 774.906 203.023 773.931 203.023 772.425C203.023 770.919 202.38 769.944 201.456 769.931ZM213.731 774.687C213.731 775.5 214.167 776.369 215.049 776.862C215.92 776.319 216.387 775.4 216.387 774.687V774.175H217.186V774.687C217.186 775.631 217.881 776.587 219.064 776.987L218.659 777.594C217.736 777.262 217.087 776.619 216.771 775.85C216.485 776.594 215.92 777.3 215.069 777.662C214.172 777.319 213.601 776.644 213.326 775.869C212.999 776.612 212.361 777.256 211.479 777.594L211.064 776.987C212.226 776.556 212.932 775.569 212.942 774.687V774.175H213.731V774.687ZM218.224 768.5V773.775H217.414V768.5H218.224ZM213.243 769.044C214.644 769.044 215.661 769.912 215.661 771.2C215.661 772.462 214.644 773.337 213.243 773.337C211.842 773.337 210.825 772.462 210.825 771.2C210.825 769.912 211.842 769.044 213.243 769.044ZM213.243 769.737C212.299 769.725 211.614 770.337 211.625 771.2C211.614 772.05 212.299 772.65 213.243 772.662C214.177 772.65 214.862 772.05 214.862 771.2C214.862 770.337 214.177 769.725 213.243 769.737ZM226.929 768.494V772.144H228.475V772.831H226.929V777.737H226.12V768.494H226.929ZM224.501 769.394V770.069H221.004V774.737C222.675 774.737 223.858 774.662 225.227 774.406L225.331 775.112C223.889 775.369 222.675 775.425 220.922 775.425H220.195V769.394H224.501ZM233.642 769.3V770.119H235.8V768.5H236.62V775.237H235.8V772.775H233.642V773.606H229.409V769.3H233.642ZM230.219 769.975V772.95H232.844V769.975H230.219ZM236.828 776.831V777.519H230.654V774.631H231.474V776.831H236.828ZM233.642 772.1H235.8V770.806H233.642V772.1ZM243.945 770.206C243.945 771.425 244.849 772.55 246.218 773.025L245.803 773.656C244.75 773.287 243.945 772.525 243.552 771.575C243.157 772.619 242.312 773.437 241.227 773.837L240.792 773.2C242.172 772.712 243.137 771.519 243.147 770.206V769.806H241.04V769.144H246.021V769.806H243.945V770.206ZM248.034 768.494V770.931H249.424V771.625H248.034V774.05H247.225V768.494H248.034ZM248.034 774.537V777.712H247.225V775.206H241.995V774.537H248.034ZM253.18 769.944C253.17 771.262 254.104 772.425 255.463 772.881L255.007 773.512C253.99 773.131 253.19 772.381 252.797 771.406C252.397 772.512 251.551 773.375 250.441 773.794L249.995 773.131C251.417 772.631 252.36 771.406 252.371 769.975V769.019H253.18V769.944ZM257.652 768.494V773.956H256.833V771.15H254.779V770.475H256.833V768.494H257.652ZM254.592 774.231C256.511 774.231 257.684 774.862 257.684 775.975C257.684 777.075 256.511 777.694 254.592 777.694C252.672 777.694 251.499 777.075 251.499 775.975C251.499 774.862 252.672 774.231 254.592 774.231ZM254.592 774.875C253.18 774.875 252.299 775.287 252.309 775.975C252.299 776.637 253.18 777.044 254.592 777.044C256.002 777.044 256.874 776.637 256.874 775.975C256.874 775.287 256.002 774.875 254.592 774.875ZM263.795 770.087V770.756H259.167V770.087H261.087V768.769H261.896V770.087H263.795ZM261.481 771.375C262.643 771.375 263.474 772.25 263.484 773.469C263.474 774.706 262.643 775.587 261.481 775.587C260.329 775.587 259.499 774.706 259.499 773.469C259.499 772.25 260.329 771.375 261.481 771.375ZM261.481 772.062C260.755 772.069 260.225 772.662 260.225 773.469C260.225 774.294 260.755 774.881 261.481 774.875C262.218 774.881 262.757 774.294 262.757 773.469C262.757 772.662 262.218 772.069 261.481 772.062ZM267.043 768.494V777.712H266.264V773.056H265.04V777.256H264.272V768.719H265.04V772.381H266.264V768.494H267.043ZM273.03 769.8C273.019 771.031 274.669 772.081 276.277 772.319L275.976 772.962C274.534 772.719 273.134 771.95 272.573 770.837C272.013 771.95 270.607 772.719 269.19 772.962L268.869 772.319C270.467 772.081 272.117 771.031 272.117 769.8V769.737H269.159V769.075H275.976V769.737H273.03V769.8ZM276.775 773.75V774.425H272.957V777.712H272.158V774.425H268.371V773.75H276.775ZM280.293 771.119C280.293 772.581 281.009 774.169 282.233 774.894L281.766 775.525C280.879 774.987 280.241 774 279.919 772.881C279.577 774.106 278.892 775.156 277.969 775.725L277.45 775.112C278.726 774.362 279.504 772.725 279.504 771.15V769.362H280.293V771.119ZM285.46 768.494V777.712H284.672V768.494H285.46ZM283.551 768.687V777.25H282.783V772.494H281.216V771.8H282.783V768.687H283.551ZM295.182 775.85V776.531H286.736V775.85H288.832V773.356C288.044 772.95 287.566 772.281 287.566 771.45C287.566 770.019 288.967 769.081 290.939 769.075C292.91 769.081 294.31 770.019 294.31 771.45C294.31 772.269 293.849 772.925 293.086 773.337V775.85H295.182ZM290.939 769.744C289.424 769.737 288.355 770.419 288.355 771.45C288.355 772.475 289.424 773.169 290.939 773.169C292.443 773.169 293.522 772.475 293.522 771.45C293.522 770.419 292.443 769.737 290.939 769.744ZM289.631 775.85H292.267V773.65C291.867 773.756 291.421 773.812 290.939 773.812C290.467 773.812 290.025 773.762 289.631 773.656V775.85Z" fill="#ACACAC"/>
<path d="M64.375 148.75C64.375 146.679 66.0538 145 68.125 145H1131.88C1133.94 145 1135.62 146.679 1135.62 148.75V185H64.375V148.75Z" fill="white"/>
<mask id="mask6_40_14" style="mask-type:luminance" maskUnits="userSpaceOnUse" x="64" y="145" width="1072" height="40">
<path d="M64.375 148.75C64.375 146.679 66.0538 145 68.125 145H1131.88C1133.94 145 1135.62 146.679 1135.62 148.75V185H64.375V148.75Z" fill="white"/>
</mask>
<g mask="url(#mask6_40_14)">
<path d="M1135.62 185.312H64.375V184.688H1135.62V185.312Z" fill="black"/>
</g>
<path d="M96.9598 160.366V162.296H98.3498V162.981H96.9598V165.025H96.1505V160.366H96.9598ZM91.0142 160.781V163.873C92.3267 163.879 93.6811 163.785 95.1748 163.479L95.2786 164.164C93.7017 164.486 92.3217 164.579 90.9311 164.579H90.1948V160.781H91.0142ZM96.9598 165.471V167.723H91.9067V168.802H97.3023V169.466H91.0973V167.079H96.1505V166.125H91.0767V165.471H96.9598ZM106.288 160.366V164.039H107.595V164.734H106.288V169.591H105.468V160.366H106.288ZM101.027 163.147C101.027 164.154 101.167 165.653 101.94 166.654C102.687 165.679 102.843 164.2 102.853 163.147V161.995H102.137V161.311H104.7V161.995H103.621V163.147C103.621 164.506 103.932 166.229 105.084 167.059L104.544 167.661C103.86 167.131 103.455 166.254 103.237 165.295C103.03 166.27 102.64 167.188 101.93 167.733C101.224 167.188 100.84 166.26 100.633 165.295C100.41 166.249 100.01 167.126 99.3361 167.661L98.7961 167.059C99.9273 166.218 100.249 164.444 100.259 163.147V161.995H99.0973V161.311H101.732V161.995H101.027V163.147Z" fill="black"/>
<path d="M143.835 160.366V162.296H145.225V162.981H143.835V165.025H143.025V160.366H143.835ZM137.889 160.781V163.873C139.202 163.879 140.556 163.785 142.05 163.479L142.154 164.164C140.577 164.486 139.197 164.579 137.806 164.579H137.07V160.781H137.889ZM143.835 165.471V167.723H138.782V168.802H144.177V169.466H137.972V167.079H143.025V166.125H137.952V165.471H143.835ZM153.163 160.366V164.039H154.47V164.734H153.163V169.591H152.343V160.366H153.163ZM147.902 163.147C147.902 164.154 148.042 165.653 148.815 166.654C149.562 165.679 149.718 164.2 149.728 163.147V161.995H149.012V161.311H151.575V161.995H150.496V163.147C150.496 164.506 150.807 166.229 151.959 167.059L151.419 167.661C150.735 167.131 150.33 166.254 150.112 165.295C149.905 166.27 149.515 167.188 148.805 167.733C148.099 167.188 147.715 166.26 147.508 165.295C147.285 166.249 146.885 167.126 146.211 167.661L145.671 167.059C146.802 166.218 147.124 164.444 147.134 163.147V161.995H145.972V161.311H148.607V161.995H147.902V163.147ZM163.424 164.651V165.295H154.979V164.651H163.424ZM162.366 166.031V167.993H156.825V168.874H162.667V169.466H156.005V167.433H161.557V166.644H155.995V166.031H162.366ZM162.335 160.646V162.556H156.888V163.365H162.501V163.956H156.079V161.995H161.515V161.238H156.047V160.646H162.335ZM174.454 160.366V165.316H173.645V160.366H174.454ZM169.287 165.783V166.903H173.645V165.783H174.454V169.466H168.477V165.783H169.287ZM169.287 168.802H173.645V167.557H169.287V168.802ZM169.474 160.823C170.874 160.813 171.891 161.674 171.891 162.939C171.891 164.195 170.874 165.056 169.474 165.056C168.073 165.056 167.056 164.195 167.056 162.939C167.056 161.674 168.073 160.813 169.474 160.823ZM169.474 161.508C168.529 161.498 167.845 162.099 167.855 162.939C167.845 163.78 168.529 164.382 169.474 164.382C170.407 164.382 171.092 163.78 171.092 162.939C171.092 162.099 170.407 161.498 169.474 161.508ZM180.4 160.937V163.521H177.225V164.953C178.957 164.953 179.85 164.926 180.939 164.724L181.022 165.399C179.87 165.586 178.937 165.616 177.069 165.616H176.415V162.898H179.59V161.591H176.394V160.937H180.4ZM183.668 160.377V166.042H182.849V164.33H181.012V163.656H182.849V162.41H181.012V161.746H182.849V160.377H183.668ZM183.668 166.54V169.611H182.849V167.204H177.453V166.54H183.668ZM192.342 160.366V164.174H193.889V164.849H192.342V169.591H191.533V160.366H192.342ZM190.64 161.85V162.524H185.152V161.85H187.528V160.481H188.337V161.85H190.64ZM187.943 163.293C189.25 163.293 190.195 164.164 190.205 165.409C190.195 166.654 189.25 167.526 187.943 167.526C186.625 167.526 185.67 166.654 185.681 165.409C185.67 164.164 186.625 163.293 187.943 163.293ZM187.943 163.977C187.082 163.977 186.449 164.579 186.459 165.409C186.449 166.249 187.082 166.841 187.943 166.831C188.794 166.841 189.416 166.249 189.427 165.409C189.416 164.579 188.794 163.977 187.943 163.977ZM197.125 162.991C197.125 164.454 197.842 166.042 199.066 166.768L198.599 167.401C197.712 166.862 197.074 165.876 196.752 164.755C196.41 165.979 195.725 167.033 194.802 167.598L194.283 166.986C195.559 166.239 196.337 164.599 196.337 163.023V161.238H197.125V162.991ZM202.293 160.366V169.591H201.504V160.366H202.293ZM200.384 160.563V169.124H199.616V164.371H198.049V163.676H199.616V160.563H200.384ZM212.015 167.723V168.408H203.569V167.723H205.665V165.233C204.877 164.823 204.399 164.159 204.399 163.323C204.399 161.891 205.8 160.958 207.772 160.948C209.743 160.958 211.144 161.891 211.144 163.323C211.144 164.143 210.682 164.802 209.919 165.212V167.723H212.015ZM207.772 161.622C206.257 161.611 205.188 162.296 205.188 163.323C205.188 164.351 206.257 165.046 207.772 165.046C209.276 165.046 210.355 164.351 210.355 163.323C210.355 162.296 209.276 161.611 207.772 161.622ZM206.464 167.723H209.1V165.523C208.7 165.632 208.254 165.689 207.772 165.689C207.299 165.689 206.859 165.638 206.464 165.534V167.723Z" fill="#ACACAC"/>
<path d="M64.375 108.75C64.375 106.679 66.0538 105 68.125 105H1131.88C1133.94 105 1135.62 106.679 1135.62 108.75V145H64.375V108.75Z" fill="white"/>
<mask id="mask7_40_14" style="mask-type:luminance" maskUnits="userSpaceOnUse" x="64" y="105" width="1072" height="40">
<path d="M64.375 108.75C64.375 106.679 66.0538 105 68.125 105H1131.88C1133.94 105 1135.62 106.679 1135.62 108.75V145H64.375V108.75Z" fill="white"/>
</mask>
<g mask="url(#mask7_40_14)">
<path d="M1135.62 145.312H64.375V144.688H1135.62V145.312Z" fill="black"/>
</g>
<path d="M97.6343 120.366V129.591H96.8562V120.366H97.6343ZM95.7668 120.594V129.113H94.9987V124.361H93.4424V123.697H94.9987V120.594H95.7668ZM92.4568 123.002C92.4568 124.599 93.1724 126.187 94.4487 126.924L93.9505 127.526C93.043 126.981 92.3993 125.985 92.083 124.807C91.7455 126.078 91.0768 127.163 90.153 127.744L89.6343 127.131C90.9212 126.364 91.668 124.683 91.668 123.002V122.13H89.8937V121.456H94.148V122.13H92.4568V123.002ZM106.267 120.761V123.873H103.538V125.056H107.336V125.72H98.9312V125.056H102.729V123.873H100.021V120.761H106.267ZM100.82 121.414V123.219H105.457V121.414H100.82ZM106.298 126.685V129.591H105.479V127.339H99.8649V126.685H106.298Z" fill="black"/>
<path d="M144.509 120.366V129.591H143.731V120.366H144.509ZM142.642 120.594V129.113H141.874V124.361H140.317V123.697H141.874V120.594H142.642ZM139.332 123.002C139.332 124.599 140.047 126.187 141.324 126.924L140.826 127.526C139.918 126.981 139.274 125.985 138.958 124.807C138.621 126.078 137.952 127.163 137.028 127.744L136.509 127.131C137.796 126.364 138.543 124.683 138.543 123.002V122.13H136.769V121.456H141.023V122.13H139.332V123.002ZM153.142 120.761V123.873H150.413V125.056H154.211V125.72H145.806V125.056H149.604V123.873H146.896V120.761H153.142ZM147.695 121.414V123.219H152.332V121.414H147.695ZM153.173 126.685V129.591H152.354V127.339H146.74V126.685H153.173ZM159.191 120.533C161.246 120.533 162.449 121.093 162.449 122.12C162.449 123.168 161.246 123.728 159.191 123.738C157.137 123.728 155.923 123.168 155.923 122.12C155.923 121.093 157.137 120.533 159.191 120.533ZM159.191 121.144C157.656 121.144 156.763 121.518 156.774 122.12C156.763 122.763 157.656 123.116 159.191 123.116C160.716 123.116 161.619 122.763 161.619 122.12C161.619 121.518 160.716 121.144 159.191 121.144ZM163.394 124.361V125.025H154.989V124.361H163.394ZM162.314 125.824V127.889H156.836V128.843H162.594V129.487H156.027V127.287H161.516V126.446H156.006V125.824H162.314ZM174.454 120.366V125.316H173.645V120.366H174.454ZM169.287 125.783V126.903H173.645V125.783H174.454V129.466H168.477V125.783H169.287ZM169.287 128.802H173.645V127.557H169.287V128.802ZM169.474 120.823C170.874 120.813 171.891 121.674 171.891 122.939C171.891 124.195 170.874 125.056 169.474 125.056C168.073 125.056 167.056 124.195 167.056 122.939C167.056 121.674 168.073 120.813 169.474 120.823ZM169.474 121.508C168.529 121.498 167.845 122.099 167.855 122.939C167.845 123.78 168.529 124.382 169.474 124.382C170.407 124.382 171.092 123.78 171.092 122.939C171.092 122.099 170.407 121.498 169.474 121.508ZM180.4 120.937V123.521H177.225V124.953C178.957 124.953 179.85 124.926 180.939 124.724L181.022 125.399C179.871 125.586 178.937 125.616 177.069 125.616H176.416V122.898H179.591V121.591H176.394V120.937H180.4ZM183.668 120.377V126.042H182.849V124.33H181.012V123.656H182.849V122.41H181.012V121.746H182.849V120.377H183.668ZM183.668 126.54V129.611H182.849V127.204H177.453V126.54H183.668ZM192.342 120.366V124.174H193.889V124.849H192.342V129.591H191.533V120.366H192.342ZM190.641 121.85V122.524H185.152V121.85H187.528V120.481H188.337V121.85H190.641ZM187.943 123.293C189.251 123.293 190.195 124.164 190.205 125.409C190.195 126.654 189.251 127.526 187.943 127.526C186.626 127.526 185.671 126.654 185.681 125.409C185.671 124.164 186.626 123.293 187.943 123.293ZM187.943 123.977C187.082 123.977 186.449 124.579 186.459 125.409C186.449 126.249 187.082 126.841 187.943 126.831C188.794 126.841 189.416 126.249 189.427 125.409C189.416 124.579 188.794 123.977 187.943 123.977ZM197.126 122.991C197.126 124.454 197.842 126.042 199.066 126.768L198.599 127.401C197.712 126.862 197.074 125.876 196.752 124.755C196.41 125.979 195.725 127.033 194.802 127.598L194.283 126.986C195.559 126.239 196.337 124.599 196.337 123.023V121.238H197.126V122.991ZM202.293 120.366V129.591H201.504V120.366H202.293ZM200.384 120.563V129.124H199.616V124.371H198.049V123.676H199.616V120.563H200.384ZM212.016 127.723V128.408H203.569V127.723H205.665V125.233C204.877 124.823 204.399 124.159 204.399 123.323C204.399 121.891 205.8 120.958 207.772 120.948C209.743 120.958 211.144 121.891 211.144 123.323C211.144 124.143 210.682 124.802 209.919 125.212V127.723H212.016ZM207.772 121.622C206.257 121.611 205.188 122.296 205.188 123.323C205.188 124.351 206.257 125.046 207.772 125.046C209.276 125.046 210.355 124.351 210.355 123.323C210.355 122.296 209.276 121.611 207.772 121.622ZM206.464 127.723H209.1V125.523C208.7 125.632 208.254 125.689 207.772 125.689C207.299 125.689 206.859 125.638 206.464 125.534V127.723Z" fill="#ACACAC"/>
</g>
<path d="M1131.88 105.156H68.125C66.1402 105.156 64.5312 106.765 64.5312 108.75V811.875C64.5312 813.86 66.1402 815.469 68.125 815.469H1131.88C1133.86 815.469 1135.47 813.86 1135.47 811.875V108.75C1135.47 106.765 1133.86 105.156 1131.88 105.156Z" stroke="black" stroke-width="0.5"/>
<g filter="url(#filter1_d_40_14)">
<path d="M681.875 855.625H517.5C507.145 855.625 498.75 864.02 498.75 874.375C498.75 884.73 507.145 893.125 517.5 893.125H681.875C692.23 893.125 700.625 884.73 700.625 874.375C700.625 864.02 692.23 855.625 681.875 855.625Z" fill="#9038FF"/>
<path d="M583.702 871.062C583.702 872.356 584.658 873.544 586.108 874.05L585.669 874.719C584.554 874.325 583.702 873.519 583.285 872.512C582.867 873.619 581.972 874.481 580.824 874.906L580.362 874.237C581.824 873.719 582.845 872.456 582.856 871.062V870.644H580.626V869.937H585.899V870.644H583.702V871.062ZM588.031 869.25V871.831H589.503V872.569H588.031V875.137H587.174V869.25H588.031ZM588.031 875.65V879.012H587.174V876.356H581.637V875.65H588.031ZM593.48 870.787C593.469 872.181 594.458 873.412 595.897 873.894L595.414 874.562C594.337 874.156 593.491 873.369 593.074 872.337C592.65 873.506 591.755 874.419 590.58 874.862L590.107 874.156C591.612 873.631 592.612 872.338 592.623 870.819V869.806H593.48V870.787ZM598.215 869.25V875.038H597.347V872.062H595.172V871.344H597.347V869.25H598.215ZM594.974 875.325C597.007 875.325 598.248 875.994 598.248 877.169C598.248 878.331 597.007 878.994 594.974 878.994C592.942 878.994 591.7 878.331 591.7 877.169C591.7 875.994 592.942 875.325 594.974 875.325ZM594.974 876.006C593.48 876.006 592.546 876.444 592.557 877.169C592.546 877.875 593.48 878.3 594.974 878.3C596.469 878.3 597.391 877.875 597.391 877.169C597.391 876.444 596.469 876.006 594.974 876.006ZM602.819 869.712C604.247 869.712 605.247 870.481 605.247 871.644C605.247 872.65 604.455 873.381 603.28 873.519V874.475C604.192 874.437 605.12 874.356 605.972 874.225L606.037 874.875C603.972 875.244 601.632 875.269 599.94 875.269L599.83 874.556C600.588 874.562 601.478 874.556 602.412 874.519V873.531C601.204 873.4 600.39 872.662 600.402 871.644C600.39 870.481 601.39 869.712 602.819 869.712ZM602.819 870.381C601.874 870.381 601.204 870.887 601.214 871.644C601.204 872.381 601.874 872.887 602.819 872.894C603.774 872.887 604.422 872.381 604.434 871.644C604.422 870.887 603.774 870.381 602.819 870.381ZM607.465 869.256V872.569H608.927V873.3H607.465V876.731H606.598V869.256H607.465ZM607.817 878.069V878.794H601.259V876.081H602.126V878.069H607.817ZM618.507 877.081V877.806H609.564V877.081H612.08V875.225H610.685V872.212H616.529V870.687H610.663V869.975H617.375V872.931H611.542V874.512H617.606V875.225H616.079V877.081H618.507ZM612.926 877.081H615.233V875.225H612.926V877.081Z" fill="white"/>
</g>
<g filter="url(#filter2_d_40_14)">
<path d="M682.5 845.312H517.5C501.449 845.312 488.438 858.324 488.438 874.375C488.438 890.426 501.449 903.438 517.5 903.438H682.5C698.551 903.438 711.562 890.426 711.562 874.375C711.562 858.324 698.551 845.312 682.5 845.312Z" stroke="#FF0000" stroke-dasharray="12 2"/>
</g>
<path d="M864.375 858.906H773.125C756.643 858.906 743.281 872.268 743.281 888.75C743.281 905.232 756.643 918.594 773.125 918.594H864.375C880.857 918.594 894.219 905.232 894.219 888.75C894.219 872.268 880.857 858.906 864.375 858.906Z" fill="white"/>
<path d="M864.375 858.906H773.125C756.643 858.906 743.281 872.268 743.281 888.75C743.281 905.232 756.643 918.594 773.125 918.594H864.375C880.857 918.594 894.219 905.232 894.219 888.75C894.219 872.268 880.857 858.906 864.375 858.906Z" stroke="black" stroke-width="0.5"/>
<path d="M797.575 877.869V887.113H796.769V881.975H794.556V884.775H790.3V878.594H791.125V881H793.756V878.594H794.556V881.3H796.769V877.869H797.575ZM791.125 884.1H793.756V881.656H791.125V884.1ZM807.519 882.981V883.644H799.1V882.981H807.519ZM806.637 886.206V886.894H800.2V884.319H801.012V886.206H806.637ZM806.519 881.469V882.113H800.225V878.219H806.469V878.875H801.044V879.838H806.219V880.469H801.044V881.469H806.519ZM812.5 878.031C814.55 878.031 815.756 878.594 815.756 879.619C815.756 880.669 814.55 881.225 812.5 881.238C810.444 881.225 809.231 880.669 809.231 879.619C809.231 878.594 810.444 878.031 812.5 878.031ZM812.5 878.644C810.962 878.644 810.069 879.019 810.081 879.619C810.069 880.263 810.962 880.619 812.5 880.619C814.025 880.619 814.925 880.263 814.925 879.619C814.925 879.019 814.025 878.644 812.5 878.644ZM816.7 881.863V882.525H808.294V881.863H816.7ZM815.619 883.325V885.388H810.144V886.344H815.9V886.988H809.331V884.788H814.819V883.944H809.312V883.325H815.619ZM827.594 880.981V881.656H821.231V878.344H822.044V880.981H827.594ZM828.587 883.044V883.731H824.731V887.088H823.919V883.731H820.144V883.044H828.587ZM837.775 885.244V885.931H829.325V885.244H837.775ZM836.706 878.569V881.363H831.194V882.875H836.925V883.531H830.387V880.7H835.906V879.244H830.362V878.569H836.706ZM843.181 878.675V879.494H845.337V877.875H846.156V884.613H845.337V882.15H843.181V882.981H838.944V878.675H843.181ZM839.756 879.35V882.325H842.381V879.35H839.756ZM846.362 886.206V886.894H840.194V884.006H841.012V886.206H846.362ZM843.181 881.475H845.337V880.181H843.181V881.475ZM766.919 890.706C768.3 890.719 769.306 891.55 769.306 892.75C769.306 893.956 768.3 894.788 766.919 894.788C765.519 894.788 764.525 893.956 764.525 892.75C764.525 891.55 765.519 890.719 766.919 890.706ZM766.919 891.394C766 891.394 765.312 891.956 765.325 892.75C765.312 893.563 766 894.125 766.919 894.125C767.831 894.125 768.519 893.563 768.519 892.75C768.519 891.956 767.831 891.394 766.919 891.394ZM771.925 890.369V895.106H771.112V890.369H771.925ZM771.925 895.556V897.775H766.744V898.813H772.256V899.469H765.944V897.163H771.112V896.206H765.925V895.556H771.925ZM776.787 893.2C776.787 894.763 777.931 896.356 779.287 896.944L778.831 897.588C777.756 897.094 776.819 896.031 776.394 894.756C775.956 896.106 775.031 897.288 773.975 897.819L773.487 897.175C774.806 896.538 775.956 894.794 775.969 893.2V891.994H773.787V891.319H778.987V891.994H776.787V893.2ZM781.094 890.369V899.588H780.275V890.369H781.094ZM789.812 890.369V894.125H791.306V894.806H789.812V899.588H789V890.369H789.812ZM787.425 891.363C787.425 893.975 786.2 896.356 783.187 897.838L782.731 897.194C785.119 896.006 786.419 894.231 786.606 892.05H783.156V891.363H787.425ZM797.644 892.081C797.644 893.3 798.544 894.425 799.919 894.9L799.5 895.531C798.45 895.163 797.644 894.4 797.25 893.45C796.856 894.494 796.012 895.313 794.925 895.713L794.487 895.075C795.869 894.588 796.837 893.394 796.844 892.081V891.681H794.737V891.019H799.719V891.681H797.644V892.081ZM801.731 890.369V892.806H803.125V893.5H801.731V895.925H800.925V890.369H801.731ZM801.731 896.413V899.588H800.925V897.081H795.694V896.413H801.731ZM806.881 891.819C806.869 893.138 807.8 894.3 809.162 894.756L808.706 895.388C807.687 895.006 806.887 894.256 806.494 893.281C806.094 894.388 805.25 895.25 804.137 895.669L803.694 895.006C805.112 894.506 806.056 893.281 806.069 891.85V890.894H806.881V891.819ZM811.35 890.369V895.831H810.531V893.025H808.475V892.35H810.531V890.369H811.35ZM808.287 896.106C810.206 896.106 811.381 896.738 811.381 897.85C811.381 898.95 810.206 899.569 808.287 899.569C806.369 899.569 805.2 898.95 805.2 897.85C805.2 896.738 806.369 896.106 808.287 896.106ZM808.287 896.75C806.881 896.75 805.994 897.163 806.006 897.85C805.994 898.513 806.881 898.919 808.287 898.919C809.7 898.919 810.575 898.513 810.575 897.85C810.575 897.163 809.7 896.75 808.287 896.75ZM815.7 890.8C817.05 890.8 817.994 891.531 817.994 892.631C817.994 893.575 817.244 894.269 816.131 894.4V895.306C816.994 895.269 817.875 895.194 818.675 895.069L818.737 895.681C816.787 896.031 814.575 896.05 812.981 896.05L812.875 895.375C813.594 895.381 814.431 895.375 815.312 895.344V894.413C814.175 894.288 813.406 893.594 813.412 892.631C813.406 891.531 814.35 890.8 815.7 890.8ZM815.7 891.438C814.806 891.438 814.175 891.913 814.181 892.631C814.175 893.325 814.806 893.8 815.7 893.813C816.6 893.8 817.212 893.325 817.225 892.631C817.212 891.913 816.6 891.438 815.7 891.438ZM820.087 890.375V893.5H821.469V894.194H820.087V897.431H819.269V890.375H820.087ZM820.419 898.7V899.381H814.225V896.819H815.044V898.7H820.419ZM830.512 897.763V898.45H822.069V897.763H824.444V896.013H823.125V893.169H828.65V891.725H823.106V891.05H829.444V893.844H823.937V895.338H829.662V896.013H828.225V897.763H830.512ZM825.244 897.763H827.425V896.013H825.244V897.763ZM841.562 890.369V899.613H840.744V894.756H838.725V894.081H840.744V890.369H841.562ZM837.106 893.375C837.106 894.9 838.144 896.394 839.512 897.006L839.044 897.638C837.994 897.156 837.125 896.15 836.719 894.931C836.312 896.219 835.456 897.3 834.406 897.806L833.937 897.175C835.287 896.538 836.306 894.963 836.306 893.375V892.638H834.187V891.975H836.306V890.544H837.112V891.975H839.2V892.638H837.106V893.375ZM850.719 890.369V899.613H849.906V890.369H850.719ZM847.919 891.225V894.506H844.469V896.688C846 896.688 847.369 896.619 849.012 896.356L849.1 897.038C847.394 897.306 845.994 897.369 844.406 897.369H843.644V893.844H847.094V891.9H843.619V891.225H847.919ZM854.837 896.9C855.425 896.9 856.169 896.9 856.944 896.875V895.025H855.337V891.313H859.256V891.988H856.131V894.35H859.337V895.025H857.731V896.844C858.412 896.813 859.087 896.763 859.669 896.694L859.712 897.288C858.187 897.544 856.219 897.588 854.962 897.588L854.837 896.9ZM862.794 890.369V899.588H862.006V894.881H860.856V899.1H860.1V890.575H860.856V894.219H862.006V890.369H862.794ZM872.581 897.725V898.406H864.131V897.725H866.231V895.231C865.444 894.825 864.962 894.156 864.962 893.325C864.962 891.894 866.362 890.956 868.337 890.95C870.306 890.956 871.706 891.894 871.706 893.325C871.706 894.144 871.244 894.8 870.481 895.213V897.725H872.581ZM868.337 891.619C866.819 891.613 865.75 892.294 865.75 893.325C865.75 894.35 866.819 895.044 868.337 895.044C869.837 895.044 870.919 894.35 870.919 893.325C870.919 892.294 869.837 891.613 868.337 891.619ZM867.031 897.725H869.662V895.525C869.262 895.631 868.819 895.688 868.337 895.688C867.862 895.688 867.425 895.638 867.031 895.531V897.725Z" fill="black"/>
<path d="M711.288 868.6L745.644 876.95" stroke="black" stroke-width="0.5"/>
</g>
</g>
<rect x="0.15" y="0.15" width="1199.7" height="940.95" stroke="black" stroke-width="0.3"/>
<defs>
<filter id="filter0_d_40_14" x="-8" y="-8" width="1216" height="59.75" filterUnits="userSpaceOnUse" color-interpolation-filters="sRGB">
<feFlood flood-opacity="0" result="BackgroundImageFix"/>
<feColorMatrix in="SourceAlpha" type="matrix" values="0 0 0 0 0 0 0 0 0 0 0 0 0 0 0 0 0 0 127 0" result="hardAlpha"/>
<feOffset/>
<feGaussianBlur stdDeviation="4"/>
<feComposite in2="hardAlpha" operator="out"/>
<feColorMatrix type="matrix" values="0 0 0 0 0.891667 0 0 0 0 0.891667 0 0 0 0 0.891667 0 0 0 1 0"/>
<feBlend mode="normal" in2="BackgroundImageFix" result="effect1_dropShadow_40_14"/>
<feBlend mode="normal" in="SourceGraphic" in2="effect1_dropShadow_40_14" result="shape"/>
</filter>
<filter id="filter1_d_40_14" x="494.75" y="855.625" width="209.875" height="45.5" filterUnits="userSpaceOnUse" color-interpolation-filters="sRGB">
<feFlood flood-opacity="0" result="BackgroundImageFix"/>
<feColorMatrix in="SourceAlpha" type="matrix" values="0 0 0 0 0 0 0 0 0 0 0 0 0 0 0 0 0 0 127 0" result="hardAlpha"/>
<feOffset dy="4"/>
<feGaussianBlur stdDeviation="2"/>
<feComposite in2="hardAlpha" operator="out"/>
<feColorMatrix type="matrix" values="0 0 0 0 0 0 0 0 0 0 0 0 0 0 0 0 0 0 0.25 0"/>
<feBlend mode="normal" in2="BackgroundImageFix" result="effect1_dropShadow_40_14"/>
<feBlend mode="normal" in="SourceGraphic" in2="effect1_dropShadow_40_14" result="shape"/>
</filter>
<filter id="filter2_d_40_14" x="483.938" y="844.812" width="232.125" height="67.125" filterUnits="userSpaceOnUse" color-interpolation-filters="sRGB">
<feFlood flood-opacity="0" result="BackgroundImageFix"/>
<feColorMatrix in="SourceAlpha" type="matrix" values="0 0 0 0 0 0 0 0 0 0 0 0 0 0 0 0 0 0 127 0" result="hardAlpha"/>
<feOffset dy="4"/>
<feGaussianBlur stdDeviation="2"/>
<feComposite in2="hardAlpha" operator="out"/>
<feColorMatrix type="matrix" values="0 0 0 0 0 0 0 0 0 0 0 0 0 0 0 0 0 0 0.25 0"/>
<feBlend mode="normal" in2="BackgroundImageFix" result="effect1_dropShadow_40_14"/>
<feBlend mode="normal" in="SourceGraphic" in2="effect1_dropShadow_40_14" result="shape"/>
</filter>
<clipPath id="clip0_40_14">
<rect width="1200" height="941.25" fill="white"/>
</clipPath>
</defs>
</svg>
