<svg width="200" height="200" viewBox="0 0 200 200" fill="none" xmlns="http://www.w3.org/2000/svg">
<path d="M70.3125 75C70.3125 73.7568 70.8064 72.5645 71.6854 71.6854C72.5645 70.8064 73.7568 70.3125 75 70.3125H125C126.243 70.3125 127.435 70.8064 128.315 71.6854C129.194 72.5645 129.687 73.7568 129.687 75C129.687 76.2432 129.194 77.4355 128.315 78.3146C127.435 79.1936 126.243 79.6875 125 79.6875H75C73.7568 79.6875 72.5645 79.1936 71.6854 78.3146C70.8064 77.4355 70.3125 76.2432 70.3125 75ZM75 104.687H125C126.243 104.687 127.435 104.194 128.315 103.315C129.194 102.435 129.687 101.243 129.687 100C129.687 98.7568 129.194 97.5645 128.315 96.6854C127.435 95.8064 126.243 95.3125 125 95.3125H75C73.7568 95.3125 72.5645 95.8064 71.6854 96.6854C70.8064 97.5645 70.3125 98.7568 70.3125 100C70.3125 101.243 70.8064 102.435 71.6854 103.315C72.5645 104.194 73.7568 104.687 75 104.687ZM100 120.312H75C73.7568 120.312 72.5645 120.806 71.6854 121.685C70.8064 122.565 70.3125 123.757 70.3125 125C70.3125 126.243 70.8064 127.435 71.6854 128.315C72.5645 129.194 73.7568 129.687 75 129.687H100C101.243 129.687 102.435 129.194 103.315 128.315C104.194 127.435 104.687 126.243 104.687 125C104.687 123.757 104.194 122.565 103.315 121.685C102.435 120.806 101.243 120.312 100 120.312ZM173.437 37.5V122.414C173.44 123.851 173.159 125.274 172.609 126.601C172.059 127.929 171.252 129.134 170.234 130.148L130.148 170.234C129.134 171.252 127.929 172.059 126.601 172.609C125.274 173.159 123.851 173.44 122.414 173.437H37.5C34.5992 173.437 31.8172 172.285 29.766 170.234C27.7148 168.183 26.5625 165.401 26.5625 162.5V37.5C26.5625 34.5992 27.7148 31.8172 29.766 29.766C31.8172 27.7148 34.5992 26.5625 37.5 26.5625H162.5C165.401 26.5625 168.183 27.7148 170.234 29.766C172.285 31.8172 173.437 34.5992 173.437 37.5ZM37.5 164.062H120.312V125C120.312 123.757 120.806 122.565 121.685 121.685C122.565 120.806 123.757 120.312 125 120.312H164.062V37.5C164.062 37.0856 163.898 36.6882 163.605 36.3951C163.312 36.1021 162.914 35.9375 162.5 35.9375H37.5C37.0856 35.9375 36.6882 36.1021 36.3951 36.3951C36.1021 36.6882 35.9375 37.0856 35.9375 37.5V162.5C35.9375 162.914 36.1021 163.312 36.3951 163.605C36.6882 163.898 37.0856 164.062 37.5 164.062ZM157.438 129.687H129.687V157.438L157.438 129.687Z" fill="black"/>
</svg>
