<svg width="1920" height="1024" viewBox="0 0 1920 1024" fill="none" xmlns="http://www.w3.org/2000/svg">
<g clip-path="url(#clip0_182_61)">
<rect width="1920" height="1024" fill="#FCFCFC"/>
<g filter="url(#filter0_d_182_61)">
<rect width="1920" height="70" fill="white"/>
<path d="M73.5 27.525C73.5 27.0917 73.5917 26.775 73.775 26.575C73.975 26.375 74.2667 26.275 74.65 26.275H78.225C84.075 26.275 87 29.2 87 35.05C87 37.2333 86.5417 39 85.625 40.35C84.725 41.6833 83.6167 42.625 82.3 43.175C81 43.725 79.6833 44 78.35 44H74.65C74.2667 44 73.975 43.9 73.775 43.7C73.5917 43.5 73.5 43.1833 73.5 42.75V27.525ZM76.2 42.675H76.75V42.65H77.925C79.775 42.65 81.275 42.025 82.425 40.775C83.5917 39.525 84.175 37.6167 84.175 35.05C84.175 32.45 83.6 30.5583 82.45 29.375C81.3167 28.1917 79.8083 27.6 77.925 27.6H76.2V42.675ZM99.209 40.85C99.3757 40.6667 99.584 40.575 99.834 40.575C99.984 40.575 100.117 40.625 100.234 40.725C100.351 40.825 100.409 40.95 100.409 41.1C100.409 41.4 100.301 41.6833 100.084 41.95C98.984 43.3167 97.4507 44 95.484 44C93.534 44 92.059 43.475 91.059 42.425C90.0757 41.3583 89.584 39.8917 89.584 38.025C89.584 35.8917 90.084 34.2667 91.084 33.15C92.084 32.0167 93.534 31.45 95.434 31.45C96.9507 31.45 98.1673 31.8833 99.084 32.75C100.001 33.6167 100.459 34.8583 100.459 36.475C100.459 37.2917 99.984 37.7 99.034 37.7H92.309C92.2923 37.8333 92.284 38.0167 92.284 38.25C92.284 39.6833 92.5673 40.8167 93.134 41.65C93.7007 42.4833 94.5757 42.9 95.759 42.9C96.559 42.9 97.1923 42.7333 97.659 42.4C98.1257 42.0667 98.484 41.75 98.734 41.45C98.984 41.1333 99.1423 40.9333 99.209 40.85ZM95.284 32.45C94.484 32.45 93.8257 32.7917 93.309 33.475C92.7923 34.1583 92.484 35.2167 92.384 36.65H97.059C97.359 36.65 97.5757 36.6 97.709 36.5C97.8423 36.3833 97.909 36.1917 97.909 35.925C97.909 34.8083 97.6423 33.95 97.109 33.35C96.5923 32.75 95.984 32.45 95.284 32.45ZM112.207 31.45C112.44 31.45 112.632 31.5 112.782 31.6C112.932 31.6833 113.007 31.825 113.007 32.025C113.007 32.2917 112.965 32.5167 112.882 32.7L108.707 43.375C108.54 43.7917 108.057 44 107.257 44C106.94 44 106.657 43.95 106.407 43.85C106.174 43.75 106.015 43.5917 105.932 43.375L101.832 32.7C101.749 32.5167 101.707 32.325 101.707 32.125C101.707 31.675 102.015 31.45 102.632 31.45C103.065 31.45 103.465 31.5917 103.832 31.875C104.199 32.1417 104.482 32.5583 104.682 33.125L107.707 41.55H107.832L109.532 37.025C109.815 36.2583 110.057 35.55 110.257 34.9C110.457 34.2333 110.64 33.6 110.807 33C110.94 32.5 111.107 32.1167 111.307 31.85C111.507 31.5833 111.807 31.45 112.207 31.45ZM123.967 27.6C124.251 27.1333 124.509 26.8 124.742 26.6C124.992 26.3833 125.267 26.275 125.567 26.275C125.767 26.275 125.942 26.3333 126.092 26.45C126.242 26.55 126.317 26.6917 126.317 26.875C126.317 27.125 126.226 27.375 126.042 27.625L121.842 34.45L126.767 42.5C126.901 42.7167 126.967 42.95 126.967 43.2C126.967 43.4167 126.876 43.6083 126.692 43.775C126.509 43.925 126.276 44 125.992 44C125.492 44 125.092 43.9 124.792 43.7C124.509 43.5 124.234 43.1667 123.967 42.7L120.217 36.325H120.117L116.192 42.65C115.859 43.2 115.559 43.5667 115.292 43.75C115.042 43.9167 114.776 44 114.492 44C114.242 44 114.051 43.95 113.917 43.85C113.801 43.7333 113.742 43.6 113.742 43.45C113.742 43.2167 113.834 42.95 114.017 42.65L119.017 34.85L114.742 27.725C114.626 27.5417 114.567 27.3417 114.567 27.125C114.567 26.8917 114.659 26.6917 114.842 26.525C115.042 26.3583 115.276 26.275 115.542 26.275C116.359 26.275 117.009 26.7167 117.492 27.6L120.617 33.15H120.767L123.967 27.6Z" fill="black"/>
<path d="M1695.31 29.6152V41.168H1693.75V35.29H1692.69V40.6602H1691.18V29.9199H1692.69V33.9951H1693.75V29.6152H1695.31ZM1690.37 31.0371C1690.36 34.2617 1689.39 36.9023 1686.14 38.7939L1685.2 37.6768C1687.56 36.293 1688.57 34.5981 1688.8 32.332H1685.79V31.0371H1690.37ZM1698.53 30.1357V31.5068H1700.89V30.1357H1702.52V35.1758H1696.92V30.1357H1698.53ZM1698.53 33.9062H1700.89V32.7256H1698.53V33.9062ZM1705.74 29.6152V31.8623H1707.31V33.1699H1705.74V35.4932H1704.12V29.6152H1705.74ZM1705.74 35.9248V39.0605H1699.69V39.8096H1706.07V41.0918H1698.1V37.9053H1704.13V37.1816H1698.08V35.9248H1705.74ZM1711.1 29.958C1712.85 29.958 1714.19 31.0498 1714.19 32.5986C1714.19 34.1221 1712.85 35.2266 1711.1 35.2266C1709.31 35.2266 1707.99 34.1221 1707.99 32.5986C1707.99 31.0498 1709.31 29.958 1711.1 29.958ZM1711.1 31.2783C1710.21 31.2783 1709.55 31.7607 1709.57 32.5986C1709.55 33.4238 1710.21 33.9189 1711.1 33.9189C1711.98 33.9189 1712.62 33.4238 1712.62 32.5986C1712.62 31.7607 1711.98 31.2783 1711.1 31.2783ZM1717.49 29.6152V35.4043H1715.86V29.6152H1717.49ZM1717.49 35.8867V39.0225H1711.34V39.7715H1717.8V41.041H1709.76V37.8418H1715.88V37.1309H1709.73V35.8867H1717.49ZM1723.53 32.7637C1723.53 34.6299 1724.48 36.623 1726.42 37.4355L1725.55 38.7051C1724.18 38.1274 1723.24 36.9785 1722.73 35.5693C1722.2 37.0991 1721.25 38.3687 1719.89 38.9971L1718.96 37.7148C1720.88 36.8643 1721.87 34.7188 1721.87 32.7637V32.0527H1719.42V30.7324H1725.94V32.0527H1723.53V32.7637ZM1728.72 29.6152V41.168H1727.08V29.6152H1728.72Z" fill="#9038FF"/>
<path d="M1831.19 31.0625V34.0078H1832.91V29.9834H1833.86V40.457H1832.91V34.833H1831.19V37.9941H1826.88V31.0625H1831.19ZM1827.82 31.8623V37.1943H1830.25V31.8623H1827.82ZM1836.13 29.7422V41.0283H1835.17V29.7422H1836.13ZM1848.03 38.7432V39.5811H1837.69V38.7432H1842.34V35.9883H1838.91V30.6943H1846.74V35.9883H1843.32V38.7432H1848.03ZM1839.89 31.4941V35.1885H1845.78V31.4941H1839.89Z" fill="black"/>
<g filter="url(#filter1_d_182_61)">
<rect x="1655.5" y="20.5" width="105" height="29" rx="14.5" stroke="#FF0000" stroke-dasharray="12 2" shape-rendering="crispEdges"/>
</g>
</g>
<rect x="455.25" y="284.25" width="442.5" height="454.5" rx="5.75" fill="white"/>
<rect x="455.25" y="284.25" width="442.5" height="454.5" rx="5.75" stroke="#888888" stroke-width="0.5"/>
<g filter="url(#filter2_d_182_61)">
<rect x="515" y="633" width="323" height="60" rx="30" fill="#9038FF"/>
<path d="M633.062 655.377C635.4 655.395 637.105 656.801 637.105 658.84C637.105 660.879 635.4 662.285 633.062 662.285C630.689 662.285 629.002 660.879 629.002 658.84C629.002 656.801 630.689 655.395 633.062 655.377ZM633.062 656.537C631.498 656.537 630.338 657.486 630.355 658.84C630.338 660.211 631.498 661.16 633.062 661.16C634.609 661.16 635.77 660.211 635.77 658.84C635.77 657.486 634.609 656.537 633.062 656.537ZM641.535 654.797V662.83H640.164V654.797H641.535ZM641.535 663.586V667.348H632.764V669.105H642.098V670.213H631.41V666.311H640.164V664.693H631.375V663.586H641.535ZM649.779 659.596C649.779 662.25 651.713 664.939 654.016 665.941L653.242 667.031C651.414 666.196 649.832 664.395 649.111 662.232C648.373 664.526 646.8 666.521 645.016 667.418L644.189 666.328C646.422 665.256 648.373 662.303 648.391 659.596V657.557H644.699V656.414H653.506V657.557H649.779V659.596ZM657.074 654.797V670.424H655.686V654.797H657.074ZM669.555 657.697C669.555 659.771 671.084 661.67 673.404 662.479L672.701 663.551C670.917 662.918 669.555 661.635 668.887 660.018C668.219 661.793 666.786 663.173 664.949 663.85L664.211 662.777C666.549 661.951 668.184 659.93 668.201 657.697V657.029H664.633V655.904H673.07V657.029H669.555V657.697ZM676.48 654.797V658.928H678.836V660.105H676.48V664.219H675.109V654.797H676.48ZM676.48 665.045V670.424H675.109V666.17H666.25V665.045H676.48ZM685.199 657.258C685.182 659.49 686.764 661.459 689.066 662.232L688.293 663.305C686.57 662.654 685.217 661.389 684.549 659.736C683.872 661.608 682.439 663.067 680.559 663.779L679.803 662.654C682.211 661.811 683.811 659.736 683.828 657.311V655.693H685.199V657.258ZM692.775 654.797V664.061H691.387V659.297H687.906V658.154H691.387V654.797H692.775ZM687.59 664.518C690.842 664.518 692.828 665.59 692.828 667.471C692.828 669.334 690.842 670.389 687.59 670.389C684.338 670.389 682.352 669.334 682.352 667.471C682.352 665.59 684.338 664.518 687.59 664.518ZM687.59 665.607C685.199 665.607 683.705 666.311 683.723 667.471C683.705 668.596 685.199 669.281 687.59 669.281C689.98 669.281 691.457 668.596 691.457 667.471C691.457 666.311 689.98 665.607 687.59 665.607ZM707.471 654.797V661.248H710.09V662.391H707.471V670.424H706.1V654.797H707.471ZM704.588 657.311V658.453H695.289V657.311H699.314V654.99H700.686V657.311H704.588ZM700.018 659.754C702.232 659.754 703.832 661.23 703.85 663.34C703.832 665.449 702.232 666.926 700.018 666.926C697.785 666.926 696.168 665.449 696.186 663.34C696.168 661.23 697.785 659.754 700.018 659.754ZM700.018 660.914C698.559 660.914 697.486 661.934 697.504 663.34C697.486 664.764 698.559 665.766 700.018 665.748C701.459 665.766 702.514 664.764 702.531 663.34C702.514 661.934 701.459 660.914 700.018 660.914ZM723.854 654.797V670.424H722.465V654.797H723.854ZM719.23 656.502C719.213 661.002 717.121 664.975 711.883 667.488L711.127 666.363C715.354 664.359 717.508 661.362 717.824 657.627H711.848V656.502H719.23Z" fill="white"/>
</g>
<path d="M537.238 575.627V596.066H534.476V585.847H532.566V595.078H529.871V575.964H532.566V583.533H534.476V575.627H537.238ZM523.312 577.896V588.564C524.952 588.531 526.749 588.385 528.726 588.003L529.018 590.474C526.277 590.945 523.941 591.08 521.83 591.08H520.438V577.896H523.312ZM555.611 575.627V583.466H558.509V585.824H555.611V596.021H552.736V575.627H555.611ZM550.153 577.716C550.131 583.825 547.75 589.126 540.877 592.495L539.26 590.294C544.1 587.868 546.694 584.611 547.233 580.052H540.428V577.716H550.153ZM575.085 577.312V587.127H565.27V577.312H575.085ZM568.1 579.603V584.881H572.255V579.603H568.1ZM580.88 575.627V581.512H583.643V583.87H580.88V590.541H578.005V575.627H580.88ZM581.621 593.416V595.707H567.628V589.081H570.48V593.416H581.621ZM603.229 585.712V588.003H584.541V585.712H603.229ZM601.185 581.759V584.05H586.81V576.368H600.982V578.659H589.662V581.759H601.185ZM601.297 593.394V595.685H586.787V589.598H589.617V593.394H601.297ZM628.43 591.305V593.686H609.72V591.305H628.43ZM626.857 577.424V579.715H623.982V585.914H626.768V588.16H611.27V585.914H614.01V579.715H611.18V577.424H626.857ZM616.885 585.914H621.152V579.715H616.885V585.914ZM648.308 591.439V593.798H629.598V591.439H637.481V588.362H631.754V581.489H643.321V579.243H631.731V576.952H646.151V583.735H634.629V586.026H646.623V588.362H640.334V591.439H648.308ZM662.975 576.031V587.98H660.257V582.994H657.988V580.681H660.257V576.031H662.975ZM655.922 580.029C655.922 582.186 657 584.319 659.628 585.33L658.19 587.531C656.45 586.857 655.271 585.645 654.574 584.162C653.822 585.824 652.564 587.183 650.688 587.936L649.184 585.667C651.991 584.611 653.137 582.275 653.137 580.007V579.4H649.88V577.109H658.977V579.4H655.922V580.029ZM667.04 575.627V588.093H664.322V575.627H667.04ZM667.04 588.834V596.066H664.188V591.103H652.912V588.834H667.04ZM686.02 586.184V588.452H671.555V577.132H685.862V579.445H674.475V581.602H685.391V583.848H674.475V586.184H686.02ZM688.063 591.35V593.686H669.354V591.35H688.063ZM707.919 584.791V586.925H689.209V584.791H707.919ZM705.673 587.936V592.765H694.218V593.933H706.279V595.887H691.365V590.945H702.843V589.912H691.343V587.936H705.673ZM705.65 575.986V580.793H694.397V581.894H706.01V583.825H691.545V578.974H702.775V577.94H691.5V575.986H705.65ZM731.638 575.627V587.756H728.785V582.927H725.596V580.613H728.785V575.627H731.638ZM724.652 588.205C729.01 588.228 731.683 589.665 731.705 592.158C731.683 594.629 729.01 596.089 724.652 596.089C720.295 596.089 717.622 594.629 717.622 592.158C717.622 589.665 720.295 588.228 724.652 588.205ZM724.652 590.406C721.935 590.406 720.475 590.968 720.475 592.158C720.475 593.326 721.935 593.91 724.652 593.91C727.37 593.91 728.853 593.326 728.853 592.158C728.853 590.968 727.37 590.406 724.652 590.406ZM726.202 576.862V579.153H722.137C722.204 581.534 723.642 583.938 726.831 584.993L725.416 587.239C723.159 586.509 721.609 585.027 720.722 583.174C719.812 585.263 718.184 586.947 715.758 587.778L714.275 585.51C717.633 584.387 719.138 581.714 719.217 579.153H715.106V576.862H726.202ZM751.426 575.627V596.111H748.573V575.627H751.426ZM745.092 577.334V585.218H738.354V588.969C741.464 588.958 744.115 588.778 747.113 588.295L747.36 590.608C743.991 591.192 740.959 591.327 737.23 591.327H735.389V582.949H742.172V579.647H735.366V577.334H745.092ZM764.026 578.749V581.018H754.144V578.749H757.692V576.188H760.522V578.749H764.026ZM759.13 581.938C761.735 581.938 763.6 583.96 763.622 586.79C763.6 589.643 761.735 591.664 759.13 591.664C756.524 591.664 754.615 589.643 754.615 586.79C754.615 583.96 756.524 581.938 759.13 581.938ZM759.13 584.319C757.939 584.319 757.131 585.24 757.131 586.79C757.131 588.34 757.939 589.238 759.13 589.238C760.275 589.238 761.084 588.34 761.106 586.79C761.084 585.24 760.275 584.319 759.13 584.319ZM771.843 575.627V596.066H769.125V586.229H767.463V595.19H764.79V576.031H767.463V583.938H769.125V575.627H771.843ZM792.754 591.35V593.686H774.044V591.35H781.928V587.576H776.021V576.93H778.896V580.097H787.812V576.93H790.665V587.576H784.78V591.35H792.754ZM778.896 585.285H787.812V582.388H778.896V585.285ZM800.48 580.771C800.48 584.072 801.401 587.486 804.187 589.283L802.637 591.507C800.874 590.44 799.75 588.688 799.11 586.588C798.369 588.901 797.145 590.833 795.292 591.956L793.54 589.845C796.572 587.958 797.695 584.364 797.695 580.905V577.379H800.48V580.771ZM811.644 575.627V596.066H808.903V575.627H811.644ZM807.354 575.919V595.123H804.681V584.858H802.03V582.522H804.681V575.919H807.354ZM832.51 591.327V593.686H813.8V591.327H817.978V586.318C816.394 585.375 815.439 583.926 815.439 582.118C815.439 578.816 818.674 576.615 823.121 576.615C827.546 576.615 830.803 578.816 830.825 582.118C830.814 583.881 829.882 585.319 828.354 586.273V591.327H832.51ZM823.121 578.884C820.201 578.884 818.27 580.052 818.27 582.118C818.27 584.117 820.201 585.353 823.121 585.353C826.019 585.353 827.973 584.117 827.995 582.118C827.973 580.052 826.019 578.884 823.121 578.884ZM820.808 591.327H825.457V587.352C824.727 587.498 823.941 587.576 823.121 587.576C822.301 587.576 821.526 587.509 820.808 587.352V591.327Z" fill="black"/>
<path d="M647.312 414C647.312 412.757 647.806 411.565 648.685 410.685C649.565 409.806 650.757 409.312 652 409.312H702C703.243 409.312 704.435 409.806 705.315 410.685C706.194 411.565 706.687 412.757 706.687 414C706.687 415.243 706.194 416.435 705.315 417.315C704.435 418.194 703.243 418.687 702 418.687H652C650.757 418.687 649.565 418.194 648.685 417.315C647.806 416.435 647.312 415.243 647.312 414ZM652 443.687H702C703.243 443.687 704.435 443.194 705.315 442.315C706.194 441.435 706.687 440.243 706.687 439C706.687 437.757 706.194 436.565 705.315 435.685C704.435 434.806 703.243 434.312 702 434.312H652C650.757 434.312 649.565 434.806 648.685 435.685C647.806 436.565 647.312 437.757 647.312 439C647.312 440.243 647.806 441.435 648.685 442.315C649.565 443.194 650.757 443.687 652 443.687ZM677 459.312H652C650.757 459.312 649.565 459.806 648.685 460.685C647.806 461.565 647.312 462.757 647.312 464C647.312 465.243 647.806 466.435 648.685 467.315C649.565 468.194 650.757 468.687 652 468.687H677C678.243 468.687 679.435 468.194 680.315 467.315C681.194 466.435 681.687 465.243 681.687 464C681.687 462.757 681.194 461.565 680.315 460.685C679.435 459.806 678.243 459.312 677 459.312ZM750.437 376.5V461.414C750.44 462.851 750.159 464.274 749.609 465.601C749.059 466.929 748.252 468.134 747.234 469.148L707.148 509.234C706.134 510.252 704.929 511.059 703.601 511.609C702.274 512.159 700.851 512.44 699.414 512.437H614.5C611.599 512.437 608.817 511.285 606.766 509.234C604.715 507.183 603.562 504.401 603.562 501.5V376.5C603.562 373.599 604.715 370.817 606.766 368.766C608.817 366.715 611.599 365.562 614.5 365.562H739.5C742.401 365.562 745.183 366.715 747.234 368.766C749.285 370.817 750.437 373.599 750.437 376.5ZM614.5 503.062H697.312V464C697.312 462.757 697.806 461.565 698.685 460.685C699.565 459.806 700.757 459.312 702 459.312H741.062V376.5C741.062 376.086 740.898 375.688 740.605 375.395C740.312 375.102 739.914 374.937 739.5 374.937H614.5C614.086 374.937 613.688 375.102 613.395 375.395C613.102 375.688 612.937 376.086 612.937 376.5V501.5C612.937 501.914 613.102 502.312 613.395 502.605C613.688 502.898 614.086 503.062 614.5 503.062ZM734.438 468.687H706.687V496.438L734.438 468.687Z" fill="black"/>
<rect x="1021.25" y="284.25" width="442.5" height="454.5" rx="5.75" fill="white"/>
<rect x="1021.25" y="284.25" width="442.5" height="454.5" rx="5.75" stroke="#888888" stroke-width="0.5"/>
<g filter="url(#filter3_d_182_61)">
<rect x="1081" y="633" width="323" height="60" rx="30" fill="#9038FF"/>
<path d="M1199.06 655.377C1201.4 655.395 1203.11 656.801 1203.11 658.84C1203.11 660.879 1201.4 662.285 1199.06 662.285C1196.69 662.285 1195 660.879 1195 658.84C1195 656.801 1196.69 655.395 1199.06 655.377ZM1199.06 656.537C1197.5 656.537 1196.34 657.486 1196.36 658.84C1196.34 660.211 1197.5 661.16 1199.06 661.16C1200.61 661.16 1201.77 660.211 1201.77 658.84C1201.77 657.486 1200.61 656.537 1199.06 656.537ZM1207.54 654.797V662.83H1206.16V654.797H1207.54ZM1207.54 663.586V667.348H1198.76V669.105H1208.1V670.213H1197.41V666.311H1206.16V664.693H1197.38V663.586H1207.54ZM1215.78 659.596C1215.78 662.25 1217.71 664.939 1220.02 665.941L1219.24 667.031C1217.41 666.196 1215.83 664.395 1215.11 662.232C1214.37 664.526 1212.8 666.521 1211.02 667.418L1210.19 666.328C1212.42 665.256 1214.37 662.303 1214.39 659.596V657.557H1210.7V656.414H1219.51V657.557H1215.78V659.596ZM1223.07 654.797V670.424H1221.69V654.797H1223.07ZM1242.46 654.814V659.543H1244.8V660.703H1242.46V665.291H1241.07V654.814H1242.46ZM1230.19 663.691C1231.44 663.691 1232.9 663.691 1234.43 663.639V662.496C1232.61 662.338 1231.44 661.485 1231.44 660.193C1231.44 658.77 1232.9 657.891 1235.1 657.891C1237.31 657.891 1238.75 658.77 1238.77 660.193C1238.75 661.477 1237.61 662.329 1235.8 662.496V663.586C1237.26 663.516 1238.74 663.401 1240.11 663.199L1240.23 664.201C1236.84 664.799 1233.09 664.816 1230.35 664.816L1230.19 663.691ZM1242.46 666.064V670.424H1241.07V667.172H1232.11V666.064H1242.46ZM1239.63 656.238V657.293H1230.58V656.238H1234.43V654.674H1235.8V656.238H1239.63ZM1235.1 658.875C1233.66 658.857 1232.76 659.367 1232.76 660.193C1232.76 661.002 1233.66 661.564 1235.1 661.547C1236.54 661.564 1237.45 661.002 1237.45 660.193C1237.45 659.367 1236.54 658.857 1235.1 658.875ZM1258.72 654.814V666.24H1257.35V654.814H1258.72ZM1259.21 668.93V670.09H1248.63V665.08H1250V668.93H1259.21ZM1250.29 655.904C1252.62 655.904 1254.38 657.486 1254.38 659.736C1254.38 662.021 1252.62 663.586 1250.29 663.586C1247.95 663.586 1246.19 662.021 1246.19 659.736C1246.19 657.486 1247.95 655.904 1250.29 655.904ZM1250.29 657.117C1248.7 657.117 1247.53 658.207 1247.54 659.736C1247.53 661.301 1248.7 662.373 1250.29 662.373C1251.83 662.373 1253.03 661.301 1253.03 659.736C1253.03 658.207 1251.83 657.117 1250.29 657.117ZM1273.47 654.797V661.248H1276.09V662.391H1273.47V670.424H1272.1V654.797H1273.47ZM1270.59 657.311V658.453H1261.29V657.311H1265.31V654.99H1266.69V657.311H1270.59ZM1266.02 659.754C1268.23 659.754 1269.83 661.23 1269.85 663.34C1269.83 665.449 1268.23 666.926 1266.02 666.926C1263.79 666.926 1262.17 665.449 1262.19 663.34C1262.17 661.23 1263.79 659.754 1266.02 659.754ZM1266.02 660.914C1264.56 660.914 1263.49 661.934 1263.5 663.34C1263.49 664.764 1264.56 665.766 1266.02 665.748C1267.46 665.766 1268.51 664.764 1268.53 663.34C1268.51 661.934 1267.46 660.914 1266.02 660.914ZM1289.85 654.797V670.424H1288.46V654.797H1289.85ZM1285.23 656.502C1285.21 661.002 1283.12 664.975 1277.88 667.488L1277.13 666.363C1281.35 664.359 1283.51 661.362 1283.82 657.627H1277.85V656.502H1285.23Z" fill="white"/>
</g>
<path d="M1094.24 575.627V596.066H1091.48V585.847H1089.57V595.078H1086.87V575.964H1089.57V583.533H1091.48V575.627H1094.24ZM1080.31 577.896V588.564C1081.95 588.531 1083.75 588.385 1085.73 588.003L1086.02 590.474C1083.28 590.945 1080.94 591.08 1078.83 591.08H1077.44V577.896H1080.31ZM1112.61 575.627V583.466H1115.51V585.824H1112.61V596.021H1109.74V575.627H1112.61ZM1107.15 577.716C1107.13 583.825 1104.75 589.126 1097.88 592.495L1096.26 590.294C1101.1 587.868 1103.69 584.611 1104.23 580.052H1097.43V577.716H1107.15ZM1133.28 576.817V579.108H1129.21C1129.23 581.5 1130.65 583.949 1133.97 585.016L1132.51 587.239C1130.24 586.509 1128.68 585.049 1127.79 583.219C1126.89 585.218 1125.26 586.801 1122.88 587.576L1121.35 585.375C1124.73 584.286 1126.27 581.669 1126.31 579.108H1122.13V576.817H1133.28ZM1137.88 575.627V580.591H1140.64V582.972H1137.88V587.958H1135V575.627H1137.88ZM1137.88 588.834V596.066H1135V591.103H1124.11V588.834H1137.88ZM1149.27 578.412C1149.25 581.152 1150.66 583.668 1153.94 584.679L1152.43 586.925C1150.23 586.161 1148.74 584.746 1147.9 582.904C1146.98 585.038 1145.33 586.723 1142.87 587.554L1141.36 585.263C1144.87 584.14 1146.35 581.399 1146.37 578.547V576.683H1149.27V578.412ZM1158.77 575.627V587.599H1155.92V581.714H1152.08V579.378H1155.92V575.627H1158.77ZM1151.78 588.138C1156.14 588.138 1158.81 589.598 1158.84 592.113C1158.81 594.629 1156.14 596.066 1151.78 596.066C1147.43 596.066 1144.75 594.629 1144.75 592.113C1144.75 589.598 1147.43 588.138 1151.78 588.138ZM1151.78 590.361C1149.07 590.361 1147.61 590.945 1147.61 592.113C1147.61 593.236 1149.07 593.843 1151.78 593.843C1154.5 593.843 1155.98 593.236 1155.98 592.113C1155.98 590.945 1154.5 590.361 1151.78 590.361ZM1177.64 575.649V581.916H1180.4V584.252H1177.64V590.9H1174.76V575.649H1177.64ZM1173.55 577.783V580.052H1161.42V577.783H1166.07V575.604H1168.92V577.783H1173.55ZM1167.48 580.771C1170.45 580.771 1172.51 582.365 1172.51 584.724C1172.51 587.082 1170.45 588.632 1167.48 588.632C1164.5 588.632 1162.41 587.082 1162.41 584.724C1162.41 582.365 1164.5 580.771 1167.48 580.771ZM1167.48 582.949C1166.11 582.972 1165.19 583.601 1165.21 584.724C1165.19 585.847 1166.11 586.453 1167.48 586.453C1168.85 586.453 1169.8 585.847 1169.8 584.724C1169.8 583.601 1168.85 582.972 1167.48 582.949ZM1178.38 593.416V595.707H1164.38V589.732H1167.24V593.416H1178.38ZM1204.23 575.627V596.066H1201.47V585.667H1199.6V595.168H1196.93V576.166H1199.6V583.376H1201.47V575.627H1204.23ZM1195.49 578.143C1195.47 583.848 1193.76 588.52 1188.01 591.866L1186.35 589.89C1190.52 587.441 1192.3 584.443 1192.71 580.434H1187.38V578.143H1195.49ZM1209.93 576.548V578.974H1214.11V576.548H1216.99V585.465H1207.08V576.548H1209.93ZM1209.93 583.219H1214.11V581.13H1209.93V583.219ZM1222.69 575.627V579.603H1225.46V581.916H1222.69V586.026H1219.82V575.627H1222.69ZM1222.69 586.79V592.338H1211.98V593.663H1223.28V595.932H1209.17V590.294H1219.84V589.014H1209.13V586.79H1222.69ZM1232.17 576.233C1235.27 576.233 1237.63 578.165 1237.63 580.905C1237.63 583.601 1235.27 585.555 1232.17 585.555C1229 585.555 1226.67 583.601 1226.67 580.905C1226.67 578.165 1229 576.233 1232.17 576.233ZM1232.17 578.569C1230.6 578.569 1229.43 579.423 1229.45 580.905C1229.43 582.365 1230.6 583.241 1232.17 583.241C1233.72 583.241 1234.87 582.365 1234.87 580.905C1234.87 579.423 1233.72 578.569 1232.17 578.569ZM1243.47 575.627V585.869H1240.59V575.627H1243.47ZM1243.47 586.723V592.271H1232.6V593.596H1244.03V595.842H1229.79V590.182H1240.62V588.924H1229.75V586.723H1243.47ZM1254.16 581.197C1254.16 584.499 1255.84 588.025 1259.28 589.463L1257.73 591.709C1255.32 590.687 1253.65 588.654 1252.75 586.161C1251.81 588.868 1250.12 591.114 1247.71 592.226L1246.07 589.957C1249.47 588.452 1251.22 584.656 1251.22 581.197V579.939H1246.88V577.604H1258.43V579.939H1254.16V581.197ZM1263.35 575.627V596.066H1260.45V575.627H1263.35ZM1284.8 584.791V586.925H1266.09V584.791H1284.8ZM1282.55 587.936V592.765H1271.1V593.933H1283.16V595.887H1268.24V590.945H1279.72V589.912H1268.22V587.936H1282.55ZM1282.53 575.986V580.793H1271.28V581.894H1282.89V583.825H1268.42V578.974H1279.65V577.94H1268.38V575.986H1282.53ZM1307.64 575.649V581.489H1310.25V583.848H1307.64V589.53H1304.76V575.649H1307.64ZM1291.06 586.902C1292.56 586.902 1294.26 586.902 1296.03 586.857V585.712C1293.8 585.397 1292.41 584.319 1292.43 582.747C1292.41 580.86 1294.41 579.692 1297.44 579.692C1300.45 579.692 1302.43 580.86 1302.45 582.747C1302.43 584.319 1301.07 585.386 1298.88 585.689V586.745C1300.56 586.678 1302.24 586.543 1303.82 586.341L1304.02 588.317C1299.71 589.081 1294.97 589.126 1291.36 589.126L1291.06 586.902ZM1307.64 590.361V596.066H1304.76V592.562H1293.67V590.361H1307.64ZM1303.3 577.132V579.221H1291.6V577.132H1296.03V575.47H1298.88V577.132H1303.3ZM1297.44 581.602C1295.98 581.602 1295.15 581.961 1295.17 582.747C1295.15 583.488 1295.98 583.915 1297.44 583.915C1298.88 583.915 1299.69 583.488 1299.71 582.747C1299.69 581.961 1298.88 581.602 1297.44 581.602ZM1328.28 575.649V590.339H1325.41V575.649H1328.28ZM1328.82 593.416V595.707H1314.58V588.856H1317.48V593.416H1328.82ZM1317.07 576.952C1320.22 576.952 1322.67 579.108 1322.67 582.096C1322.67 585.15 1320.22 587.284 1317.07 587.284C1313.93 587.284 1311.48 585.15 1311.48 582.096C1311.48 579.108 1313.93 576.952 1317.07 576.952ZM1317.07 579.445C1315.48 579.423 1314.27 580.434 1314.29 582.096C1314.27 583.803 1315.48 584.791 1317.07 584.791C1318.62 584.791 1319.84 583.803 1319.84 582.096C1319.84 580.434 1318.62 579.423 1317.07 579.445ZM1340.9 578.749V581.018H1331.02V578.749H1334.57V576.188H1337.4V578.749H1340.9ZM1336.01 581.938C1338.61 581.938 1340.48 583.96 1340.5 586.79C1340.48 589.643 1338.61 591.664 1336.01 591.664C1333.4 591.664 1331.49 589.643 1331.49 586.79C1331.49 583.96 1333.4 581.938 1336.01 581.938ZM1336.01 584.319C1334.82 584.319 1334.01 585.24 1334.01 586.79C1334.01 588.34 1334.82 589.238 1336.01 589.238C1337.15 589.238 1337.96 588.34 1337.98 586.79C1337.96 585.24 1337.15 584.319 1336.01 584.319ZM1348.72 575.627V596.066H1346V586.229H1344.34V595.19H1341.67V576.031H1344.34V583.938H1346V575.627H1348.72ZM1369.63 591.35V593.686H1350.92V591.35H1358.81V587.576H1352.9V576.93H1355.77V580.097H1364.69V576.93H1367.54V587.576H1361.66V591.35H1369.63ZM1355.77 585.285H1364.69V582.388H1355.77V585.285ZM1377.36 580.771C1377.36 584.072 1378.28 587.486 1381.06 589.283L1379.51 591.507C1377.75 590.44 1376.63 588.688 1375.99 586.588C1375.25 588.901 1374.02 590.833 1372.17 591.956L1370.42 589.845C1373.45 587.958 1374.57 584.364 1374.57 580.905V577.379H1377.36V580.771ZM1388.52 575.627V596.066H1385.78V575.627H1388.52ZM1384.23 575.919V595.123H1381.56V584.858H1378.91V582.522H1381.56V575.919H1384.23ZM1409.39 591.327V593.686H1390.68V591.327H1394.86V586.318C1393.27 585.375 1392.32 583.926 1392.32 582.118C1392.32 578.816 1395.55 576.615 1400 576.615C1404.42 576.615 1407.68 578.816 1407.7 582.118C1407.69 583.881 1406.76 585.319 1405.23 586.273V591.327H1409.39ZM1400 578.884C1397.08 578.884 1395.15 580.052 1395.15 582.118C1395.15 584.117 1397.08 585.353 1400 585.353C1402.9 585.353 1404.85 584.117 1404.87 582.118C1404.85 580.052 1402.9 578.884 1400 578.884ZM1397.69 591.327H1402.33V587.352C1401.6 587.498 1400.82 587.576 1400 587.576C1399.18 587.576 1398.4 587.509 1397.69 587.352V591.327Z" fill="black"/>
<path d="M1218 509.167L1166.25 457.417L1189.83 433.833L1218 462.083L1300.33 379.667L1323.92 403.25L1218 509.167Z" fill="black"/>
<g filter="url(#filter4_d_182_61)">
<rect x="1064.5" y="616.5" width="357" height="93" rx="46.5" stroke="#FF0000" stroke-dasharray="12 2" shape-rendering="crispEdges"/>
</g>
<g filter="url(#filter5_d_182_61)">
<rect x="498.5" y="616.5" width="357" height="93" rx="46.5" stroke="#FF0000" stroke-dasharray="12 2" shape-rendering="crispEdges"/>
</g>
<rect x="603.25" y="732.25" width="241.5" height="95.5" rx="47.75" fill="white"/>
<rect x="603.25" y="732.25" width="241.5" height="95.5" rx="47.75" stroke="black" stroke-width="0.5"/>
<path d="M690.623 752.586V767.378H689.328V759.16H685.792V763.643H678.985V753.748H680.296V757.6H684.513V753.748H685.792V758.081H689.328V752.586H690.623ZM680.296 762.563H684.513V758.646H680.296V762.563ZM706.527 760.771V761.833H693.063V760.771H706.527ZM705.116 765.934V767.029H694.823V762.912H696.118V765.934H705.116ZM704.933 758.347V759.376H694.856V753.15H704.85V754.196H696.167V755.74H704.452V756.753H696.167V758.347H704.933ZM714.496 752.852C717.783 752.852 719.708 753.748 719.708 755.392C719.708 757.068 717.783 757.965 714.496 757.981C711.208 757.965 709.266 757.068 709.266 755.392C709.266 753.748 711.208 752.852 714.496 752.852ZM714.496 753.831C712.039 753.831 710.611 754.429 710.627 755.392C710.611 756.421 712.039 756.985 714.496 756.985C716.936 756.985 718.38 756.421 718.38 755.392C718.38 754.429 716.936 753.831 714.496 753.831ZM721.219 758.978V760.04H707.772V758.978H721.219ZM719.493 761.318V764.622H710.727V766.149H719.941V767.179H709.432V763.659H718.214V762.314H709.399V761.318H719.493ZM738.651 757.566V758.646H728.474V753.35H729.769V757.566H738.651ZM740.245 760.87V761.966H734.069V767.345H732.774V761.966H726.731V760.87H740.245ZM754.937 764.39V765.485H741.423V764.39H754.937ZM753.227 753.715V758.181H744.412V760.604H753.576V761.65H743.117V757.118H751.949V754.794H743.083V753.715H753.227ZM763.586 753.881V755.192H767.04V752.603H768.351V763.377H767.04V759.442H763.586V760.771H756.813V753.881H763.586ZM758.108 754.96V759.725H762.308V754.96H758.108ZM768.683 765.934V767.029H758.805V762.414H760.117V765.934H768.683ZM763.586 758.363H767.04V756.288H763.586V758.363ZM651.053 773.134C653.261 773.15 654.871 774.479 654.871 776.404C654.871 778.33 653.261 779.658 651.053 779.658C648.812 779.658 647.218 778.33 647.218 776.404C647.218 774.479 648.812 773.15 651.053 773.134ZM651.053 774.229C649.575 774.229 648.479 775.126 648.496 776.404C648.479 777.699 649.575 778.596 651.053 778.596C652.514 778.596 653.609 777.699 653.609 776.404C653.609 775.126 652.514 774.229 651.053 774.229ZM659.055 772.586V780.173H657.76V772.586H659.055ZM659.055 780.887V784.439H650.771V786.1H659.586V787.146H649.492V783.46H657.76V781.933H649.459V780.887H659.055ZM666.841 777.118C666.841 779.625 668.667 782.165 670.842 783.111L670.111 784.141C668.385 783.352 666.891 781.65 666.21 779.608C665.513 781.775 664.027 783.659 662.342 784.506L661.562 783.477C663.67 782.464 665.513 779.675 665.529 777.118V775.192H662.043V774.113H670.36V775.192H666.841V777.118ZM673.73 772.586V787.345H672.419V772.586H673.73ZM685.518 775.325C685.518 777.284 686.962 779.077 689.153 779.841L688.489 780.854C686.804 780.256 685.518 779.044 684.887 777.517C684.256 779.193 682.903 780.497 681.168 781.136L680.471 780.123C682.679 779.343 684.223 777.434 684.239 775.325V774.694H680.869V773.632H688.838V774.694H685.518V775.325ZM692.059 772.586V776.487H694.283V777.6H692.059V781.484H690.764V772.586H692.059ZM692.059 782.265V787.345H690.764V783.327H682.396V782.265H692.059ZM700.293 774.91C700.276 777.019 701.771 778.878 703.945 779.608L703.215 780.621C701.588 780.007 700.31 778.812 699.679 777.251C699.04 779.019 697.687 780.397 695.91 781.069L695.196 780.007C697.471 779.21 698.981 777.251 698.998 774.96V773.433H700.293V774.91ZM707.448 772.586V781.335H706.137V776.836H702.85V775.757H706.137V772.586H707.448ZM702.551 781.767C705.622 781.767 707.498 782.779 707.498 784.556C707.498 786.315 705.622 787.312 702.551 787.312C699.479 787.312 697.604 786.315 697.604 784.556C697.604 782.779 699.479 781.767 702.551 781.767ZM702.551 782.796C700.293 782.796 698.882 783.46 698.898 784.556C698.882 785.618 700.293 786.266 702.551 786.266C704.809 786.266 706.203 785.618 706.203 784.556C706.203 783.46 704.809 782.796 702.551 782.796ZM721.327 772.586V778.679H723.801V779.758H721.327V787.345H720.032V772.586H721.327ZM718.604 774.96V776.039H709.822V774.96H713.624V772.769H714.919V774.96H718.604ZM714.288 777.268C716.38 777.268 717.891 778.662 717.907 780.654C717.891 782.646 716.38 784.041 714.288 784.041C712.18 784.041 710.652 782.646 710.669 780.654C710.652 778.662 712.18 777.268 714.288 777.268ZM714.288 778.363C712.91 778.363 711.897 779.326 711.914 780.654C711.897 781.999 712.91 782.945 714.288 782.929C715.649 782.945 716.646 781.999 716.662 780.654C716.646 779.326 715.649 778.363 714.288 778.363ZM736.8 772.586V787.345H735.488V772.586H736.8ZM732.434 774.196C732.417 778.446 730.441 782.198 725.494 784.572L724.78 783.51C728.773 781.617 730.807 778.787 731.105 775.259H725.461V774.196H732.434ZM756.257 772.586V787.345H754.995V772.586H756.257ZM753.368 772.951V786.564H752.123V779.376H750.064V778.197H752.123V772.951H753.368ZM750.496 774.479V775.558H749.251V782.381C749.807 782.348 750.338 782.298 750.828 782.231L750.911 783.194C748.587 783.626 745.482 783.692 743.557 783.692L743.391 782.58L744.951 782.563V775.558H743.706V774.479H750.496ZM746.146 782.547C746.761 782.53 747.408 782.505 748.039 782.464V775.558H746.146V782.547ZM770.418 772.586V787.378H769.106V772.586H770.418ZM762.565 773.731C764.757 773.748 766.334 775.74 766.334 778.878C766.334 782.016 764.757 784.008 762.565 784.008C760.357 784.008 758.797 782.016 758.797 778.878C758.797 775.74 760.357 773.748 762.565 773.731ZM762.565 774.894C761.088 774.91 760.059 776.471 760.059 778.878C760.059 781.285 761.088 782.846 762.565 782.846C764.043 782.846 765.072 781.285 765.072 778.878C765.072 776.471 764.043 774.91 762.565 774.894ZM778.221 777.118C778.221 779.625 780.047 782.165 782.222 783.111L781.491 784.141C779.765 783.352 778.271 781.65 777.59 779.608C776.893 781.775 775.407 783.659 773.722 784.506L772.941 783.477C775.05 782.464 776.893 779.675 776.909 777.118V775.192H773.423V774.113H781.74V775.192H778.221V777.118ZM785.11 772.586V787.345H783.799V772.586H785.11ZM801.147 784.423V785.519H787.634V784.423H793.71V781.634H789.327V777.085H798.159V774.761H789.294V773.682H799.438V778.147H790.622V780.555H799.786V781.634H794.988V784.423H801.147ZM707.448 801.816V807.146H697.886V801.816H707.448ZM699.164 802.862V806.083H706.17V802.862H699.164ZM697.404 793.482V799.011C699.712 799.019 701.663 798.87 703.812 798.43L703.979 799.542C701.688 800.007 699.679 800.14 697.222 800.14H696.093V793.482H697.404ZM707.448 792.586V801.103H706.137V796.454H701.887V795.392H706.137V792.586H707.448ZM713.873 793.731C715.882 793.748 717.326 795.466 717.542 798.23H720.846V792.586H722.141V807.378H720.846V799.31H717.559C717.401 802.198 715.932 804.008 713.873 804.008C711.698 804.008 710.171 802.016 710.171 798.878C710.171 795.74 711.698 793.748 713.873 793.731ZM713.873 794.894C712.412 794.91 711.416 796.471 711.416 798.878C711.416 801.285 712.412 802.846 713.873 802.846C715.317 802.846 716.33 801.285 716.33 798.878C716.33 796.471 715.317 794.91 713.873 794.894ZM736.02 792.586V798.596H738.41V799.691H736.02V807.345H734.725V792.586H736.02ZM732.201 794.18C732.201 798.363 730.242 802.165 725.428 804.539L724.697 803.51C728.516 801.609 730.591 798.77 730.89 795.275H725.378V794.18H732.201ZM752.804 804.356V805.452H739.29V804.356H742.644V800.372C741.382 799.716 740.618 798.654 740.618 797.317C740.618 795.026 742.859 793.532 746.014 793.516C749.168 793.532 751.409 795.026 751.409 797.317C751.409 798.629 750.67 799.683 749.45 800.339V804.356H752.804ZM746.014 794.595C743.59 794.578 741.88 795.674 741.88 797.317C741.88 798.961 743.59 800.073 746.014 800.073C748.421 800.073 750.147 798.961 750.147 797.317C750.147 795.674 748.421 794.578 746.014 794.595ZM743.922 804.356H748.139V800.837C747.5 801.011 746.786 801.103 746.014 801.103C745.258 801.103 744.553 801.02 743.922 800.854V804.356Z" fill="black"/>
<line x1="577.215" y1="709.873" x2="607.215" y2="760.873" stroke="black" stroke-width="0.5"/>
<rect x="1137.25" y="732.25" width="241.5" height="95.5" rx="47.75" fill="white"/>
<rect x="1137.25" y="732.25" width="241.5" height="95.5" rx="47.75" stroke="black" stroke-width="0.5"/>
<path d="M1224.62 752.586V767.378H1223.33V759.16H1219.79V763.643H1212.98V753.748H1214.3V757.6H1218.51V753.748H1219.79V758.081H1223.33V752.586H1224.62ZM1214.3 762.563H1218.51V758.646H1214.3V762.563ZM1240.53 760.771V761.833H1227.06V760.771H1240.53ZM1239.12 765.934V767.029H1228.82V762.912H1230.12V765.934H1239.12ZM1238.93 758.347V759.376H1228.86V753.15H1238.85V754.196H1230.17V755.74H1238.45V756.753H1230.17V758.347H1238.93ZM1248.5 752.852C1251.78 752.852 1253.71 753.748 1253.71 755.392C1253.71 757.068 1251.78 757.965 1248.5 757.981C1245.21 757.965 1243.27 757.068 1243.27 755.392C1243.27 753.748 1245.21 752.852 1248.5 752.852ZM1248.5 753.831C1246.04 753.831 1244.61 754.429 1244.63 755.392C1244.61 756.421 1246.04 756.985 1248.5 756.985C1250.94 756.985 1252.38 756.421 1252.38 755.392C1252.38 754.429 1250.94 753.831 1248.5 753.831ZM1255.22 758.978V760.04H1241.77V758.978H1255.22ZM1253.49 761.318V764.622H1244.73V766.149H1253.94V767.179H1243.43V763.659H1252.21V762.314H1243.4V761.318H1253.49ZM1272.65 757.566V758.646H1262.47V753.35H1263.77V757.566H1272.65ZM1274.24 760.87V761.966H1268.07V767.345H1266.77V761.966H1260.73V760.87H1274.24ZM1288.94 764.39V765.485H1275.42V764.39H1288.94ZM1287.23 753.715V758.181H1278.41V760.604H1287.58V761.65H1277.12V757.118H1285.95V754.794H1277.08V753.715H1287.23ZM1297.59 753.881V755.192H1301.04V752.603H1302.35V763.377H1301.04V759.442H1297.59V760.771H1290.81V753.881H1297.59ZM1292.11 754.96V759.725H1296.31V754.96H1292.11ZM1302.68 765.934V767.029H1292.81V762.414H1294.12V765.934H1302.68ZM1297.59 758.363H1301.04V756.288H1297.59V758.363ZM1182.92 773.134C1185.13 773.15 1186.74 774.479 1186.74 776.404C1186.74 778.33 1185.13 779.658 1182.92 779.658C1180.68 779.658 1179.08 778.33 1179.08 776.404C1179.08 774.479 1180.68 773.15 1182.92 773.134ZM1182.92 774.229C1181.44 774.229 1180.35 775.126 1180.36 776.404C1180.35 777.699 1181.44 778.596 1182.92 778.596C1184.38 778.596 1185.48 777.699 1185.48 776.404C1185.48 775.126 1184.38 774.229 1182.92 774.229ZM1190.92 772.586V780.173H1189.63V772.586H1190.92ZM1190.92 780.887V784.439H1182.64V786.1H1191.45V787.146H1181.36V783.46H1189.63V781.933H1181.33V780.887H1190.92ZM1198.71 777.118C1198.71 779.625 1200.53 782.165 1202.71 783.111L1201.98 784.141C1200.25 783.352 1198.76 781.65 1198.08 779.608C1197.38 781.775 1195.89 783.659 1194.21 784.506L1193.43 783.477C1195.54 782.464 1197.38 779.675 1197.4 777.118V775.192H1193.91V774.113H1202.23V775.192H1198.71V777.118ZM1205.6 772.586V787.345H1204.29V772.586H1205.6ZM1223.91 772.603V777.068H1226.12V778.164H1223.91V782.497H1222.6V772.603H1223.91ZM1212.32 780.986C1213.5 780.986 1214.88 780.986 1216.32 780.937V779.857C1214.6 779.708 1213.5 778.903 1213.5 777.683C1213.5 776.338 1214.88 775.508 1216.95 775.508C1219.04 775.508 1220.41 776.338 1220.42 777.683C1220.41 778.895 1219.33 779.7 1217.62 779.857V780.887C1218.99 780.82 1220.39 780.712 1221.68 780.521L1221.8 781.468C1218.6 782.032 1215.06 782.049 1212.47 782.049L1212.32 780.986ZM1223.91 783.228V787.345H1222.6V784.273H1214.13V783.228H1223.91ZM1221.24 773.947V774.943H1212.69V773.947H1216.32V772.47H1217.62V773.947H1221.24ZM1216.95 776.438C1215.59 776.421 1214.74 776.902 1214.74 777.683C1214.74 778.446 1215.59 778.978 1216.95 778.961C1218.31 778.978 1219.18 778.446 1219.18 777.683C1219.18 776.902 1218.31 776.421 1216.95 776.438ZM1239.27 772.603V783.394H1237.97V772.603H1239.27ZM1239.73 785.934V787.029H1229.74V782.298H1231.03V785.934H1239.73ZM1231.3 773.632C1233.5 773.632 1235.16 775.126 1235.16 777.251C1235.16 779.409 1233.5 780.887 1231.3 780.887C1229.09 780.887 1227.43 779.409 1227.43 777.251C1227.43 775.126 1229.09 773.632 1231.3 773.632ZM1231.3 774.777C1229.8 774.777 1228.69 775.807 1228.71 777.251C1228.69 778.729 1229.8 779.741 1231.3 779.741C1232.76 779.741 1233.89 778.729 1233.89 777.251C1233.89 775.807 1232.76 774.777 1231.3 774.777ZM1253.19 772.586V778.679H1255.67V779.758H1253.19V787.345H1251.9V772.586H1253.19ZM1250.47 774.96V776.039H1241.69V774.96H1245.49V772.769H1246.79V774.96H1250.47ZM1246.15 777.268C1248.25 777.268 1249.76 778.662 1249.77 780.654C1249.76 782.646 1248.25 784.041 1246.15 784.041C1244.05 784.041 1242.52 782.646 1242.54 780.654C1242.52 778.662 1244.05 777.268 1246.15 777.268ZM1246.15 778.363C1244.78 778.363 1243.76 779.326 1243.78 780.654C1243.76 781.999 1244.78 782.945 1246.15 782.929C1247.52 782.945 1248.51 781.999 1248.53 780.654C1248.51 779.326 1247.52 778.363 1246.15 778.363ZM1268.67 772.586V787.345H1267.35V772.586H1268.67ZM1264.3 774.196C1264.28 778.446 1262.31 782.198 1257.36 784.572L1256.65 783.51C1260.64 781.617 1262.67 778.787 1262.97 775.259H1257.33V774.196H1264.3ZM1288.12 772.586V787.345H1286.86V772.586H1288.12ZM1285.23 772.951V786.564H1283.99V779.376H1281.93V778.197H1283.99V772.951H1285.23ZM1282.36 774.479V775.558H1281.12V782.381C1281.67 782.348 1282.21 782.298 1282.69 782.231L1282.78 783.194C1280.45 783.626 1277.35 783.692 1275.42 783.692L1275.26 782.58L1276.82 782.563V775.558H1275.57V774.479H1282.36ZM1278.01 782.547C1278.63 782.53 1279.27 782.505 1279.91 782.464V775.558H1278.01V782.547ZM1302.28 772.586V787.378H1300.97V772.586H1302.28ZM1294.43 773.731C1296.62 773.748 1298.2 775.74 1298.2 778.878C1298.2 782.016 1296.62 784.008 1294.43 784.008C1292.22 784.008 1290.66 782.016 1290.66 778.878C1290.66 775.74 1292.22 773.748 1294.43 773.731ZM1294.43 774.894C1292.95 774.91 1291.93 776.471 1291.93 778.878C1291.93 781.285 1292.95 782.846 1294.43 782.846C1295.91 782.846 1296.94 781.285 1296.94 778.878C1296.94 776.471 1295.91 774.91 1294.43 774.894ZM1310.09 777.118C1310.09 779.625 1311.91 782.165 1314.09 783.111L1313.36 784.141C1311.63 783.352 1310.14 781.65 1309.46 779.608C1308.76 781.775 1307.27 783.659 1305.59 784.506L1304.81 783.477C1306.92 782.464 1308.76 779.675 1308.78 777.118V775.192H1305.29V774.113H1313.61V775.192H1310.09V777.118ZM1316.98 772.586V787.345H1315.67V772.586H1316.98ZM1333.01 784.423V785.519H1319.5V784.423H1325.58V781.634H1321.19V777.085H1330.03V774.761H1321.16V773.682H1331.3V778.147H1322.49V780.555H1331.65V781.634H1326.85V784.423H1333.01ZM1241.45 801.816V807.146H1231.89V801.816H1241.45ZM1233.16 802.862V806.083H1240.17V802.862H1233.16ZM1231.4 793.482V799.011C1233.71 799.019 1235.66 798.87 1237.81 798.43L1237.98 799.542C1235.69 800.007 1233.68 800.14 1231.22 800.14H1230.09V793.482H1231.4ZM1241.45 792.586V801.103H1240.14V796.454H1235.89V795.392H1240.14V792.586H1241.45ZM1247.87 793.731C1249.88 793.748 1251.33 795.466 1251.54 798.23H1254.85V792.586H1256.14V807.378H1254.85V799.31H1251.56C1251.4 802.198 1249.93 804.008 1247.87 804.008C1245.7 804.008 1244.17 802.016 1244.17 798.878C1244.17 795.74 1245.7 793.748 1247.87 793.731ZM1247.87 794.894C1246.41 794.91 1245.42 796.471 1245.42 798.878C1245.42 801.285 1246.41 802.846 1247.87 802.846C1249.32 802.846 1250.33 801.285 1250.33 798.878C1250.33 796.471 1249.32 794.91 1247.87 794.894ZM1270.02 792.586V798.596H1272.41V799.691H1270.02V807.345H1268.72V792.586H1270.02ZM1266.2 794.18C1266.2 798.363 1264.24 802.165 1259.43 804.539L1258.7 803.51C1262.52 801.609 1264.59 798.77 1264.89 795.275H1259.38V794.18H1266.2ZM1286.8 804.356V805.452H1273.29V804.356H1276.64V800.372C1275.38 799.716 1274.62 798.654 1274.62 797.317C1274.62 795.026 1276.86 793.532 1280.01 793.516C1283.17 793.532 1285.41 795.026 1285.41 797.317C1285.41 798.629 1284.67 799.683 1283.45 800.339V804.356H1286.8ZM1280.01 794.595C1277.59 794.578 1275.88 795.674 1275.88 797.317C1275.88 798.961 1277.59 800.073 1280.01 800.073C1282.42 800.073 1284.15 798.961 1284.15 797.317C1284.15 795.674 1282.42 794.578 1280.01 794.595ZM1277.92 804.356H1282.14V800.837C1281.5 801.011 1280.79 801.103 1280.01 801.103C1279.26 801.103 1278.55 801.02 1277.92 800.854V804.356Z" fill="black"/>
<line x1="1111.22" y1="709.873" x2="1141.22" y2="760.873" stroke="black" stroke-width="0.5"/>
</g>
<defs>
<filter id="filter0_d_182_61" x="-8" y="-4" width="1936" height="86" filterUnits="userSpaceOnUse" color-interpolation-filters="sRGB">
<feFlood flood-opacity="0" result="BackgroundImageFix"/>
<feColorMatrix in="SourceAlpha" type="matrix" values="0 0 0 0 0 0 0 0 0 0 0 0 0 0 0 0 0 0 127 0" result="hardAlpha"/>
<feOffset dy="4"/>
<feGaussianBlur stdDeviation="4"/>
<feComposite in2="hardAlpha" operator="out"/>
<feColorMatrix type="matrix" values="0 0 0 0 0.891667 0 0 0 0 0.891667 0 0 0 0 0.891667 0 0 0 1 0"/>
<feBlend mode="normal" in2="BackgroundImageFix" result="effect1_dropShadow_182_61"/>
<feBlend mode="normal" in="SourceGraphic" in2="effect1_dropShadow_182_61" result="shape"/>
</filter>
<filter id="filter1_d_182_61" x="1651" y="20" width="114" height="38" filterUnits="userSpaceOnUse" color-interpolation-filters="sRGB">
<feFlood flood-opacity="0" result="BackgroundImageFix"/>
<feColorMatrix in="SourceAlpha" type="matrix" values="0 0 0 0 0 0 0 0 0 0 0 0 0 0 0 0 0 0 127 0" result="hardAlpha"/>
<feOffset dy="4"/>
<feGaussianBlur stdDeviation="2"/>
<feComposite in2="hardAlpha" operator="out"/>
<feColorMatrix type="matrix" values="0 0 0 0 0 0 0 0 0 0 0 0 0 0 0 0 0 0 0.25 0"/>
<feBlend mode="normal" in2="BackgroundImageFix" result="effect1_dropShadow_182_61"/>
<feBlend mode="normal" in="SourceGraphic" in2="effect1_dropShadow_182_61" result="shape"/>
</filter>
<filter id="filter2_d_182_61" x="511" y="633" width="331" height="68" filterUnits="userSpaceOnUse" color-interpolation-filters="sRGB">
<feFlood flood-opacity="0" result="BackgroundImageFix"/>
<feColorMatrix in="SourceAlpha" type="matrix" values="0 0 0 0 0 0 0 0 0 0 0 0 0 0 0 0 0 0 127 0" result="hardAlpha"/>
<feOffset dy="4"/>
<feGaussianBlur stdDeviation="2"/>
<feComposite in2="hardAlpha" operator="out"/>
<feColorMatrix type="matrix" values="0 0 0 0 0 0 0 0 0 0 0 0 0 0 0 0 0 0 0.25 0"/>
<feBlend mode="normal" in2="BackgroundImageFix" result="effect1_dropShadow_182_61"/>
<feBlend mode="normal" in="SourceGraphic" in2="effect1_dropShadow_182_61" result="shape"/>
</filter>
<filter id="filter3_d_182_61" x="1077" y="633" width="331" height="68" filterUnits="userSpaceOnUse" color-interpolation-filters="sRGB">
<feFlood flood-opacity="0" result="BackgroundImageFix"/>
<feColorMatrix in="SourceAlpha" type="matrix" values="0 0 0 0 0 0 0 0 0 0 0 0 0 0 0 0 0 0 127 0" result="hardAlpha"/>
<feOffset dy="4"/>
<feGaussianBlur stdDeviation="2"/>
<feComposite in2="hardAlpha" operator="out"/>
<feColorMatrix type="matrix" values="0 0 0 0 0 0 0 0 0 0 0 0 0 0 0 0 0 0 0.25 0"/>
<feBlend mode="normal" in2="BackgroundImageFix" result="effect1_dropShadow_182_61"/>
<feBlend mode="normal" in="SourceGraphic" in2="effect1_dropShadow_182_61" result="shape"/>
</filter>
<filter id="filter4_d_182_61" x="1060" y="616" width="366" height="102" filterUnits="userSpaceOnUse" color-interpolation-filters="sRGB">
<feFlood flood-opacity="0" result="BackgroundImageFix"/>
<feColorMatrix in="SourceAlpha" type="matrix" values="0 0 0 0 0 0 0 0 0 0 0 0 0 0 0 0 0 0 127 0" result="hardAlpha"/>
<feOffset dy="4"/>
<feGaussianBlur stdDeviation="2"/>
<feComposite in2="hardAlpha" operator="out"/>
<feColorMatrix type="matrix" values="0 0 0 0 0 0 0 0 0 0 0 0 0 0 0 0 0 0 0.25 0"/>
<feBlend mode="normal" in2="BackgroundImageFix" result="effect1_dropShadow_182_61"/>
<feBlend mode="normal" in="SourceGraphic" in2="effect1_dropShadow_182_61" result="shape"/>
</filter>
<filter id="filter5_d_182_61" x="494" y="616" width="366" height="102" filterUnits="userSpaceOnUse" color-interpolation-filters="sRGB">
<feFlood flood-opacity="0" result="BackgroundImageFix"/>
<feColorMatrix in="SourceAlpha" type="matrix" values="0 0 0 0 0 0 0 0 0 0 0 0 0 0 0 0 0 0 127 0" result="hardAlpha"/>
<feOffset dy="4"/>
<feGaussianBlur stdDeviation="2"/>
<feComposite in2="hardAlpha" operator="out"/>
<feColorMatrix type="matrix" values="0 0 0 0 0 0 0 0 0 0 0 0 0 0 0 0 0 0 0.25 0"/>
<feBlend mode="normal" in2="BackgroundImageFix" result="effect1_dropShadow_182_61"/>
<feBlend mode="normal" in="SourceGraphic" in2="effect1_dropShadow_182_61" result="shape"/>
</filter>
<clipPath id="clip0_182_61">
<rect width="1920" height="1024" fill="white"/>
</clipPath>
</defs>
</svg>
