<svg width="54" height="18" viewBox="0 0 54 18" fill="none" xmlns="http://www.w3.org/2000/svg">
<path d="M0.5 1.525C0.5 1.09167 0.591667 0.774999 0.775 0.574999C0.975 0.374999 1.26667 0.274999 1.65 0.274999H5.225C11.075 0.274999 14 3.2 14 9.05C14 11.2333 13.5417 13 12.625 14.35C11.725 15.6833 10.6167 16.625 9.3 17.175C8 17.725 6.68333 18 5.35 18H1.65C1.26667 18 0.975 17.9 0.775 17.7C0.591667 17.5 0.5 17.1833 0.5 16.75V1.525ZM3.2 16.675H3.75V16.65H4.925C6.775 16.65 8.275 16.025 9.425 14.775C10.5917 13.525 11.175 11.6167 11.175 9.05C11.175 6.45 10.6 4.55833 9.45 3.375C8.31667 2.19167 6.80833 1.6 4.925 1.6H3.2V16.675ZM26.209 14.85C26.3757 14.6667 26.584 14.575 26.834 14.575C26.984 14.575 27.1173 14.625 27.234 14.725C27.3507 14.825 27.409 14.95 27.409 15.1C27.409 15.4 27.3007 15.6833 27.084 15.95C25.984 17.3167 24.4507 18 22.484 18C20.534 18 19.059 17.475 18.059 16.425C17.0757 15.3583 16.584 13.8917 16.584 12.025C16.584 9.89167 17.084 8.26667 18.084 7.15C19.084 6.01667 20.534 5.45 22.434 5.45C23.9507 5.45 25.1673 5.88333 26.084 6.75C27.0007 7.61667 27.459 8.85833 27.459 10.475C27.459 11.2917 26.984 11.7 26.034 11.7H19.309C19.2923 11.8333 19.284 12.0167 19.284 12.25C19.284 13.6833 19.5673 14.8167 20.134 15.65C20.7007 16.4833 21.5757 16.9 22.759 16.9C23.559 16.9 24.1923 16.7333 24.659 16.4C25.1257 16.0667 25.484 15.75 25.734 15.45C25.984 15.1333 26.1423 14.9333 26.209 14.85ZM22.284 6.45C21.484 6.45 20.8257 6.79167 20.309 7.475C19.7923 8.15833 19.484 9.21667 19.384 10.65H24.059C24.359 10.65 24.5757 10.6 24.709 10.5C24.8423 10.3833 24.909 10.1917 24.909 9.925C24.909 8.80833 24.6423 7.95 24.109 7.35C23.5923 6.75 22.984 6.45 22.284 6.45ZM39.207 5.45C39.4404 5.45 39.632 5.5 39.782 5.6C39.932 5.68333 40.007 5.825 40.007 6.025C40.007 6.29167 39.9654 6.51667 39.882 6.7L35.707 17.375C35.5404 17.7917 35.057 18 34.257 18C33.9404 18 33.657 17.95 33.407 17.85C33.1737 17.75 33.0154 17.5917 32.932 17.375L28.832 6.7C28.7487 6.51667 28.707 6.325 28.707 6.125C28.707 5.675 29.0154 5.45 29.632 5.45C30.0654 5.45 30.4654 5.59167 30.832 5.875C31.1987 6.14167 31.482 6.55833 31.682 7.125L34.707 15.55H34.832L36.532 11.025C36.8154 10.2583 37.057 9.55 37.257 8.9C37.457 8.23333 37.6404 7.6 37.807 7C37.9404 6.5 38.107 6.11667 38.307 5.85C38.507 5.58333 38.807 5.45 39.207 5.45ZM50.9672 1.6C51.2505 1.13333 51.5089 0.799999 51.7422 0.599999C51.9922 0.383332 52.2672 0.274999 52.5672 0.274999C52.7672 0.274999 52.9422 0.333332 53.0922 0.449999C53.2422 0.549999 53.3172 0.691665 53.3172 0.874998C53.3172 1.125 53.2255 1.375 53.0422 1.625L48.8422 8.45L53.7672 16.5C53.9005 16.7167 53.9672 16.95 53.9672 17.2C53.9672 17.4167 53.8755 17.6083 53.6922 17.775C53.5089 17.925 53.2755 18 52.9922 18C52.4922 18 52.0922 17.9 51.7922 17.7C51.5089 17.5 51.2339 17.1667 50.9672 16.7L47.2172 10.325H47.1172L43.1922 16.65C42.8589 17.2 42.5589 17.5667 42.2922 17.75C42.0422 17.9167 41.7755 18 41.4922 18C41.2422 18 41.0505 17.95 40.9172 17.85C40.8005 17.7333 40.7422 17.6 40.7422 17.45C40.7422 17.2167 40.8339 16.95 41.0172 16.65L46.0172 8.85L41.7422 1.725C41.6255 1.54167 41.5672 1.34167 41.5672 1.125C41.5672 0.891666 41.6589 0.691666 41.8422 0.524998C42.0422 0.358332 42.2755 0.274999 42.5422 0.274999C43.3589 0.274999 44.0089 0.716666 44.4922 1.6L47.6172 7.15H47.7672L50.9672 1.6Z" fill="black"/>
</svg>
