<svg width="1000" height="1000" viewBox="0 0 1000 1000" fill="none" xmlns="http://www.w3.org/2000/svg">
<rect x="0.5" y="0.5" width="999" height="999" fill="white"/>
<rect x="0.5" y="0.5" width="999" height="999" stroke="#5C5C5C"/>
<mask id="path-2-outside-1_21_2408" maskUnits="userSpaceOnUse" x="171" y="461" width="661" height="163" fill="black">
<rect fill="white" x="171" y="461" width="661" height="163"/>
<path d="M351.86 613.11V623H172V613.11H194.31V462.23H249.51C278.337 462.23 300.493 469.283 315.98 483.39C331.467 497.343 339.21 517.047 339.21 542.5C339.21 576.693 325.717 600.23 298.73 613.11H351.86ZM311.84 542.5C311.84 505.7 290.757 487.3 248.59 487.3H221.45V597.47H251.58C271.053 597.47 285.927 592.87 296.2 583.67C306.627 574.317 311.84 560.593 311.84 542.5ZM374.222 613.11V462.23H487.152V487.76H401.362V530.31H478.412V554.46H401.362V597.47H489.912V613.11H512.222V623H351.912V613.11H374.222ZM663.4 613.11V623H502.4V613.11H563.58L503.09 462.23H533.45L582.9 582.29L632.35 462.23H662.71L601.99 613.11H663.4ZM651.255 623V613.11H673.335L722.095 540.43L670.805 462.23H704.385L740.265 516.51H741.415L777.295 462.23H810.875L759.585 540.43L808.115 613.11H830.425V623H780.975L741.415 562.51H740.265L700.705 623H651.255Z"/>
</mask>
<path d="M351.86 613.11V623H172V613.11H194.31V462.23H249.51C278.337 462.23 300.493 469.283 315.98 483.39C331.467 497.343 339.21 517.047 339.21 542.5C339.21 576.693 325.717 600.23 298.73 613.11H351.86ZM311.84 542.5C311.84 505.7 290.757 487.3 248.59 487.3H221.45V597.47H251.58C271.053 597.47 285.927 592.87 296.2 583.67C306.627 574.317 311.84 560.593 311.84 542.5ZM374.222 613.11V462.23H487.152V487.76H401.362V530.31H478.412V554.46H401.362V597.47H489.912V613.11H512.222V623H351.912V613.11H374.222ZM663.4 613.11V623H502.4V613.11H563.58L503.09 462.23H533.45L582.9 582.29L632.35 462.23H662.71L601.99 613.11H663.4ZM651.255 623V613.11H673.335L722.095 540.43L670.805 462.23H704.385L740.265 516.51H741.415L777.295 462.23H810.875L759.585 540.43L808.115 613.11H830.425V623H780.975L741.415 562.51H740.265L700.705 623H651.255Z" fill="black"/>
<path d="M351.86 613.11H352.86V612.11H351.86V613.11ZM351.86 623V624H352.86V623H351.86ZM172 623H171V624H172V623ZM172 613.11V612.11H171V613.11H172ZM194.31 613.11V614.11H195.31V613.11H194.31ZM194.31 462.23V461.23H193.31V462.23H194.31ZM315.98 483.39L315.307 484.129L315.311 484.133L315.98 483.39ZM298.73 613.11L298.299 612.208L298.73 614.11V613.11ZM221.45 487.3V486.3H220.45V487.3H221.45ZM221.45 597.47H220.45V598.47H221.45V597.47ZM296.2 583.67L296.867 584.415L296.868 584.414L296.2 583.67ZM350.86 613.11V623H352.86V613.11H350.86ZM351.86 622H172V624H351.86V622ZM173 623V613.11H171V623H173ZM172 614.11H194.31V612.11H172V614.11ZM195.31 613.11V462.23H193.31V613.11H195.31ZM194.31 463.23H249.51V461.23H194.31V463.23ZM249.51 463.23C278.182 463.23 300.064 470.245 315.307 484.129L316.653 482.651C300.923 468.322 278.491 461.23 249.51 461.23V463.23ZM315.311 484.133C330.541 497.856 338.21 517.262 338.21 542.5H340.21C340.21 516.831 332.392 496.831 316.649 482.647L315.311 484.133ZM338.21 542.5C338.21 559.467 334.863 573.718 328.222 585.3C321.587 596.874 311.629 605.846 298.299 612.208L299.161 614.012C312.818 607.494 323.1 598.257 329.958 586.295C336.811 574.341 340.21 559.726 340.21 542.5H338.21ZM298.73 614.11H351.86V612.11H298.73V614.11ZM312.84 542.5C312.84 523.908 307.508 509.792 296.685 500.347C285.888 490.924 269.797 486.3 248.59 486.3V488.3C269.55 488.3 285.083 492.876 295.37 501.853C305.631 510.808 310.84 524.292 310.84 542.5H312.84ZM248.59 486.3H221.45V488.3H248.59V486.3ZM220.45 487.3V597.47H222.45V487.3H220.45ZM221.45 598.47H251.58V596.47H221.45V598.47ZM251.58 598.47C271.199 598.47 286.347 593.836 296.867 584.415L295.533 582.925C285.506 591.904 270.908 596.47 251.58 596.47V598.47ZM296.868 584.414C307.564 574.82 312.84 560.789 312.84 542.5H310.84C310.84 560.397 305.69 573.814 295.532 582.926L296.868 584.414ZM374.222 613.11V614.11H375.222V613.11H374.222ZM374.222 462.23V461.23H373.222V462.23H374.222ZM487.152 462.23H488.152V461.23H487.152V462.23ZM487.152 487.76V488.76H488.152V487.76H487.152ZM401.362 487.76V486.76H400.362V487.76H401.362ZM401.362 530.31H400.362V531.31H401.362V530.31ZM478.412 530.31H479.412V529.31H478.412V530.31ZM478.412 554.46V555.46H479.412V554.46H478.412ZM401.362 554.46V553.46H400.362V554.46H401.362ZM401.362 597.47H400.362V598.47H401.362V597.47ZM489.912 597.47H490.912V596.47H489.912V597.47ZM489.912 613.11H488.912V614.11H489.912V613.11ZM512.222 613.11H513.222V612.11H512.222V613.11ZM512.222 623V624H513.222V623H512.222ZM351.912 623H350.912V624H351.912V623ZM351.912 613.11V612.11H350.912V613.11H351.912ZM375.222 613.11V462.23H373.222V613.11H375.222ZM374.222 463.23H487.152V461.23H374.222V463.23ZM486.152 462.23V487.76H488.152V462.23H486.152ZM487.152 486.76H401.362V488.76H487.152V486.76ZM400.362 487.76V530.31H402.362V487.76H400.362ZM401.362 531.31H478.412V529.31H401.362V531.31ZM477.412 530.31V554.46H479.412V530.31H477.412ZM478.412 553.46H401.362V555.46H478.412V553.46ZM400.362 554.46V597.47H402.362V554.46H400.362ZM401.362 598.47H489.912V596.47H401.362V598.47ZM488.912 597.47V613.11H490.912V597.47H488.912ZM489.912 614.11H512.222V612.11H489.912V614.11ZM511.222 613.11V623H513.222V613.11H511.222ZM512.222 622H351.912V624H512.222V622ZM352.912 623V613.11H350.912V623H352.912ZM351.912 614.11H374.222V612.11H351.912V614.11ZM663.4 613.11H664.4V612.11H663.4V613.11ZM663.4 623V624H664.4V623H663.4ZM502.4 623H501.4V624H502.4V623ZM502.4 613.11V612.11H501.4V613.11H502.4ZM563.58 613.11V614.11H565.059L564.509 612.738L563.58 613.11ZM503.09 462.23V461.23H501.612L502.162 462.602L503.09 462.23ZM533.45 462.23L534.375 461.849L534.12 461.23H533.45V462.23ZM582.9 582.29L581.976 582.671L582.9 584.916L583.825 582.671L582.9 582.29ZM632.35 462.23V461.23H631.681L631.426 461.849L632.35 462.23ZM662.71 462.23L663.638 462.603L664.191 461.23H662.71V462.23ZM601.99 613.11L601.063 612.737L600.51 614.11H601.99V613.11ZM662.4 613.11V623H664.4V613.11H662.4ZM663.4 622H502.4V624H663.4V622ZM503.4 623V613.11H501.4V623H503.4ZM502.4 614.11H563.58V612.11H502.4V614.11ZM564.509 612.738L504.019 461.858L502.162 462.602L562.652 613.482L564.509 612.738ZM503.09 463.23H533.45V461.23H503.09V463.23ZM532.526 462.611L581.976 582.671L583.825 581.909L534.375 461.849L532.526 462.611ZM583.825 582.671L633.275 462.611L631.426 461.849L581.976 581.909L583.825 582.671ZM632.35 463.23H662.71V461.23H632.35V463.23ZM661.783 461.857L601.063 612.737L602.918 613.483L663.638 462.603L661.783 461.857ZM601.99 614.11H663.4V612.11H601.99V614.11ZM651.255 623H650.255V624H651.255V623ZM651.255 613.11V612.11H650.255V613.11H651.255ZM673.335 613.11V614.11H673.869L674.166 613.667L673.335 613.11ZM722.095 540.43L722.926 540.987L723.295 540.436L722.932 539.882L722.095 540.43ZM670.805 462.23V461.23H668.954L669.969 462.778L670.805 462.23ZM704.385 462.23L705.22 461.679L704.923 461.23H704.385V462.23ZM740.265 516.51L739.431 517.061L739.728 517.51H740.265V516.51ZM741.415 516.51V517.51H741.953L742.25 517.061L741.415 516.51ZM777.295 462.23V461.23H776.758L776.461 461.679L777.295 462.23ZM810.875 462.23L811.711 462.778L812.727 461.23H810.875V462.23ZM759.585 540.43L758.749 539.882L758.386 540.435L758.754 540.985L759.585 540.43ZM808.115 613.11L807.284 613.665L807.581 614.11H808.115V613.11ZM830.425 613.11H831.425V612.11H830.425V613.11ZM830.425 623V624H831.425V623H830.425ZM780.975 623L780.138 623.547L780.434 624H780.975V623ZM741.415 562.51L742.252 561.963L741.956 561.51H741.415V562.51ZM740.265 562.51V561.51H739.724L739.428 561.963L740.265 562.51ZM700.705 623V624H701.246L701.542 623.547L700.705 623ZM652.255 623V613.11H650.255V623H652.255ZM651.255 614.11H673.335V612.11H651.255V614.11ZM674.166 613.667L722.926 540.987L721.265 539.873L672.505 612.553L674.166 613.667ZM722.932 539.882L671.642 461.682L669.969 462.778L721.259 540.978L722.932 539.882ZM670.805 463.23H704.385V461.23H670.805V463.23ZM703.551 462.781L739.431 517.061L741.1 515.959L705.22 461.679L703.551 462.781ZM740.265 517.51H741.415V515.51H740.265V517.51ZM742.25 517.061L778.13 462.781L776.461 461.679L740.581 515.959L742.25 517.061ZM777.295 463.23H810.875V461.23H777.295V463.23ZM810.039 461.682L758.749 539.882L760.422 540.978L811.711 462.778L810.039 461.682ZM758.754 540.985L807.284 613.665L808.947 612.555L760.417 539.875L758.754 540.985ZM808.115 614.11H830.425V612.11H808.115V614.11ZM829.425 613.11V623H831.425V613.11H829.425ZM830.425 622H780.975V624H830.425V622ZM781.812 622.453L742.252 561.963L740.578 563.057L780.138 623.547L781.812 622.453ZM741.415 561.51H740.265V563.51H741.415V561.51ZM739.428 561.963L699.868 622.453L701.542 623.547L741.102 563.057L739.428 561.963ZM700.705 622H651.255V624H700.705V622Z" fill="#5C5C5C" mask="url(#path-2-outside-1_21_2408)"/>
</svg>
