<svg width="677" height="53" viewBox="0 0 677 53" fill="none" xmlns="http://www.w3.org/2000/svg">
<path d="M8.9407e-08 8.46C8.9407e-08 7.42 0.22 6.66 0.660001 6.18C1.14 5.7 1.84 5.46 2.76 5.46H11.34C25.38 5.46 32.4 12.48 32.4 26.52C32.4 31.76 31.3 36 29.1 39.24C26.94 42.44 24.28 44.7 21.12 46.02C18 47.34 14.84 48 11.64 48H2.76C1.84 48 1.14 47.76 0.660001 47.28C0.22 46.8 8.9407e-08 46.04 8.9407e-08 45V8.46ZM6.48 44.82H7.8V44.76H10.62C15.06 44.76 18.66 43.26 21.42 40.26C24.22 37.26 25.62 32.68 25.62 26.52C25.62 20.28 24.24 15.74 21.48 12.9C18.76 10.06 15.14 8.64 10.62 8.64H6.48V44.82ZM61.7016 40.44C62.1016 40 62.6016 39.78 63.2016 39.78C63.5616 39.78 63.8816 39.9 64.1616 40.14C64.4416 40.38 64.5816 40.68 64.5816 41.04C64.5816 41.76 64.3216 42.44 63.8016 43.08C61.1616 46.36 57.4816 48 52.7616 48C48.0816 48 44.5416 46.74 42.1416 44.22C39.7816 41.66 38.6016 38.14 38.6016 33.66C38.6016 28.54 39.8016 24.64 42.2016 21.96C44.6016 19.24 48.0816 17.88 52.6416 17.88C56.2816 17.88 59.2016 18.92 61.4016 21C63.6016 23.08 64.7016 26.06 64.7016 29.94C64.7016 31.9 63.5616 32.88 61.2816 32.88H45.1416C45.1016 33.2 45.0816 33.64 45.0816 34.2C45.0816 37.64 45.7616 40.36 47.1216 42.36C48.4816 44.36 50.5816 45.36 53.4216 45.36C55.3416 45.36 56.8616 44.96 57.9816 44.16C59.1016 43.36 59.9616 42.6 60.5616 41.88C61.1616 41.12 61.5416 40.64 61.7016 40.44ZM52.2816 20.28C50.3616 20.28 48.7816 21.1 47.5416 22.74C46.3016 24.38 45.5616 26.92 45.3216 30.36H56.5416C57.2616 30.36 57.7816 30.24 58.1016 30C58.4216 29.72 58.5816 29.26 58.5816 28.62C58.5816 25.94 57.9416 23.88 56.6616 22.44C55.4216 21 53.9616 20.28 52.2816 20.28ZM92.8969 17.88C93.4569 17.88 93.9169 18 94.2769 18.24C94.6369 18.44 94.8169 18.78 94.8169 19.26C94.8169 19.9 94.7169 20.44 94.5169 20.88L84.4969 46.5C84.0969 47.5 82.9369 48 81.0169 48C80.2569 48 79.5769 47.88 78.9769 47.64C78.4169 47.4 78.0369 47.02 77.8369 46.5L67.9969 20.88C67.7969 20.44 67.6969 19.98 67.6969 19.5C67.6969 18.42 68.4369 17.88 69.9169 17.88C70.9569 17.88 71.9169 18.22 72.7969 18.9C73.6769 19.54 74.3569 20.54 74.8369 21.9L82.0969 42.12H82.3969L86.4769 31.26C87.1569 29.42 87.7369 27.72 88.2169 26.16C88.6969 24.56 89.1369 23.04 89.5369 21.6C89.8569 20.4 90.2569 19.48 90.7369 18.84C91.2169 18.2 91.9369 17.88 92.8969 17.88ZM121.121 8.64C121.801 7.52 122.421 6.72 122.981 6.24C123.581 5.72 124.241 5.46 124.961 5.46C125.441 5.46 125.861 5.6 126.221 5.88C126.581 6.12 126.761 6.46 126.761 6.9C126.761 7.5 126.541 8.1 126.101 8.7L116.021 25.08L127.841 44.4C128.161 44.92 128.321 45.48 128.321 46.08C128.321 46.6 128.101 47.06 127.661 47.46C127.221 47.82 126.661 48 125.981 48C124.781 48 123.821 47.76 123.101 47.28C122.421 46.8 121.761 46 121.121 44.88L112.121 29.58H111.881L102.461 44.76C101.661 46.08 100.941 46.96 100.301 47.4C99.7013 47.8 99.0613 48 98.3813 48C97.7813 48 97.3213 47.88 97.0013 47.64C96.7213 47.36 96.5813 47.04 96.5813 46.68C96.5813 46.12 96.8013 45.48 97.2413 44.76L109.241 26.04L98.9813 8.94C98.7013 8.5 98.5613 8.02 98.5613 7.5C98.5613 6.94 98.7813 6.46 99.2213 6.06C99.7013 5.66 100.261 5.46 100.901 5.46C102.861 5.46 104.421 6.52 105.581 8.64L113.081 21.96H113.441L121.121 8.64ZM174.352 16.4766V20.168H138.668V2.58984H143.238V16.4766H174.352ZM179.859 27.2578V31.0078H132.164V27.2578H179.859ZM174.645 47.6484V51.457H138.375V36.3398H142.945V47.6484H174.645ZM242.086 0.65625V52.8633H237.457V0.65625H242.086ZM214.371 4.69922C222.105 4.75781 227.672 11.7891 227.672 22.8633C227.672 33.9375 222.105 40.9688 214.371 40.9688C206.578 40.9688 201.07 33.9375 201.07 22.8633C201.07 11.7891 206.578 4.75781 214.371 4.69922ZM214.371 8.80078C209.156 8.85938 205.523 14.3672 205.523 22.8633C205.523 31.3594 209.156 36.8672 214.371 36.8672C219.586 36.8672 223.219 31.3594 223.219 22.8633C223.219 14.3672 219.586 8.85938 214.371 8.80078ZM294.176 0.65625V29.3086H289.547V14.7773H279.645V10.9688H289.547V0.65625H294.176ZM295.348 32.2969V35.8711H258.785V32.2969H274.84V27.2578H279.41V32.2969H295.348ZM277.066 38.0391C286.266 38.0391 291.715 40.5586 291.715 45.3047C291.715 50.1094 286.266 52.6289 277.066 52.6289C267.867 52.6289 262.418 50.1094 262.418 45.3047C262.418 40.5586 267.867 38.0391 277.066 38.0391ZM277.066 41.3203C270.621 41.3203 266.93 42.8438 266.93 45.3047C266.93 47.9414 270.621 49.3477 277.066 49.3477C283.512 49.3477 287.262 47.9414 287.262 45.3047C287.262 42.8438 283.512 41.3203 277.066 41.3203ZM276.305 3.11719V16.0078H257.789V22.2188C266.578 22.2188 272.994 22.0137 280.641 20.5781L281.051 24.2695C273.023 25.6172 266.344 25.9102 257.086 25.9102H253.16V12.6094H271.734V6.69141H253.043V3.11719H276.305ZM347.438 0.65625V52.7461H343.043V0.65625H347.438ZM336.48 2.0625V50.1094H332.086V25.793H321.07C317.877 31.8574 312.867 37.2188 305.602 41.4961L302.906 38.1562C314.244 31.4473 319.928 22.043 320.777 11.1445H305.133V7.33594H325.348C325.318 12.4629 324.498 17.4141 322.77 22.043H332.086V2.0625H336.48ZM387.223 14.6602C387.223 23.8594 393.316 33.293 400.699 36.9258L397.887 40.6172C392.145 37.5996 387.34 31.4473 385.055 24.2109C382.711 31.916 377.789 38.4785 371.93 41.6133L369 37.9219C376.617 34.1719 382.652 24.1523 382.711 14.6602V5.16797H387.223V14.6602ZM410.074 0.65625V21.8086H418.805V25.793H410.074V52.7461H405.504V0.65625H410.074ZM469.078 26.4375V30.2461H421.617V26.4375H433.395V19.1133C429.234 17.502 426.891 14.8359 426.891 11.3203C426.891 5.16797 433.922 1.65234 445.348 1.65234C456.656 1.65234 463.746 5.16797 463.746 11.3203C463.746 14.8066 461.432 17.4727 457.301 19.0547V26.4375H469.078ZM445.348 34.2305C456.539 34.2305 463.219 37.4531 463.277 43.4297C463.219 49.3477 456.539 52.6289 445.348 52.6289C434.039 52.6289 427.359 49.3477 427.359 43.4297C427.359 37.4531 434.039 34.2305 445.348 34.2305ZM445.348 37.7461C436.969 37.8047 431.988 39.8555 432.047 43.4297C431.988 46.9453 436.969 49.0547 445.348 49.0547C453.609 49.0547 458.648 46.9453 458.648 43.4297C458.648 39.8555 453.609 37.8047 445.348 37.7461ZM445.348 5.28516C436.852 5.28516 431.578 7.57031 431.637 11.3203C431.578 15.1289 436.852 17.3555 445.348 17.3555C453.785 17.3555 459.059 15.1289 459.059 11.3203C459.059 7.57031 453.785 5.28516 445.348 5.28516ZM437.965 26.4375H452.73V20.3438C450.533 20.7246 448.072 20.9297 445.348 20.9297C442.623 20.9297 440.162 20.7246 437.965 20.3438V26.4375ZM499.488 9.67969V13.4297H473.355V9.67969H484.195V2.23828H488.766V9.67969H499.488ZM486.422 16.9453C492.984 16.9453 497.672 21.8672 497.73 28.7812C497.672 35.7539 492.984 40.7344 486.422 40.7344C479.918 40.7344 475.23 35.7539 475.23 28.7812C475.23 21.8672 479.918 16.9453 486.422 16.9453ZM486.422 20.8125C482.32 20.8711 479.332 24.2109 479.332 28.7812C479.332 33.4102 482.32 36.75 486.422 36.6914C490.582 36.75 493.629 33.4102 493.629 28.7812C493.629 24.2109 490.582 20.8711 486.422 20.8125ZM517.828 0.65625V52.7461H513.434V26.4375H506.52V50.168H502.184V1.94531H506.52V22.6289H513.434V0.65625H517.828ZM573.023 42.2578V46.0664H525.328V42.2578H546.773V31.0078H530.953V4.34766H535.582V13.7812H562.652V4.34766H567.164V31.0078H551.285V42.2578H573.023ZM535.582 27.2578H562.652V17.5312H535.582V27.2578ZM592.652 15.4805C592.652 23.7422 596.695 32.707 603.609 36.8086L600.973 40.3828C595.963 37.3359 592.359 31.7695 590.543 25.4414C588.609 32.3555 584.742 38.3027 579.527 41.4961L576.598 38.0391C583.805 33.8203 588.199 24.5625 588.199 15.6562V5.57812H592.652V15.4805ZM621.832 0.65625V52.7461H617.379V0.65625H621.832ZM611.051 1.76953V50.1094H606.715V23.2734H597.867V19.3477H606.715V1.76953H611.051ZM676.734 42.1992V46.0664H629.039V42.1992H640.875V28.1367C636.422 25.8223 633.727 22.0723 633.727 17.3555C633.727 9.26953 641.637 3.99609 652.77 3.9375C663.902 3.99609 671.812 9.26953 671.812 17.3555C671.812 21.9844 669.205 25.7051 664.898 28.0195V42.1992H676.734ZM652.77 7.74609C644.215 7.6875 638.18 11.5547 638.18 17.3555C638.18 23.1562 644.215 27.082 652.77 27.082C661.266 27.082 667.359 23.1562 667.359 17.3555C667.359 11.5547 661.266 7.6875 652.77 7.74609ZM645.387 42.1992H660.27V29.7773C658.014 30.3926 655.494 30.7148 652.77 30.7148C650.104 30.7148 647.613 30.4219 645.387 29.8359V42.1992Z" fill="black"/>
</svg>
