<svg width="214" height="71" viewBox="0 0 214 71" fill="none" xmlns="http://www.w3.org/2000/svg">
<path d="M1.49012e-07 5.1C1.49012e-07 3.36666 0.366667 2.09999 1.1 1.3C1.9 0.499996 3.06667 0.0999949 4.6 0.0999949H18.9C42.3 0.0999949 54 11.8 54 35.2C54 43.9333 52.1667 51 48.5 56.4C44.9 61.7333 40.4667 65.5 35.2 67.7C30 69.9 24.7333 71 19.4 71H4.6C3.06667 71 1.9 70.6 1.1 69.8C0.366667 69 1.49012e-07 67.7333 1.49012e-07 66V5.1ZM10.8 65.7H13V65.6H17.7C25.1 65.6 31.1 63.1 35.7 58.1C40.3667 53.1 42.7 45.4667 42.7 35.2C42.7 24.8 40.4 17.2333 35.8 12.5C31.2667 7.76666 25.2333 5.4 17.7 5.4H10.8V65.7ZM102.836 58.4C103.503 57.6667 104.336 57.3 105.336 57.3C105.936 57.3 106.469 57.5 106.936 57.9C107.403 58.3 107.636 58.8 107.636 59.4C107.636 60.6 107.203 61.7333 106.336 62.8C101.936 68.2667 95.8026 71 87.9359 71C80.1359 71 74.2359 68.9 70.2359 64.7C66.3026 60.4333 64.3359 54.5667 64.3359 47.1C64.3359 38.5667 66.3359 32.0667 70.3359 27.6C74.3359 23.0667 80.1359 20.8 87.7359 20.8C93.8026 20.8 98.6693 22.5333 102.336 26C106.003 29.4667 107.836 34.4333 107.836 40.9C107.836 44.1667 105.936 45.8 102.136 45.8H75.2359C75.1693 46.3333 75.1359 47.0667 75.1359 48C75.1359 53.7333 76.2693 58.2667 78.5359 61.6C80.8026 64.9333 84.3026 66.6 89.0359 66.6C92.2359 66.6 94.7693 65.9333 96.6359 64.6C98.5026 63.2667 99.9359 62 100.936 60.8C101.936 59.5333 102.569 58.7333 102.836 58.4ZM87.1359 24.8C83.9359 24.8 81.3026 26.1667 79.2359 28.9C77.1693 31.6333 75.9359 35.8667 75.5359 41.6H94.2359C95.4359 41.6 96.3026 41.4 96.8359 41C97.3693 40.5333 97.6359 39.7667 97.6359 38.7C97.6359 34.2333 96.5693 30.8 94.4359 28.4C92.3693 26 89.9359 24.8 87.1359 24.8ZM154.828 20.8C155.761 20.8 156.528 21 157.128 21.4C157.728 21.7333 158.028 22.3 158.028 23.1C158.028 24.1667 157.861 25.0667 157.528 25.8L140.828 68.5C140.161 70.1667 138.228 71 135.028 71C133.761 71 132.628 70.8 131.628 70.4C130.695 70 130.061 69.3667 129.728 68.5L113.328 25.8C112.995 25.0667 112.828 24.3 112.828 23.5C112.828 21.7 114.061 20.8 116.528 20.8C118.261 20.8 119.861 21.3667 121.328 22.5C122.795 23.5667 123.928 25.2333 124.728 27.5L136.828 61.2H137.328L144.128 43.1C145.261 40.0333 146.228 37.2 147.028 34.6C147.828 31.9333 148.561 29.4 149.228 27C149.761 25 150.428 23.4667 151.228 22.4C152.028 21.3333 153.228 20.8 154.828 20.8ZM201.869 5.4C203.002 3.53333 204.035 2.2 204.969 1.4C205.969 0.533329 207.069 0.0999949 208.269 0.0999949C209.069 0.0999949 209.769 0.333329 210.369 0.799998C210.969 1.2 211.269 1.76666 211.269 2.49999C211.269 3.5 210.902 4.5 210.169 5.5L193.369 32.8L213.069 65C213.602 65.8667 213.869 66.8 213.869 67.8C213.869 68.6667 213.502 69.4333 212.769 70.1C212.035 70.7 211.102 71 209.969 71C207.969 71 206.369 70.6 205.169 69.8C204.035 69 202.935 67.6667 201.869 65.8L186.869 40.3H186.469L170.769 65.6C169.435 67.8 168.235 69.2667 167.169 70C166.169 70.6667 165.102 71 163.969 71C162.969 71 162.202 70.8 161.669 70.4C161.202 69.9333 160.969 69.4 160.969 68.8C160.969 67.8667 161.335 66.8 162.069 65.6L182.069 34.4L164.969 5.9C164.502 5.16666 164.269 4.36666 164.269 3.5C164.269 2.56667 164.635 1.76666 165.369 1.09999C166.169 0.433328 167.102 0.0999949 168.169 0.0999949C171.435 0.0999949 174.035 1.86666 175.969 5.4L188.469 27.6H189.069L201.869 5.4Z" fill="black"/>
</svg>
