<svg width="1200" height="641" viewBox="0 0 1200 641" fill="none" xmlns="http://www.w3.org/2000/svg">
<g clip-path="url(#clip0_44_106)">
<mask id="mask0_44_106" style="mask-type:luminance" maskUnits="userSpaceOnUse" x="0" y="0" width="1200" height="641">
<path d="M1200 0.125H0V640.125H1200V0.125Z" fill="white"/>
</mask>
<g mask="url(#mask0_44_106)">
<path d="M1200 0.125H0V640.125H1200V0.125Z" fill="#FCFCFC"/>
<path d="M1133.12 105.906H66.875C64.8902 105.906 63.2812 107.515 63.2812 109.5V500.75C63.2812 502.735 64.8902 504.344 66.875 504.344H1133.12C1135.11 504.344 1136.72 502.735 1136.72 500.75V109.5C1136.72 107.515 1135.11 105.906 1133.12 105.906Z" fill="white"/>
<path d="M1133.12 105.906H66.875C64.8902 105.906 63.2812 107.515 63.2812 109.5V500.75C63.2812 502.735 64.8902 504.344 66.875 504.344H1133.12C1135.11 504.344 1136.72 502.735 1136.72 500.75V109.5C1136.72 107.515 1135.11 105.906 1133.12 105.906Z" stroke="black" stroke-width="0.5"/>
<path d="M110.085 139.866V142.678H111.475V143.363H110.085V146.621H109.265V139.866H110.085ZM107.594 140.582C107.594 142.958 105.893 144.722 103.237 145.552L102.884 144.899C105.094 144.209 106.536 142.89 106.713 141.267H103.268V140.582H107.594ZM110.51 148.209V148.893H104.306V145.936H105.115V148.209H110.51ZM119.268 139.866V142.615H120.668V143.3H119.268V146.548H118.458V139.866H119.268ZM116.601 140.665V141.35H113.301V144.224C115.154 144.224 116.207 144.177 117.441 143.923L117.545 144.597C116.248 144.847 115.148 144.909 113.208 144.909H112.492V140.665H116.601ZM119.693 148.209V148.893H113.499V145.874H114.298V148.209H119.693ZM128.451 139.877V142.917H129.841V143.601H128.451V146.787H127.641V139.877H128.451ZM126.759 141.007V141.672H121.26V141.007H123.605V139.877H124.414V141.007H126.759ZM124.009 142.18C125.327 142.18 126.219 142.854 126.23 143.902C126.219 144.94 125.327 145.604 124.009 145.604C122.681 145.604 121.779 144.94 121.789 143.902C121.779 142.854 122.681 142.18 124.009 142.18ZM124.009 142.823C123.138 142.823 122.557 143.249 122.567 143.902C122.557 144.556 123.138 144.971 124.009 144.96C124.871 144.971 125.452 144.556 125.462 143.902C125.452 143.249 124.871 142.823 124.009 142.823ZM128.876 148.209V148.893H122.681V146.237H123.48V148.209H128.876ZM136.959 140.945V143.352H138.359V140.063H139.138V148.624H138.359V144.027H136.959V146.61H133.431V140.945H136.959ZM134.199 141.599V145.957H136.191V141.599H134.199ZM140.995 139.866V149.09H140.206V139.866H140.995ZM150.717 147.222V147.907H142.271V147.222H146.069V144.971H143.268V140.644H149.669V144.971H146.868V147.222H150.717ZM144.066 141.298V144.317H148.881V141.298H144.066ZM159.889 144.151V144.795H151.444V144.151H159.889ZM158.831 145.531V147.492H153.291V148.374H159.132V148.966H152.471V146.932H158.022V146.144H152.461V145.531H158.831ZM158.8 140.146V142.055H153.353V142.865H158.966V143.456H152.543V141.495H157.981V140.737H152.513V140.146H158.8ZM170.514 139.877V141.993H171.915V142.678H170.514V145.085H169.705V139.877H170.514ZM170.514 145.594V148.966H164.673V145.594H170.514ZM165.472 146.237V148.302H169.726V146.237H165.472ZM164.569 140.344V143.695C165.882 143.69 167.236 143.586 168.73 143.28L168.834 143.965C167.267 144.276 165.876 144.38 164.486 144.38H163.749V140.344H164.569ZM177.166 140.872C177.166 141.397 177.119 141.91 177.02 142.408H179.313V139.855H180.123V149.09H179.313V145.542H176.709V144.867H179.313V143.072H176.854C176.32 144.784 175.101 146.289 172.922 147.347L172.496 146.683C174.956 145.495 176.174 143.715 176.346 141.537H172.901V140.872H177.166ZM190.115 147.233V147.907H181.669V147.233H185.466V145.241H182.665V140.52H183.484V142.19H188.278V140.52H189.077V145.241H186.265V147.233H190.115ZM183.484 144.577H188.278V142.854H183.484V144.577ZM193.591 142.491C193.591 143.954 194.307 145.542 195.531 146.268L195.064 146.901C194.177 146.362 193.539 145.375 193.217 144.255C192.875 145.479 192.19 146.532 191.266 147.098L190.748 146.486C192.024 145.739 192.802 144.099 192.802 142.522V140.737H193.591V142.491ZM198.758 139.866V149.09H197.969V139.866H198.758ZM196.849 140.063V148.624H196.081V143.871H194.514V143.176H196.081V140.063H196.849ZM208.48 147.222V147.907H200.034V147.222H202.13V144.732C201.341 144.322 200.864 143.659 200.864 142.823C200.864 141.391 202.265 140.457 204.236 140.447C206.208 140.457 207.609 141.391 207.609 142.823C207.609 143.643 207.147 144.302 206.384 144.712V147.222H208.48ZM204.236 141.122C202.721 141.111 201.653 141.796 201.653 142.823C201.653 143.85 202.721 144.545 204.236 144.545C205.741 144.545 206.82 143.85 206.82 142.823C206.82 141.796 205.741 141.111 204.236 141.122ZM202.929 147.222H205.564V145.023C205.165 145.132 204.719 145.189 204.236 145.189C203.764 145.189 203.323 145.137 202.929 145.034V147.222Z" fill="#ACACAC"/>
<path d="M849.375 571.531H758.125C741.643 571.531 728.281 584.893 728.281 601.375C728.281 617.857 741.643 631.219 758.125 631.219H849.375C865.857 631.219 879.219 617.857 879.219 601.375C879.219 584.893 865.857 571.531 849.375 571.531Z" fill="white"/>
<path d="M849.375 571.531H758.125C741.643 571.531 728.281 584.893 728.281 601.375C728.281 617.857 741.643 631.219 758.125 631.219H849.375C865.857 631.219 879.219 617.857 879.219 601.375C879.219 584.893 865.857 571.531 849.375 571.531Z" stroke="black" stroke-width="0.5"/>
<path d="M782.575 590.491V599.736H781.769V594.6H779.556V597.402H775.3V591.217H776.125V593.625H778.756V591.217H779.556V593.926H781.769V590.491H782.575ZM776.125 596.727H778.756V594.279H776.125V596.727ZM792.519 595.607V596.271H784.1V595.607H792.519ZM791.637 598.834V599.518H785.2V596.945H786.012V598.834H791.637ZM791.519 594.092V594.735H785.225V590.844H791.469V591.497H786.044V592.462H791.219V593.096H786.044V594.092H791.519ZM797.5 590.657C799.55 590.657 800.756 591.217 800.756 592.245C800.756 593.292 799.55 593.853 797.5 593.863C795.444 593.853 794.231 593.292 794.231 592.245C794.231 591.217 795.444 590.657 797.5 590.657ZM797.5 591.269C795.962 591.269 795.069 591.643 795.081 592.245C795.069 592.888 795.962 593.241 797.5 593.241C799.025 593.241 799.925 592.888 799.925 592.245C799.925 591.643 799.025 591.269 797.5 591.269ZM801.7 594.486V595.15H793.294V594.486H801.7ZM800.619 595.949V598.014H795.144V598.968H800.9V599.612H794.331V597.412H799.819V596.571H794.312V595.949H800.619ZM812.594 593.604V594.279H806.231V590.969H807.044V593.604H812.594ZM813.587 595.669V596.354H809.731V599.716H808.919V596.354H805.144V595.669H813.587ZM822.775 597.869V598.553H814.325V597.869H822.775ZM821.706 591.197V593.988H816.194V595.502H821.925V596.156H815.387V593.324H820.906V591.871H815.362V591.197H821.706ZM828.181 591.301V592.12H830.337V590.502H831.156V597.236H830.337V594.776H828.181V595.607H823.944V591.301H828.181ZM824.756 591.975V594.953H827.381V591.975H824.756ZM831.362 598.834V599.518H825.194V596.634H826.012V598.834H831.362ZM828.181 594.102H830.337V592.805H828.181V594.102ZM753.175 604.07V606.477H754.575V603.188H755.356V611.749H754.575V607.152H753.175V609.736H749.65V604.07H753.175ZM750.419 604.724V609.082H752.406V604.724H750.419ZM757.212 602.991V612.216H756.425V602.991H757.212ZM766.937 610.347V611.032H758.487V610.347H762.287V608.096H759.487V603.769H765.887V608.096H763.087V610.347H766.937ZM760.281 604.423V607.442H765.1V604.423H760.281ZM774.812 602.991V606.747H776.306V607.432H774.812V612.216H774V602.991H774.812ZM772.425 603.987C772.425 606.602 771.2 608.978 768.187 610.462L767.731 609.819C770.119 608.631 771.419 606.856 771.606 604.672H768.156V603.987H772.425ZM782.644 604.703C782.644 605.927 783.544 607.048 784.919 607.526L784.5 608.159C783.45 607.785 782.644 607.027 782.25 606.073C781.856 607.121 781.012 607.936 779.925 608.335L779.487 607.702C780.869 607.214 781.837 606.021 781.844 604.703V604.309H779.737V603.645H784.719V604.309H782.644V604.703ZM786.731 602.991V605.429H788.125V606.125H786.731V608.552H785.925V602.991H786.731ZM786.731 609.041V612.216H785.925V609.704H780.694V609.041H786.731ZM791.881 604.444C791.869 605.762 792.8 606.924 794.162 607.38L793.706 608.013C792.687 607.629 791.887 606.882 791.494 605.907C791.094 607.012 790.25 607.873 789.137 608.293L788.694 607.629C790.112 607.131 791.056 605.907 791.069 604.475V603.521H791.881V604.444ZM796.35 602.991V608.459H795.531V605.647H793.475V604.973H795.531V602.991H796.35ZM793.287 608.729C795.206 608.729 796.381 609.362 796.381 610.472C796.381 611.572 795.206 612.195 793.287 612.195C791.369 612.195 790.2 611.572 790.2 610.472C790.2 609.362 791.369 608.729 793.287 608.729ZM793.287 609.372C791.881 609.372 790.994 609.787 791.006 610.472C790.994 611.136 791.881 611.541 793.287 611.541C794.7 611.541 795.575 611.136 795.575 610.472C795.575 609.787 794.7 609.372 793.287 609.372ZM800.7 603.427C802.05 603.427 802.994 604.153 802.994 605.253C802.994 606.202 802.244 606.892 801.131 607.027V607.93C801.994 607.894 802.875 607.816 803.675 607.691L803.737 608.304C801.787 608.656 799.575 608.677 797.981 608.677L797.875 608.002C798.594 608.008 799.431 608.002 800.312 607.972V607.038C799.175 606.913 798.406 606.218 798.412 605.253C798.406 604.153 799.35 603.427 800.7 603.427ZM800.7 604.06C799.806 604.06 799.175 604.537 799.181 605.253C799.175 605.948 799.806 606.426 800.7 606.436C801.6 606.426 802.212 605.948 802.225 605.253C802.212 604.537 801.6 604.06 800.7 604.06ZM805.087 603.002V606.125H806.469V606.82H805.087V610.057H804.269V603.002H805.087ZM805.419 611.323V612.008H799.225V609.445H800.044V611.323H805.419ZM815.512 610.389V611.074H807.069V610.389H809.444V608.636H808.125V605.792H813.65V604.351H808.106V603.676H814.444V606.467H808.937V607.961H814.662V608.636H813.225V610.389H815.512ZM810.244 610.389H812.425V608.636H810.244V610.389ZM826.562 602.991V612.236H825.744V607.38H823.725V606.706H825.744V602.991H826.562ZM822.106 606C822.106 607.526 823.144 609.019 824.512 609.632L824.044 610.265C822.994 609.782 822.125 608.776 821.719 607.557C821.312 608.843 820.456 609.922 819.406 610.431L818.937 609.798C820.287 609.165 821.306 607.587 821.306 606V605.264H819.187V604.599H821.306V603.167H822.112V604.599H824.2V605.264H822.106V606ZM835.719 602.991V612.236H834.906V602.991H835.719ZM832.919 603.852V607.131H829.469V609.31C831 609.31 832.369 609.242 834.012 608.978L834.1 609.663C832.394 609.932 830.994 609.995 829.406 609.995H828.644V606.467H832.094V604.527H828.619V603.852H832.919ZM839.837 609.528C840.425 609.528 841.169 609.523 841.944 609.497V607.65H840.337V603.936H844.256V604.61H841.131V606.976H844.337V607.65H842.731V609.466C843.412 609.435 844.087 609.388 844.669 609.321L844.712 609.912C843.187 610.171 841.219 610.213 839.962 610.213L839.837 609.528ZM847.794 602.991V612.216H847.006V607.505H845.856V611.727H845.1V603.199H845.856V606.841H847.006V602.991H847.794ZM857.581 610.347V611.032H849.131V610.347H851.231V607.857C850.444 607.447 849.962 606.784 849.962 605.948C849.962 604.516 851.362 603.582 853.337 603.572C855.306 603.582 856.706 604.516 856.706 605.948C856.706 606.768 856.244 607.427 855.481 607.837V610.347H857.581ZM853.337 604.247C851.819 604.236 850.75 604.921 850.75 605.948C850.75 606.976 851.819 607.671 853.337 607.671C854.837 607.671 855.919 606.976 855.919 605.948C855.919 604.921 854.837 604.236 853.337 604.247ZM852.031 610.347H854.662V608.148C854.262 608.257 853.819 608.314 853.337 608.314C852.862 608.314 852.425 608.262 852.031 608.159V610.347Z" fill="black"/>
<path d="M711.962 576.247L730.712 589.372" stroke="black" stroke-width="0.5"/>
<g filter="url(#filter0_d_44_106)">
<path d="M1200 0.125H0V43.875H1200V0.125Z" fill="white"/>
<path d="M45.9375 17.3281C45.9375 17.0573 45.9948 16.8594 46.1094 16.7344C46.2344 16.6094 46.4167 16.5469 46.6563 16.5469H48.8906C52.5469 16.5469 54.375 18.375 54.375 22.0312C54.375 23.3958 54.0886 24.5 53.5156 25.3437C52.9531 26.1771 52.2604 26.7656 51.4375 27.1094C50.625 27.4531 49.8021 27.625 48.9687 27.625H46.6563C46.4167 27.625 46.2344 27.5625 46.1094 27.4375C45.9948 27.3125 45.9375 27.1146 45.9375 26.8438V17.3281ZM47.625 26.7969H47.9688V26.7813H48.7031C49.8594 26.7813 50.7969 26.3906 51.5156 25.6094C52.2448 24.8281 52.6094 23.6354 52.6094 22.0312C52.6094 20.4062 52.25 19.2239 51.5312 18.4844C50.8229 17.7448 49.8802 17.375 48.7031 17.375H47.625V26.7969ZM62.0056 25.6562C62.1098 25.5417 62.24 25.4844 62.3962 25.4844C62.49 25.4844 62.5731 25.5156 62.6463 25.5781C62.7194 25.6406 62.7556 25.7187 62.7556 25.8125C62.7556 26 62.6881 26.1771 62.5525 26.3438C61.865 27.1979 60.9067 27.625 59.6775 27.625C58.4588 27.625 57.5369 27.2969 56.9119 26.6406C56.2973 25.9739 55.99 25.0573 55.99 23.8906C55.99 22.5573 56.3025 21.5417 56.9275 20.8438C57.5525 20.1354 58.4587 19.7813 59.6462 19.7813C60.5942 19.7813 61.3546 20.0521 61.9275 20.5938C62.5006 21.1354 62.7869 21.9114 62.7869 22.9219C62.7869 23.4323 62.49 23.6875 61.8962 23.6875H57.6931C57.6827 23.7708 57.6775 23.8854 57.6775 24.0312C57.6775 24.9271 57.8546 25.6354 58.2088 26.1563C58.5629 26.6771 59.1098 26.9375 59.8494 26.9375C60.3494 26.9375 60.7452 26.8333 61.0369 26.625C61.3286 26.4167 61.5525 26.2188 61.7088 26.0313C61.865 25.8333 61.9639 25.7083 62.0056 25.6562ZM59.5525 20.4063C59.0525 20.4063 58.6411 20.6198 58.3181 21.0469C57.9952 21.4739 57.8025 22.1354 57.74 23.0313H60.6619C60.8494 23.0313 60.9848 23 61.0681 22.9375C61.1514 22.8646 61.1931 22.7448 61.1931 22.5781C61.1931 21.8802 61.0264 21.3437 60.6931 20.9687C60.3702 20.5937 59.99 20.4063 59.5525 20.4063ZM70.1294 19.7813C70.275 19.7813 70.395 19.8125 70.4887 19.875C70.5825 19.9271 70.6294 20.0156 70.6294 20.1406C70.6294 20.3073 70.6031 20.4479 70.5513 20.5625L67.9419 27.2344C67.8375 27.4948 67.5356 27.625 67.0356 27.625C66.8375 27.625 66.6606 27.5937 66.5044 27.5312C66.3587 27.4687 66.2594 27.3698 66.2075 27.2344L63.645 20.5625C63.5931 20.4479 63.5669 20.3281 63.5669 20.2031C63.5669 19.9219 63.7594 19.7813 64.145 19.7813C64.4156 19.7813 64.6656 19.8698 64.895 20.0469C65.1244 20.2136 65.3012 20.4739 65.4263 20.8281L67.3169 26.0938H67.395L68.4575 23.2656C68.6344 22.7864 68.7856 22.3438 68.9106 21.9375C69.0356 21.5208 69.15 21.125 69.2544 20.75C69.3375 20.4375 69.4419 20.1979 69.5669 20.0313C69.6919 19.8646 69.8794 19.7813 70.1294 19.7813ZM77.4794 17.375C77.6569 17.0833 77.8181 16.875 77.9637 16.75C78.12 16.6146 78.2919 16.5469 78.4794 16.5469C78.6044 16.5469 78.7138 16.5833 78.8075 16.6563C78.9013 16.7188 78.9481 16.8073 78.9481 16.9219C78.9481 17.0781 78.8913 17.2344 78.7762 17.3906L76.1513 21.6563L79.2294 26.6875C79.3131 26.8229 79.3544 26.9688 79.3544 27.125C79.3544 27.2604 79.2975 27.3802 79.1825 27.4844C79.0681 27.5781 78.9225 27.625 78.745 27.625C78.4325 27.625 78.1825 27.5625 77.995 27.4375C77.8181 27.3125 77.6463 27.1042 77.4794 26.8125L75.1356 22.8281H75.0731L72.62 26.7813C72.4119 27.125 72.2244 27.3542 72.0575 27.4688C71.9012 27.5729 71.735 27.625 71.5575 27.625C71.4012 27.625 71.2819 27.5937 71.1981 27.5312C71.1256 27.4583 71.0887 27.375 71.0887 27.2813C71.0887 27.1354 71.1462 26.9688 71.2606 26.7813L74.3856 21.9062L71.7137 17.4531C71.6412 17.3386 71.6044 17.2136 71.6044 17.0781C71.6044 16.9323 71.6619 16.8073 71.7763 16.7031C71.9013 16.5989 72.0475 16.5469 72.2137 16.5469C72.7244 16.5469 73.1306 16.8229 73.4325 17.375L75.3856 20.8438H75.4794L77.4794 17.375Z" fill="black"/>
<path d="M1059.43 18.7139V25.7677H1058.83V22.0781H1057.84V25.4186H1057.25V18.9043H1057.84V21.5624H1058.83V18.7139H1059.43ZM1056.45 19.6342C1056.44 21.4275 1055.81 23.1255 1053.78 24.2522L1053.42 23.8158C1055.06 22.9033 1055.74 21.61 1055.84 20.15H1053.69V19.6342H1056.45ZM1061.34 19.0154V20.031H1063.4V19.0154H1064.02V22.0861H1060.73V19.0154H1061.34ZM1061.34 21.5782H1063.4V20.515H1061.34V21.5782ZM1065.95 18.7139V20.2452H1067.01V20.7689H1065.95V22.3637H1065.33V18.7139H1065.95ZM1065.95 22.697V24.4029H1062.08V25.1806H1066.21V25.6884H1061.46V23.9269H1065.33V23.1969H1061.45V22.697H1065.95ZM1069.46 18.9757C1070.51 18.9836 1071.28 19.6184 1071.28 20.5388C1071.28 21.4592 1070.51 22.094 1069.46 22.094C1068.38 22.094 1067.62 21.4592 1067.62 20.5388C1067.62 19.6184 1068.38 18.9836 1069.46 18.9757ZM1069.46 19.4994C1068.75 19.4994 1068.23 19.9279 1068.23 20.5388C1068.23 21.1577 1068.75 21.5862 1069.46 21.5862C1070.15 21.5862 1070.68 21.1577 1070.68 20.5388C1070.68 19.9279 1070.15 19.4994 1069.46 19.4994ZM1073.28 18.7139V22.3399H1072.66V18.7139H1073.28ZM1073.28 22.6811V24.3791H1069.32V25.1726H1073.53V25.6725H1068.71V23.911H1072.66V23.181H1068.69V22.6811H1073.28ZM1077 20.88C1077 22.0781 1077.88 23.2921 1078.91 23.7444L1078.56 24.2363C1077.74 23.8594 1077.03 23.0461 1076.7 22.0702C1076.36 23.1056 1075.66 24.0062 1074.85 24.4109L1074.48 23.9189C1075.49 23.4349 1076.36 22.1019 1076.38 20.88V19.9596H1074.71V19.4439H1078.68V19.9596H1077V20.88ZM1080.29 18.7139V25.7677H1079.67V18.7139H1080.29Z" fill="black"/>
<path d="M1144.54 19.3802V21.2607H1145.26V18.7375H1146.22V25.5215H1145.26V22.07H1144.54V24.0377H1141.67V19.3802H1144.54ZM1142.61 20.1815V23.2443H1143.6V20.1815H1142.61ZM1147.73 18.6343V25.8548H1146.76V18.6343H1147.73ZM1155.09 24.1806V25.0137H1148.49V24.1806H1151.27V22.7047H1149.19V19.1659H1154.36V22.7047H1152.28V24.1806H1155.09ZM1150.18 19.9752V21.9113H1153.36V19.9752H1150.18Z" fill="#9038FF"/>
</g>
<path d="M69.4407 70.0367V72.9298H70.552V69.0479H72.017V79.4854H70.552V74.1748H69.4407V77.2023H65.022V70.0367H69.4407ZM66.4745 71.2698V75.9817H67.9882V71.2698H66.4745ZM74.3363 68.8892V79.9979H72.847V68.8892H74.3363ZM85.6763 77.4223V78.7042H75.5076V77.4223H79.7926V75.1517H76.582V69.7073H84.5413V75.1517H81.3426V77.4223H85.6763ZM78.1201 70.9523V73.931H83.0032V70.9523H78.1201ZM95.5032 69.5367V70.7817H93.2938C93.3057 72.0817 94.0751 73.4123 95.8813 73.9923L95.0882 75.2004C93.8551 74.8035 93.007 74.0104 92.5245 73.0154C92.0301 74.1017 91.1451 74.9623 89.8513 75.3835L89.0213 74.1873C90.8582 73.5954 91.6945 72.1729 91.7188 70.7817H89.4482V69.5367H95.5032ZM98.0057 68.8892V71.5873H99.507V72.881H98.0057V75.591H96.4432V68.8892H98.0057ZM98.0057 76.0673V79.9979H96.4432V77.2998H90.5226V76.0673H98.0057ZM104.194 70.4029C104.182 71.8923 104.951 73.2598 106.733 73.8092L105.916 75.0298C104.719 74.6148 103.908 73.8454 103.45 72.8448C102.949 74.0042 102.052 74.9198 100.716 75.3717L99.8976 74.126C101.802 73.516 102.608 72.0267 102.619 70.476V69.4629H104.194V70.4029ZM109.358 68.8892V75.396H107.808V72.1973H105.72V70.9279H107.808V68.8892H109.358ZM105.561 75.6885C107.93 75.6885 109.383 76.4823 109.394 77.8492C109.383 79.2167 107.93 79.9979 105.561 79.9979C103.193 79.9979 101.741 79.2167 101.741 77.8492C101.741 76.4823 103.193 75.6885 105.561 75.6885ZM105.561 76.8973C104.084 76.8973 103.291 77.2148 103.291 77.8492C103.291 78.4598 104.084 78.7892 105.561 78.7892C107.039 78.7892 107.844 78.4598 107.844 77.8492C107.844 77.2148 107.039 76.8973 105.561 76.8973ZM119.563 68.8892V73.2354H121.199V74.5167H119.563V79.9979H118.025V68.8892H119.563ZM117.268 70.5498V71.7948H110.738V70.5498H113.252V69.0604H114.814V70.5498H117.268ZM114.033 72.4173C115.657 72.4173 116.865 73.516 116.865 75.066C116.865 76.6167 115.657 77.7154 114.033 77.7154C112.398 77.7154 111.189 76.6167 111.189 75.066C111.189 73.516 112.398 72.4173 114.033 72.4173ZM114.033 73.6748C113.252 73.6867 112.678 74.2117 112.678 75.066C112.678 75.9329 113.252 76.4454 114.033 76.4335C114.814 76.4454 115.376 75.9329 115.376 75.066C115.376 74.2117 114.814 73.6867 114.033 73.6748ZM130.94 68.8892V79.9979H129.365V68.8892H130.94ZM127.608 70.0492C127.608 73.4185 126.423 76.2135 122.456 78.0935L121.638 76.8485C124.507 75.4935 125.77 73.7354 126.021 71.2698H122.236V70.0492H127.608Z" fill="#9038FF"/>
<g filter="url(#filter1_d_44_106)">
<path d="M681.875 553.25H517.5C507.145 553.25 498.75 561.645 498.75 572C498.75 582.355 507.145 590.75 517.5 590.75H681.875C692.23 590.75 700.625 582.355 700.625 572C700.625 561.645 692.23 553.25 681.875 553.25Z" fill="#9038FF"/>
<path d="M583.702 568.686C583.702 569.982 584.658 571.169 586.108 571.674L585.669 572.344C584.554 571.949 583.702 571.147 583.285 570.136C582.867 571.246 581.972 572.108 580.824 572.531L580.362 571.861C581.824 571.344 582.845 570.081 582.856 568.686V568.268H580.626V567.565H585.899V568.268H583.702V568.686ZM588.031 566.873V569.455H589.503V570.191H588.031V572.762H587.174V566.873H588.031ZM588.031 573.278V576.64H587.174V573.981H581.637V573.278H588.031ZM593.48 568.411C593.469 569.806 594.458 571.037 595.897 571.52L595.414 572.191C594.337 571.784 593.491 570.993 593.074 569.96C592.65 571.13 591.755 572.042 590.58 572.487L590.107 571.784C591.612 571.257 592.612 569.96 592.623 568.444V567.433H593.48V568.411ZM598.215 566.873V572.663H597.347V569.686H595.172V568.971H597.347V566.873H598.215ZM594.974 572.949C597.007 572.949 598.248 573.619 598.248 574.794C598.248 575.959 597.007 576.618 594.974 576.618C592.942 576.618 591.7 575.959 591.7 574.794C591.7 573.619 592.942 572.949 594.974 572.949ZM594.974 573.629C593.48 573.629 592.546 574.069 592.557 574.794C592.546 575.497 593.48 575.926 594.974 575.926C596.469 575.926 597.391 575.497 597.391 574.794C597.391 574.069 596.469 573.629 594.974 573.629ZM602.819 567.334C604.247 567.334 605.247 568.104 605.247 569.268C605.247 570.273 604.455 571.004 603.28 571.147V572.102C604.192 572.064 605.12 571.982 605.972 571.85L606.037 572.498C603.972 572.872 601.632 572.894 599.94 572.894L599.83 572.179C600.588 572.185 601.478 572.179 602.412 572.146V571.157C601.204 571.026 600.39 570.29 600.402 569.268C600.39 568.104 601.39 567.334 602.819 567.334ZM602.819 568.004C601.874 568.004 601.204 568.51 601.214 569.268C601.204 570.004 601.874 570.509 602.819 570.521C603.774 570.509 604.422 570.004 604.434 569.268C604.422 568.51 603.774 568.004 602.819 568.004ZM607.465 566.884V570.191H608.927V570.927H607.465V574.355H606.598V566.884H607.465ZM607.817 575.695V576.42H601.259V573.706H602.126V575.695H607.817ZM618.507 574.706V575.431H609.564V574.706H612.08V572.849H610.685V569.839H616.529V568.312H610.663V567.598H617.375V570.554H611.542V572.136H617.606V572.849H616.079V574.706H618.507ZM612.926 574.706H615.233V572.849H612.926V574.706Z" fill="white"/>
</g>
<g filter="url(#filter2_d_44_106)">
<path d="M682.5 542.938H517.5C501.449 542.938 488.438 555.949 488.438 572C488.438 588.051 501.449 601.062 517.5 601.062H682.5C698.551 601.062 711.562 588.051 711.562 572C711.562 555.949 698.551 542.938 682.5 542.938Z" stroke="#FF0000" stroke-dasharray="12 2"/>
</g>
</g>
</g>
<rect x="0.15" y="0.275" width="1199.7" height="639.7" stroke="black" stroke-width="0.3"/>
<defs>
<filter id="filter0_d_44_106" x="-8" y="-7.875" width="1216" height="59.75" filterUnits="userSpaceOnUse" color-interpolation-filters="sRGB">
<feFlood flood-opacity="0" result="BackgroundImageFix"/>
<feColorMatrix in="SourceAlpha" type="matrix" values="0 0 0 0 0 0 0 0 0 0 0 0 0 0 0 0 0 0 127 0" result="hardAlpha"/>
<feOffset/>
<feGaussianBlur stdDeviation="4"/>
<feComposite in2="hardAlpha" operator="out"/>
<feColorMatrix type="matrix" values="0 0 0 0 0.891667 0 0 0 0 0.891667 0 0 0 0 0.891667 0 0 0 1 0"/>
<feBlend mode="normal" in2="BackgroundImageFix" result="effect1_dropShadow_44_106"/>
<feBlend mode="normal" in="SourceGraphic" in2="effect1_dropShadow_44_106" result="shape"/>
</filter>
<filter id="filter1_d_44_106" x="494.75" y="553.25" width="209.875" height="45.5" filterUnits="userSpaceOnUse" color-interpolation-filters="sRGB">
<feFlood flood-opacity="0" result="BackgroundImageFix"/>
<feColorMatrix in="SourceAlpha" type="matrix" values="0 0 0 0 0 0 0 0 0 0 0 0 0 0 0 0 0 0 127 0" result="hardAlpha"/>
<feOffset dy="4"/>
<feGaussianBlur stdDeviation="2"/>
<feComposite in2="hardAlpha" operator="out"/>
<feColorMatrix type="matrix" values="0 0 0 0 0 0 0 0 0 0 0 0 0 0 0 0 0 0 0.25 0"/>
<feBlend mode="normal" in2="BackgroundImageFix" result="effect1_dropShadow_44_106"/>
<feBlend mode="normal" in="SourceGraphic" in2="effect1_dropShadow_44_106" result="shape"/>
</filter>
<filter id="filter2_d_44_106" x="483.938" y="542.438" width="232.125" height="67.125" filterUnits="userSpaceOnUse" color-interpolation-filters="sRGB">
<feFlood flood-opacity="0" result="BackgroundImageFix"/>
<feColorMatrix in="SourceAlpha" type="matrix" values="0 0 0 0 0 0 0 0 0 0 0 0 0 0 0 0 0 0 127 0" result="hardAlpha"/>
<feOffset dy="4"/>
<feGaussianBlur stdDeviation="2"/>
<feComposite in2="hardAlpha" operator="out"/>
<feColorMatrix type="matrix" values="0 0 0 0 0 0 0 0 0 0 0 0 0 0 0 0 0 0 0.25 0"/>
<feBlend mode="normal" in2="BackgroundImageFix" result="effect1_dropShadow_44_106"/>
<feBlend mode="normal" in="SourceGraphic" in2="effect1_dropShadow_44_106" result="shape"/>
</filter>
<clipPath id="clip0_44_106">
<rect y="0.125" width="1200" height="640" fill="white"/>
</clipPath>
</defs>
</svg>
