<svg width="200" height="200" viewBox="0 0 200 200" fill="none" xmlns="http://www.w3.org/2000/svg">
<path d="M41.6667 158.333V41.6667H100V100H158.333V108.333C164.167 108.333 169.75 109.417 175 111.25V75L125 25H41.6667C32.4167 25 25 32.4167 25 41.6667V158.333C25 162.754 26.7559 166.993 29.8816 170.118C33.0072 173.244 37.2464 175 41.6667 175H111.25C109.417 169.75 108.333 164.167 108.333 158.333H41.6667ZM116.667 37.5L162.5 83.3333H116.667V37.5ZM191.667 150V166.667H166.667V191.667H150V166.667H125V150H150V125H166.667V150H191.667Z" fill="black"/>
</svg>
