<svg width="1200" height="641" viewBox="0 0 1200 641" fill="none" xmlns="http://www.w3.org/2000/svg">
<g clip-path="url(#clip0_44_73)">
<mask id="mask0_44_73" style="mask-type:luminance" maskUnits="userSpaceOnUse" x="0" y="0" width="1200" height="641">
<path d="M1200 0.125H0V640.125H1200V0.125Z" fill="white"/>
</mask>
<g mask="url(#mask0_44_73)">
<path d="M1200 0.125H0V640.125H1200V0.125Z" fill="#FCFCFC"/>
<g filter="url(#filter0_d_44_73)">
<path d="M1200 0.125H0V43.875H1200V0.125Z" fill="white"/>
<path d="M45.9375 17.3281C45.9375 17.0573 45.9948 16.8594 46.1094 16.7344C46.2344 16.6094 46.4167 16.5469 46.6563 16.5469H48.8906C52.5469 16.5469 54.375 18.375 54.375 22.0312C54.375 23.3958 54.0886 24.5 53.5156 25.3437C52.9531 26.1771 52.2604 26.7656 51.4375 27.1094C50.625 27.4531 49.8021 27.625 48.9687 27.625H46.6563C46.4167 27.625 46.2344 27.5625 46.1094 27.4375C45.9948 27.3125 45.9375 27.1146 45.9375 26.8438V17.3281ZM47.625 26.7969H47.9688V26.7813H48.7031C49.8594 26.7813 50.7969 26.3906 51.5156 25.6094C52.2448 24.8281 52.6094 23.6354 52.6094 22.0312C52.6094 20.4062 52.25 19.2239 51.5312 18.4844C50.8229 17.7448 49.8802 17.375 48.7031 17.375H47.625V26.7969ZM62.0056 25.6562C62.1098 25.5417 62.24 25.4844 62.3962 25.4844C62.49 25.4844 62.5731 25.5156 62.6463 25.5781C62.7194 25.6406 62.7556 25.7187 62.7556 25.8125C62.7556 26 62.6881 26.1771 62.5525 26.3438C61.865 27.1979 60.9067 27.625 59.6775 27.625C58.4588 27.625 57.5369 27.2969 56.9119 26.6406C56.2973 25.9739 55.99 25.0573 55.99 23.8906C55.99 22.5573 56.3025 21.5417 56.9275 20.8438C57.5525 20.1354 58.4587 19.7813 59.6462 19.7813C60.5942 19.7813 61.3546 20.0521 61.9275 20.5938C62.5006 21.1354 62.7869 21.9114 62.7869 22.9219C62.7869 23.4323 62.49 23.6875 61.8962 23.6875H57.6931C57.6827 23.7708 57.6775 23.8854 57.6775 24.0312C57.6775 24.9271 57.8546 25.6354 58.2088 26.1563C58.5629 26.6771 59.1098 26.9375 59.8494 26.9375C60.3494 26.9375 60.7452 26.8333 61.0369 26.625C61.3286 26.4167 61.5525 26.2188 61.7088 26.0313C61.865 25.8333 61.9639 25.7083 62.0056 25.6562ZM59.5525 20.4063C59.0525 20.4063 58.6411 20.6198 58.3181 21.0469C57.9952 21.4739 57.8025 22.1354 57.74 23.0313H60.6619C60.8494 23.0313 60.9848 23 61.0681 22.9375C61.1514 22.8646 61.1931 22.7448 61.1931 22.5781C61.1931 21.8802 61.0264 21.3437 60.6931 20.9687C60.3702 20.5937 59.99 20.4063 59.5525 20.4063ZM70.1294 19.7813C70.275 19.7813 70.395 19.8125 70.4887 19.875C70.5825 19.9271 70.6294 20.0156 70.6294 20.1406C70.6294 20.3073 70.6031 20.4479 70.5513 20.5625L67.9419 27.2344C67.8375 27.4948 67.5356 27.625 67.0356 27.625C66.8375 27.625 66.6606 27.5937 66.5044 27.5312C66.3587 27.4687 66.2594 27.3698 66.2075 27.2344L63.645 20.5625C63.5931 20.4479 63.5669 20.3281 63.5669 20.2031C63.5669 19.9219 63.7594 19.7813 64.145 19.7813C64.4156 19.7813 64.6656 19.8698 64.895 20.0469C65.1244 20.2136 65.3012 20.4739 65.4263 20.8281L67.3169 26.0938H67.395L68.4575 23.2656C68.6344 22.7864 68.7856 22.3438 68.9106 21.9375C69.0356 21.5208 69.15 21.125 69.2544 20.75C69.3375 20.4375 69.4419 20.1979 69.5669 20.0313C69.6919 19.8646 69.8794 19.7813 70.1294 19.7813ZM77.4794 17.375C77.6569 17.0833 77.8181 16.875 77.9637 16.75C78.12 16.6146 78.2919 16.5469 78.4794 16.5469C78.6044 16.5469 78.7138 16.5833 78.8075 16.6563C78.9013 16.7188 78.9481 16.8073 78.9481 16.9219C78.9481 17.0781 78.8913 17.2344 78.7762 17.3906L76.1513 21.6563L79.2294 26.6875C79.3131 26.8229 79.3544 26.9688 79.3544 27.125C79.3544 27.2604 79.2975 27.3802 79.1825 27.4844C79.0681 27.5781 78.9225 27.625 78.745 27.625C78.4325 27.625 78.1825 27.5625 77.995 27.4375C77.8181 27.3125 77.6463 27.1042 77.4794 26.8125L75.1356 22.8281H75.0731L72.62 26.7813C72.4119 27.125 72.2244 27.3542 72.0575 27.4688C71.9012 27.5729 71.735 27.625 71.5575 27.625C71.4012 27.625 71.2819 27.5937 71.1981 27.5312C71.1256 27.4583 71.0887 27.375 71.0887 27.2813C71.0887 27.1354 71.1462 26.9688 71.2606 26.7813L74.3856 21.9062L71.7137 17.4531C71.6412 17.3386 71.6044 17.2136 71.6044 17.0781C71.6044 16.9323 71.6619 16.8073 71.7763 16.7031C71.9013 16.5989 72.0475 16.5469 72.2137 16.5469C72.7244 16.5469 73.1306 16.8229 73.4325 17.375L75.3856 20.8438H75.4794L77.4794 17.375Z" fill="black"/>
<path d="M1059.43 18.7139V25.7677H1058.83V22.0781H1057.84V25.4186H1057.25V18.9043H1057.84V21.5624H1058.83V18.7139H1059.43ZM1056.45 19.6342C1056.44 21.4275 1055.81 23.1255 1053.78 24.2522L1053.42 23.8158C1055.06 22.9033 1055.74 21.61 1055.84 20.15H1053.69V19.6342H1056.45ZM1061.34 19.0154V20.031H1063.4V19.0154H1064.02V22.0861H1060.73V19.0154H1061.34ZM1061.34 21.5782H1063.4V20.515H1061.34V21.5782ZM1065.95 18.7139V20.2452H1067.01V20.7689H1065.95V22.3637H1065.33V18.7139H1065.95ZM1065.95 22.697V24.4029H1062.08V25.1806H1066.21V25.6884H1061.46V23.9269H1065.33V23.1969H1061.45V22.697H1065.95ZM1069.46 18.9757C1070.51 18.9836 1071.28 19.6184 1071.28 20.5388C1071.28 21.4592 1070.51 22.094 1069.46 22.094C1068.38 22.094 1067.62 21.4592 1067.62 20.5388C1067.62 19.6184 1068.38 18.9836 1069.46 18.9757ZM1069.46 19.4994C1068.75 19.4994 1068.23 19.9279 1068.23 20.5388C1068.23 21.1577 1068.75 21.5862 1069.46 21.5862C1070.15 21.5862 1070.68 21.1577 1070.68 20.5388C1070.68 19.9279 1070.15 19.4994 1069.46 19.4994ZM1073.28 18.7139V22.3399H1072.66V18.7139H1073.28ZM1073.28 22.6811V24.3791H1069.32V25.1726H1073.53V25.6725H1068.71V23.911H1072.66V23.181H1068.69V22.6811H1073.28ZM1077 20.88C1077 22.0781 1077.88 23.2921 1078.91 23.7444L1078.56 24.2363C1077.74 23.8594 1077.03 23.0461 1076.7 22.0702C1076.36 23.1056 1075.66 24.0062 1074.85 24.4109L1074.48 23.9189C1075.49 23.4349 1076.36 22.1019 1076.38 20.88V19.9596H1074.71V19.4439H1078.68V19.9596H1077V20.88ZM1080.29 18.7139V25.7677H1079.67V18.7139H1080.29Z" fill="black"/>
<path d="M1144.54 19.3804V21.2609H1145.26V18.7377H1146.22V25.5218H1145.26V22.0702H1144.54V24.038H1141.67V19.3804H1144.54ZM1142.61 20.1818V23.2445H1143.6V20.1818H1142.61ZM1147.73 18.6345V25.855H1146.76V18.6345H1147.73ZM1155.09 24.1808V25.014H1148.49V24.1808H1151.27V22.705H1149.19V19.1661H1154.36V22.705H1152.28V24.1808H1155.09ZM1150.18 19.9755V21.9115H1153.36V19.9755H1150.18Z" fill="#9038FF"/>
</g>
<path d="M557.5 177.781H288.125C286.14 177.781 284.531 179.39 284.531 181.375V458.25C284.531 460.235 286.14 461.844 288.125 461.844H557.5C559.485 461.844 561.094 460.235 561.094 458.25V181.375C561.094 179.39 559.485 177.781 557.5 177.781Z" fill="white"/>
<path d="M557.5 177.781H288.125C286.14 177.781 284.531 179.39 284.531 181.375V458.25C284.531 460.235 286.14 461.844 288.125 461.844H557.5C559.485 461.844 561.094 460.235 561.094 458.25V181.375C561.094 179.39 559.485 177.781 557.5 177.781Z" stroke="#888888" stroke-width="0.5"/>
<g filter="url(#filter1_d_44_73)">
<path d="M505 395.75H340.625C330.27 395.75 321.875 404.145 321.875 414.5C321.875 424.855 330.27 433.25 340.625 433.25H505C515.355 433.25 523.75 424.855 523.75 414.5C523.75 404.145 515.355 395.75 505 395.75Z" fill="#9038FF"/>
<path d="M396.993 410.516V413.064H398.476V409.582H399.301V418.646H398.476V413.779H396.993V416.514H393.258V410.516H396.993ZM394.071 411.207V415.822H396.181V411.207H394.071ZM401.267 409.373V419.14H400.432V409.373H401.267ZM411.561 417.162V417.887H402.618V417.162H406.64V414.778H403.673V410.197H410.452V414.778H407.486V417.162H411.561ZM404.519 410.889V414.086H409.617V410.889H404.519ZM418.472 411.186C418.472 412.482 419.428 413.669 420.878 414.174L420.438 414.844C419.323 414.449 418.472 413.647 418.055 412.636C417.637 413.746 416.741 414.608 415.593 415.031L415.132 414.361C416.593 413.844 417.615 412.581 417.626 411.186V410.768H415.396V410.065H420.669V410.768H418.472V411.186ZM422.8 409.373V411.955H424.273V412.691H422.8V415.262H421.943V409.373H422.8ZM422.8 415.778V419.14H421.943V416.481H416.406V415.778H422.8ZM428.25 410.911C428.239 412.306 429.228 413.537 430.666 414.02L430.183 414.691C429.106 414.284 428.261 413.493 427.843 412.46C427.42 413.63 426.525 414.542 425.35 414.987L424.877 414.284C426.382 413.757 427.382 412.46 427.393 410.944V409.933H428.25V410.911ZM432.985 409.373V415.163H432.117V412.186H429.941V411.471H432.117V409.373H432.985ZM429.744 415.449C431.776 415.449 433.018 416.119 433.018 417.294C433.018 418.459 431.776 419.118 429.744 419.118C427.711 419.118 426.47 418.459 426.47 417.294C426.47 416.119 427.711 415.449 429.744 415.449ZM429.744 416.129C428.25 416.129 427.316 416.569 427.327 417.294C427.316 417.997 428.25 418.426 429.744 418.426C431.238 418.426 432.161 417.997 432.161 417.294C432.161 416.569 431.238 416.129 429.744 416.129ZM442.17 409.373V413.405H443.806V414.119H442.17V419.14H441.313V409.373H442.17ZM440.368 410.944V411.658H434.556V410.944H437.071V409.494H437.929V410.944H440.368ZM437.511 412.471C438.895 412.471 439.895 413.394 439.906 414.712C439.895 416.031 438.895 416.954 437.511 416.954C436.116 416.954 435.105 416.031 435.116 414.712C435.105 413.394 436.116 412.471 437.511 412.471ZM437.511 413.196C436.6 413.196 435.929 413.834 435.94 414.712C435.929 415.602 436.6 416.229 437.511 416.217C438.412 416.229 439.071 415.602 439.082 414.712C439.071 413.834 438.412 413.196 437.511 413.196ZM452.409 409.373V419.14H451.541V409.373H452.409ZM449.519 410.439C449.508 413.251 448.201 415.734 444.927 417.305L444.455 416.602C447.096 415.349 448.443 413.476 448.64 411.142H444.905V410.439H449.519Z" fill="white"/>
</g>
<path d="M370.826 361.211V364.539H372.103V360.074H373.788V372.077H372.103V365.971H370.826V369.452H365.744V361.211H370.826ZM367.414 362.629V368.048H369.155V362.629H367.414ZM376.455 359.892V372.666H374.742V359.892H376.455ZM389.496 369.704V371.179H377.802V369.704H382.73V367.093H379.038V360.832H388.191V367.093H384.513V369.704H389.496ZM380.807 362.264V365.689H386.422V362.264H380.807ZM401.906 365.619V366.953H390.212V365.619H401.906ZM400.502 367.585V370.603H393.343V371.333H400.881V372.554H391.56V369.466H398.734V368.82H391.546V367.585H400.502ZM400.488 360.116V363.121H393.455V363.809H400.713V365.016H391.672V361.984H398.691V361.337H391.644V360.116H400.488ZM416.731 359.892V367.472H414.947V364.454H412.954V363.008H414.947V359.892H416.731ZM412.364 367.753C415.088 367.767 416.758 368.666 416.772 370.224C416.758 371.768 415.088 372.681 412.364 372.681C409.641 372.681 407.971 371.768 407.971 370.224C407.971 368.666 409.641 367.767 412.364 367.753ZM412.364 369.129C410.666 369.129 409.753 369.48 409.753 370.224C409.753 370.954 410.666 371.319 412.364 371.319C414.063 371.319 414.989 370.954 414.989 370.224C414.989 369.48 414.063 369.129 412.364 369.129ZM413.333 360.664V362.096H410.792C410.834 363.584 411.732 365.086 413.726 365.746L412.842 367.149C411.431 366.693 410.462 365.767 409.908 364.609C409.339 365.914 408.321 366.967 406.806 367.486L405.879 366.069C407.977 365.367 408.918 363.696 408.967 362.096H406.398V360.664H413.333ZM429.098 359.892V372.694H427.315V359.892H429.098ZM425.139 360.959V365.886H420.927V368.231C422.872 368.224 424.529 368.111 426.402 367.809L426.557 369.255C424.451 369.62 422.556 369.704 420.226 369.704H419.075V364.468H423.314V362.404H419.061V360.959H425.139ZM436.973 361.843V363.261H430.796V361.843H433.014V360.242H434.783V361.843H436.973ZM433.913 363.836C435.541 363.836 436.706 365.1 436.721 366.869C436.706 368.652 435.541 369.915 433.913 369.915C432.284 369.915 431.091 368.652 431.091 366.869C431.091 365.1 432.284 363.836 433.913 363.836ZM433.913 365.324C433.169 365.324 432.664 365.9 432.664 366.869C432.664 367.837 433.169 368.399 433.913 368.399C434.629 368.399 435.134 367.837 435.148 366.869C435.134 365.9 434.629 365.324 433.913 365.324ZM441.859 359.892V372.666H440.16V366.518H439.121V372.119H437.451V360.144H439.121V365.086H440.16V359.892H441.859ZM454.928 369.719V371.179H443.234V369.719H448.162V367.36H444.469V360.706H446.266V362.686H451.839V360.706H453.622V367.36H449.944V369.719H454.928ZM446.266 365.928H451.839V364.117H446.266V365.928ZM459.757 363.107C459.757 365.17 460.332 367.304 462.073 368.427L461.105 369.817C460.002 369.15 459.301 368.055 458.901 366.742C458.437 368.188 457.672 369.396 456.514 370.097L455.419 368.778C457.314 367.599 458.016 365.352 458.016 363.191V360.987H459.757V363.107ZM466.734 359.892V372.666H465.021V359.892H466.734ZM464.052 360.074V372.077H462.382V365.661H460.726V364.201H462.382V360.074H464.052ZM479.776 369.704V371.179H468.082V369.704H470.692V366.574C469.703 365.984 469.106 365.079 469.106 363.949C469.106 361.885 471.128 360.509 473.907 360.509C476.673 360.509 478.709 361.885 478.722 363.949C478.716 365.051 478.133 365.949 477.178 366.546V369.704H479.776ZM473.907 361.927C472.082 361.927 470.875 362.657 470.875 363.949C470.875 365.198 472.082 365.971 473.907 365.971C475.718 365.971 476.94 365.198 476.954 363.949C476.94 362.657 475.718 361.927 473.907 361.927ZM472.461 369.704H475.367V367.22C474.911 367.311 474.42 367.36 473.907 367.36C473.395 367.36 472.911 367.318 472.461 367.22V369.704Z" fill="black"/>
<path d="M386.667 310.958V238.042H423.125V274.5H459.583V279.708C463.229 279.708 466.719 280.386 470 281.531V258.875L438.75 227.625H386.667C380.886 227.625 376.25 232.261 376.25 238.042V310.958C376.25 313.721 377.348 316.371 379.301 318.324C381.254 320.278 383.904 321.375 386.667 321.375H430.156C429.011 318.094 428.333 314.604 428.333 310.958H386.667ZM433.542 235.438L462.188 264.083H433.542V235.438ZM480.417 305.75V316.167H464.792V331.792H454.375V316.167H438.75V305.75H454.375V290.125H464.792V305.75H480.417Z" fill="black"/>
<g filter="url(#filter2_d_44_73)">
<path d="M505 385.438H340C323.949 385.438 310.938 398.449 310.938 414.5C310.938 430.551 323.949 443.562 340 443.562H505C521.051 443.562 534.062 430.551 534.062 414.5C534.062 398.449 521.051 385.438 505 385.438Z" stroke="#FF0000" stroke-dasharray="12 2"/>
</g>
<path d="M577.5 457.781H486.25C469.768 457.781 456.406 471.143 456.406 487.625C456.406 504.107 469.768 517.469 486.25 517.469H577.5C593.982 517.469 607.344 504.107 607.344 487.625C607.344 471.143 593.982 457.781 577.5 457.781Z" fill="white"/>
<path d="M577.5 457.781H486.25C469.768 457.781 456.406 471.143 456.406 487.625C456.406 504.107 469.768 517.469 486.25 517.469H577.5C593.982 517.469 607.344 504.107 607.344 487.625C607.344 471.143 593.982 457.781 577.5 457.781Z" stroke="black" stroke-width="0.5"/>
<path d="M511.015 470.491V479.736H510.205V474.6H507.995V477.402H503.741V471.217H504.56V473.625H507.196V471.217H507.995V473.926H510.205V470.491H511.015ZM504.56 476.727H507.196V474.279H504.56V476.727ZM520.955 475.607V476.271H512.54V475.607H520.955ZM520.073 478.834V479.518H513.64V476.945H514.449V478.834H520.073ZM519.958 474.092V474.735H513.66V470.844H519.906V471.497H514.48V472.462H519.658V473.096H514.48V474.092H519.958ZM525.935 470.657C527.99 470.657 529.193 471.217 529.193 472.245C529.193 473.292 527.99 473.853 525.935 473.863C523.88 473.853 522.666 473.292 522.666 472.245C522.666 471.217 523.88 470.657 525.935 470.657ZM525.935 471.269C524.4 471.269 523.507 471.643 523.517 472.245C523.507 472.888 524.4 473.241 525.935 473.241C527.46 473.241 528.363 472.888 528.363 472.245C528.363 471.643 527.46 471.269 525.935 471.269ZM530.137 474.486V475.15H521.733V474.486H530.137ZM529.058 475.949V478.014H523.58V478.968H529.338V479.612H522.77V477.412H528.259V476.571H522.75V475.949H529.058ZM541.032 473.604V474.279H534.671V470.969H535.481V473.604H541.032ZM542.028 475.669V476.354H538.168V479.716H537.359V476.354H533.582V475.669H542.028ZM551.211 477.869V478.553H542.765V477.869H551.211ZM550.142 471.197V473.988H544.633V475.502H550.36V476.156H543.823V473.324H549.343V471.871H543.802V471.197H550.142ZM556.616 471.301V472.12H558.775V470.502H559.595V477.236H558.775V474.776H556.616V475.607H552.383V471.301H556.616ZM553.193 471.975V474.953H555.818V471.975H553.193ZM559.802 478.834V479.518H553.628V476.634H554.448V478.834H559.802ZM556.616 474.102H558.775V472.805H556.616V474.102ZM486.205 484.07V486.477H487.606V483.188H488.385V491.749H487.606V487.152H486.205V489.736H482.678V484.07H486.205ZM483.445 484.724V489.082H485.438V484.724H483.445ZM490.241 482.991V492.216H489.453V482.991H490.241ZM499.964 490.347V491.032H491.518V490.347H495.315V488.096H492.514V483.769H498.916V488.096H496.115V490.347H499.964ZM493.313 484.423V487.442H498.127V484.423H493.313ZM511.015 482.991V488.491H510.195V486.073H508.337V485.399H510.195V482.991H511.015ZM507.953 488.781C509.873 488.781 511.045 489.404 511.045 490.493C511.045 491.582 509.873 492.205 507.953 492.216C506.034 492.205 504.861 491.582 504.861 490.493C504.861 489.404 506.034 488.781 507.953 488.781ZM507.953 489.414C506.542 489.414 505.66 489.819 505.671 490.493C505.66 491.157 506.542 491.562 507.953 491.562C509.365 491.562 510.236 491.157 510.236 490.493C510.236 489.819 509.365 489.414 507.953 489.414ZM506.573 484.682C506.573 485.886 507.497 487.027 508.846 487.494L508.42 488.148C507.383 487.774 506.578 487.001 506.19 486.042C505.785 487.126 504.929 487.992 503.834 488.407L503.409 487.754C504.778 487.256 505.754 486.011 505.754 484.693V484.351H503.668V483.666H508.638V484.351H506.573V484.682ZM520.166 482.991V492.236H519.356V482.991H520.166ZM517.365 483.852V487.131H513.92V489.31C515.45 489.31 516.815 489.242 518.464 488.978L518.547 489.663C516.846 489.932 515.445 489.995 513.857 489.995H513.09V486.467H516.545V484.527H513.069V483.852H517.365ZM528.871 482.991V486.799H530.417V487.474H528.871V492.216H528.062V482.991H528.871ZM527.17 484.475V485.149H521.681V484.475H524.057V483.106H524.866V484.475H527.17ZM524.472 485.917C525.78 485.917 526.723 486.789 526.734 488.034C526.723 489.279 525.78 490.151 524.472 490.151C523.154 490.151 522.2 489.279 522.21 488.034C522.2 486.789 523.154 485.917 524.472 485.917ZM524.472 486.602C523.611 486.602 522.978 487.204 522.988 488.034C522.978 488.874 523.611 489.466 524.472 489.456C525.323 489.466 525.945 488.874 525.956 488.034C525.945 487.204 525.323 486.602 524.472 486.602ZM538.542 482.991V492.216H537.722V482.991H538.542ZM535.813 483.997C535.803 486.654 534.568 488.999 531.476 490.482L531.03 489.819C533.525 488.636 534.796 486.867 534.983 484.662H531.455V483.997H535.813ZM550.703 482.991V492.216H549.914V482.991H550.703ZM548.897 483.219V491.727H548.119V487.235H546.832V486.498H548.119V483.219H548.897ZM547.102 484.174V484.849H546.324V489.113C546.671 489.092 547.003 489.061 547.31 489.019L547.361 489.621C545.909 489.891 543.968 489.932 542.765 489.932L542.661 489.237L543.636 489.227V484.849H542.858V484.174H547.102ZM544.383 489.217C544.767 489.206 545.172 489.191 545.566 489.165V484.849H544.383V489.217ZM559.553 482.991V492.236H558.733V482.991H559.553ZM554.645 483.707C556.015 483.717 557.001 484.962 557.001 486.924C557.001 488.885 556.015 490.13 554.645 490.13C553.265 490.13 552.29 488.885 552.29 486.924C552.29 484.962 553.265 483.717 554.645 483.707ZM554.645 484.434C553.722 484.444 553.078 485.419 553.078 486.924C553.078 488.428 553.722 489.404 554.645 489.404C555.569 489.404 556.212 488.428 556.212 486.924C556.212 485.419 555.569 484.444 554.645 484.434ZM564.43 485.824C564.43 487.391 565.571 488.978 566.93 489.569L566.474 490.213C565.395 489.72 564.461 488.656 564.036 487.38C563.6 488.734 562.671 489.912 561.618 490.441L561.13 489.798C562.448 489.165 563.6 487.422 563.61 485.824V484.62H561.431V483.946H566.63V484.62H564.43V485.824ZM568.736 482.991V492.216H567.916V482.991H568.736ZM578.759 490.389V491.074H570.313V490.389H574.111V488.646H571.371V485.803H576.891V484.351H571.351V483.676H577.69V486.467H572.181V487.972H577.908V488.646H574.91V490.389H578.759ZM521.53 501.26V504.591H515.554V501.26H521.53ZM516.353 501.914V503.927H520.731V501.914H516.353ZM515.253 496.051V499.507C516.695 499.512 517.915 499.419 519.258 499.144L519.362 499.839C517.93 500.129 516.675 500.212 515.139 500.212H514.433V496.051H515.253ZM521.53 495.491V500.814H520.711V497.909H518.055V497.245H520.711V495.491H521.53ZM525.546 496.207C526.801 496.217 527.704 497.291 527.839 499.019H529.904V495.491H530.713V504.736H529.904V499.694H527.85C527.751 501.499 526.833 502.63 525.546 502.63C524.186 502.63 523.232 501.385 523.232 499.424C523.232 497.462 524.186 496.217 525.546 496.207ZM525.546 496.934C524.633 496.944 524.01 497.919 524.01 499.424C524.01 500.928 524.633 501.904 525.546 501.904C526.448 501.904 527.081 500.928 527.081 499.424C527.081 497.919 526.448 496.944 525.546 496.934ZM539.388 495.491V499.247H540.881V499.932H539.388V504.716H538.578V495.491H539.388ZM537.001 496.487C537.001 499.102 535.776 501.478 532.768 502.962L532.311 502.319C534.698 501.131 535.995 499.356 536.181 497.172H532.736V496.487H537.001ZM549.878 502.847V503.532H541.431V502.847H543.528V500.357C542.739 499.947 542.261 499.284 542.261 498.448C542.261 497.016 543.662 496.082 545.634 496.072C547.605 496.082 549.006 497.016 549.006 498.448C549.006 499.268 548.544 499.927 547.781 500.337V502.847H549.878ZM545.634 496.747C544.119 496.736 543.05 497.421 543.05 498.448C543.05 499.476 544.119 500.171 545.634 500.171C547.138 500.171 548.217 499.476 548.217 498.448C548.217 497.421 547.138 496.736 545.634 496.747ZM544.326 502.847H546.962V500.648C546.563 500.757 546.116 500.814 545.634 500.814C545.161 500.814 544.721 500.762 544.326 500.659V502.847Z" fill="black"/>
<path d="M440.134 443.796L458.884 475.671" stroke="black" stroke-width="0.5"/>
<path d="M911.25 177.781H641.875C639.89 177.781 638.281 179.39 638.281 181.375V458.25C638.281 460.235 639.89 461.844 641.875 461.844H911.25C913.235 461.844 914.844 460.235 914.844 458.25V181.375C914.844 179.39 913.235 177.781 911.25 177.781Z" fill="white"/>
<path d="M911.25 177.781H641.875C639.89 177.781 638.281 179.39 638.281 181.375V458.25C638.281 460.235 639.89 461.844 641.875 461.844H911.25C913.235 461.844 914.844 460.235 914.844 458.25V181.375C914.844 179.39 913.235 177.781 911.25 177.781Z" stroke="#888888" stroke-width="0.5"/>
<g filter="url(#filter3_d_44_73)">
<path d="M858.75 395.75H694.375C684.02 395.75 675.625 404.145 675.625 414.5C675.625 424.855 684.02 433.25 694.375 433.25H858.75C869.105 433.25 877.5 424.855 877.5 414.5C877.5 404.145 869.105 395.75 858.75 395.75Z" fill="#9038FF"/>
<path d="M750.744 410.516V413.064H752.225V409.582H753.05V418.646H752.225V413.779H750.744V416.514H747.006V410.516H750.744ZM747.819 411.207V415.822H749.931V411.207H747.819ZM755.019 409.373V419.14H754.181V409.373H755.019ZM765.313 417.162V417.887H756.369V417.162H760.388V414.778H757.425V410.197H764.2V414.778H761.238V417.162H765.313ZM758.269 410.889V414.086H763.369V410.889H758.269ZM776.538 409.384V412.339H778V413.064H776.538V415.932H775.669V409.384H776.538ZM768.869 414.932C769.65 414.932 770.563 414.932 771.519 414.899V414.185C770.381 414.086 769.65 413.553 769.65 412.746C769.65 411.856 770.563 411.307 771.938 411.307C773.319 411.307 774.219 411.856 774.231 412.746C774.219 413.548 773.506 414.08 772.375 414.185V414.866C773.288 414.822 774.213 414.75 775.069 414.624L775.144 415.251C773.025 415.624 770.681 415.635 768.969 415.635L768.869 414.932ZM776.538 416.415V419.14H775.669V417.107H770.069V416.415H776.538ZM774.769 410.274V410.933H769.113V410.274H771.519V409.296H772.375V410.274H774.769ZM771.938 411.922C771.038 411.911 770.475 412.229 770.475 412.746C770.475 413.251 771.038 413.602 771.938 413.592C772.838 413.602 773.406 413.251 773.406 412.746C773.406 412.229 772.838 411.911 771.938 411.922ZM786.7 409.384V416.525H785.844V409.384H786.7ZM787.006 418.206V418.931H780.394V415.8H781.25V418.206H787.006ZM781.431 410.065C782.888 410.065 783.988 411.054 783.988 412.46C783.988 413.888 782.888 414.866 781.431 414.866C779.969 414.866 778.869 413.888 778.869 412.46C778.869 411.054 779.969 410.065 781.431 410.065ZM781.431 410.823C780.438 410.823 779.706 411.504 779.713 412.46C779.706 413.438 780.438 414.108 781.431 414.108C782.394 414.108 783.144 413.438 783.144 412.46C783.144 411.504 782.394 410.823 781.431 410.823ZM795.919 409.373V413.405H797.556V414.119H795.919V419.14H795.063V409.373H795.919ZM794.119 410.944V411.658H788.306V410.944H790.819V409.494H791.681V410.944H794.119ZM791.263 412.471C792.644 412.471 793.644 413.394 793.656 414.712C793.644 416.031 792.644 416.954 791.263 416.954C789.869 416.954 788.856 416.031 788.869 414.712C788.856 413.394 789.869 412.471 791.263 412.471ZM791.263 413.196C790.35 413.196 789.681 413.834 789.688 414.712C789.681 415.602 790.35 416.229 791.263 416.217C792.163 416.229 792.819 415.602 792.831 414.712C792.819 413.834 792.163 413.196 791.263 413.196ZM806.156 409.373V419.14H805.288V409.373H806.156ZM803.269 410.439C803.256 413.251 801.95 415.734 798.675 417.305L798.206 416.602C800.844 415.349 802.194 413.476 802.388 411.142H798.656V410.439H803.269Z" fill="white"/>
</g>
<path d="M695.775 359.892V372.666H694.05V366.279H692.856V372.049H691.169V360.102H692.856V364.833H694.05V359.892H695.775ZM687.069 361.31V367.977C688.094 367.957 689.219 367.866 690.456 367.627L690.637 369.171C688.925 369.466 687.462 369.55 686.144 369.55H685.275V361.31H687.069ZM707.256 359.892V364.791H709.069V366.265H707.256V372.638H705.462V359.892H707.256ZM703.844 361.197C703.831 365.016 702.344 368.329 698.05 370.434L697.037 369.059C700.062 367.542 701.681 365.507 702.019 362.657H697.769V361.197H703.844ZM720.175 360.636V362.067H717.631C717.644 363.562 718.531 365.093 720.606 365.76L719.694 367.149C718.275 366.693 717.3 365.781 716.744 364.637C716.181 365.886 715.162 366.876 713.675 367.36L712.719 365.984C714.831 365.304 715.794 363.668 715.819 362.067H713.206V360.636H720.175ZM723.05 359.892V362.994H724.775V364.482H723.05V367.599H721.25V359.892H723.05ZM723.05 368.146V372.666H721.25V369.564H714.444V368.146H723.05ZM730.169 361.632C730.156 363.345 731.037 364.917 733.087 365.549L732.144 366.953C730.769 366.476 729.837 365.591 729.312 364.44C728.737 365.774 727.706 366.827 726.169 367.346L725.225 365.914C727.419 365.212 728.344 363.499 728.356 361.717V360.552H730.169V361.632ZM736.106 359.892V367.374H734.325V363.696H731.925V362.236H734.325V359.892H736.106ZM731.737 367.711C734.462 367.711 736.131 368.624 736.15 370.196C736.131 371.768 734.462 372.666 731.737 372.666C729.019 372.666 727.344 371.768 727.344 370.196C727.344 368.624 729.019 367.711 731.737 367.711ZM731.737 369.101C730.044 369.101 729.131 369.466 729.131 370.196C729.131 370.897 730.044 371.277 731.737 371.277C733.437 371.277 734.362 370.897 734.362 370.196C734.362 369.466 733.437 369.101 731.737 369.101ZM747.9 359.906V363.822H749.625V365.282H747.9V369.437H746.1V359.906H747.9ZM745.344 361.239V362.657H737.762V361.239H740.669V359.877H742.45V361.239H745.344ZM741.55 363.107C743.406 363.107 744.694 364.103 744.694 365.577C744.694 367.051 743.406 368.02 741.55 368.02C739.687 368.02 738.381 367.051 738.381 365.577C738.381 364.103 739.687 363.107 741.55 363.107ZM741.55 364.468C740.694 364.482 740.119 364.876 740.131 365.577C740.119 366.279 740.694 366.658 741.55 366.658C742.406 366.658 743 366.279 743 365.577C743 364.876 742.406 364.482 741.55 364.468ZM748.362 371.01V372.442H739.612V368.707H741.4V371.01H748.362ZM758.944 361.211V364.539H760.225V360.074H761.906V372.077H760.225V365.971H758.944V369.452H753.862V361.211H758.944ZM755.531 362.629V368.048H757.275V362.629H755.531ZM764.575 359.892V372.666H762.862V359.892H764.575ZM777.619 369.704V371.179H765.925V369.704H770.85V367.093H767.156V360.832H776.312V367.093H772.631V369.704H777.619ZM768.925 362.264V365.689H774.544V362.264H768.925ZM790.025 365.619V366.953H778.331V365.619H790.025ZM788.619 367.585V370.603H781.462V371.333H789V372.554H779.681V369.466H786.85V368.82H779.662V367.585H788.619ZM788.606 360.116V363.121H781.575V363.809H788.831V365.016H779.794V361.984H786.812V361.337H779.762V360.116H788.606ZM804.3 359.906V363.556H805.931V365.03H804.3V368.581H802.506V359.906H804.3ZM793.944 366.939C794.875 366.939 795.944 366.939 797.044 366.911V366.195C795.656 365.998 794.787 365.324 794.8 364.342C794.787 363.162 796.031 362.432 797.931 362.432C799.812 362.432 801.044 363.162 801.062 364.342C801.044 365.324 800.194 365.991 798.825 366.181V366.841C799.881 366.799 800.925 366.714 801.919 366.588L802.044 367.823C799.35 368.301 796.387 368.329 794.125 368.329L793.944 366.939ZM804.3 369.101V372.666H802.506V370.476H795.569V369.101H804.3ZM801.594 360.832V362.138H794.281V360.832H797.044V359.794H798.825V360.832H801.594ZM797.931 363.626C797.019 363.626 796.5 363.851 796.512 364.342C796.5 364.805 797.019 365.072 797.931 365.072C798.825 365.072 799.331 364.805 799.35 364.342C799.331 363.851 798.825 363.626 797.931 363.626ZM817.206 359.906V369.087H815.406V359.906H817.206ZM817.537 371.01V372.442H808.637V368.16H810.45V371.01H817.537ZM810.2 360.72C812.162 360.72 813.694 362.067 813.694 363.935C813.694 365.844 812.162 367.177 810.2 367.177C808.231 367.177 806.7 365.844 806.7 363.935C806.7 362.067 808.231 360.72 810.2 360.72ZM810.2 362.278C809.2 362.264 808.444 362.896 808.456 363.935C808.444 365.002 809.2 365.619 810.2 365.619C811.169 365.619 811.925 365.002 811.925 363.935C811.925 362.896 811.169 362.264 810.2 362.278ZM825.094 361.843V363.261H818.919V361.843H821.131V360.242H822.9V361.843H825.094ZM822.031 363.836C823.662 363.836 824.825 365.1 824.837 366.869C824.825 368.652 823.662 369.915 822.031 369.915C820.406 369.915 819.212 368.652 819.212 366.869C819.212 365.1 820.406 363.836 822.031 363.836ZM822.031 365.324C821.287 365.324 820.781 365.9 820.781 366.869C820.781 367.837 821.287 368.399 822.031 368.399C822.75 368.399 823.256 367.837 823.269 366.869C823.256 365.9 822.75 365.324 822.031 365.324ZM829.975 359.892V372.666H828.281V366.518H827.237V372.119H825.569V360.144H827.237V365.086H828.281V359.892H829.975ZM843.05 369.719V371.179H831.356V369.719H836.281V367.36H832.587V360.706H834.387V362.686H839.956V360.706H841.744V367.36H838.062V369.719H843.05ZM834.387 365.928H839.956V364.117H834.387V365.928ZM847.875 363.107C847.875 365.17 848.45 367.304 850.194 368.427L849.225 369.817C848.125 369.15 847.419 368.055 847.019 366.742C846.556 368.188 845.794 369.396 844.631 370.097L843.537 368.778C845.431 367.599 846.137 365.352 846.137 363.191V360.987H847.875V363.107ZM854.856 359.892V372.666H853.144V359.892H854.856ZM852.175 360.074V372.077H850.5V365.661H848.844V364.201H850.5V360.074H852.175ZM867.894 369.704V371.179H856.2V369.704H858.812V366.574C857.825 365.984 857.225 365.079 857.225 363.949C857.225 361.885 859.25 360.509 862.025 360.509C864.794 360.509 866.825 361.885 866.844 363.949C866.837 365.051 866.25 365.949 865.3 366.546V369.704H867.894ZM862.025 361.927C860.2 361.927 858.994 362.657 858.994 363.949C858.994 365.198 860.2 365.971 862.025 365.971C863.837 365.971 865.056 365.198 865.075 363.949C865.056 362.657 863.837 361.927 862.025 361.927ZM860.581 369.704H863.487V367.22C863.031 367.311 862.537 367.36 862.025 367.36C861.512 367.36 861.031 367.318 860.581 367.22V369.704Z" fill="black"/>
<path d="M817.394 223.458L839.375 245.437L758.331 326.583L714.375 282.573L736.356 260.594L758.331 282.573L817.394 223.458ZM817.394 238.042L758.331 297.208L736.356 275.489L729.013 282.573L758.331 311.844L824.737 245.437L817.394 238.042Z" fill="black"/>
<g filter="url(#filter4_d_44_73)">
<path d="M859.375 385.438H694.375C678.324 385.438 665.312 398.449 665.312 414.5C665.312 430.551 678.324 443.562 694.375 443.562H859.375C875.426 443.562 888.438 430.551 888.438 414.5C888.438 398.449 875.426 385.438 859.375 385.438Z" stroke="#FF0000" stroke-dasharray="12 2"/>
</g>
</g>
</g>
<rect x="0.15" y="0.275" width="1199.7" height="639.7" stroke="black" stroke-width="0.3"/>
<defs>
<filter id="filter0_d_44_73" x="-8" y="-7.875" width="1216" height="59.75" filterUnits="userSpaceOnUse" color-interpolation-filters="sRGB">
<feFlood flood-opacity="0" result="BackgroundImageFix"/>
<feColorMatrix in="SourceAlpha" type="matrix" values="0 0 0 0 0 0 0 0 0 0 0 0 0 0 0 0 0 0 127 0" result="hardAlpha"/>
<feOffset/>
<feGaussianBlur stdDeviation="4"/>
<feComposite in2="hardAlpha" operator="out"/>
<feColorMatrix type="matrix" values="0 0 0 0 0.891667 0 0 0 0 0.891667 0 0 0 0 0.891667 0 0 0 1 0"/>
<feBlend mode="normal" in2="BackgroundImageFix" result="effect1_dropShadow_44_73"/>
<feBlend mode="normal" in="SourceGraphic" in2="effect1_dropShadow_44_73" result="shape"/>
</filter>
<filter id="filter1_d_44_73" x="317.875" y="395.75" width="209.875" height="45.5" filterUnits="userSpaceOnUse" color-interpolation-filters="sRGB">
<feFlood flood-opacity="0" result="BackgroundImageFix"/>
<feColorMatrix in="SourceAlpha" type="matrix" values="0 0 0 0 0 0 0 0 0 0 0 0 0 0 0 0 0 0 127 0" result="hardAlpha"/>
<feOffset dy="4"/>
<feGaussianBlur stdDeviation="2"/>
<feComposite in2="hardAlpha" operator="out"/>
<feColorMatrix type="matrix" values="0 0 0 0 0 0 0 0 0 0 0 0 0 0 0 0 0 0 0.25 0"/>
<feBlend mode="normal" in2="BackgroundImageFix" result="effect1_dropShadow_44_73"/>
<feBlend mode="normal" in="SourceGraphic" in2="effect1_dropShadow_44_73" result="shape"/>
</filter>
<filter id="filter2_d_44_73" x="306.438" y="384.938" width="232.125" height="67.125" filterUnits="userSpaceOnUse" color-interpolation-filters="sRGB">
<feFlood flood-opacity="0" result="BackgroundImageFix"/>
<feColorMatrix in="SourceAlpha" type="matrix" values="0 0 0 0 0 0 0 0 0 0 0 0 0 0 0 0 0 0 127 0" result="hardAlpha"/>
<feOffset dy="4"/>
<feGaussianBlur stdDeviation="2"/>
<feComposite in2="hardAlpha" operator="out"/>
<feColorMatrix type="matrix" values="0 0 0 0 0 0 0 0 0 0 0 0 0 0 0 0 0 0 0.25 0"/>
<feBlend mode="normal" in2="BackgroundImageFix" result="effect1_dropShadow_44_73"/>
<feBlend mode="normal" in="SourceGraphic" in2="effect1_dropShadow_44_73" result="shape"/>
</filter>
<filter id="filter3_d_44_73" x="671.625" y="395.75" width="209.875" height="45.5" filterUnits="userSpaceOnUse" color-interpolation-filters="sRGB">
<feFlood flood-opacity="0" result="BackgroundImageFix"/>
<feColorMatrix in="SourceAlpha" type="matrix" values="0 0 0 0 0 0 0 0 0 0 0 0 0 0 0 0 0 0 127 0" result="hardAlpha"/>
<feOffset dy="4"/>
<feGaussianBlur stdDeviation="2"/>
<feComposite in2="hardAlpha" operator="out"/>
<feColorMatrix type="matrix" values="0 0 0 0 0 0 0 0 0 0 0 0 0 0 0 0 0 0 0.25 0"/>
<feBlend mode="normal" in2="BackgroundImageFix" result="effect1_dropShadow_44_73"/>
<feBlend mode="normal" in="SourceGraphic" in2="effect1_dropShadow_44_73" result="shape"/>
</filter>
<filter id="filter4_d_44_73" x="660.812" y="384.938" width="232.125" height="67.125" filterUnits="userSpaceOnUse" color-interpolation-filters="sRGB">
<feFlood flood-opacity="0" result="BackgroundImageFix"/>
<feColorMatrix in="SourceAlpha" type="matrix" values="0 0 0 0 0 0 0 0 0 0 0 0 0 0 0 0 0 0 127 0" result="hardAlpha"/>
<feOffset dy="4"/>
<feGaussianBlur stdDeviation="2"/>
<feComposite in2="hardAlpha" operator="out"/>
<feColorMatrix type="matrix" values="0 0 0 0 0 0 0 0 0 0 0 0 0 0 0 0 0 0 0.25 0"/>
<feBlend mode="normal" in2="BackgroundImageFix" result="effect1_dropShadow_44_73"/>
<feBlend mode="normal" in="SourceGraphic" in2="effect1_dropShadow_44_73" result="shape"/>
</filter>
<clipPath id="clip0_44_73">
<rect y="0.125" width="1200" height="640" fill="white"/>
</clipPath>
</defs>
</svg>
