<svg width="1920" height="1024" viewBox="0 0 1920 1024" fill="none" xmlns="http://www.w3.org/2000/svg">
<g clip-path="url(#clip0_182_40)">
<rect width="1920" height="1024" fill="#FCFCFC"/>
<rect x="101.25" y="169.25" width="1717.5" height="637.5" rx="5.75" fill="white"/>
<rect x="101.25" y="169.25" width="1717.5" height="637.5" rx="5.75" stroke="black" stroke-width="0.5"/>
<path d="M176.136 223.586V228.085H178.36V229.181H176.136V234.394H174.824V223.586H176.136ZM172.151 224.731C172.151 228.533 169.429 231.355 165.179 232.684L164.614 231.638C168.15 230.534 170.458 228.425 170.74 225.827H165.229V224.731H172.151ZM176.816 236.934V238.029H166.889V233.298H168.184V236.934H176.816ZM190.828 223.586V227.985H193.069V229.081H190.828V234.277H189.533V223.586H190.828ZM186.562 224.864V225.96H181.282V230.559C184.246 230.559 185.931 230.484 187.906 230.077L188.072 231.156C185.997 231.555 184.237 231.654 181.133 231.654H179.987V224.864H186.562ZM191.509 236.934V238.029H181.598V233.198H182.876V236.934H191.509ZM205.521 223.603V228.467H207.745V229.562H205.521V234.659H204.226V223.603H205.521ZM202.814 225.412V226.475H194.016V225.412H197.768V223.603H199.062V225.412H202.814ZM198.415 227.288C200.523 227.288 201.951 228.367 201.968 230.044C201.951 231.704 200.523 232.767 198.415 232.767C196.29 232.767 194.846 231.704 194.862 230.044C194.846 228.367 196.29 227.288 198.415 227.288ZM198.415 228.317C197.021 228.317 196.091 228.998 196.107 230.044C196.091 231.09 197.021 231.754 198.415 231.737C199.793 231.754 200.723 231.09 200.739 230.044C200.723 228.998 199.793 228.317 198.415 228.317ZM206.201 236.934V238.029H196.29V233.779H197.568V236.934H206.201ZM219.134 225.312V229.164H221.375V223.901H222.62V237.598H221.375V230.243H219.134V234.377H213.489V225.312H219.134ZM214.718 226.358V233.331H217.905V226.358H214.718ZM225.592 223.586V238.345H224.33V223.586H225.592ZM241.147 235.356V236.452H227.634V235.356H233.71V231.754H229.228V224.831H239.471V231.754H234.988V235.356H241.147ZM230.506 225.877V230.708H238.209V225.877H230.506ZM255.823 230.442V231.472H242.31V230.442H255.823ZM254.13 232.65V235.788H245.265V237.199H254.611V238.146H243.953V234.892H252.835V233.63H243.937V232.65H254.13ZM254.08 224.034V227.089H245.364V228.384H254.346V229.33H244.069V226.192H252.769V224.98H244.02V224.034H254.08ZM272.823 223.603V226.989H275.064V228.085H272.823V231.937H271.528V223.603H272.823ZM272.823 232.75V238.146H263.477V232.75H272.823ZM264.755 233.779V237.083H271.562V233.779H264.755ZM263.311 224.35V229.712C265.411 229.704 267.577 229.538 269.968 229.048L270.134 230.144C267.627 230.642 265.402 230.808 263.178 230.808H261.999V224.35H263.311ZM283.465 225.196C283.465 226.035 283.39 226.856 283.232 227.653H286.901V223.569H288.196V238.345H286.901V232.667H282.734V231.588H286.901V228.716H282.967C282.112 231.455 280.161 233.862 276.675 235.556L275.994 234.493C279.929 232.592 281.879 229.745 282.153 226.259H276.642V225.196H283.465ZM304.184 235.373V236.452H290.67V235.373H296.746V232.186H292.264V224.632H293.575V227.305H301.245V224.632H302.523V232.186H298.024V235.373H304.184ZM293.575 231.123H301.245V228.367H293.575V231.123ZM309.745 227.786C309.745 230.127 310.891 232.667 312.85 233.829L312.103 234.842C310.683 233.979 309.662 232.401 309.147 230.608C308.6 232.567 307.504 234.252 306.026 235.157L305.196 234.178C307.238 232.982 308.483 230.359 308.483 227.836V224.98H309.745V227.786ZM318.013 223.586V238.345H316.751V223.586H318.013ZM314.958 223.901V237.598H313.729V229.994H311.223V228.882H313.729V223.901H314.958ZM333.568 235.356V236.452H320.055V235.356H323.408V231.372C322.146 230.716 321.383 229.654 321.383 228.317C321.383 226.026 323.624 224.532 326.778 224.516C329.933 224.532 332.174 226.026 332.174 228.317C332.174 229.629 331.435 230.683 330.215 231.339V235.356H333.568ZM326.778 225.595C324.354 225.578 322.645 226.674 322.645 228.317C322.645 229.961 324.354 231.073 326.778 231.073C329.186 231.073 330.912 229.961 330.912 228.317C330.912 226.674 329.186 225.578 326.778 225.595ZM324.687 235.356H328.903V231.837C328.264 232.011 327.55 232.103 326.778 232.103C326.023 232.103 325.317 232.02 324.687 231.854V235.356Z" fill="#ACACAC"/>
<rect x="1165.25" y="914.25" width="241.5" height="95.5" rx="47.75" fill="white"/>
<rect x="1165.25" y="914.25" width="241.5" height="95.5" rx="47.75" stroke="black" stroke-width="0.5"/>
<path d="M1252.12 944.586V959.378H1250.83V951.16H1247.29V955.643H1240.48V945.748H1241.8V949.6H1246.01V945.748H1247.29V950.081H1250.83V944.586H1252.12ZM1241.8 954.563H1246.01V950.646H1241.8V954.563ZM1268.03 952.771V953.833H1254.56V952.771H1268.03ZM1266.62 957.934V959.029H1256.32V954.912H1257.62V957.934H1266.62ZM1266.43 950.347V951.376H1256.36V945.15H1266.35V946.196H1257.67V947.74H1265.95V948.753H1257.67V950.347H1266.43ZM1276 944.852C1279.28 944.852 1281.21 945.748 1281.21 947.392C1281.21 949.068 1279.28 949.965 1276 949.981C1272.71 949.965 1270.77 949.068 1270.77 947.392C1270.77 945.748 1272.71 944.852 1276 944.852ZM1276 945.831C1273.54 945.831 1272.11 946.429 1272.13 947.392C1272.11 948.421 1273.54 948.985 1276 948.985C1278.44 948.985 1279.88 948.421 1279.88 947.392C1279.88 946.429 1278.44 945.831 1276 945.831ZM1282.72 950.978V952.04H1269.27V950.978H1282.72ZM1280.99 953.318V956.622H1272.23V958.149H1281.44V959.179H1270.93V955.659H1279.71V954.314H1270.9V953.318H1280.99ZM1300.15 949.566V950.646H1289.97V945.35H1291.27V949.566H1300.15ZM1301.74 952.87V953.966H1295.57V959.345H1294.27V953.966H1288.23V952.87H1301.74ZM1316.44 956.39V957.485H1302.92V956.39H1316.44ZM1314.73 945.715V950.181H1305.91V952.604H1315.08V953.65H1304.62V949.118H1313.45V946.794H1304.58V945.715H1314.73ZM1325.09 945.881V947.192H1328.54V944.603H1329.85V955.377H1328.54V951.442H1325.09V952.771H1318.31V945.881H1325.09ZM1319.61 946.96V951.725H1323.81V946.96H1319.61ZM1330.18 957.934V959.029H1320.31V954.414H1321.62V957.934H1330.18ZM1325.09 950.363H1328.54V948.288H1325.09V950.363ZM1205.08 966.312V970.164H1207.32V964.901H1208.57V978.598H1207.32V971.243H1205.08V975.377H1199.44V966.312H1205.08ZM1200.67 967.358V974.331H1203.85V967.358H1200.67ZM1211.54 964.586V979.345H1210.28V964.586H1211.54ZM1227.1 976.356V977.452H1213.58V976.356H1219.66V972.754H1215.18V965.831H1225.42V972.754H1220.94V976.356H1227.1ZM1216.45 966.877V971.708H1224.16V966.877H1216.45ZM1239.7 964.586V970.596H1242.09V971.691H1239.7V979.345H1238.4V964.586H1239.7ZM1235.88 966.18C1235.88 970.363 1233.92 974.165 1229.1 976.539L1228.37 975.51C1232.19 973.609 1234.27 970.77 1234.57 967.275H1229.05V966.18H1235.88ZM1252.23 967.325C1252.23 969.284 1253.67 971.077 1255.87 971.841L1255.2 972.854C1253.52 972.256 1252.23 971.044 1251.6 969.517C1250.97 971.193 1249.62 972.497 1247.88 973.136L1247.18 972.123C1249.39 971.343 1250.94 969.434 1250.95 967.325V966.694H1247.58V965.632H1255.55V966.694H1252.23V967.325ZM1258.77 964.586V968.487H1261V969.6H1258.77V973.484H1257.48V964.586H1258.77ZM1258.77 974.265V979.345H1257.48V975.327H1249.11V974.265H1258.77ZM1267.01 966.91C1266.99 969.019 1268.48 970.878 1270.66 971.608L1269.93 972.621C1268.3 972.007 1267.02 970.812 1266.39 969.251C1265.75 971.019 1264.4 972.397 1262.62 973.069L1261.91 972.007C1264.18 971.21 1265.69 969.251 1265.71 966.96V965.433H1267.01V966.91ZM1274.16 964.586V973.335H1272.85V968.836H1269.56V967.757H1272.85V964.586H1274.16ZM1269.26 973.767C1272.33 973.767 1274.21 974.779 1274.21 976.556C1274.21 978.315 1272.33 979.312 1269.26 979.312C1266.19 979.312 1264.32 978.315 1264.32 976.556C1264.32 974.779 1266.19 973.767 1269.26 973.767ZM1269.26 974.796C1267.01 974.796 1265.59 975.46 1265.61 976.556C1265.59 977.618 1267.01 978.266 1269.26 978.266C1271.52 978.266 1272.92 977.618 1272.92 976.556C1272.92 975.46 1271.52 974.796 1269.26 974.796ZM1281.12 965.283C1283.28 965.283 1284.79 966.445 1284.79 968.205C1284.79 969.724 1283.59 970.828 1281.81 971.044V972.488C1283.19 972.43 1284.6 972.306 1285.88 972.106L1285.98 973.086C1282.86 973.65 1279.32 973.684 1276.77 973.684L1276.6 972.604C1277.75 972.613 1279.09 972.604 1280.5 972.555V971.061C1278.68 970.861 1277.45 969.749 1277.46 968.205C1277.45 966.445 1278.96 965.283 1281.12 965.283ZM1281.12 966.296C1279.69 966.296 1278.68 967.06 1278.69 968.205C1278.68 969.317 1279.69 970.081 1281.12 970.098C1282.56 970.081 1283.54 969.317 1283.56 968.205C1283.54 967.06 1282.56 966.296 1281.12 966.296ZM1288.14 964.603V969.6H1290.35V970.712H1288.14V975.892H1286.83V964.603H1288.14ZM1288.67 977.917V979.013H1278.76V974.912H1280.07V977.917H1288.67ZM1304.82 976.423V977.519H1291.31V976.423H1295.11V973.617H1293V969.068H1301.84V966.761H1292.97V965.682H1303.11V970.147H1294.3V972.538H1303.46V973.617H1301.16V976.423H1304.82ZM1296.39 976.423H1299.88V973.617H1296.39V976.423ZM1322.5 964.586V979.378H1321.19V971.608H1317.96V970.529H1321.19V964.586H1322.5ZM1315.37 969.4C1315.37 971.841 1317.03 974.231 1319.22 975.211L1318.47 976.224C1316.79 975.452 1315.4 973.841 1314.75 971.891C1314.1 973.949 1312.73 975.676 1311.05 976.489L1310.3 975.477C1312.46 974.464 1314.09 971.94 1314.09 969.4V968.222H1310.7V967.159H1314.09V964.868H1315.38V967.159H1318.72V968.222H1315.37V969.4ZM1337.15 964.586V979.378H1335.85V964.586H1337.15ZM1332.67 965.964V971.21H1327.15V974.696C1329.6 974.696 1331.79 974.588 1334.42 974.165L1334.56 975.261C1331.83 975.692 1329.59 975.792 1327.05 975.792H1325.83V970.147H1331.35V967.043H1325.79V965.964H1332.67ZM1343.74 975.045C1344.68 975.045 1345.87 975.037 1347.11 974.995V972.04H1344.54V966.097H1350.81V967.176H1345.81V970.961H1350.94V972.04H1348.37V974.945C1349.46 974.896 1350.54 974.821 1351.47 974.713L1351.54 975.659C1349.1 976.074 1345.95 976.141 1343.94 976.141L1343.74 975.045ZM1356.47 964.586V979.345H1355.21V971.808H1353.37V978.564H1352.16V964.918H1353.37V970.745H1355.21V964.586H1356.47ZM1372.13 976.356V977.452H1358.61V976.356H1361.97V972.372C1360.71 971.716 1359.94 970.654 1359.94 969.317C1359.94 967.026 1362.18 965.532 1365.34 965.516C1368.49 965.532 1370.73 967.026 1370.73 969.317C1370.73 970.629 1369.99 971.683 1368.77 972.339V976.356H1372.13ZM1365.34 966.595C1362.91 966.578 1361.2 967.674 1361.2 969.317C1361.2 970.961 1362.91 972.073 1365.34 972.073C1367.74 972.073 1369.47 970.961 1369.47 969.317C1369.47 967.674 1367.74 966.578 1365.34 966.595ZM1363.25 976.356H1367.46V972.837C1366.82 973.011 1366.11 973.103 1365.34 973.103C1364.58 973.103 1363.88 973.02 1363.25 972.854V976.356Z" fill="black"/>
<line x1="1139.14" y1="921.795" x2="1169.14" y2="942.795" stroke="black" stroke-width="0.5"/>
<g filter="url(#filter0_d_182_40)">
<rect width="1920" height="70" fill="white"/>
<path d="M73.5 27.525C73.5 27.0917 73.5917 26.775 73.775 26.575C73.975 26.375 74.2667 26.275 74.65 26.275H78.225C84.075 26.275 87 29.2 87 35.05C87 37.2333 86.5417 39 85.625 40.35C84.725 41.6833 83.6167 42.625 82.3 43.175C81 43.725 79.6833 44 78.35 44H74.65C74.2667 44 73.975 43.9 73.775 43.7C73.5917 43.5 73.5 43.1833 73.5 42.75V27.525ZM76.2 42.675H76.75V42.65H77.925C79.775 42.65 81.275 42.025 82.425 40.775C83.5917 39.525 84.175 37.6167 84.175 35.05C84.175 32.45 83.6 30.5583 82.45 29.375C81.3167 28.1917 79.8083 27.6 77.925 27.6H76.2V42.675ZM99.209 40.85C99.3757 40.6667 99.584 40.575 99.834 40.575C99.984 40.575 100.117 40.625 100.234 40.725C100.351 40.825 100.409 40.95 100.409 41.1C100.409 41.4 100.301 41.6833 100.084 41.95C98.984 43.3167 97.4507 44 95.484 44C93.534 44 92.059 43.475 91.059 42.425C90.0757 41.3583 89.584 39.8917 89.584 38.025C89.584 35.8917 90.084 34.2667 91.084 33.15C92.084 32.0167 93.534 31.45 95.434 31.45C96.9507 31.45 98.1673 31.8833 99.084 32.75C100.001 33.6167 100.459 34.8583 100.459 36.475C100.459 37.2917 99.984 37.7 99.034 37.7H92.309C92.2923 37.8333 92.284 38.0167 92.284 38.25C92.284 39.6833 92.5673 40.8167 93.134 41.65C93.7007 42.4833 94.5757 42.9 95.759 42.9C96.559 42.9 97.1923 42.7333 97.659 42.4C98.1257 42.0667 98.484 41.75 98.734 41.45C98.984 41.1333 99.1423 40.9333 99.209 40.85ZM95.284 32.45C94.484 32.45 93.8257 32.7917 93.309 33.475C92.7923 34.1583 92.484 35.2167 92.384 36.65H97.059C97.359 36.65 97.5757 36.6 97.709 36.5C97.8423 36.3833 97.909 36.1917 97.909 35.925C97.909 34.8083 97.6423 33.95 97.109 33.35C96.5923 32.75 95.984 32.45 95.284 32.45ZM112.207 31.45C112.44 31.45 112.632 31.5 112.782 31.6C112.932 31.6833 113.007 31.825 113.007 32.025C113.007 32.2917 112.965 32.5167 112.882 32.7L108.707 43.375C108.54 43.7917 108.057 44 107.257 44C106.94 44 106.657 43.95 106.407 43.85C106.174 43.75 106.015 43.5917 105.932 43.375L101.832 32.7C101.749 32.5167 101.707 32.325 101.707 32.125C101.707 31.675 102.015 31.45 102.632 31.45C103.065 31.45 103.465 31.5917 103.832 31.875C104.199 32.1417 104.482 32.5583 104.682 33.125L107.707 41.55H107.832L109.532 37.025C109.815 36.2583 110.057 35.55 110.257 34.9C110.457 34.2333 110.64 33.6 110.807 33C110.94 32.5 111.107 32.1167 111.307 31.85C111.507 31.5833 111.807 31.45 112.207 31.45ZM123.967 27.6C124.251 27.1333 124.509 26.8 124.742 26.6C124.992 26.3833 125.267 26.275 125.567 26.275C125.767 26.275 125.942 26.3333 126.092 26.45C126.242 26.55 126.317 26.6917 126.317 26.875C126.317 27.125 126.226 27.375 126.042 27.625L121.842 34.45L126.767 42.5C126.901 42.7167 126.967 42.95 126.967 43.2C126.967 43.4167 126.876 43.6083 126.692 43.775C126.509 43.925 126.276 44 125.992 44C125.492 44 125.092 43.9 124.792 43.7C124.509 43.5 124.234 43.1667 123.967 42.7L120.217 36.325H120.117L116.192 42.65C115.859 43.2 115.559 43.5667 115.292 43.75C115.042 43.9167 114.776 44 114.492 44C114.242 44 114.051 43.95 113.917 43.85C113.801 43.7333 113.742 43.6 113.742 43.45C113.742 43.2167 113.834 42.95 114.017 42.65L119.017 34.85L114.742 27.725C114.626 27.5417 114.567 27.3417 114.567 27.125C114.567 26.8917 114.659 26.6917 114.842 26.525C115.042 26.3583 115.276 26.275 115.542 26.275C116.359 26.275 117.009 26.7167 117.492 27.6L120.617 33.15H120.767L123.967 27.6Z" fill="black"/>
<path d="M1695.09 29.7422V41.0283H1694.12V35.125H1692.55V40.4697H1691.6V30.0469H1692.55V34.2998H1694.12V29.7422H1695.09ZM1690.32 31.2148C1690.31 34.084 1689.3 36.8008 1686.05 38.6035L1685.47 37.9053C1688.09 36.4453 1689.18 34.376 1689.34 32.04H1685.9V31.2148H1690.32ZM1698.15 30.2246V31.8496H1701.44V30.2246H1702.43V35.1377H1697.17V30.2246H1698.15ZM1698.15 34.3252H1701.44V32.624H1698.15V34.3252ZM1705.52 29.7422V32.1924H1707.22V33.0303H1705.52V35.582H1704.53V29.7422H1705.52ZM1705.52 36.1152V38.8447H1699.32V40.0889H1705.93V40.9014H1698.34V38.083H1704.53V36.915H1698.32V36.1152H1705.52ZM1711.13 30.1611C1712.82 30.1738 1714.05 31.1895 1714.05 32.6621C1714.05 34.1348 1712.82 35.1504 1711.13 35.1504C1709.41 35.1504 1708.19 34.1348 1708.19 32.6621C1708.19 31.1895 1709.41 30.1738 1711.13 30.1611ZM1711.13 30.999C1710 30.999 1709.16 31.6846 1709.17 32.6621C1709.16 33.6523 1710 34.3379 1711.13 34.3379C1712.24 34.3379 1713.08 33.6523 1713.08 32.6621C1713.08 31.6846 1712.24 30.999 1711.13 30.999ZM1717.25 29.7422V35.5439H1716.26V29.7422H1717.25ZM1717.25 36.0898V38.8066H1710.91V40.0762H1717.65V40.876H1709.93V38.0576H1716.26V36.8896H1709.91V36.0898H1717.25ZM1723.2 33.208C1723.2 35.125 1724.6 37.0674 1726.26 37.791L1725.7 38.5781C1724.38 37.9751 1723.24 36.6738 1722.72 35.1123C1722.18 36.769 1721.05 38.21 1719.76 38.8574L1719.16 38.0703C1720.78 37.2959 1722.18 35.1631 1722.2 33.208V31.7354H1719.53V30.9102H1725.89V31.7354H1723.2V33.208ZM1728.47 29.7422V41.0283H1727.47V29.7422H1728.47Z" fill="black"/>
<path d="M1831.27 30.8086V33.8174H1832.42V29.7803H1833.95V40.6348H1832.42V35.1123H1831.27V38.2607H1826.67V30.8086H1831.27ZM1828.18 32.0908V36.9912H1829.76V32.0908H1828.18ZM1836.36 29.6152V41.168H1834.81V29.6152H1836.36ZM1848.15 38.4893V39.8223H1837.58V38.4893H1842.03V36.1279H1838.7V30.4658H1846.97V36.1279H1843.65V38.4893H1848.15ZM1840.29 31.7607V34.8584H1845.37V31.7607H1840.29Z" fill="#9038FF"/>
</g>
<path d="M111.105 111.859V116.488H112.883V110.277H115.227V126.977H112.883V118.48H111.105V123.324H104.035V111.859H111.105ZM106.359 113.832V121.371H108.781V113.832H106.359ZM118.938 110.023V127.797H116.555V110.023H118.938ZM137.082 123.676V125.727H120.812V123.676H127.668V120.043H122.531V111.332H135.266V120.043H130.148V123.676H137.082ZM124.992 113.324V118.09H132.805V113.324H124.992ZM152.805 111.059V113.051H149.27C149.289 115.131 150.52 117.26 153.41 118.188L152.141 120.121C150.168 119.486 148.811 118.217 148.039 116.625C147.248 118.363 145.832 119.74 143.762 120.414L142.434 118.5C145.373 117.553 146.711 115.277 146.75 113.051H143.117V111.059H152.805ZM156.809 110.023V114.34H159.211V116.41H156.809V120.746H154.309V110.023H156.809ZM156.809 121.508V127.797H154.309V123.48H144.836V121.508H156.809ZM166.711 112.445C166.691 114.828 167.922 117.016 170.773 117.895L169.465 119.848C167.551 119.184 166.252 117.953 165.52 116.352C164.719 118.207 163.283 119.672 161.145 120.395L159.836 118.402C162.883 117.426 164.172 115.043 164.191 112.562V110.941H166.711V112.445ZM174.973 110.023V120.434H172.492V115.316H169.152V113.285H172.492V110.023H174.973ZM168.898 120.902C172.688 120.902 175.012 122.172 175.031 124.359C175.012 126.547 172.688 127.797 168.898 127.797C165.109 127.797 162.785 126.547 162.785 124.359C162.785 122.172 165.109 120.902 168.898 120.902ZM168.898 122.836C166.535 122.836 165.266 123.344 165.266 124.359C165.266 125.336 166.535 125.863 168.898 125.863C171.262 125.863 172.551 125.336 172.551 124.359C172.551 123.344 171.262 122.836 168.898 122.836ZM191.301 110.023V116.977H193.918V119.027H191.301V127.797H188.84V110.023H191.301ZM187.629 112.68V114.672H177.18V112.68H181.203V110.297H183.703V112.68H187.629ZM182.453 115.668C185.051 115.668 186.984 117.426 186.984 119.906C186.984 122.387 185.051 124.145 182.453 124.145C179.836 124.145 177.902 122.387 177.902 119.906C177.902 117.426 179.836 115.668 182.453 115.668ZM182.453 117.68C181.203 117.699 180.285 118.539 180.285 119.906C180.285 121.293 181.203 122.113 182.453 122.094C183.703 122.113 184.602 121.293 184.602 119.906C184.602 118.539 183.703 117.699 182.453 117.68ZM209.504 110.023V127.797H206.984V110.023H209.504ZM204.172 111.879C204.172 117.27 202.277 121.742 195.93 124.75L194.621 122.758C199.211 120.59 201.232 117.777 201.633 113.832H195.578V111.879H204.172Z" fill="#9038FF"/>
<g filter="url(#filter1_d_182_40)">
<rect x="798" y="885" width="323" height="60" rx="30" fill="#9038FF"/>
<path d="M933.924 909.697C933.924 911.771 935.453 913.67 937.773 914.479L937.07 915.551C935.286 914.918 933.924 913.635 933.256 912.018C932.588 913.793 931.155 915.173 929.318 915.85L928.58 914.777C930.918 913.951 932.553 911.93 932.57 909.697V909.029H929.002V907.904H937.439V909.029H933.924V909.697ZM940.85 906.797V910.928H943.205V912.105H940.85V916.219H939.479V906.797H940.85ZM940.85 917.045V922.424H939.479V918.17H930.619V917.045H940.85ZM949.568 909.258C949.551 911.49 951.133 913.459 953.436 914.232L952.662 915.305C950.939 914.654 949.586 913.389 948.918 911.736C948.241 913.608 946.809 915.067 944.928 915.779L944.172 914.654C946.58 913.811 948.18 911.736 948.197 909.311V907.693H949.568V909.258ZM957.145 906.797V916.061H955.756V911.297H952.275V910.154H955.756V906.797H957.145ZM951.959 916.518C955.211 916.518 957.197 917.59 957.197 919.471C957.197 921.334 955.211 922.389 951.959 922.389C948.707 922.389 946.721 921.334 946.721 919.471C946.721 917.59 948.707 916.518 951.959 916.518ZM951.959 917.607C949.568 917.607 948.074 918.311 948.092 919.471C948.074 920.596 949.568 921.281 951.959 921.281C954.35 921.281 955.826 920.596 955.826 919.471C955.826 918.311 954.35 917.607 951.959 917.607ZM964.51 907.535C966.795 907.535 968.395 908.766 968.395 910.629C968.395 912.237 967.129 913.406 965.248 913.635V915.164C966.707 915.103 968.192 914.971 969.555 914.76L969.66 915.797C966.355 916.395 962.611 916.43 959.904 916.43L959.729 915.287C960.941 915.296 962.365 915.287 963.859 915.234V913.652C961.926 913.441 960.625 912.264 960.643 910.629C960.625 908.766 962.225 907.535 964.51 907.535ZM964.51 908.607C962.998 908.607 961.926 909.416 961.943 910.629C961.926 911.807 962.998 912.615 964.51 912.633C966.039 912.615 967.076 911.807 967.094 910.629C967.076 909.416 966.039 908.607 964.51 908.607ZM971.945 906.814V912.105H974.283V913.283H971.945V918.768H970.557V906.814H971.945ZM972.508 920.912V922.072H962.014V917.73H963.402V920.912H972.508ZM989.611 919.33V920.49H975.303V919.33H979.328V916.359H977.096V911.543H986.447V909.1H977.061V907.957H987.801V912.686H978.467V915.217H988.17V916.359H985.727V919.33H989.611ZM980.682 919.33H984.373V916.359H980.682V919.33Z" fill="white"/>
</g>
<g filter="url(#filter2_d_182_40)">
<rect x="781.5" y="868.5" width="357" height="93" rx="46.5" stroke="#FF0000" stroke-dasharray="12 2" shape-rendering="crispEdges"/>
</g>
</g>
<defs>
<filter id="filter0_d_182_40" x="-8" y="-8" width="1936" height="86" filterUnits="userSpaceOnUse" color-interpolation-filters="sRGB">
<feFlood flood-opacity="0" result="BackgroundImageFix"/>
<feColorMatrix in="SourceAlpha" type="matrix" values="0 0 0 0 0 0 0 0 0 0 0 0 0 0 0 0 0 0 127 0" result="hardAlpha"/>
<feOffset/>
<feGaussianBlur stdDeviation="4"/>
<feComposite in2="hardAlpha" operator="out"/>
<feColorMatrix type="matrix" values="0 0 0 0 0.891667 0 0 0 0 0.891667 0 0 0 0 0.891667 0 0 0 1 0"/>
<feBlend mode="normal" in2="BackgroundImageFix" result="effect1_dropShadow_182_40"/>
<feBlend mode="normal" in="SourceGraphic" in2="effect1_dropShadow_182_40" result="shape"/>
</filter>
<filter id="filter1_d_182_40" x="794" y="885" width="331" height="68" filterUnits="userSpaceOnUse" color-interpolation-filters="sRGB">
<feFlood flood-opacity="0" result="BackgroundImageFix"/>
<feColorMatrix in="SourceAlpha" type="matrix" values="0 0 0 0 0 0 0 0 0 0 0 0 0 0 0 0 0 0 127 0" result="hardAlpha"/>
<feOffset dy="4"/>
<feGaussianBlur stdDeviation="2"/>
<feComposite in2="hardAlpha" operator="out"/>
<feColorMatrix type="matrix" values="0 0 0 0 0 0 0 0 0 0 0 0 0 0 0 0 0 0 0.25 0"/>
<feBlend mode="normal" in2="BackgroundImageFix" result="effect1_dropShadow_182_40"/>
<feBlend mode="normal" in="SourceGraphic" in2="effect1_dropShadow_182_40" result="shape"/>
</filter>
<filter id="filter2_d_182_40" x="777" y="868" width="366" height="102" filterUnits="userSpaceOnUse" color-interpolation-filters="sRGB">
<feFlood flood-opacity="0" result="BackgroundImageFix"/>
<feColorMatrix in="SourceAlpha" type="matrix" values="0 0 0 0 0 0 0 0 0 0 0 0 0 0 0 0 0 0 127 0" result="hardAlpha"/>
<feOffset dy="4"/>
<feGaussianBlur stdDeviation="2"/>
<feComposite in2="hardAlpha" operator="out"/>
<feColorMatrix type="matrix" values="0 0 0 0 0 0 0 0 0 0 0 0 0 0 0 0 0 0 0.25 0"/>
<feBlend mode="normal" in2="BackgroundImageFix" result="effect1_dropShadow_182_40"/>
<feBlend mode="normal" in="SourceGraphic" in2="effect1_dropShadow_182_40" result="shape"/>
</filter>
<clipPath id="clip0_182_40">
<rect width="1920" height="1024" fill="white"/>
</clipPath>
</defs>
</svg>
