<svg width="167" height="167" viewBox="0 0 167 167" fill="none" xmlns="http://www.w3.org/2000/svg">
<path d="M16.6667 133.333V16.6667H75V75H133.333V83.3333C139.167 83.3333 144.75 84.4167 150 86.25V50L100 0H16.6667C7.41667 0 0 7.41667 0 16.6667V133.333C0 137.754 1.75595 141.993 4.88155 145.118C8.00716 148.244 12.2464 150 16.6667 150H86.25C84.4167 144.75 83.3333 139.167 83.3333 133.333H16.6667ZM91.6667 12.5L137.5 58.3333H91.6667V12.5ZM166.667 125V141.667H141.667V166.667H125V141.667H100V125H125V100H141.667V125H166.667Z" fill="black"/>
</svg>
