<svg width="1920" height="1024" viewBox="0 0 1920 1024" fill="none" xmlns="http://www.w3.org/2000/svg">
<g clip-path="url(#clip0_235_161)">
<rect width="1920" height="1024" fill="#FCFCFC"/>
<g filter="url(#filter0_d_235_161)">
<rect width="1920" height="70" fill="white"/>
<path d="M73.5 27.525C73.5 27.0917 73.5917 26.775 73.775 26.575C73.975 26.375 74.2667 26.275 74.65 26.275H78.225C84.075 26.275 87 29.2 87 35.05C87 37.2333 86.5417 39 85.625 40.35C84.725 41.6833 83.6167 42.625 82.3 43.175C81 43.725 79.6833 44 78.35 44H74.65C74.2667 44 73.975 43.9 73.775 43.7C73.5917 43.5 73.5 43.1833 73.5 42.75V27.525ZM76.2 42.675H76.75V42.65H77.925C79.775 42.65 81.275 42.025 82.425 40.775C83.5917 39.525 84.175 37.6167 84.175 35.05C84.175 32.45 83.6 30.5583 82.45 29.375C81.3167 28.1917 79.8083 27.6 77.925 27.6H76.2V42.675ZM99.209 40.85C99.3757 40.6667 99.584 40.575 99.834 40.575C99.984 40.575 100.117 40.625 100.234 40.725C100.351 40.825 100.409 40.95 100.409 41.1C100.409 41.4 100.301 41.6833 100.084 41.95C98.984 43.3167 97.4507 44 95.484 44C93.534 44 92.059 43.475 91.059 42.425C90.0757 41.3583 89.584 39.8917 89.584 38.025C89.584 35.8917 90.084 34.2667 91.084 33.15C92.084 32.0167 93.534 31.45 95.434 31.45C96.9507 31.45 98.1673 31.8833 99.084 32.75C100.001 33.6167 100.459 34.8583 100.459 36.475C100.459 37.2917 99.984 37.7 99.034 37.7H92.309C92.2923 37.8333 92.284 38.0167 92.284 38.25C92.284 39.6833 92.5673 40.8167 93.134 41.65C93.7007 42.4833 94.5757 42.9 95.759 42.9C96.559 42.9 97.1923 42.7333 97.659 42.4C98.1257 42.0667 98.484 41.75 98.734 41.45C98.984 41.1333 99.1423 40.9333 99.209 40.85ZM95.284 32.45C94.484 32.45 93.8257 32.7917 93.309 33.475C92.7923 34.1583 92.484 35.2167 92.384 36.65H97.059C97.359 36.65 97.5757 36.6 97.709 36.5C97.8423 36.3833 97.909 36.1917 97.909 35.925C97.909 34.8083 97.6423 33.95 97.109 33.35C96.5923 32.75 95.984 32.45 95.284 32.45ZM112.207 31.45C112.44 31.45 112.632 31.5 112.782 31.6C112.932 31.6833 113.007 31.825 113.007 32.025C113.007 32.2917 112.965 32.5167 112.882 32.7L108.707 43.375C108.54 43.7917 108.057 44 107.257 44C106.94 44 106.657 43.95 106.407 43.85C106.174 43.75 106.015 43.5917 105.932 43.375L101.832 32.7C101.749 32.5167 101.707 32.325 101.707 32.125C101.707 31.675 102.015 31.45 102.632 31.45C103.065 31.45 103.465 31.5917 103.832 31.875C104.199 32.1417 104.482 32.5583 104.682 33.125L107.707 41.55H107.832L109.532 37.025C109.815 36.2583 110.057 35.55 110.257 34.9C110.457 34.2333 110.64 33.6 110.807 33C110.94 32.5 111.107 32.1167 111.307 31.85C111.507 31.5833 111.807 31.45 112.207 31.45ZM123.967 27.6C124.251 27.1333 124.509 26.8 124.742 26.6C124.992 26.3833 125.267 26.275 125.567 26.275C125.767 26.275 125.942 26.3333 126.092 26.45C126.242 26.55 126.317 26.6917 126.317 26.875C126.317 27.125 126.226 27.375 126.042 27.625L121.842 34.45L126.767 42.5C126.901 42.7167 126.967 42.95 126.967 43.2C126.967 43.4167 126.876 43.6083 126.692 43.775C126.509 43.925 126.276 44 125.992 44C125.492 44 125.092 43.9 124.792 43.7C124.509 43.5 124.234 43.1667 123.967 42.7L120.217 36.325H120.117L116.192 42.65C115.859 43.2 115.559 43.5667 115.292 43.75C115.042 43.9167 114.776 44 114.492 44C114.242 44 114.051 43.95 113.917 43.85C113.801 43.7333 113.742 43.6 113.742 43.45C113.742 43.2167 113.834 42.95 114.017 42.65L119.017 34.85L114.742 27.725C114.626 27.5417 114.567 27.3417 114.567 27.125C114.567 26.8917 114.659 26.6917 114.842 26.525C115.042 26.3583 115.276 26.275 115.542 26.275C116.359 26.275 117.009 26.7167 117.492 27.6L120.617 33.15H120.767L123.967 27.6Z" fill="black"/>
<path d="M1695.09 29.7422V41.0283H1694.12V35.125H1692.55V40.4697H1691.6V30.0469H1692.55V34.2998H1694.12V29.7422H1695.09ZM1690.32 31.2148C1690.31 34.084 1689.3 36.8008 1686.05 38.6035L1685.47 37.9053C1688.09 36.4453 1689.18 34.376 1689.34 32.04H1685.9V31.2148H1690.32ZM1698.15 30.2246V31.8496H1701.44V30.2246H1702.43V35.1377H1697.17V30.2246H1698.15ZM1698.15 34.3252H1701.44V32.624H1698.15V34.3252ZM1705.52 29.7422V32.1924H1707.22V33.0303H1705.52V35.582H1704.53V29.7422H1705.52ZM1705.52 36.1152V38.8447H1699.32V40.0889H1705.93V40.9014H1698.34V38.083H1704.53V36.915H1698.32V36.1152H1705.52ZM1711.13 30.1611C1712.82 30.1738 1714.05 31.1895 1714.05 32.6621C1714.05 34.1348 1712.82 35.1504 1711.13 35.1504C1709.41 35.1504 1708.19 34.1348 1708.19 32.6621C1708.19 31.1895 1709.41 30.1738 1711.13 30.1611ZM1711.13 30.999C1710 30.999 1709.16 31.6846 1709.17 32.6621C1709.16 33.6523 1710 34.3379 1711.13 34.3379C1712.24 34.3379 1713.08 33.6523 1713.08 32.6621C1713.08 31.6846 1712.24 30.999 1711.13 30.999ZM1717.25 29.7422V35.5439H1716.26V29.7422H1717.25ZM1717.25 36.0898V38.8066H1710.91V40.0762H1717.65V40.876H1709.93V38.0576H1716.26V36.8896H1709.91V36.0898H1717.25ZM1723.2 33.208C1723.2 35.125 1724.6 37.0674 1726.26 37.791L1725.7 38.5781C1724.38 37.9751 1723.24 36.6738 1722.72 35.1123C1722.18 36.769 1721.05 38.21 1719.76 38.8574L1719.16 38.0703C1720.78 37.2959 1722.18 35.1631 1722.2 33.208V31.7354H1719.53V30.9102H1725.89V31.7354H1723.2V33.208ZM1728.47 29.7422V41.0283H1727.47V29.7422H1728.47Z" fill="black"/>
<path d="M1831.27 30.8086V33.8174H1832.42V29.7803H1833.95V40.6348H1832.42V35.1123H1831.27V38.2607H1826.67V30.8086H1831.27ZM1828.18 32.0908V36.9912H1829.76V32.0908H1828.18ZM1836.36 29.6152V41.168H1834.81V29.6152H1836.36ZM1848.15 38.4893V39.8223H1837.58V38.4893H1842.03V36.1279H1838.7V30.4658H1846.97V36.1279H1843.65V38.4893H1848.15ZM1840.29 31.7607V34.8584H1845.37V31.7607H1840.29Z" fill="#9038FF"/>
</g>
<rect x="455.25" y="284.25" width="442.5" height="454.5" rx="5.75" fill="white"/>
<rect x="455.25" y="284.25" width="442.5" height="454.5" rx="5.75" stroke="#888888" stroke-width="0.5"/>
<g filter="url(#filter1_d_235_161)">
<rect x="515" y="633" width="323" height="60" rx="30" fill="#9038FF"/>
<path d="M635.189 656.625V660.703H637.562V655.131H638.881V669.633H637.562V661.846H635.189V666.223H629.213V656.625H635.189ZM630.514 657.732V665.115H633.889V657.732H630.514ZM642.027 654.797V670.424H640.691V654.797H642.027ZM658.498 667.26V668.42H644.189V667.26H650.623V663.445H645.877V656.115H656.723V663.445H651.977V667.26H658.498ZM647.23 657.223V662.338H655.387V657.223H647.23ZM669.555 657.697C669.555 659.771 671.084 661.67 673.404 662.479L672.701 663.551C670.917 662.918 669.555 661.635 668.887 660.018C668.219 661.793 666.786 663.173 664.949 663.85L664.211 662.777C666.549 661.951 668.184 659.93 668.201 657.697V657.029H664.633V655.904H673.07V657.029H669.555V657.697ZM676.48 654.797V658.928H678.836V660.105H676.48V664.219H675.109V654.797H676.48ZM676.48 665.045V670.424H675.109V666.17H666.25V665.045H676.48ZM685.199 657.258C685.182 659.49 686.764 661.459 689.066 662.232L688.293 663.305C686.57 662.654 685.217 661.389 684.549 659.736C683.872 661.608 682.439 663.067 680.559 663.779L679.803 662.654C682.211 661.811 683.811 659.736 683.828 657.311V655.693H685.199V657.258ZM692.775 654.797V664.061H691.387V659.297H687.906V658.154H691.387V654.797H692.775ZM687.59 664.518C690.842 664.518 692.828 665.59 692.828 667.471C692.828 669.334 690.842 670.389 687.59 670.389C684.338 670.389 682.352 669.334 682.352 667.471C682.352 665.59 684.338 664.518 687.59 664.518ZM687.59 665.607C685.199 665.607 683.705 666.311 683.723 667.471C683.705 668.596 685.199 669.281 687.59 669.281C689.98 669.281 691.457 668.596 691.457 667.471C691.457 666.311 689.98 665.607 687.59 665.607ZM707.471 654.797V661.248H710.09V662.391H707.471V670.424H706.1V654.797H707.471ZM704.588 657.311V658.453H695.289V657.311H699.314V654.99H700.686V657.311H704.588ZM700.018 659.754C702.232 659.754 703.832 661.23 703.85 663.34C703.832 665.449 702.232 666.926 700.018 666.926C697.785 666.926 696.168 665.449 696.186 663.34C696.168 661.23 697.785 659.754 700.018 659.754ZM700.018 660.914C698.559 660.914 697.486 661.934 697.504 663.34C697.486 664.764 698.559 665.766 700.018 665.748C701.459 665.766 702.514 664.764 702.531 663.34C702.514 661.934 701.459 660.914 700.018 660.914ZM723.854 654.797V670.424H722.465V654.797H723.854ZM719.23 656.502C719.213 661.002 717.121 664.975 711.883 667.488L711.127 666.363C715.354 664.359 717.508 661.362 717.824 657.627H711.848V656.502H719.23Z" fill="white"/>
</g>
<path d="M593.321 577.738V583.062H595.365V575.919H598.061V595.123H595.365V585.353H593.321V590.923H585.19V577.738H593.321ZM587.863 580.007V588.677H590.648V580.007H587.863ZM602.328 575.627V596.066H599.588V575.627H602.328ZM623.194 591.327V593.686H604.484V591.327H612.368V587.149H606.461V577.132H621.105V587.149H615.221V591.327H623.194ZM609.291 579.423V584.903H618.275V579.423H609.291ZM643.05 584.791V586.925H624.34V584.791H643.05ZM640.804 587.936V592.765H629.349V593.933H641.41V595.887H626.496V590.945H637.974V589.912H626.474V587.936H640.804ZM640.781 575.986V580.793H629.528V581.894H641.141V583.825H626.676V578.974H637.906V577.94H626.631V575.986H640.781ZM666.769 575.627V587.756H663.916V582.927H660.727V580.613H663.916V575.627H666.769ZM659.783 588.205C664.141 588.228 666.813 589.665 666.836 592.158C666.813 594.629 664.141 596.089 659.783 596.089C655.426 596.089 652.753 594.629 652.753 592.158C652.753 589.665 655.426 588.228 659.783 588.205ZM659.783 590.406C657.065 590.406 655.605 590.968 655.605 592.158C655.605 593.326 657.065 593.91 659.783 593.91C662.501 593.91 663.983 593.326 663.983 592.158C663.983 590.968 662.501 590.406 659.783 590.406ZM661.333 576.862V579.153H657.268C657.335 581.534 658.772 583.938 661.962 584.993L660.547 587.239C658.29 586.509 656.74 585.027 655.853 583.174C654.943 585.263 653.314 586.947 650.889 587.778L649.406 585.51C652.764 584.387 654.269 581.714 654.348 579.153H650.237V576.862H661.333ZM686.557 575.627V596.111H683.704V575.627H686.557ZM680.223 577.334V585.218H673.484V588.969C676.595 588.958 679.246 588.778 682.244 588.295L682.491 590.608C679.122 591.192 676.09 591.327 672.361 591.327H670.52V582.949H677.303V579.647H670.497V577.334H680.223ZM699.157 578.749V581.018H689.274V578.749H692.823V576.188H695.653V578.749H699.157ZM694.261 581.938C696.866 581.938 698.73 583.96 698.753 586.79C698.73 589.643 696.866 591.664 694.261 591.664C691.655 591.664 689.746 589.643 689.746 586.79C689.746 583.96 691.655 581.938 694.261 581.938ZM694.261 584.319C693.07 584.319 692.262 585.24 692.262 586.79C692.262 588.34 693.07 589.238 694.261 589.238C695.406 589.238 696.215 588.34 696.237 586.79C696.215 585.24 695.406 584.319 694.261 584.319ZM706.974 575.627V596.066H704.256V586.229H702.594V595.19H699.921V576.031H702.594V583.938H704.256V575.627H706.974ZM727.885 591.35V593.686H709.175V591.35H717.059V587.576H711.151V576.93H714.026V580.097H722.943V576.93H725.796V587.576H719.911V591.35H727.885ZM714.026 585.285H722.943V582.388H714.026V585.285ZM735.611 580.771C735.611 584.072 736.532 587.486 739.317 589.283L737.768 591.507C736.004 590.44 734.881 588.688 734.241 586.588C733.5 588.901 732.276 590.833 730.423 591.956L728.671 589.845C731.703 587.958 732.826 584.364 732.826 580.905V577.379H735.611V580.771ZM746.774 575.627V596.066H744.034V575.627H746.774ZM742.484 575.919V595.123H739.812V584.858H737.161V582.522H739.812V575.919H742.484ZM767.641 591.327V593.686H748.931V591.327H753.108V586.318C751.525 585.375 750.57 583.926 750.57 582.118C750.57 578.816 753.805 576.615 758.252 576.615C762.677 576.615 765.934 578.816 765.956 582.118C765.945 583.881 765.013 585.319 763.485 586.273V591.327H767.641ZM758.252 578.884C755.332 578.884 753.4 580.052 753.4 582.118C753.4 584.117 755.332 585.353 758.252 585.353C761.149 585.353 763.104 584.117 763.126 582.118C763.104 580.052 761.149 578.884 758.252 578.884ZM755.938 591.327H760.588V587.352C759.858 587.498 759.072 587.576 758.252 587.576C757.432 587.576 756.657 587.509 755.938 587.352V591.327Z" fill="black"/>
<path d="M618.667 497.333V380.667H677V439H735.333V447.333C741.167 447.333 746.75 448.417 752 450.25V414L702 364H618.667C609.417 364 602 371.417 602 380.667V497.333C602 501.754 603.756 505.993 606.882 509.118C610.007 512.244 614.246 514 618.667 514H688.25C686.417 508.75 685.333 503.167 685.333 497.333H618.667ZM693.667 376.5L739.5 422.333H693.667V376.5ZM768.667 489V505.667H743.667V530.667H727V505.667H702V489H727V464H743.667V489H768.667Z" fill="black"/>
<g filter="url(#filter2_d_235_161)">
<rect x="497.5" y="616.5" width="357" height="93" rx="46.5" stroke="#FF0000" stroke-dasharray="12 2" shape-rendering="crispEdges"/>
</g>
<rect x="730.25" y="732.25" width="241.5" height="95.5" rx="47.75" fill="white"/>
<rect x="730.25" y="732.25" width="241.5" height="95.5" rx="47.75" stroke="black" stroke-width="0.5"/>
<path d="M817.623 752.586V767.378H816.328V759.16H812.792V763.643H805.985V753.748H807.296V757.6H811.513V753.748H812.792V758.081H816.328V752.586H817.623ZM807.296 762.563H811.513V758.646H807.296V762.563ZM833.527 760.771V761.833H820.063V760.771H833.527ZM832.116 765.934V767.029H821.823V762.912H823.118V765.934H832.116ZM831.933 758.347V759.376H821.856V753.15H831.85V754.196H823.167V755.74H831.452V756.753H823.167V758.347H831.933ZM841.496 752.852C844.783 752.852 846.708 753.748 846.708 755.392C846.708 757.068 844.783 757.965 841.496 757.981C838.208 757.965 836.266 757.068 836.266 755.392C836.266 753.748 838.208 752.852 841.496 752.852ZM841.496 753.831C839.039 753.831 837.611 754.429 837.627 755.392C837.611 756.421 839.039 756.985 841.496 756.985C843.936 756.985 845.38 756.421 845.38 755.392C845.38 754.429 843.936 753.831 841.496 753.831ZM848.219 758.978V760.04H834.772V758.978H848.219ZM846.493 761.318V764.622H837.727V766.149H846.941V767.179H836.432V763.659H845.214V762.314H836.399V761.318H846.493ZM865.651 757.566V758.646H855.474V753.35H856.769V757.566H865.651ZM867.245 760.87V761.966H861.069V767.345H859.774V761.966H853.731V760.87H867.245ZM881.937 764.39V765.485H868.423V764.39H881.937ZM880.227 753.715V758.181H871.412V760.604H880.576V761.65H870.117V757.118H878.949V754.794H870.083V753.715H880.227ZM890.586 753.881V755.192H894.04V752.603H895.351V763.377H894.04V759.442H890.586V760.771H883.813V753.881H890.586ZM885.108 754.96V759.725H889.308V754.96H885.108ZM895.683 765.934V767.029H885.805V762.414H887.117V765.934H895.683ZM890.586 758.363H894.04V756.288H890.586V758.363ZM777.928 774.312V778.164H780.169V772.901H781.415V786.598H780.169V779.243H777.928V783.377H772.284V774.312H777.928ZM773.512 775.358V782.331H776.7V775.358H773.512ZM784.386 772.586V787.345H783.125V772.586H784.386ZM799.942 784.356V785.452H786.428V784.356H792.504V780.754H788.022V773.831H798.265V780.754H793.783V784.356H799.942ZM789.3 774.877V779.708H797.003V774.877H789.3ZM817.623 772.586V781.385H816.311V777.517H813.339V776.438H816.311V772.586H817.623ZM812.725 781.85C815.796 781.85 817.672 782.846 817.672 784.589C817.672 786.332 815.796 787.328 812.725 787.345C809.654 787.328 807.778 786.332 807.778 784.589C807.778 782.846 809.654 781.85 812.725 781.85ZM812.725 782.862C810.467 782.862 809.056 783.51 809.073 784.589C809.056 785.651 810.467 786.299 812.725 786.299C814.983 786.299 816.377 785.651 816.377 784.589C816.377 783.51 814.983 782.862 812.725 782.862ZM810.517 775.292C810.517 777.218 811.995 779.044 814.153 779.791L813.472 780.837C811.812 780.239 810.525 779.002 809.903 777.467C809.255 779.202 807.886 780.588 806.134 781.252L805.454 780.206C807.645 779.409 809.206 777.417 809.206 775.309V774.761H805.869V773.665H813.821V774.761H810.517V775.292ZM832.265 772.586V787.378H830.97V772.586H832.265ZM827.783 773.964V779.21H822.271V782.696C824.72 782.696 826.903 782.588 829.542 782.165L829.675 783.261C826.953 783.692 824.711 783.792 822.171 783.792H820.943V778.147H826.471V775.043H820.91V773.964H827.783ZM846.194 772.586V778.679H848.667V779.758H846.194V787.345H844.899V772.586H846.194ZM843.471 774.96V776.039H834.689V774.96H838.491V772.769H839.786V774.96H843.471ZM839.155 777.268C841.247 777.268 842.757 778.662 842.774 780.654C842.757 782.646 841.247 784.041 839.155 784.041C837.046 784.041 835.519 782.646 835.536 780.654C835.519 778.662 837.046 777.268 839.155 777.268ZM839.155 778.363C837.777 778.363 836.764 779.326 836.781 780.654C836.764 781.999 837.777 782.945 839.155 782.929C840.516 782.945 841.512 781.999 841.529 780.654C841.512 779.326 840.516 778.363 839.155 778.363ZM861.667 772.586V787.345H860.355V772.586H861.667ZM857.3 774.196C857.284 778.446 855.308 782.198 850.361 784.572L849.647 783.51C853.64 781.617 855.673 778.787 855.972 775.259H850.328V774.196H857.3ZM881.124 772.586V787.345H879.862V772.586H881.124ZM878.235 772.951V786.564H876.99V779.376H874.931V778.197H876.99V772.951H878.235ZM875.363 774.479V775.558H874.118V782.381C874.674 782.348 875.205 782.298 875.695 782.231L875.778 783.194C873.454 783.626 870.349 783.692 868.423 783.692L868.257 782.58L869.818 782.563V775.558H868.573V774.479H875.363ZM871.013 782.547C871.627 782.53 872.275 782.505 872.906 782.464V775.558H871.013V782.547ZM895.285 772.586V787.378H893.973V772.586H895.285ZM887.432 773.731C889.624 773.748 891.201 775.74 891.201 778.878C891.201 782.016 889.624 784.008 887.432 784.008C885.224 784.008 883.664 782.016 883.664 778.878C883.664 775.74 885.224 773.748 887.432 773.731ZM887.432 774.894C885.955 774.91 884.925 776.471 884.925 778.878C884.925 781.285 885.955 782.846 887.432 782.846C888.91 782.846 889.939 781.285 889.939 778.878C889.939 776.471 888.91 774.91 887.432 774.894ZM903.087 777.118C903.087 779.625 904.914 782.165 907.088 783.111L906.358 784.141C904.631 783.352 903.137 781.65 902.457 779.608C901.759 781.775 900.273 783.659 898.588 784.506L897.808 783.477C899.917 782.464 901.759 779.675 901.776 777.118V775.192H898.29V774.113H906.607V775.192H903.087V777.118ZM909.977 772.586V787.345H908.666V772.586H909.977ZM926.014 784.423V785.519H912.5V784.423H918.577V781.634H914.194V777.085H923.026V774.761H914.161V773.682H924.304V778.147H915.489V780.555H924.653V781.634H919.855V784.423H926.014ZM834.448 801.816V807.146H824.886V801.816H834.448ZM826.164 802.862V806.083H833.17V802.862H826.164ZM824.404 793.482V799.011C826.712 799.019 828.663 798.87 830.812 798.43L830.979 799.542C828.688 800.007 826.679 800.14 824.222 800.14H823.093V793.482H824.404ZM834.448 792.586V801.103H833.137V796.454H828.887V795.392H833.137V792.586H834.448ZM840.873 793.731C842.882 793.748 844.326 795.466 844.542 798.23H847.846V792.586H849.141V807.378H847.846V799.31H844.559C844.401 802.198 842.932 804.008 840.873 804.008C838.698 804.008 837.171 802.016 837.171 798.878C837.171 795.74 838.698 793.748 840.873 793.731ZM840.873 794.894C839.412 794.91 838.416 796.471 838.416 798.878C838.416 801.285 839.412 802.846 840.873 802.846C842.317 802.846 843.33 801.285 843.33 798.878C843.33 796.471 842.317 794.91 840.873 794.894ZM863.02 792.586V798.596H865.41V799.691H863.02V807.345H861.725V792.586H863.02ZM859.201 794.18C859.201 798.363 857.242 802.165 852.428 804.539L851.697 803.51C855.516 801.609 857.591 798.77 857.89 795.275H852.378V794.18H859.201ZM879.804 804.356V805.452H866.29V804.356H869.644V800.372C868.382 799.716 867.618 798.654 867.618 797.317C867.618 795.026 869.859 793.532 873.014 793.516C876.168 793.532 878.409 795.026 878.409 797.317C878.409 798.629 877.67 799.683 876.45 800.339V804.356H879.804ZM873.014 794.595C870.59 794.578 868.88 795.674 868.88 797.317C868.88 798.961 870.59 800.073 873.014 800.073C875.421 800.073 877.147 798.961 877.147 797.317C877.147 795.674 875.421 794.578 873.014 794.595ZM870.922 804.356H875.139V800.837C874.5 801.011 873.786 801.103 873.014 801.103C872.258 801.103 871.553 801.02 870.922 800.854V804.356Z" fill="black"/>
<line x1="704.215" y1="709.873" x2="734.215" y2="760.873" stroke="black" stroke-width="0.5"/>
<rect x="1021.25" y="284.25" width="442.5" height="454.5" rx="5.75" fill="white"/>
<rect x="1021.25" y="284.25" width="442.5" height="454.5" rx="5.75" stroke="#888888" stroke-width="0.5"/>
<g filter="url(#filter3_d_235_161)">
<rect x="1081" y="633" width="323" height="60" rx="30" fill="#9038FF"/>
<path d="M1201.19 656.625V660.703H1203.56V655.131H1204.88V669.633H1203.56V661.846H1201.19V666.223H1195.21V656.625H1201.19ZM1196.51 657.732V665.115H1199.89V657.732H1196.51ZM1208.03 654.797V670.424H1206.69V654.797H1208.03ZM1224.5 667.26V668.42H1210.19V667.26H1216.62V663.445H1211.88V656.115H1222.72V663.445H1217.98V667.26H1224.5ZM1213.23 657.223V662.338H1221.39V657.223H1213.23ZM1242.46 654.814V659.543H1244.8V660.703H1242.46V665.291H1241.07V654.814H1242.46ZM1230.19 663.691C1231.44 663.691 1232.9 663.691 1234.43 663.639V662.496C1232.61 662.338 1231.44 661.485 1231.44 660.193C1231.44 658.77 1232.9 657.891 1235.1 657.891C1237.31 657.891 1238.75 658.77 1238.77 660.193C1238.75 661.477 1237.61 662.329 1235.8 662.496V663.586C1237.26 663.516 1238.74 663.401 1240.11 663.199L1240.23 664.201C1236.84 664.799 1233.09 664.816 1230.35 664.816L1230.19 663.691ZM1242.46 666.064V670.424H1241.07V667.172H1232.11V666.064H1242.46ZM1239.63 656.238V657.293H1230.58V656.238H1234.43V654.674H1235.8V656.238H1239.63ZM1235.1 658.875C1233.66 658.857 1232.76 659.367 1232.76 660.193C1232.76 661.002 1233.66 661.564 1235.1 661.547C1236.54 661.564 1237.45 661.002 1237.45 660.193C1237.45 659.367 1236.54 658.857 1235.1 658.875ZM1258.72 654.814V666.24H1257.35V654.814H1258.72ZM1259.21 668.93V670.09H1248.63V665.08H1250V668.93H1259.21ZM1250.29 655.904C1252.62 655.904 1254.38 657.486 1254.38 659.736C1254.38 662.021 1252.62 663.586 1250.29 663.586C1247.95 663.586 1246.19 662.021 1246.19 659.736C1246.19 657.486 1247.95 655.904 1250.29 655.904ZM1250.29 657.117C1248.7 657.117 1247.53 658.207 1247.54 659.736C1247.53 661.301 1248.7 662.373 1250.29 662.373C1251.83 662.373 1253.03 661.301 1253.03 659.736C1253.03 658.207 1251.83 657.117 1250.29 657.117ZM1273.47 654.797V661.248H1276.09V662.391H1273.47V670.424H1272.1V654.797H1273.47ZM1270.59 657.311V658.453H1261.29V657.311H1265.31V654.99H1266.69V657.311H1270.59ZM1266.02 659.754C1268.23 659.754 1269.83 661.23 1269.85 663.34C1269.83 665.449 1268.23 666.926 1266.02 666.926C1263.79 666.926 1262.17 665.449 1262.19 663.34C1262.17 661.23 1263.79 659.754 1266.02 659.754ZM1266.02 660.914C1264.56 660.914 1263.49 661.934 1263.5 663.34C1263.49 664.764 1264.56 665.766 1266.02 665.748C1267.46 665.766 1268.51 664.764 1268.53 663.34C1268.51 661.934 1267.46 660.914 1266.02 660.914ZM1289.85 654.797V670.424H1288.46V654.797H1289.85ZM1285.23 656.502C1285.21 661.002 1283.12 664.975 1277.88 667.488L1277.13 666.363C1281.35 664.359 1283.51 661.362 1283.82 657.627H1277.85V656.502H1285.23Z" fill="white"/>
</g>
<path d="M1113.24 575.627V596.066H1110.48V585.847H1108.57V595.078H1105.87V575.964H1108.57V583.533H1110.48V575.627H1113.24ZM1099.31 577.896V588.564C1100.95 588.531 1102.75 588.385 1104.73 588.003L1105.02 590.474C1102.28 590.945 1099.94 591.08 1097.83 591.08H1096.44V577.896H1099.31ZM1131.61 575.627V583.466H1134.51V585.824H1131.61V596.021H1128.74V575.627H1131.61ZM1126.15 577.716C1126.13 583.825 1123.75 589.126 1116.88 592.495L1115.26 590.294C1120.1 587.868 1122.69 584.611 1123.23 580.052H1116.43V577.716H1126.15ZM1152.28 576.817V579.108H1148.21C1148.23 581.5 1149.65 583.949 1152.97 585.016L1151.51 587.239C1149.24 586.509 1147.68 585.049 1146.79 583.219C1145.89 585.218 1144.26 586.801 1141.88 587.576L1140.35 585.375C1143.73 584.286 1145.27 581.669 1145.31 579.108H1141.13V576.817H1152.28ZM1156.88 575.627V580.591H1159.64V582.972H1156.88V587.958H1154V575.627H1156.88ZM1156.88 588.834V596.066H1154V591.103H1143.11V588.834H1156.88ZM1168.27 578.412C1168.25 581.152 1169.66 583.668 1172.94 584.679L1171.43 586.925C1169.23 586.161 1167.74 584.746 1166.9 582.904C1165.98 585.038 1164.33 586.723 1161.87 587.554L1160.36 585.263C1163.87 584.14 1165.35 581.399 1165.37 578.547V576.683H1168.27V578.412ZM1177.77 575.627V587.599H1174.92V581.714H1171.08V579.378H1174.92V575.627H1177.77ZM1170.78 588.138C1175.14 588.138 1177.81 589.598 1177.84 592.113C1177.81 594.629 1175.14 596.066 1170.78 596.066C1166.43 596.066 1163.75 594.629 1163.75 592.113C1163.75 589.598 1166.43 588.138 1170.78 588.138ZM1170.78 590.361C1168.07 590.361 1166.61 590.945 1166.61 592.113C1166.61 593.236 1168.07 593.843 1170.78 593.843C1173.5 593.843 1174.98 593.236 1174.98 592.113C1174.98 590.945 1173.5 590.361 1170.78 590.361ZM1196.64 575.649V581.916H1199.4V584.252H1196.64V590.9H1193.76V575.649H1196.64ZM1192.55 577.783V580.052H1180.42V577.783H1185.07V575.604H1187.92V577.783H1192.55ZM1186.48 580.771C1189.45 580.771 1191.51 582.365 1191.51 584.724C1191.51 587.082 1189.45 588.632 1186.48 588.632C1183.5 588.632 1181.41 587.082 1181.41 584.724C1181.41 582.365 1183.5 580.771 1186.48 580.771ZM1186.48 582.949C1185.11 582.972 1184.19 583.601 1184.21 584.724C1184.19 585.847 1185.11 586.453 1186.48 586.453C1187.85 586.453 1188.8 585.847 1188.8 584.724C1188.8 583.601 1187.85 582.972 1186.48 582.949ZM1197.38 593.416V595.707H1183.38V589.732H1186.24V593.416H1197.38ZM1214.31 577.738V583.062H1216.36V575.919H1219.05V595.123H1216.36V585.353H1214.31V590.923H1206.18V577.738H1214.31ZM1208.85 580.007V588.677H1211.64V580.007H1208.85ZM1223.32 575.627V596.066H1220.58V575.627H1223.32ZM1244.19 591.327V593.686H1225.48V591.327H1233.36V587.149H1227.45V577.132H1242.1V587.149H1236.21V591.327H1244.19ZM1230.28 579.423V584.903H1239.27V579.423H1230.28ZM1264.04 584.791V586.925H1245.33V584.791H1264.04ZM1261.79 587.936V592.765H1250.34V593.933H1262.4V595.887H1247.49V590.945H1258.96V589.912H1247.46V587.936H1261.79ZM1261.77 575.986V580.793H1250.52V581.894H1262.13V583.825H1247.67V578.974H1258.9V577.94H1247.62V575.986H1261.77ZM1286.88 575.649V581.489H1289.49V583.848H1286.88V589.53H1284.01V575.649H1286.88ZM1270.31 586.902C1271.8 586.902 1273.51 586.902 1275.27 586.857V585.712C1273.05 585.397 1271.66 584.319 1271.68 582.747C1271.66 580.86 1273.65 579.692 1276.69 579.692C1279.7 579.692 1281.67 580.86 1281.7 582.747C1281.67 584.319 1280.31 585.386 1278.12 585.689V586.745C1279.81 586.678 1281.48 586.543 1283.07 586.341L1283.27 588.317C1278.96 589.081 1274.22 589.126 1270.6 589.126L1270.31 586.902ZM1286.88 590.361V596.066H1284.01V592.562H1272.91V590.361H1286.88ZM1282.55 577.132V579.221H1270.85V577.132H1275.27V575.47H1278.12V577.132H1282.55ZM1276.69 581.602C1275.23 581.602 1274.4 581.961 1274.42 582.747C1274.4 583.488 1275.23 583.915 1276.69 583.915C1278.12 583.915 1278.93 583.488 1278.96 582.747C1278.93 581.961 1278.12 581.602 1276.69 581.602ZM1307.53 575.649V590.339H1304.65V575.649H1307.53ZM1308.06 593.416V595.707H1293.82V588.856H1296.72V593.416H1308.06ZM1296.32 576.952C1299.46 576.952 1301.91 579.108 1301.91 582.096C1301.91 585.15 1299.46 587.284 1296.32 587.284C1293.17 587.284 1290.72 585.15 1290.72 582.096C1290.72 579.108 1293.17 576.952 1296.32 576.952ZM1296.32 579.445C1294.72 579.423 1293.51 580.434 1293.53 582.096C1293.51 583.803 1294.72 584.791 1296.32 584.791C1297.87 584.791 1299.08 583.803 1299.08 582.096C1299.08 580.434 1297.87 579.423 1296.32 579.445ZM1320.15 578.749V581.018H1310.27V578.749H1313.81V576.188H1316.64V578.749H1320.15ZM1315.25 581.938C1317.86 581.938 1319.72 583.96 1319.74 586.79C1319.72 589.643 1317.86 591.664 1315.25 591.664C1312.65 591.664 1310.74 589.643 1310.74 586.79C1310.74 583.96 1312.65 581.938 1315.25 581.938ZM1315.25 584.319C1314.06 584.319 1313.25 585.24 1313.25 586.79C1313.25 588.34 1314.06 589.238 1315.25 589.238C1316.4 589.238 1317.21 588.34 1317.23 586.79C1317.21 585.24 1316.4 584.319 1315.25 584.319ZM1327.96 575.627V596.066H1325.25V586.229H1323.58V595.19H1320.91V576.031H1323.58V583.938H1325.25V575.627H1327.96ZM1348.88 591.35V593.686H1330.17V591.35H1338.05V587.576H1332.14V576.93H1335.02V580.097H1343.93V576.93H1346.79V587.576H1340.9V591.35H1348.88ZM1335.02 585.285H1343.93V582.388H1335.02V585.285ZM1356.6 580.771C1356.6 584.072 1357.52 587.486 1360.31 589.283L1358.76 591.507C1357 590.44 1355.87 588.688 1355.23 586.588C1354.49 588.901 1353.27 590.833 1351.41 591.956L1349.66 589.845C1352.69 587.958 1353.82 584.364 1353.82 580.905V577.379H1356.6V580.771ZM1367.77 575.627V596.066H1365.03V575.627H1367.77ZM1363.48 575.919V595.123H1360.8V584.858H1358.15V582.522H1360.8V575.919H1363.48ZM1388.63 591.327V593.686H1369.92V591.327H1374.1V586.318C1372.52 585.375 1371.56 583.926 1371.56 582.118C1371.56 578.816 1374.8 576.615 1379.24 576.615C1383.67 576.615 1386.92 578.816 1386.95 582.118C1386.94 583.881 1386 585.319 1384.48 586.273V591.327H1388.63ZM1379.24 578.884C1376.32 578.884 1374.39 580.052 1374.39 582.118C1374.39 584.117 1376.32 585.353 1379.24 585.353C1382.14 585.353 1384.09 584.117 1384.12 582.118C1384.09 580.052 1382.14 578.884 1379.24 578.884ZM1376.93 591.327H1381.58V587.352C1380.85 587.498 1380.06 587.576 1379.24 587.576C1378.42 587.576 1377.65 587.509 1376.93 587.352V591.327Z" fill="black"/>
<path d="M1307.83 357.333L1343 392.5L1213.33 522.333L1143 451.917L1178.17 416.75L1213.33 451.917L1307.83 357.333ZM1307.83 380.667L1213.33 475.333L1178.17 440.583L1166.42 451.917L1213.33 498.75L1319.58 392.5L1307.83 380.667Z" fill="black"/>
<g filter="url(#filter4_d_235_161)">
<rect x="1064.5" y="616.5" width="357" height="93" rx="46.5" stroke="#FF0000" stroke-dasharray="12 2" shape-rendering="crispEdges"/>
</g>
</g>
<defs>
<filter id="filter0_d_235_161" x="-8" y="-8" width="1936" height="86" filterUnits="userSpaceOnUse" color-interpolation-filters="sRGB">
<feFlood flood-opacity="0" result="BackgroundImageFix"/>
<feColorMatrix in="SourceAlpha" type="matrix" values="0 0 0 0 0 0 0 0 0 0 0 0 0 0 0 0 0 0 127 0" result="hardAlpha"/>
<feOffset/>
<feGaussianBlur stdDeviation="4"/>
<feComposite in2="hardAlpha" operator="out"/>
<feColorMatrix type="matrix" values="0 0 0 0 0.891667 0 0 0 0 0.891667 0 0 0 0 0.891667 0 0 0 1 0"/>
<feBlend mode="normal" in2="BackgroundImageFix" result="effect1_dropShadow_235_161"/>
<feBlend mode="normal" in="SourceGraphic" in2="effect1_dropShadow_235_161" result="shape"/>
</filter>
<filter id="filter1_d_235_161" x="511" y="633" width="331" height="68" filterUnits="userSpaceOnUse" color-interpolation-filters="sRGB">
<feFlood flood-opacity="0" result="BackgroundImageFix"/>
<feColorMatrix in="SourceAlpha" type="matrix" values="0 0 0 0 0 0 0 0 0 0 0 0 0 0 0 0 0 0 127 0" result="hardAlpha"/>
<feOffset dy="4"/>
<feGaussianBlur stdDeviation="2"/>
<feComposite in2="hardAlpha" operator="out"/>
<feColorMatrix type="matrix" values="0 0 0 0 0 0 0 0 0 0 0 0 0 0 0 0 0 0 0.25 0"/>
<feBlend mode="normal" in2="BackgroundImageFix" result="effect1_dropShadow_235_161"/>
<feBlend mode="normal" in="SourceGraphic" in2="effect1_dropShadow_235_161" result="shape"/>
</filter>
<filter id="filter2_d_235_161" x="493" y="616" width="366" height="102" filterUnits="userSpaceOnUse" color-interpolation-filters="sRGB">
<feFlood flood-opacity="0" result="BackgroundImageFix"/>
<feColorMatrix in="SourceAlpha" type="matrix" values="0 0 0 0 0 0 0 0 0 0 0 0 0 0 0 0 0 0 127 0" result="hardAlpha"/>
<feOffset dy="4"/>
<feGaussianBlur stdDeviation="2"/>
<feComposite in2="hardAlpha" operator="out"/>
<feColorMatrix type="matrix" values="0 0 0 0 0 0 0 0 0 0 0 0 0 0 0 0 0 0 0.25 0"/>
<feBlend mode="normal" in2="BackgroundImageFix" result="effect1_dropShadow_235_161"/>
<feBlend mode="normal" in="SourceGraphic" in2="effect1_dropShadow_235_161" result="shape"/>
</filter>
<filter id="filter3_d_235_161" x="1077" y="633" width="331" height="68" filterUnits="userSpaceOnUse" color-interpolation-filters="sRGB">
<feFlood flood-opacity="0" result="BackgroundImageFix"/>
<feColorMatrix in="SourceAlpha" type="matrix" values="0 0 0 0 0 0 0 0 0 0 0 0 0 0 0 0 0 0 127 0" result="hardAlpha"/>
<feOffset dy="4"/>
<feGaussianBlur stdDeviation="2"/>
<feComposite in2="hardAlpha" operator="out"/>
<feColorMatrix type="matrix" values="0 0 0 0 0 0 0 0 0 0 0 0 0 0 0 0 0 0 0.25 0"/>
<feBlend mode="normal" in2="BackgroundImageFix" result="effect1_dropShadow_235_161"/>
<feBlend mode="normal" in="SourceGraphic" in2="effect1_dropShadow_235_161" result="shape"/>
</filter>
<filter id="filter4_d_235_161" x="1060" y="616" width="366" height="102" filterUnits="userSpaceOnUse" color-interpolation-filters="sRGB">
<feFlood flood-opacity="0" result="BackgroundImageFix"/>
<feColorMatrix in="SourceAlpha" type="matrix" values="0 0 0 0 0 0 0 0 0 0 0 0 0 0 0 0 0 0 127 0" result="hardAlpha"/>
<feOffset dy="4"/>
<feGaussianBlur stdDeviation="2"/>
<feComposite in2="hardAlpha" operator="out"/>
<feColorMatrix type="matrix" values="0 0 0 0 0 0 0 0 0 0 0 0 0 0 0 0 0 0 0.25 0"/>
<feBlend mode="normal" in2="BackgroundImageFix" result="effect1_dropShadow_235_161"/>
<feBlend mode="normal" in="SourceGraphic" in2="effect1_dropShadow_235_161" result="shape"/>
</filter>
<clipPath id="clip0_235_161">
<rect width="1920" height="1024" fill="white"/>
</clipPath>
</defs>
</svg>
