<svg width="1920" height="1024" viewBox="0 0 1920 1024" fill="none" xmlns="http://www.w3.org/2000/svg">
<g clip-path="url(#clip0_182_28)">
<rect width="1920" height="1024" fill="#FCFCFC"/>
<g filter="url(#filter0_d_182_28)">
<rect width="1920" height="70" fill="white"/>
<path d="M73.5 27.525C73.5 27.0917 73.5917 26.775 73.775 26.575C73.975 26.375 74.2667 26.275 74.65 26.275H78.225C84.075 26.275 87 29.2 87 35.05C87 37.2333 86.5417 39 85.625 40.35C84.725 41.6833 83.6167 42.625 82.3 43.175C81 43.725 79.6833 44 78.35 44H74.65C74.2667 44 73.975 43.9 73.775 43.7C73.5917 43.5 73.5 43.1833 73.5 42.75V27.525ZM76.2 42.675H76.75V42.65H77.925C79.775 42.65 81.275 42.025 82.425 40.775C83.5917 39.525 84.175 37.6167 84.175 35.05C84.175 32.45 83.6 30.5583 82.45 29.375C81.3167 28.1917 79.8083 27.6 77.925 27.6H76.2V42.675ZM99.209 40.85C99.3757 40.6667 99.584 40.575 99.834 40.575C99.984 40.575 100.117 40.625 100.234 40.725C100.351 40.825 100.409 40.95 100.409 41.1C100.409 41.4 100.301 41.6833 100.084 41.95C98.984 43.3167 97.4507 44 95.484 44C93.534 44 92.059 43.475 91.059 42.425C90.0757 41.3583 89.584 39.8917 89.584 38.025C89.584 35.8917 90.084 34.2667 91.084 33.15C92.084 32.0167 93.534 31.45 95.434 31.45C96.9507 31.45 98.1673 31.8833 99.084 32.75C100.001 33.6167 100.459 34.8583 100.459 36.475C100.459 37.2917 99.984 37.7 99.034 37.7H92.309C92.2923 37.8333 92.284 38.0167 92.284 38.25C92.284 39.6833 92.5673 40.8167 93.134 41.65C93.7007 42.4833 94.5757 42.9 95.759 42.9C96.559 42.9 97.1923 42.7333 97.659 42.4C98.1257 42.0667 98.484 41.75 98.734 41.45C98.984 41.1333 99.1423 40.9333 99.209 40.85ZM95.284 32.45C94.484 32.45 93.8257 32.7917 93.309 33.475C92.7923 34.1583 92.484 35.2167 92.384 36.65H97.059C97.359 36.65 97.5757 36.6 97.709 36.5C97.8423 36.3833 97.909 36.1917 97.909 35.925C97.909 34.8083 97.6423 33.95 97.109 33.35C96.5923 32.75 95.984 32.45 95.284 32.45ZM112.207 31.45C112.44 31.45 112.632 31.5 112.782 31.6C112.932 31.6833 113.007 31.825 113.007 32.025C113.007 32.2917 112.965 32.5167 112.882 32.7L108.707 43.375C108.54 43.7917 108.057 44 107.257 44C106.94 44 106.657 43.95 106.407 43.85C106.174 43.75 106.015 43.5917 105.932 43.375L101.832 32.7C101.749 32.5167 101.707 32.325 101.707 32.125C101.707 31.675 102.015 31.45 102.632 31.45C103.065 31.45 103.465 31.5917 103.832 31.875C104.199 32.1417 104.482 32.5583 104.682 33.125L107.707 41.55H107.832L109.532 37.025C109.815 36.2583 110.057 35.55 110.257 34.9C110.457 34.2333 110.64 33.6 110.807 33C110.94 32.5 111.107 32.1167 111.307 31.85C111.507 31.5833 111.807 31.45 112.207 31.45ZM123.967 27.6C124.251 27.1333 124.509 26.8 124.742 26.6C124.992 26.3833 125.267 26.275 125.567 26.275C125.767 26.275 125.942 26.3333 126.092 26.45C126.242 26.55 126.317 26.6917 126.317 26.875C126.317 27.125 126.226 27.375 126.042 27.625L121.842 34.45L126.767 42.5C126.901 42.7167 126.967 42.95 126.967 43.2C126.967 43.4167 126.876 43.6083 126.692 43.775C126.509 43.925 126.276 44 125.992 44C125.492 44 125.092 43.9 124.792 43.7C124.509 43.5 124.234 43.1667 123.967 42.7L120.217 36.325H120.117L116.192 42.65C115.859 43.2 115.559 43.5667 115.292 43.75C115.042 43.9167 114.776 44 114.492 44C114.242 44 114.051 43.95 113.917 43.85C113.801 43.7333 113.742 43.6 113.742 43.45C113.742 43.2167 113.834 42.95 114.017 42.65L119.017 34.85L114.742 27.725C114.626 27.5417 114.567 27.3417 114.567 27.125C114.567 26.8917 114.659 26.6917 114.842 26.525C115.042 26.3583 115.276 26.275 115.542 26.275C116.359 26.275 117.009 26.7167 117.492 27.6L120.617 33.15H120.767L123.967 27.6Z" fill="black"/>
</g>
<path d="M857 483.1C857 481.367 857.367 480.1 858.1 479.3C858.9 478.5 860.067 478.1 861.6 478.1H875.9C899.3 478.1 911 489.8 911 513.2C911 521.933 909.167 529 905.5 534.4C901.9 539.733 897.467 543.5 892.2 545.7C887 547.9 881.733 549 876.4 549H861.6C860.067 549 858.9 548.6 858.1 547.8C857.367 547 857 545.733 857 544V483.1ZM867.8 543.7H870V543.6H874.7C882.1 543.6 888.1 541.1 892.7 536.1C897.367 531.1 899.7 523.467 899.7 513.2C899.7 502.8 897.4 495.233 892.8 490.5C888.267 485.767 882.233 483.4 874.7 483.4H867.8V543.7ZM959.836 536.4C960.503 535.667 961.336 535.3 962.336 535.3C962.936 535.3 963.469 535.5 963.936 535.9C964.403 536.3 964.636 536.8 964.636 537.4C964.636 538.6 964.203 539.733 963.336 540.8C958.936 546.267 952.803 549 944.936 549C937.136 549 931.236 546.9 927.236 542.7C923.303 538.433 921.336 532.567 921.336 525.1C921.336 516.567 923.336 510.067 927.336 505.6C931.336 501.067 937.136 498.8 944.736 498.8C950.803 498.8 955.669 500.533 959.336 504C963.003 507.467 964.836 512.433 964.836 518.9C964.836 522.167 962.936 523.8 959.136 523.8H932.236C932.169 524.333 932.136 525.067 932.136 526C932.136 531.733 933.269 536.267 935.536 539.6C937.803 542.933 941.303 544.6 946.036 544.6C949.236 544.6 951.769 543.933 953.636 542.6C955.503 541.267 956.936 540 957.936 538.8C958.936 537.533 959.569 536.733 959.836 536.4ZM944.136 502.8C940.936 502.8 938.303 504.167 936.236 506.9C934.169 509.633 932.936 513.867 932.536 519.6H951.236C952.436 519.6 953.303 519.4 953.836 519C954.369 518.533 954.636 517.767 954.636 516.7C954.636 512.233 953.569 508.8 951.436 506.4C949.369 504 946.936 502.8 944.136 502.8ZM1011.83 498.8C1012.76 498.8 1013.53 499 1014.13 499.4C1014.73 499.733 1015.03 500.3 1015.03 501.1C1015.03 502.167 1014.86 503.067 1014.53 503.8L997.828 546.5C997.161 548.167 995.228 549 992.028 549C990.761 549 989.628 548.8 988.628 548.4C987.695 548 987.061 547.367 986.728 546.5L970.328 503.8C969.995 503.067 969.828 502.3 969.828 501.5C969.828 499.7 971.061 498.8 973.528 498.8C975.261 498.8 976.861 499.367 978.328 500.5C979.795 501.567 980.928 503.233 981.728 505.5L993.828 539.2H994.328L1001.13 521.1C1002.26 518.033 1003.23 515.2 1004.03 512.6C1004.83 509.933 1005.56 507.4 1006.23 505C1006.76 503 1007.43 501.467 1008.23 500.4C1009.03 499.333 1010.23 498.8 1011.83 498.8ZM1058.87 483.4C1060 481.533 1061.04 480.2 1061.97 479.4C1062.97 478.533 1064.07 478.1 1065.27 478.1C1066.07 478.1 1066.77 478.333 1067.37 478.8C1067.97 479.2 1068.27 479.767 1068.27 480.5C1068.27 481.5 1067.9 482.5 1067.17 483.5L1050.37 510.8L1070.07 543C1070.6 543.867 1070.87 544.8 1070.87 545.8C1070.87 546.667 1070.5 547.433 1069.77 548.1C1069.04 548.7 1068.1 549 1066.97 549C1064.97 549 1063.37 548.6 1062.17 547.8C1061.04 547 1059.94 545.667 1058.87 543.8L1043.87 518.3H1043.47L1027.77 543.6C1026.44 545.8 1025.24 547.267 1024.17 548C1023.17 548.667 1022.1 549 1020.97 549C1019.97 549 1019.2 548.8 1018.67 548.4C1018.2 547.933 1017.97 547.4 1017.97 546.8C1017.97 545.867 1018.34 544.8 1019.07 543.6L1039.07 512.4L1021.97 483.9C1021.5 483.167 1021.27 482.367 1021.27 481.5C1021.27 480.567 1021.64 479.767 1022.37 479.1C1023.17 478.433 1024.1 478.1 1025.17 478.1C1028.44 478.1 1031.04 479.867 1032.97 483.4L1045.47 505.6H1046.07L1058.87 483.4Z" fill="black"/>
<g filter="url(#filter1_d_182_28)">
<rect x="1340" y="278" width="260" height="260" rx="130" fill="white"/>
<path d="M1384.49 415.284V417.42H1362.87V415.284H1372.36V410.248H1364.77V408.271H1368.3V400.835H1364.72V398.805H1382.51V400.835H1378.9V408.271H1382.43V410.248H1374.84V415.284H1384.49ZM1370.78 408.271H1376.45V400.835H1370.78V408.271ZM1405.37 409.193V411.197H1388.92V398.567H1405.14V400.598H1391.45V403.788H1404.64V405.766H1391.45V409.193H1405.37ZM1407.83 415.205V417.262H1386.21V415.205H1407.83ZM1429.05 397.223V399.121H1425.62V403.234H1428.95V405.106H1421.54V407.137H1431.08V409.114H1409.54V407.137H1419.03V405.106H1411.62V403.234H1414.97V399.121H1411.52V397.223H1429.05ZM1428.37 410.802V416.128H1414.6V418.105H1429.03V420.004H1412.15V414.361H1425.89V412.621H1412.12V410.802H1428.37ZM1417.45 403.234H1423.12V399.121H1417.45V403.234ZM1452.49 396.616V420.294H1449.99V396.616H1452.49ZM1445.27 398.752V407.374H1436.78V412.542C1440.6 412.529 1443.95 412.357 1447.9 411.698L1448.14 413.755C1443.95 414.467 1440.39 414.625 1436.22 414.625H1434.22V405.37H1442.71V400.782H1434.19V398.752H1445.27ZM1466.97 398.04C1472.03 398.066 1475.7 400.545 1475.7 404.315C1475.7 407.862 1472.62 410.195 1468.21 410.564V415.205H1477.83V417.288H1456.21V415.205H1465.73V410.564C1461.34 410.195 1458.27 407.862 1458.27 404.315C1458.27 400.545 1461.93 398.066 1466.97 398.04ZM1466.97 400.097C1463.33 400.07 1460.69 401.758 1460.69 404.315C1460.69 406.979 1463.33 408.613 1466.97 408.64C1470.63 408.613 1473.27 406.979 1473.27 404.315C1473.27 401.758 1470.63 400.07 1466.97 400.097ZM1507.76 415.231V417.314H1486.14V415.231H1495.66V410.38H1488.62V398.225H1491.12V402.285H1502.72V398.225H1505.2V410.38H1498.13V415.231H1507.76ZM1491.12 408.35H1502.72V404.315H1491.12V408.35ZM1522.63 398.409V399.728C1522.6 401.31 1522.6 403.656 1522.02 406.715L1519.54 406.478C1520.06 403.854 1520.14 401.956 1520.18 400.466H1510.71V398.409H1522.63ZM1516.59 403.709V408.587C1519.12 408.508 1521.73 408.323 1524.11 407.98L1524.26 409.8C1519.33 410.67 1513.69 410.749 1509.52 410.775L1509.29 408.745C1510.74 408.732 1512.39 408.719 1514.11 408.666V403.709H1516.59ZM1528.17 396.616V404.131H1531.41V406.24H1528.17V414.361H1525.61V396.616H1528.17ZM1528.93 417.71V419.74H1512.87V412.753H1515.38V417.71H1528.93ZM1551.21 396.616V406.188H1555.01V408.271H1551.21V420.241H1548.73V396.616H1551.21ZM1546.68 400.308V402.364H1532.67V400.308H1538.5V396.933H1541.01V400.308H1546.68ZM1539.77 404.104C1543.14 404.104 1545.62 406.372 1545.65 409.589C1545.62 412.832 1543.14 415.073 1539.77 415.1C1536.37 415.073 1533.89 412.832 1533.89 409.589C1533.89 406.372 1536.37 404.104 1539.77 404.104ZM1539.77 406.161C1537.76 406.161 1536.26 407.559 1536.29 409.589C1536.26 411.646 1537.76 413.017 1539.77 412.99C1541.77 413.017 1543.25 411.646 1543.25 409.589C1543.25 407.559 1541.77 406.161 1539.77 406.161ZM1575.79 396.616V420.241H1573.25V396.616H1575.79ZM1568.75 399.147C1568.75 406.056 1565.79 412.067 1557.7 415.943L1556.38 413.913C1562.67 410.92 1565.73 406.662 1566.21 401.151H1557.51V399.147H1568.75Z" fill="black"/>
</g>
<g filter="url(#filter2_d_182_28)">
<rect x="463" y="132" width="260" height="260" rx="130" fill="white"/>
<path d="M500.433 250.616V257.604H503.86V259.687H500.433V267.781H497.901V250.616H500.433ZM494.025 252.409C494.025 258.605 489.807 263.114 482.898 265.197L481.844 263.193C487.368 261.532 490.809 258.395 491.31 254.492H482.846V252.409H494.025ZM501.408 271.71V273.74H485.43V266.015H487.961V271.71H501.408ZM523.768 250.59V257.445H527.222V259.528H523.768V267.702H521.263V250.59H523.768ZM516.807 252.62V254.65H508.738V261.532C513.339 261.545 515.937 261.4 518.89 260.794L519.18 262.824C515.989 263.457 513.194 263.615 508.132 263.615H506.26V252.62H516.807ZM524.77 271.71V273.74H508.791V265.936H511.296V271.71H524.77ZM547.103 250.643V258.236H550.53V260.319H547.103V268.309H544.598V250.643H547.103ZM542.646 253.385V255.415H528.566V253.385H534.367V250.616H536.872V253.385H542.646ZM535.606 256.549C539.008 256.549 541.328 258.315 541.328 261.005C541.328 263.694 539.008 265.435 535.606 265.435C532.179 265.435 529.858 263.694 529.858 261.005C529.858 258.315 532.179 256.549 535.606 256.549ZM535.606 258.474C533.603 258.474 532.258 259.449 532.284 261.005C532.258 262.534 533.603 263.483 535.606 263.483C537.61 263.483 538.955 262.534 538.981 261.005C538.955 259.449 537.61 258.474 535.606 258.474ZM548.104 271.71V273.74H532.126V266.911H534.631V271.71H548.104ZM568.434 253.279V259.423H571.598V251.064H573.997V273.081H571.598V261.479H568.434V268.019H559.258V253.279H568.434ZM561.631 255.257V266.015H566.087V255.257H561.631ZM578.796 250.616V274.241H576.396V250.616H578.796ZM603.423 269.205V271.288H581.802V269.205H591.32V263.747H584.28V252.515H600.839V263.747H593.799V269.205H603.423ZM586.706 254.519V261.77H598.387V254.519H586.706ZM619.981 254.861C619.981 257.867 622.064 260.741 625.677 261.954L624.411 263.905C621.735 262.982 619.771 261.137 618.742 258.816C617.714 261.374 615.67 263.378 612.889 264.354L611.544 262.402C615.235 261.137 617.45 258.104 617.477 254.835V254.202H612.282V252.172H625.07V254.202H619.981V254.861ZM630.291 250.616V256.681H633.719V258.79H630.291V264.854H627.786V250.616H630.291ZM630.291 266.015V274.241H627.786V268.045H614.682V266.015H630.291ZM643.448 254.149C643.448 257.472 645.584 260.425 649.17 261.585L647.799 263.536C645.202 262.6 643.29 260.781 642.262 258.421C641.233 261.124 639.177 263.22 636.329 264.248L634.984 262.244C638.755 260.952 640.943 257.814 640.97 254.255V251.935H643.448V254.149ZM654.76 250.616V264.564H652.255V257.472H647.271V255.415H652.255V250.616H654.76ZM646.85 265.224C651.807 265.224 654.839 266.858 654.839 269.732C654.839 272.58 651.807 274.215 646.85 274.188C641.893 274.215 638.834 272.58 638.86 269.732C638.834 266.858 641.893 265.224 646.85 265.224ZM646.85 267.175C643.396 267.175 641.339 268.098 641.339 269.732C641.339 271.314 643.396 272.211 646.85 272.211C650.304 272.211 652.36 271.314 652.36 269.732C652.36 268.098 650.304 267.175 646.85 267.175ZM676.803 250.616V260.188H680.6V262.271H676.803V274.241H674.324V250.616H676.803ZM672.268 254.308V256.364H658.267V254.308H664.094V250.933H666.599V254.308H672.268ZM665.359 258.104C668.734 258.104 671.213 260.372 671.239 263.589C671.213 266.832 668.734 269.073 665.359 269.1C661.958 269.073 659.479 266.832 659.479 263.589C659.479 260.372 661.958 258.104 665.359 258.104ZM665.359 260.161C663.355 260.161 661.853 261.559 661.879 263.589C661.853 265.646 663.355 267.017 665.359 266.99C667.363 267.017 668.84 265.646 668.84 263.589C668.84 261.559 667.363 260.161 665.359 260.161ZM701.377 250.616V274.241H698.846V250.616H701.377ZM694.337 253.147C694.337 260.056 691.384 266.067 683.289 269.943L681.971 267.913C688.259 264.92 691.318 260.662 691.806 255.151H683.104V253.147H694.337Z" fill="black"/>
</g>
<g filter="url(#filter3_d_182_28)">
<rect x="1136" y="675" width="260" height="260" rx="130" fill="white"/>
<path d="M1190.09 793.616V817.241H1187.69V804.98H1184.77V816.107H1182.42V794.249H1184.77V802.95H1187.69V793.616H1190.09ZM1180.07 796.622C1180.05 802.845 1177.99 808.408 1171.24 812.231L1169.79 810.491C1175.04 807.525 1177.25 803.504 1177.65 798.679H1170.79V796.622H1180.07ZM1196.58 794.618V797.835H1202.78V794.618H1205.25V804.928H1194.13V794.618H1196.58ZM1196.58 802.924H1202.78V799.76H1196.58V802.924ZM1211.77 793.616V798.573H1215.2V800.604H1211.77V805.771H1209.26V793.616H1211.77ZM1211.77 806.8V812.759H1199.01V815H1212.58V817.004H1196.55V810.913H1209.29V808.777H1196.5V806.8H1211.77ZM1223.24 794.407C1226.8 794.434 1229.41 796.622 1229.43 799.707C1229.41 802.818 1226.8 804.98 1223.24 804.98C1219.65 804.98 1217.01 802.818 1217.01 799.707C1217.01 796.622 1219.65 794.434 1223.24 794.407ZM1223.24 796.517C1221.05 796.49 1219.44 797.782 1219.47 799.707C1219.44 801.658 1221.05 802.95 1223.24 802.95C1225.4 802.95 1227.01 801.658 1227.01 799.707C1227.01 797.782 1225.4 796.49 1223.24 796.517ZM1236.13 793.616V805.64H1233.63V793.616H1236.13ZM1236.13 806.721V812.68H1223.11V814.947H1236.92V816.951H1220.68V810.808H1233.65V808.725H1220.6V806.721H1236.13ZM1248.58 800.577C1248.58 804.532 1251.16 808.619 1254.8 810.175L1253.43 812.126C1250.65 810.9 1248.43 808.303 1247.34 805.139C1246.24 808.514 1244.01 811.388 1241.27 812.732L1239.82 810.755C1243.38 809.094 1246.02 804.638 1246.04 800.577V798.072H1240.64V795.989H1253.96V798.072H1248.58V800.577ZM1259.44 793.616V817.241H1256.93V793.616H1259.44ZM1282.96 795.409V796.728C1282.93 798.31 1282.93 800.656 1282.35 803.715L1279.87 803.478C1280.39 800.854 1280.47 798.956 1280.51 797.466H1271.04V795.409H1282.96ZM1276.92 800.709V805.587C1279.45 805.508 1282.06 805.323 1284.44 804.98L1284.59 806.8C1279.66 807.67 1274.02 807.749 1269.85 807.775L1269.62 805.745C1271.07 805.732 1272.72 805.719 1274.44 805.666V800.709H1276.92ZM1288.5 793.616V801.131H1291.74V803.24H1288.5V811.361H1285.94V793.616H1288.5ZM1289.26 814.71V816.74H1273.2V809.753H1275.71V814.71H1289.26ZM1312.75 793.616V817.294H1310.25V793.616H1312.75ZM1305.53 795.752V804.374H1297.04V809.542C1300.86 809.529 1304.21 809.357 1308.17 808.698L1308.4 810.755C1304.21 811.467 1300.65 811.625 1296.49 811.625H1294.48V802.37H1302.97V797.782H1294.46V795.752H1305.53ZM1334.88 793.616V803.188H1338.67V805.271H1334.88V817.241H1332.4V793.616H1334.88ZM1330.34 797.308V799.364H1316.34V797.308H1322.17V793.933H1324.67V797.308H1330.34ZM1323.43 801.104C1326.81 801.104 1329.29 803.372 1329.31 806.589C1329.29 809.832 1326.81 812.073 1323.43 812.1C1320.03 812.073 1317.55 809.832 1317.55 806.589C1317.55 803.372 1320.03 801.104 1323.43 801.104ZM1323.43 803.161C1321.43 803.161 1319.93 804.559 1319.95 806.589C1319.93 808.646 1321.43 810.017 1323.43 809.99C1325.44 810.017 1326.91 808.646 1326.91 806.589C1326.91 804.559 1325.44 803.161 1323.43 803.161ZM1359.45 793.616V817.241H1356.92V793.616H1359.45ZM1352.41 796.147C1352.41 803.056 1349.46 809.067 1341.36 812.943L1340.04 810.913C1346.33 807.92 1349.39 803.662 1349.88 798.151H1341.18V796.147H1352.41Z" fill="black"/>
</g>
<g filter="url(#filter4_d_182_28)">
<rect x="311" y="536" width="260" height="260" rx="130" fill="white"/>
<path d="M365.094 654.616V678.241H362.694V665.98H359.768V677.107H357.421V655.249H359.768V663.95H362.694V654.616H365.094ZM355.074 657.622C355.048 663.845 352.991 669.408 346.241 673.231L344.791 671.491C350.038 668.525 352.253 664.504 352.648 659.679H345.793V657.622H355.074ZM371.58 655.618V658.835H377.776V655.618H380.255V665.928H369.128V655.618H371.58ZM371.58 663.924H377.776V660.76H371.58V663.924ZM386.768 654.616V659.573H390.195V661.604H386.768V666.771H384.263V654.616H386.768ZM386.768 667.8V673.759H374.006V676H387.585V678.004H371.554V671.913H384.289V669.777H371.501V667.8H386.768ZM398.237 655.407C401.797 655.434 404.407 657.622 404.434 660.707C404.407 663.818 401.797 665.98 398.237 665.98C394.651 665.98 392.015 663.818 392.015 660.707C392.015 657.622 394.651 655.434 398.237 655.407ZM398.237 657.517C396.049 657.49 394.44 658.782 394.467 660.707C394.44 662.658 396.049 663.95 398.237 663.95C400.399 663.95 402.008 662.658 402.008 660.707C402.008 658.782 400.399 657.49 398.237 657.517ZM411.131 654.616V666.64H408.626V654.616H411.131ZM411.131 667.721V673.68H398.105V675.947H411.922V677.951H395.68V671.808H408.652V669.725H395.601V667.721H411.131ZM423.576 661.577C423.576 665.532 426.16 669.619 429.799 671.175L428.428 673.126C425.646 671.9 423.431 669.303 422.337 666.139C421.243 669.514 419.015 672.388 416.272 673.732L414.822 671.755C418.382 670.094 421.019 665.638 421.045 661.577V659.072H415.64V656.989H428.955V659.072H423.576V661.577ZM434.439 654.616V678.241H431.935V654.616H434.439ZM453.055 658.861C453.055 661.867 455.138 664.741 458.75 665.954L457.484 667.905C454.808 666.982 452.844 665.137 451.815 662.816C450.787 665.374 448.744 667.378 445.962 668.354L444.617 666.402C448.309 665.137 450.523 662.104 450.55 658.835V658.202H445.355V656.172H458.144V658.202H453.055V658.861ZM463.364 654.616V660.681H466.792V662.79H463.364V668.854H460.859V654.616H463.364ZM463.364 670.015V678.241H460.859V672.045H447.755V670.015H463.364ZM476.521 658.149C476.521 661.472 478.657 664.425 482.243 665.585L480.872 667.536C478.275 666.6 476.363 664.781 475.335 662.421C474.307 665.124 472.25 667.22 469.402 668.248L468.058 666.244C471.828 664.952 474.017 661.814 474.043 658.255V655.935H476.521V658.149ZM487.833 654.616V668.564H485.328V661.472H480.345V659.415H485.328V654.616H487.833ZM479.923 669.224C484.88 669.224 487.912 670.858 487.912 673.732C487.912 676.58 484.88 678.215 479.923 678.188C474.966 678.215 471.907 676.58 471.934 673.732C471.907 670.858 474.966 669.224 479.923 669.224ZM479.923 671.175C476.469 671.175 474.412 672.098 474.412 673.732C474.412 675.314 476.469 676.211 479.923 676.211C483.377 676.211 485.434 675.314 485.434 673.732C485.434 672.098 483.377 671.175 479.923 671.175ZM509.876 654.616V664.188H513.673V666.271H509.876V678.241H507.397V654.616H509.876ZM505.341 658.308V660.364H491.34V658.308H497.167V654.933H499.672V658.308H505.341ZM498.433 662.104C501.808 662.104 504.286 664.372 504.312 667.589C504.286 670.832 501.808 673.073 498.433 673.1C495.031 673.073 492.553 670.832 492.553 667.589C492.553 664.372 495.031 662.104 498.433 662.104ZM498.433 664.161C496.429 664.161 494.926 665.559 494.952 667.589C494.926 669.646 496.429 671.017 498.433 670.99C500.437 671.017 501.913 669.646 501.913 667.589C501.913 665.559 500.437 664.161 498.433 664.161ZM534.45 654.616V678.241H531.919V654.616H534.45ZM527.41 657.147C527.41 664.056 524.457 670.067 516.362 673.943L515.044 671.913C521.333 668.92 524.391 664.662 524.879 659.151H516.178V657.147H527.41Z" fill="black"/>
</g>
<rect x="1556.25" y="839.25" width="241.5" height="95.5" rx="47.75" fill="white"/>
<rect x="1556.25" y="839.25" width="241.5" height="95.5" rx="47.75" stroke="black" stroke-width="0.5"/>
<path d="M1620.48 883H1616.74V870.98H1620.63C1624.13 870.98 1626.21 873.238 1626.21 876.974C1626.21 880.726 1624.13 883 1620.48 883ZM1618.24 881.672H1620.38C1623.33 881.672 1624.74 879.896 1624.74 876.974C1624.74 874.068 1623.33 872.309 1620.53 872.309H1618.24V881.672ZM1632 883.183C1629.39 883.183 1627.78 881.34 1627.78 878.567C1627.78 875.795 1629.41 873.869 1631.87 873.869C1633.76 873.869 1635.75 875.031 1635.75 878.368V878.966H1629.21C1629.28 880.875 1630.39 881.921 1632 881.921C1633.08 881.921 1633.76 881.456 1634.09 880.892H1635.62C1635.19 882.253 1633.86 883.183 1632 883.183ZM1629.23 877.754H1634.31C1634.31 876.243 1633.34 875.131 1631.87 875.131C1630.31 875.131 1629.31 876.359 1629.23 877.754ZM1644.75 873.985L1641.41 883H1639.94L1636.61 873.985H1638.18L1640.63 881.141H1640.73L1643.19 873.985H1644.75ZM1647.27 870.98L1650.33 875.944H1650.43L1653.5 870.98H1655.26L1651.49 876.99L1655.26 883H1653.5L1650.43 878.136H1650.33L1647.26 883H1645.5L1649.36 876.99L1645.5 870.98H1647.27ZM1671.88 869.586V875.596H1674.27V876.691H1671.88V884.345H1670.58V869.586H1671.88ZM1668.06 871.18C1668.06 875.363 1666.1 879.165 1661.28 881.539L1660.55 880.51C1664.37 878.609 1666.45 875.77 1666.75 872.275H1661.23V871.18H1668.06ZM1692.91 878.169V879.248H1686.75V884.345H1685.47V879.248H1679.4V878.169H1692.91ZM1691.15 870.416V876.16H1681.14V870.416H1691.15ZM1682.42 871.479V875.131H1689.86V871.479H1682.42ZM1706.34 869.586V879.729H1705.03V874.716H1701.96C1701.67 876.5 1700.15 877.721 1698.17 877.721C1695.97 877.721 1694.34 876.243 1694.34 874.151C1694.34 872.043 1695.97 870.599 1698.17 870.599C1700.17 870.599 1701.71 871.819 1701.96 873.653H1705.03V869.586H1706.34ZM1698.17 871.711C1696.66 871.711 1695.58 872.757 1695.58 874.151C1695.58 875.596 1696.66 876.608 1698.17 876.608C1699.62 876.608 1700.73 875.596 1700.73 874.151C1700.73 872.757 1699.62 871.711 1698.17 871.711ZM1702.24 879.132C1702.22 881.224 1704.63 882.801 1707.27 883.216L1706.72 884.262C1704.5 883.863 1702.44 882.701 1701.56 880.991C1700.67 882.685 1698.61 883.863 1696.38 884.262L1695.9 883.216C1698.47 882.784 1700.9 881.157 1700.91 879.132V878.551H1702.24V879.132ZM1720.98 869.603V880.394H1719.69V869.603H1720.98ZM1721.45 882.934V884.029H1711.45V879.298H1712.75V882.934H1721.45ZM1713.02 870.632C1715.22 870.632 1716.88 872.126 1716.88 874.251C1716.88 876.409 1715.22 877.887 1713.02 877.887C1710.81 877.887 1709.15 876.409 1709.15 874.251C1709.15 872.126 1710.81 870.632 1713.02 870.632ZM1713.02 871.777C1711.52 871.777 1710.41 872.807 1710.43 874.251C1710.41 875.729 1711.52 876.741 1713.02 876.741C1714.48 876.741 1715.6 875.729 1715.6 874.251C1715.6 872.807 1714.48 871.777 1713.02 871.777ZM1728.77 874.118C1728.77 876.625 1730.6 879.165 1732.77 880.111L1732.04 881.141C1730.31 880.352 1728.82 878.65 1728.14 876.608C1727.44 878.775 1725.96 880.659 1724.27 881.506L1723.49 880.477C1725.6 879.464 1727.44 876.675 1727.46 874.118V872.192H1723.97V871.113H1732.29V872.192H1728.77V874.118ZM1735.66 869.586V884.345H1734.35V869.586H1735.66ZM1647.64 889.586V892.79H1649.86V893.886H1647.64V897.106H1646.34V889.586H1647.64ZM1647.64 897.804V901.406H1639.54V903.1H1648.19V904.146H1638.26V900.41H1646.34V898.85H1638.23V897.804H1647.64ZM1640.22 890.134C1642.44 890.15 1644.05 891.479 1644.05 893.404C1644.05 895.347 1642.44 896.691 1640.22 896.691C1638.01 896.691 1636.37 895.347 1636.38 893.404C1636.37 891.479 1638.01 890.15 1640.22 890.134ZM1640.22 891.229C1638.74 891.213 1637.64 892.126 1637.66 893.404C1637.64 894.699 1638.74 895.629 1640.22 895.629C1641.69 895.629 1642.77 894.699 1642.77 893.404C1642.77 892.126 1641.69 891.213 1640.22 891.229ZM1662.46 890.964C1662.46 893.039 1665.19 894.849 1667.84 895.214L1667.31 896.276C1665.02 895.895 1662.75 894.625 1661.8 892.807C1660.85 894.633 1658.58 895.895 1656.29 896.276L1655.76 895.214C1658.41 894.849 1661.12 893.072 1661.12 890.964V890.117H1662.46V890.964ZM1668.51 897.903V898.999H1662.4V904.345H1661.12V898.999H1655.06V897.903H1668.51ZM1679.02 899.497C1679.02 900.8 1679.71 902.187 1681.12 902.983C1682.52 902.112 1683.27 900.643 1683.27 899.497V898.684H1684.54V899.497C1684.54 901.008 1685.66 902.535 1687.55 903.183L1686.9 904.146C1685.42 903.623 1684.39 902.593 1683.88 901.356C1683.42 902.552 1682.52 903.681 1681.16 904.262C1679.72 903.714 1678.81 902.626 1678.37 901.39C1677.84 902.585 1676.82 903.614 1675.41 904.146L1674.75 903.183C1676.61 902.485 1677.74 900.908 1677.75 899.497V898.684H1679.02V899.497ZM1686.2 889.603V898.036H1684.91V889.603H1686.2ZM1678.23 890.466C1680.48 890.466 1682.1 891.86 1682.1 893.919C1682.1 895.944 1680.48 897.339 1678.23 897.339C1675.99 897.339 1674.37 895.944 1674.37 893.919C1674.37 891.86 1675.99 890.466 1678.23 890.466ZM1678.23 891.578C1676.72 891.562 1675.63 892.541 1675.65 893.919C1675.63 895.28 1676.72 896.243 1678.23 896.26C1679.73 896.243 1680.82 895.28 1680.82 893.919C1680.82 892.541 1679.73 891.562 1678.23 891.578ZM1692.68 890.731C1694.69 890.748 1696.13 892.466 1696.35 895.23H1699.65V889.586H1700.95V904.378H1699.65V896.31H1696.36C1696.21 899.198 1694.74 901.008 1692.68 901.008C1690.5 901.008 1688.98 899.016 1688.98 895.878C1688.98 892.74 1690.5 890.748 1692.68 890.731ZM1692.68 891.894C1691.22 891.91 1690.22 893.471 1690.22 895.878C1690.22 898.285 1691.22 899.846 1692.68 899.846C1694.12 899.846 1695.14 898.285 1695.14 895.878C1695.14 893.471 1694.12 891.91 1692.68 891.894ZM1716.92 901.356V902.452H1703.4V901.356H1706.76V897.372C1705.49 896.716 1704.73 895.654 1704.73 894.317C1704.73 892.026 1706.97 890.532 1710.13 890.516C1713.28 890.532 1715.52 892.026 1715.52 894.317C1715.52 895.629 1714.78 896.683 1713.56 897.339V901.356H1716.92ZM1710.13 891.595C1707.7 891.578 1705.99 892.674 1705.99 894.317C1705.99 895.961 1707.7 897.073 1710.13 897.073C1712.53 897.073 1714.26 895.961 1714.26 894.317C1714.26 892.674 1712.53 891.578 1710.13 891.595ZM1708.03 901.356H1712.25V897.837C1711.61 898.011 1710.9 898.103 1710.13 898.103C1709.37 898.103 1708.67 898.02 1708.03 897.854V901.356Z" fill="black"/>
<line x1="1530.14" y1="846.795" x2="1560.14" y2="867.795" stroke="black" stroke-width="0.5"/>
</g>
<defs>
<filter id="filter0_d_182_28" x="-8" y="-8" width="1936" height="86" filterUnits="userSpaceOnUse" color-interpolation-filters="sRGB">
<feFlood flood-opacity="0" result="BackgroundImageFix"/>
<feColorMatrix in="SourceAlpha" type="matrix" values="0 0 0 0 0 0 0 0 0 0 0 0 0 0 0 0 0 0 127 0" result="hardAlpha"/>
<feOffset/>
<feGaussianBlur stdDeviation="4"/>
<feComposite in2="hardAlpha" operator="out"/>
<feColorMatrix type="matrix" values="0 0 0 0 0.891667 0 0 0 0 0.891667 0 0 0 0 0.891667 0 0 0 1 0"/>
<feBlend mode="normal" in2="BackgroundImageFix" result="effect1_dropShadow_182_28"/>
<feBlend mode="normal" in="SourceGraphic" in2="effect1_dropShadow_182_28" result="shape"/>
</filter>
<filter id="filter1_d_182_28" x="1336" y="278" width="268" height="268" filterUnits="userSpaceOnUse" color-interpolation-filters="sRGB">
<feFlood flood-opacity="0" result="BackgroundImageFix"/>
<feColorMatrix in="SourceAlpha" type="matrix" values="0 0 0 0 0 0 0 0 0 0 0 0 0 0 0 0 0 0 127 0" result="hardAlpha"/>
<feOffset dy="4"/>
<feGaussianBlur stdDeviation="2"/>
<feComposite in2="hardAlpha" operator="out"/>
<feColorMatrix type="matrix" values="0 0 0 0 0 0 0 0 0 0 0 0 0 0 0 0 0 0 0.25 0"/>
<feBlend mode="normal" in2="BackgroundImageFix" result="effect1_dropShadow_182_28"/>
<feBlend mode="normal" in="SourceGraphic" in2="effect1_dropShadow_182_28" result="shape"/>
</filter>
<filter id="filter2_d_182_28" x="459" y="132" width="268" height="268" filterUnits="userSpaceOnUse" color-interpolation-filters="sRGB">
<feFlood flood-opacity="0" result="BackgroundImageFix"/>
<feColorMatrix in="SourceAlpha" type="matrix" values="0 0 0 0 0 0 0 0 0 0 0 0 0 0 0 0 0 0 127 0" result="hardAlpha"/>
<feOffset dy="4"/>
<feGaussianBlur stdDeviation="2"/>
<feComposite in2="hardAlpha" operator="out"/>
<feColorMatrix type="matrix" values="0 0 0 0 0 0 0 0 0 0 0 0 0 0 0 0 0 0 0.25 0"/>
<feBlend mode="normal" in2="BackgroundImageFix" result="effect1_dropShadow_182_28"/>
<feBlend mode="normal" in="SourceGraphic" in2="effect1_dropShadow_182_28" result="shape"/>
</filter>
<filter id="filter3_d_182_28" x="1132" y="675" width="268" height="268" filterUnits="userSpaceOnUse" color-interpolation-filters="sRGB">
<feFlood flood-opacity="0" result="BackgroundImageFix"/>
<feColorMatrix in="SourceAlpha" type="matrix" values="0 0 0 0 0 0 0 0 0 0 0 0 0 0 0 0 0 0 127 0" result="hardAlpha"/>
<feOffset dy="4"/>
<feGaussianBlur stdDeviation="2"/>
<feComposite in2="hardAlpha" operator="out"/>
<feColorMatrix type="matrix" values="0 0 0 0 0 0 0 0 0 0 0 0 0 0 0 0 0 0 0.25 0"/>
<feBlend mode="normal" in2="BackgroundImageFix" result="effect1_dropShadow_182_28"/>
<feBlend mode="normal" in="SourceGraphic" in2="effect1_dropShadow_182_28" result="shape"/>
</filter>
<filter id="filter4_d_182_28" x="307" y="536" width="268" height="268" filterUnits="userSpaceOnUse" color-interpolation-filters="sRGB">
<feFlood flood-opacity="0" result="BackgroundImageFix"/>
<feColorMatrix in="SourceAlpha" type="matrix" values="0 0 0 0 0 0 0 0 0 0 0 0 0 0 0 0 0 0 127 0" result="hardAlpha"/>
<feOffset dy="4"/>
<feGaussianBlur stdDeviation="2"/>
<feComposite in2="hardAlpha" operator="out"/>
<feColorMatrix type="matrix" values="0 0 0 0 0 0 0 0 0 0 0 0 0 0 0 0 0 0 0.25 0"/>
<feBlend mode="normal" in2="BackgroundImageFix" result="effect1_dropShadow_182_28"/>
<feBlend mode="normal" in="SourceGraphic" in2="effect1_dropShadow_182_28" result="shape"/>
</filter>
<clipPath id="clip0_182_28">
<rect width="1920" height="1024" fill="white"/>
</clipPath>
</defs>
</svg>
